;TYPE=PLATED
;Layer: PTH_Through
;EasyEDA Pro v2.1.42.467b0aa0, 2024-01-03 14:17:13
;Gerber Generator version 0.3
M48
METRIC,LZ,000.00000
;Hole size 1 = 0.30500 METRIC
T01C0.30500
;Hole size 2 = 0.70002 METRIC
T02C0.70002
;Hole size 3 = 0.90002 METRIC
T03C0.90002
;Hole size 4 = 1.00000 METRIC
T04C1.00000
;Hole size 5 = 1.30002 METRIC
T05C1.30002
%
G05
G90
T01
X07499172Y02226132
X07626172Y02226132
X07753172Y02226132
X07880172Y02226132
X08007172Y02226132
X06991172Y00750748
X07118172Y00750748
X07372172Y00750748
X07499172Y00750748
X07626172Y00750748
X07753172Y00750748
X07880172Y00750748
X08007172Y00750748
X07372172Y02226132
X07245350Y02202180
X07123430Y02192020
X06995160Y02194560
X06498590Y02028190
X06587490Y01911350
X06672580Y01790700
X06756400Y01663700
X06347460Y02185670
X06871970Y01656080
X06107430Y00576580
X06517640Y00994410
X06758940Y01277620
X06799580Y01400810
X06529070Y01176020
X06206490Y00501650
X05166360Y01478280
X06005093Y00385343
X04366260Y01154430
X03469640Y01000760
X03662680Y01000760
X04268470Y01168400
X04038600Y01056640
X04536440Y01148080
X03281680Y01569720
X03281680Y01452880
X04634230Y01550670
X04632960Y01473200
X03246120Y01847850
X03741420Y01414780
X04758690Y00406400
X04700270Y02346960
X03806190Y01446530
X03149600Y01812290
X03092450Y01163320
X03042920Y01339850
X04884420Y01557020
X04864100Y01375410
X03613150Y00918210
X05181600Y01012190
X05643880Y01558290
X07288848Y01533279
X07437010Y01533279
X07428862Y01673268
X07437010Y01813283
X07292340Y01623060
X07148858Y01583266
X07058856Y01533279
X07040880Y01790700
X07263130Y01828800
X04632960Y01396507
X02700619Y02012102
X03051810Y02164080
X03162300Y02138680
X04970780Y01557020
X05806440Y02190750
X05634990Y02192020
X05298440Y02185670
X02785110Y00808990
X02731770Y01014730
X05773420Y01557020
X05863830Y01557020
X07363460Y02612390
X06082030Y02212340
X02801620Y01924050
X03241040Y01736090
X04926330Y01270000
X04913630Y01464310
X04109720Y02145030
X02819400Y01075690
X04147309Y01446086
X04387091Y01436864
X04267200Y01370770
X03995420Y02145030
T02
X02694018Y01127519G85X02624021Y01127519
X02694015Y01827517G85X02624018Y01827517
X04947920Y02600960
X04947920Y02473960
X04947920Y02346960
T03
X02928991Y01727518
X02928991Y01227519
T04
X02667000Y02357120
X02921000Y02357120
X03175000Y02357120
X03429000Y02357120
X03683000Y02357120
X03937000Y02357120
X04191000Y02357120
X04445000Y02357120
X02667000Y02626360
X02921000Y02626360
X03175000Y02626360
X03429000Y02626360
X03683000Y02626360
X03937000Y02626360
X04191000Y02626360
X04445000Y02626360
X02667000Y00614680
X02921000Y00614680
X03175000Y00614680
X03429000Y00614680
X03683000Y00614680
X03937000Y00614680
X04191000Y00614680
X04445000Y00614680
X02667000Y00345440
X02921000Y00345440
X03175000Y00345440
X03429000Y00345440
X03683000Y00345440
X03937000Y00345440
X04191000Y00345440
X04445000Y00345440
T05
X05339080Y02499360
X05593080Y02499360
M30