G04 Layer: DrillDrawingLayer*
G04 EasyEDA Pro v2.1.42.467b0aa0, 2024-01-03 14:17:13*
G04 Gerber Generator version 0.3*
G04 Scale: 100 percent, Rotated: No, Reflected: No*
G04 Dimensions in millimeters*
G04 Leading zeros omitted, absolute positions, 3 integers and 5 decimals*
%FSLAX35Y35*%
%MOMM*%
%ADD10C,0.254*%
G75*


G04 Image Start*
G36*
G01X2909062Y1747469D02*
G01X2909062Y1743812D01*
G01X2912669D01*
G01X2945282D01*
G01Y1711198D01*
G01X2912669D01*
G01Y1743812D01*
G01X2909062D01*
G01Y1707591D01*
G01X2948940D01*
G01Y1747469D01*
G37*
G36*
G01X2909062Y1247445D02*
G01X2909062Y1243838D01*
G01X2912669D01*
G01X2945282D01*
G01Y1211224D01*
G01X2912669D01*
G01Y1243838D01*
G01X2909062D01*
G01Y1207567D01*
G01X2948940D01*
G01Y1247445D01*
G37*
G36*
G01X2659024Y1147470D02*
G01X2656992Y1147369D01*
G01X2655011Y1147064D01*
G01X2653081Y1146556D01*
G01X2651252Y1145896D01*
G01X2649525Y1145032D01*
G01X2647848Y1144067D01*
G01X2646324Y1142898D01*
G01X2644902Y1141628D01*
G01X2643632Y1140206D01*
G01X2642464Y1138682D01*
G01X2641498Y1137006D01*
G01X2640635Y1135278D01*
G01X2639974Y1133450D01*
G01X2639466Y1131519D01*
G01X2639162Y1129538D01*
G01X2639060Y1127506D01*
G01X2642413D01*
G01X2642514Y1129233D01*
G01X2642718Y1130859D01*
G01X2643175Y1132434D01*
G01X2643734Y1133958D01*
G01X2644394Y1135431D01*
G01X2645258Y1136802D01*
G01X2646223Y1138072D01*
G01X2647290Y1139241D01*
G01X2648458Y1140358D01*
G01X2649728Y1141273D01*
G01X2651100Y1142136D01*
G01X2652573Y1142848D01*
G01X2654097Y1143406D01*
G01X2655672Y1143813D01*
G01X2657348Y1144067D01*
G01X2659024Y1144118D01*
G01X2660701Y1144067D01*
G01X2662377Y1143813D01*
G01X2663952Y1143406D01*
G01X2665476Y1142848D01*
G01X2666949Y1142136D01*
G01X2668321Y1141273D01*
G01X2669591Y1140358D01*
G01X2670759Y1139241D01*
G01X2671826Y1138072D01*
G01X2672791Y1136802D01*
G01X2673604Y1135431D01*
G01X2674315Y1133958D01*
G01X2674874Y1132434D01*
G01X2675280Y1130859D01*
G01X2675534Y1129233D01*
G01X2675636Y1127506D01*
G01X2675534Y1125830D01*
G01X2675280Y1124153D01*
G01X2674874Y1122578D01*
G01X2674315Y1121054D01*
G01X2673604Y1119581D01*
G01X2672791Y1118260D01*
G01X2671826Y1116940D01*
G01X2670759Y1115771D01*
G01X2669591Y1114704D01*
G01X2668321Y1113739D01*
G01X2666949Y1112926D01*
G01X2665476Y1112215D01*
G01X2663952Y1111656D01*
G01X2662377Y1111250D01*
G01X2660701Y1110996D01*
G01X2659024Y1110894D01*
G01X2657348Y1110996D01*
G01X2655672Y1111250D01*
G01X2654097Y1111656D01*
G01X2652573Y1112215D01*
G01X2651100Y1112926D01*
G01X2649728Y1113739D01*
G01X2648458Y1114704D01*
G01X2647290Y1115771D01*
G01X2646223Y1116940D01*
G01X2645258Y1118260D01*
G01X2644394Y1119581D01*
G01X2643734Y1121054D01*
G01X2643175Y1122578D01*
G01X2642718Y1124153D01*
G01X2642514Y1125830D01*
G01X2642413Y1127506D01*
G01X2639060D01*
G01X2639162Y1125474D01*
G01X2639466Y1123493D01*
G01X2639974Y1121613D01*
G01X2640635Y1119734D01*
G01X2641498Y1118006D01*
G01X2642464Y1116381D01*
G01X2643632Y1114857D01*
G01X2644902Y1113434D01*
G01X2646324Y1112114D01*
G01X2647848Y1110996D01*
G01X2649525Y1109980D01*
G01X2651252Y1109167D01*
G01X2653081Y1108456D01*
G01X2655011Y1107999D01*
G01X2656992Y1107694D01*
G01X2659024Y1107592D01*
G01X2661056Y1107694D01*
G01X2663038Y1107999D01*
G01X2664968Y1108456D01*
G01X2666797Y1109167D01*
G01X2668524Y1109980D01*
G01X2670150Y1110996D01*
G01X2671724Y1112114D01*
G01X2673096Y1113434D01*
G01X2674417Y1114857D01*
G01X2675534Y1116381D01*
G01X2676550Y1118006D01*
G01X2677414Y1119734D01*
G01X2678074Y1121613D01*
G01X2678532Y1123493D01*
G01X2678836Y1125474D01*
G01X2678938Y1127506D01*
G01X2678836Y1129538D01*
G01X2678532Y1131519D01*
G01X2678074Y1133450D01*
G01X2677414Y1135278D01*
G01X2676550Y1137006D01*
G01X2675534Y1138682D01*
G01X2674417Y1140206D01*
G01X2673096Y1141628D01*
G01X2671724Y1142898D01*
G01X2670150Y1144067D01*
G01X2668524Y1145032D01*
G01X2666797Y1145896D01*
G01X2664968Y1146556D01*
G01X2663038Y1147064D01*
G01X2661056Y1147369D01*
G37*
G36*
G01X2659024Y1847444D02*
G01X2656992Y1847342D01*
G01X2655011Y1847037D01*
G01X2653081Y1846580D01*
G01X2651252Y1845869D01*
G01X2649525Y1845056D01*
G01X2647848Y1844040D01*
G01X2646324Y1842922D01*
G01X2644902Y1841602D01*
G01X2643632Y1840179D01*
G01X2642464Y1838655D01*
G01X2641498Y1837030D01*
G01X2640635Y1835302D01*
G01X2639974Y1833423D01*
G01X2639466Y1831543D01*
G01X2639162Y1829562D01*
G01X2639060Y1827530D01*
G01X2642413D01*
G01X2642464Y1829206D01*
G01X2642718Y1830883D01*
G01X2643124Y1832458D01*
G01X2643734Y1833982D01*
G01X2644394Y1835455D01*
G01X2645258Y1836776D01*
G01X2646223Y1838096D01*
G01X2647290Y1839265D01*
G01X2648458Y1840332D01*
G01X2649728Y1841297D01*
G01X2651100Y1842110D01*
G01X2652573Y1842821D01*
G01X2654097Y1843380D01*
G01X2655672Y1843786D01*
G01X2657297Y1844040D01*
G01X2659024Y1844142D01*
G01X2660701Y1844040D01*
G01X2662377Y1843786D01*
G01X2663952Y1843380D01*
G01X2665476Y1842821D01*
G01X2666949Y1842110D01*
G01X2668321Y1841297D01*
G01X2669591Y1840332D01*
G01X2670759Y1839265D01*
G01X2671826Y1838096D01*
G01X2672791Y1836776D01*
G01X2673604Y1835455D01*
G01X2674315Y1833982D01*
G01X2674874Y1832458D01*
G01X2675280Y1830883D01*
G01X2675534Y1829206D01*
G01X2675636Y1827530D01*
G01X2675534Y1825803D01*
G01X2675280Y1824177D01*
G01X2674874Y1822602D01*
G01X2674315Y1821078D01*
G01X2673604Y1819605D01*
G01X2672791Y1818234D01*
G01X2671826Y1816964D01*
G01X2670759Y1815795D01*
G01X2669591Y1814678D01*
G01X2668321Y1813763D01*
G01X2666949Y1812900D01*
G01X2665476Y1812188D01*
G01X2663952Y1811630D01*
G01X2662377Y1811223D01*
G01X2660701Y1810969D01*
G01X2659024Y1810918D01*
G01X2657297Y1810969D01*
G01X2655672Y1811223D01*
G01X2654097Y1811630D01*
G01X2652573Y1812188D01*
G01X2651100Y1812900D01*
G01X2649728Y1813763D01*
G01X2648458Y1814678D01*
G01X2647290Y1815795D01*
G01X2646223Y1816964D01*
G01X2645258Y1818234D01*
G01X2644394Y1819605D01*
G01X2643734Y1821078D01*
G01X2643124Y1822602D01*
G01X2642718Y1824177D01*
G01X2642464Y1825803D01*
G01X2642413Y1827530D01*
G01X2639060D01*
G01X2639162Y1825498D01*
G01X2639466Y1823517D01*
G01X2639974Y1821586D01*
G01X2640635Y1819758D01*
G01X2641498Y1818030D01*
G01X2642464Y1816354D01*
G01X2643632Y1814830D01*
G01X2644902Y1813408D01*
G01X2646324Y1812138D01*
G01X2647848Y1810969D01*
G01X2649525Y1810004D01*
G01X2651252Y1809140D01*
G01X2653081Y1808480D01*
G01X2655011Y1807972D01*
G01X2656992Y1807667D01*
G01X2659024Y1807566D01*
G01X2661056Y1807667D01*
G01X2663038Y1807972D01*
G01X2664968Y1808480D01*
G01X2666797Y1809140D01*
G01X2668524Y1810004D01*
G01X2670150Y1810969D01*
G01X2671724Y1812138D01*
G01X2673096Y1813408D01*
G01X2674417Y1814830D01*
G01X2675534Y1816354D01*
G01X2676550Y1818030D01*
G01X2677414Y1819758D01*
G01X2678074Y1821586D01*
G01X2678532Y1823517D01*
G01X2678836Y1825498D01*
G01X2678938Y1827530D01*
G01X2678836Y1829562D01*
G01X2678532Y1831543D01*
G01X2678074Y1833423D01*
G01X2677414Y1835302D01*
G01X2676550Y1837030D01*
G01X2675534Y1838655D01*
G01X2674417Y1840179D01*
G01X2673096Y1841602D01*
G01X2671724Y1842922D01*
G01X2670150Y1844040D01*
G01X2668524Y1845056D01*
G01X2666797Y1845869D01*
G01X2664968Y1846580D01*
G01X2663038Y1847037D01*
G01X2661056Y1847342D01*
G37*
G36*
G01X5319166Y2516632D02*
G01X5321097Y2513279D01*
G01X5324907D01*
G01X5353253D01*
G01X5346192Y2501036D01*
G01X5339080Y2488743D01*
G01X5331968Y2501036D01*
G01X5324907Y2513279D01*
G01X5321097D01*
G01X5339080Y2482088D01*
G01X5349037Y2499360D01*
G01X5359044Y2516632D01*
G37*
G36*
G01X5573166Y2516632D02*
G01X5575097Y2513279D01*
G01X5578907D01*
G01X5607253D01*
G01X5600192Y2501036D01*
G01X5593080Y2488743D01*
G01X5585968Y2501036D01*
G01X5578907Y2513279D01*
G01X5575097D01*
G01X5593080Y2482088D01*
G01X5603037Y2499360D01*
G01X5613044Y2516632D01*
G37*
G36*
G01X4947920Y2623972D02*
G01X4942180Y2610917D01*
G01X4928006Y2612492D01*
G01X4936388Y2600960D01*
G01X4931105Y2593696D01*
G01X4935322D01*
G01X4939182Y2598928D01*
G01X4940656Y2600960D01*
G01X4939182Y2602992D01*
G01X4935322Y2608224D01*
G01X4941773Y2607564D01*
G01X4944262Y2607259D01*
G01X4945278Y2609545D01*
G01X4947920Y2615540D01*
G01X4950562Y2609545D01*
G01X4951578Y2607259D01*
G01X4954067Y2607513D01*
G01X4960518Y2608224D01*
G01X4956658Y2602992D01*
G01X4955184Y2600960D01*
G01X4956658Y2598928D01*
G01X4960518Y2593696D01*
G01X4954067Y2594356D01*
G01X4951578Y2594661D01*
G01X4950562Y2592375D01*
G01X4947920Y2586380D01*
G01X4945278Y2592375D01*
G01X4944262Y2594661D01*
G01X4941773Y2594356D01*
G01X4935322Y2593696D01*
G01X4931105D01*
G01X4928006Y2589428D01*
G01X4942180Y2591003D01*
G01X4947920Y2577948D01*
G01X4953660Y2591003D01*
G01X4967884Y2589428D01*
G01X4959452Y2600960D01*
G01X4967884Y2612492D01*
G01X4953660Y2610917D01*
G37*
G36*
G01X4947920Y2496972D02*
G01X4942180Y2483917D01*
G01X4928006Y2485492D01*
G01X4936388Y2473960D01*
G01X4931105Y2466696D01*
G01X4935322D01*
G01X4939182Y2471928D01*
G01X4940656Y2473960D01*
G01X4939182Y2475992D01*
G01X4935322Y2481224D01*
G01X4941773Y2480564D01*
G01X4944262Y2480259D01*
G01X4945278Y2482545D01*
G01X4947920Y2488540D01*
G01X4950562Y2482545D01*
G01X4951578Y2480259D01*
G01X4954067Y2480513D01*
G01X4960518Y2481224D01*
G01X4956658Y2475992D01*
G01X4955184Y2473960D01*
G01X4956658Y2471928D01*
G01X4960518Y2466696D01*
G01X4954067Y2467356D01*
G01X4951578Y2467661D01*
G01X4950562Y2465375D01*
G01X4947920Y2459380D01*
G01X4945278Y2465375D01*
G01X4944262Y2467661D01*
G01X4941773Y2467356D01*
G01X4935322Y2466696D01*
G01X4931105D01*
G01X4928006Y2462428D01*
G01X4942180Y2464003D01*
G01X4947920Y2450948D01*
G01X4953660Y2464003D01*
G01X4967884Y2462428D01*
G01X4959452Y2473960D01*
G01X4967884Y2485492D01*
G01X4953660Y2483917D01*
G37*
G36*
G01X4947920Y2369972D02*
G01X4942180Y2356917D01*
G01X4928006Y2358492D01*
G01X4936388Y2346960D01*
G01X4931105Y2339696D01*
G01X4935322D01*
G01X4939182Y2344928D01*
G01X4940656Y2346960D01*
G01X4939182Y2348992D01*
G01X4935322Y2354224D01*
G01X4941773Y2353564D01*
G01X4944262Y2353259D01*
G01X4945278Y2355545D01*
G01X4947920Y2361540D01*
G01X4950562Y2355545D01*
G01X4951578Y2353259D01*
G01X4954067Y2353513D01*
G01X4960518Y2354224D01*
G01X4956658Y2348992D01*
G01X4955184Y2346960D01*
G01X4956658Y2344928D01*
G01X4960518Y2339696D01*
G01X4954067Y2340356D01*
G01X4951578Y2340661D01*
G01X4950562Y2338375D01*
G01X4947920Y2332380D01*
G01X4945278Y2338375D01*
G01X4944262Y2340661D01*
G01X4941773Y2340356D01*
G01X4935322Y2339696D01*
G01X4931105D01*
G01X4928006Y2335428D01*
G01X4942180Y2337003D01*
G01X4947920Y2323948D01*
G01X4953660Y2337003D01*
G01X4967884Y2335428D01*
G01X4959452Y2346960D01*
G01X4967884Y2358492D01*
G01X4953660Y2356917D01*
G37*
G36*
G01X2647086Y2377084D02*
G01X2650185Y2370277D01*
G01X2653843D01*
G01X2665628Y2364892D01*
G01X2667000Y2364232D01*
G01X2668372Y2364892D01*
G01X2680157Y2370277D01*
G01X2674772Y2358492D01*
G01X2674112Y2357120D01*
G01X2674772Y2355748D01*
G01X2680157Y2343963D01*
G01X2668372Y2349348D01*
G01X2667000Y2350008D01*
G01X2665628Y2349348D01*
G01X2653843Y2343963D01*
G01X2659228Y2355748D01*
G01X2659888Y2357120D01*
G01X2659228Y2358492D01*
G01X2653843Y2370277D01*
G01X2650185D01*
G01X2656230Y2357120D01*
G01X2647086Y2337206D01*
G01X2667000Y2346350D01*
G01X2686964Y2337206D01*
G01X2677770Y2357120D01*
G01X2686964Y2377084D01*
G01X2667000Y2367890D01*
G37*
G36*
G01X2901086Y2377084D02*
G01X2904185Y2370277D01*
G01X2907843D01*
G01X2919628Y2364892D01*
G01X2921000Y2364232D01*
G01X2922372Y2364892D01*
G01X2934157Y2370277D01*
G01X2928772Y2358492D01*
G01X2928112Y2357120D01*
G01X2928772Y2355748D01*
G01X2934157Y2343963D01*
G01X2922372Y2349348D01*
G01X2921000Y2350008D01*
G01X2919628Y2349348D01*
G01X2907843Y2343963D01*
G01X2913228Y2355748D01*
G01X2913888Y2357120D01*
G01X2913228Y2358492D01*
G01X2907843Y2370277D01*
G01X2904185D01*
G01X2910230Y2357120D01*
G01X2901086Y2337206D01*
G01X2921000Y2346350D01*
G01X2940964Y2337206D01*
G01X2931770Y2357120D01*
G01X2940964Y2377084D01*
G01X2921000Y2367890D01*
G37*
G36*
G01X3155086Y2377084D02*
G01X3158185Y2370277D01*
G01X3161843D01*
G01X3173628Y2364892D01*
G01X3175000Y2364232D01*
G01X3176372Y2364892D01*
G01X3188157Y2370277D01*
G01X3182772Y2358492D01*
G01X3182112Y2357120D01*
G01X3182772Y2355748D01*
G01X3188157Y2343963D01*
G01X3176372Y2349348D01*
G01X3175000Y2350008D01*
G01X3173628Y2349348D01*
G01X3161843Y2343963D01*
G01X3167228Y2355748D01*
G01X3167888Y2357120D01*
G01X3167228Y2358492D01*
G01X3161843Y2370277D01*
G01X3158185D01*
G01X3164230Y2357120D01*
G01X3155086Y2337206D01*
G01X3175000Y2346350D01*
G01X3194964Y2337206D01*
G01X3185770Y2357120D01*
G01X3194964Y2377084D01*
G01X3175000Y2367890D01*
G37*
G36*
G01X3409086Y2377084D02*
G01X3412185Y2370277D01*
G01X3415843D01*
G01X3427628Y2364892D01*
G01X3429000Y2364232D01*
G01X3430372Y2364892D01*
G01X3442157Y2370277D01*
G01X3436772Y2358492D01*
G01X3436112Y2357120D01*
G01X3436772Y2355748D01*
G01X3442157Y2343963D01*
G01X3430372Y2349348D01*
G01X3429000Y2350008D01*
G01X3427628Y2349348D01*
G01X3415843Y2343963D01*
G01X3421228Y2355748D01*
G01X3421888Y2357120D01*
G01X3421228Y2358492D01*
G01X3415843Y2370277D01*
G01X3412185D01*
G01X3418230Y2357120D01*
G01X3409086Y2337206D01*
G01X3429000Y2346350D01*
G01X3448964Y2337206D01*
G01X3439770Y2357120D01*
G01X3448964Y2377084D01*
G01X3429000Y2367890D01*
G37*
G36*
G01X3663086Y2377084D02*
G01X3666185Y2370277D01*
G01X3669843D01*
G01X3681628Y2364892D01*
G01X3683000Y2364232D01*
G01X3684372Y2364892D01*
G01X3696157Y2370277D01*
G01X3690772Y2358492D01*
G01X3690112Y2357120D01*
G01X3690772Y2355748D01*
G01X3696157Y2343963D01*
G01X3684372Y2349348D01*
G01X3683000Y2350008D01*
G01X3681628Y2349348D01*
G01X3669843Y2343963D01*
G01X3675228Y2355748D01*
G01X3675888Y2357120D01*
G01X3675228Y2358492D01*
G01X3669843Y2370277D01*
G01X3666185D01*
G01X3672230Y2357120D01*
G01X3663086Y2337206D01*
G01X3683000Y2346350D01*
G01X3702964Y2337206D01*
G01X3693770Y2357120D01*
G01X3702964Y2377084D01*
G01X3683000Y2367890D01*
G37*
G36*
G01X3917086Y2377084D02*
G01X3920185Y2370277D01*
G01X3923843D01*
G01X3935628Y2364892D01*
G01X3937000Y2364232D01*
G01X3938372Y2364892D01*
G01X3950157Y2370277D01*
G01X3944772Y2358492D01*
G01X3944112Y2357120D01*
G01X3944772Y2355748D01*
G01X3950157Y2343963D01*
G01X3938372Y2349348D01*
G01X3937000Y2350008D01*
G01X3935628Y2349348D01*
G01X3923843Y2343963D01*
G01X3929228Y2355748D01*
G01X3929888Y2357120D01*
G01X3929228Y2358492D01*
G01X3923843Y2370277D01*
G01X3920185D01*
G01X3926230Y2357120D01*
G01X3917086Y2337206D01*
G01X3937000Y2346350D01*
G01X3956964Y2337206D01*
G01X3947770Y2357120D01*
G01X3956964Y2377084D01*
G01X3937000Y2367890D01*
G37*
G36*
G01X4171086Y2377084D02*
G01X4174185Y2370277D01*
G01X4177843D01*
G01X4189628Y2364892D01*
G01X4191000Y2364232D01*
G01X4192372Y2364892D01*
G01X4204157Y2370277D01*
G01X4198772Y2358492D01*
G01X4198112Y2357120D01*
G01X4198772Y2355748D01*
G01X4204157Y2343963D01*
G01X4192372Y2349348D01*
G01X4191000Y2350008D01*
G01X4189628Y2349348D01*
G01X4177843Y2343963D01*
G01X4183228Y2355748D01*
G01X4183888Y2357120D01*
G01X4183228Y2358492D01*
G01X4177843Y2370277D01*
G01X4174185D01*
G01X4180230Y2357120D01*
G01X4171086Y2337206D01*
G01X4191000Y2346350D01*
G01X4210964Y2337206D01*
G01X4201770Y2357120D01*
G01X4210964Y2377084D01*
G01X4191000Y2367890D01*
G37*
G36*
G01X4425086Y2377084D02*
G01X4428185Y2370277D01*
G01X4431843D01*
G01X4443628Y2364892D01*
G01X4445000Y2364232D01*
G01X4446372Y2364892D01*
G01X4458157Y2370277D01*
G01X4452772Y2358492D01*
G01X4452112Y2357120D01*
G01X4452772Y2355748D01*
G01X4458157Y2343963D01*
G01X4446372Y2349348D01*
G01X4445000Y2350008D01*
G01X4443628Y2349348D01*
G01X4431843Y2343963D01*
G01X4437228Y2355748D01*
G01X4437888Y2357120D01*
G01X4437228Y2358492D01*
G01X4431843Y2370277D01*
G01X4428185D01*
G01X4434230Y2357120D01*
G01X4425086Y2337206D01*
G01X4445000Y2346350D01*
G01X4464964Y2337206D01*
G01X4455770Y2357120D01*
G01X4464964Y2377084D01*
G01X4445000Y2367890D01*
G37*
G36*
G01X2647086Y2646324D02*
G01X2650185Y2639517D01*
G01X2653843D01*
G01X2665628Y2634132D01*
G01X2667000Y2633472D01*
G01X2668372Y2634132D01*
G01X2680157Y2639517D01*
G01X2674772Y2627732D01*
G01X2674112Y2626360D01*
G01X2674772Y2624988D01*
G01X2680157Y2613203D01*
G01X2668372Y2618588D01*
G01X2667000Y2619248D01*
G01X2665628Y2618588D01*
G01X2653843Y2613203D01*
G01X2659228Y2624988D01*
G01X2659888Y2626360D01*
G01X2659228Y2627732D01*
G01X2653843Y2639517D01*
G01X2650185D01*
G01X2656230Y2626360D01*
G01X2647086Y2606446D01*
G01X2667000Y2615590D01*
G01X2686964Y2606446D01*
G01X2677770Y2626360D01*
G01X2686964Y2646324D01*
G01X2667000Y2637130D01*
G37*
G36*
G01X2901086Y2646324D02*
G01X2904185Y2639517D01*
G01X2907843D01*
G01X2919628Y2634132D01*
G01X2921000Y2633472D01*
G01X2922372Y2634132D01*
G01X2934157Y2639517D01*
G01X2928772Y2627732D01*
G01X2928112Y2626360D01*
G01X2928772Y2624988D01*
G01X2934157Y2613203D01*
G01X2922372Y2618588D01*
G01X2921000Y2619248D01*
G01X2919628Y2618588D01*
G01X2907843Y2613203D01*
G01X2913228Y2624988D01*
G01X2913888Y2626360D01*
G01X2913228Y2627732D01*
G01X2907843Y2639517D01*
G01X2904185D01*
G01X2910230Y2626360D01*
G01X2901086Y2606446D01*
G01X2921000Y2615590D01*
G01X2940964Y2606446D01*
G01X2931770Y2626360D01*
G01X2940964Y2646324D01*
G01X2921000Y2637130D01*
G37*
G36*
G01X3155086Y2646324D02*
G01X3158185Y2639517D01*
G01X3161843D01*
G01X3173628Y2634132D01*
G01X3175000Y2633472D01*
G01X3176372Y2634132D01*
G01X3188157Y2639517D01*
G01X3182772Y2627732D01*
G01X3182112Y2626360D01*
G01X3182772Y2624988D01*
G01X3188157Y2613203D01*
G01X3176372Y2618588D01*
G01X3175000Y2619248D01*
G01X3173628Y2618588D01*
G01X3161843Y2613203D01*
G01X3167228Y2624988D01*
G01X3167888Y2626360D01*
G01X3167228Y2627732D01*
G01X3161843Y2639517D01*
G01X3158185D01*
G01X3164230Y2626360D01*
G01X3155086Y2606446D01*
G01X3175000Y2615590D01*
G01X3194964Y2606446D01*
G01X3185770Y2626360D01*
G01X3194964Y2646324D01*
G01X3175000Y2637130D01*
G37*
G36*
G01X3409086Y2646324D02*
G01X3412185Y2639517D01*
G01X3415843D01*
G01X3427628Y2634132D01*
G01X3429000Y2633472D01*
G01X3430372Y2634132D01*
G01X3442157Y2639517D01*
G01X3436772Y2627732D01*
G01X3436112Y2626360D01*
G01X3436772Y2624988D01*
G01X3442157Y2613203D01*
G01X3430372Y2618588D01*
G01X3429000Y2619248D01*
G01X3427628Y2618588D01*
G01X3415843Y2613203D01*
G01X3421228Y2624988D01*
G01X3421888Y2626360D01*
G01X3421228Y2627732D01*
G01X3415843Y2639517D01*
G01X3412185D01*
G01X3418230Y2626360D01*
G01X3409086Y2606446D01*
G01X3429000Y2615590D01*
G01X3448964Y2606446D01*
G01X3439770Y2626360D01*
G01X3448964Y2646324D01*
G01X3429000Y2637130D01*
G37*
G36*
G01X3663086Y2646324D02*
G01X3666185Y2639517D01*
G01X3669843D01*
G01X3681628Y2634132D01*
G01X3683000Y2633472D01*
G01X3684372Y2634132D01*
G01X3696157Y2639517D01*
G01X3690772Y2627732D01*
G01X3690112Y2626360D01*
G01X3690772Y2624988D01*
G01X3696157Y2613203D01*
G01X3684372Y2618588D01*
G01X3683000Y2619248D01*
G01X3681628Y2618588D01*
G01X3669843Y2613203D01*
G01X3675228Y2624988D01*
G01X3675888Y2626360D01*
G01X3675228Y2627732D01*
G01X3669843Y2639517D01*
G01X3666185D01*
G01X3672230Y2626360D01*
G01X3663086Y2606446D01*
G01X3683000Y2615590D01*
G01X3702964Y2606446D01*
G01X3693770Y2626360D01*
G01X3702964Y2646324D01*
G01X3683000Y2637130D01*
G37*
G36*
G01X3917086Y2646324D02*
G01X3920185Y2639517D01*
G01X3923843D01*
G01X3935628Y2634132D01*
G01X3937000Y2633472D01*
G01X3938372Y2634132D01*
G01X3950157Y2639517D01*
G01X3944772Y2627732D01*
G01X3944112Y2626360D01*
G01X3944772Y2624988D01*
G01X3950157Y2613203D01*
G01X3938372Y2618588D01*
G01X3937000Y2619248D01*
G01X3935628Y2618588D01*
G01X3923843Y2613203D01*
G01X3929228Y2624988D01*
G01X3929888Y2626360D01*
G01X3929228Y2627732D01*
G01X3923843Y2639517D01*
G01X3920185D01*
G01X3926230Y2626360D01*
G01X3917086Y2606446D01*
G01X3937000Y2615590D01*
G01X3956964Y2606446D01*
G01X3947770Y2626360D01*
G01X3956964Y2646324D01*
G01X3937000Y2637130D01*
G37*
G36*
G01X4171086Y2646324D02*
G01X4174185Y2639517D01*
G01X4177843D01*
G01X4189628Y2634132D01*
G01X4191000Y2633472D01*
G01X4192372Y2634132D01*
G01X4204157Y2639517D01*
G01X4198772Y2627732D01*
G01X4198112Y2626360D01*
G01X4198772Y2624988D01*
G01X4204157Y2613203D01*
G01X4192372Y2618588D01*
G01X4191000Y2619248D01*
G01X4189628Y2618588D01*
G01X4177843Y2613203D01*
G01X4183228Y2624988D01*
G01X4183888Y2626360D01*
G01X4183228Y2627732D01*
G01X4177843Y2639517D01*
G01X4174185D01*
G01X4180230Y2626360D01*
G01X4171086Y2606446D01*
G01X4191000Y2615590D01*
G01X4210964Y2606446D01*
G01X4201770Y2626360D01*
G01X4210964Y2646324D01*
G01X4191000Y2637130D01*
G37*
G36*
G01X4425086Y2646324D02*
G01X4428185Y2639517D01*
G01X4431843D01*
G01X4443628Y2634132D01*
G01X4445000Y2633472D01*
G01X4446372Y2634132D01*
G01X4458157Y2639517D01*
G01X4452772Y2627732D01*
G01X4452112Y2626360D01*
G01X4452772Y2624988D01*
G01X4458157Y2613203D01*
G01X4446372Y2618588D01*
G01X4445000Y2619248D01*
G01X4443628Y2618588D01*
G01X4431843Y2613203D01*
G01X4437228Y2624988D01*
G01X4437888Y2626360D01*
G01X4437228Y2627732D01*
G01X4431843Y2639517D01*
G01X4428185D01*
G01X4434230Y2626360D01*
G01X4425086Y2606446D01*
G01X4445000Y2615590D01*
G01X4464964Y2606446D01*
G01X4455770Y2626360D01*
G01X4464964Y2646324D01*
G01X4445000Y2637130D01*
G37*
G36*
G01X2647086Y634594D02*
G01X2650185Y627837D01*
G01X2653843D01*
G01X2665628Y622452D01*
G01X2667000Y621792D01*
G01X2668372Y622452D01*
G01X2680157Y627837D01*
G01X2674772Y616052D01*
G01X2674112Y614680D01*
G01X2674772Y613308D01*
G01X2680157Y601523D01*
G01X2668372Y606908D01*
G01X2667000Y607568D01*
G01X2665628Y606908D01*
G01X2653843Y601523D01*
G01X2659228Y613308D01*
G01X2659888Y614680D01*
G01X2659228Y616052D01*
G01X2653843Y627837D01*
G01X2650185D01*
G01X2656230Y614680D01*
G01X2647086Y594716D01*
G01X2667000Y603910D01*
G01X2686964Y594716D01*
G01X2677770Y614680D01*
G01X2686964Y634594D01*
G01X2667000Y625450D01*
G37*
G36*
G01X2901086Y634594D02*
G01X2904185Y627837D01*
G01X2907843D01*
G01X2919628Y622452D01*
G01X2921000Y621792D01*
G01X2922372Y622452D01*
G01X2934157Y627837D01*
G01X2928772Y616052D01*
G01X2928112Y614680D01*
G01X2928772Y613308D01*
G01X2934157Y601523D01*
G01X2922372Y606908D01*
G01X2921000Y607568D01*
G01X2919628Y606908D01*
G01X2907843Y601523D01*
G01X2913228Y613308D01*
G01X2913888Y614680D01*
G01X2913228Y616052D01*
G01X2907843Y627837D01*
G01X2904185D01*
G01X2910230Y614680D01*
G01X2901086Y594716D01*
G01X2921000Y603910D01*
G01X2940964Y594716D01*
G01X2931770Y614680D01*
G01X2940964Y634594D01*
G01X2921000Y625450D01*
G37*
G36*
G01X3155086Y634594D02*
G01X3158185Y627837D01*
G01X3161843D01*
G01X3173628Y622452D01*
G01X3175000Y621792D01*
G01X3176372Y622452D01*
G01X3188157Y627837D01*
G01X3182772Y616052D01*
G01X3182112Y614680D01*
G01X3182772Y613308D01*
G01X3188157Y601523D01*
G01X3176372Y606908D01*
G01X3175000Y607568D01*
G01X3173628Y606908D01*
G01X3161843Y601523D01*
G01X3167228Y613308D01*
G01X3167888Y614680D01*
G01X3167228Y616052D01*
G01X3161843Y627837D01*
G01X3158185D01*
G01X3164230Y614680D01*
G01X3155086Y594716D01*
G01X3175000Y603910D01*
G01X3194964Y594716D01*
G01X3185770Y614680D01*
G01X3194964Y634594D01*
G01X3175000Y625450D01*
G37*
G36*
G01X3409086Y634644D02*
G01X3412185Y627837D01*
G01X3415843D01*
G01X3427628Y622452D01*
G01X3429000Y621792D01*
G01X3430372Y622452D01*
G01X3442157Y627837D01*
G01X3436772Y616052D01*
G01X3436112Y614680D01*
G01X3436772Y613308D01*
G01X3442157Y601523D01*
G01X3430372Y606908D01*
G01X3429000Y607568D01*
G01X3427628Y606908D01*
G01X3415843Y601523D01*
G01X3421228Y613308D01*
G01X3421888Y614680D01*
G01X3421228Y616052D01*
G01X3415843Y627837D01*
G01X3412185D01*
G01X3418230Y614680D01*
G01X3409086Y594766D01*
G01X3429000Y603910D01*
G01X3448964Y594766D01*
G01X3439770Y614680D01*
G01X3448964Y634644D01*
G01X3429000Y625450D01*
G37*
G36*
G01X3663086Y634644D02*
G01X3666185Y627837D01*
G01X3669843D01*
G01X3681628Y622452D01*
G01X3683000Y621792D01*
G01X3684372Y622452D01*
G01X3696157Y627837D01*
G01X3690772Y616052D01*
G01X3690112Y614680D01*
G01X3690772Y613308D01*
G01X3696157Y601523D01*
G01X3684372Y606908D01*
G01X3683000Y607568D01*
G01X3681628Y606908D01*
G01X3669843Y601523D01*
G01X3675228Y613308D01*
G01X3675888Y614680D01*
G01X3675228Y616052D01*
G01X3669843Y627837D01*
G01X3666185D01*
G01X3672230Y614680D01*
G01X3663086Y594766D01*
G01X3683000Y603910D01*
G01X3702964Y594766D01*
G01X3693770Y614680D01*
G01X3702964Y634644D01*
G01X3683000Y625450D01*
G37*
G36*
G01X3917086Y634644D02*
G01X3920185Y627837D01*
G01X3923843D01*
G01X3935628Y622452D01*
G01X3937000Y621792D01*
G01X3938372Y622452D01*
G01X3950157Y627837D01*
G01X3944772Y616052D01*
G01X3944112Y614680D01*
G01X3944772Y613308D01*
G01X3950157Y601523D01*
G01X3938372Y606908D01*
G01X3937000Y607568D01*
G01X3935628Y606908D01*
G01X3923843Y601523D01*
G01X3929228Y613308D01*
G01X3929888Y614680D01*
G01X3929228Y616052D01*
G01X3923843Y627837D01*
G01X3920185D01*
G01X3926230Y614680D01*
G01X3917086Y594766D01*
G01X3937000Y603910D01*
G01X3956964Y594766D01*
G01X3947770Y614680D01*
G01X3956964Y634644D01*
G01X3937000Y625450D01*
G37*
G36*
G01X4171086Y634644D02*
G01X4174185Y627837D01*
G01X4177843D01*
G01X4189628Y622452D01*
G01X4191000Y621792D01*
G01X4192372Y622452D01*
G01X4204157Y627837D01*
G01X4198772Y616052D01*
G01X4198112Y614680D01*
G01X4198772Y613308D01*
G01X4204157Y601523D01*
G01X4192372Y606908D01*
G01X4191000Y607568D01*
G01X4189628Y606908D01*
G01X4177843Y601523D01*
G01X4183228Y613308D01*
G01X4183888Y614680D01*
G01X4183228Y616052D01*
G01X4177843Y627837D01*
G01X4174185D01*
G01X4180230Y614680D01*
G01X4171086Y594766D01*
G01X4191000Y603910D01*
G01X4210964Y594766D01*
G01X4201770Y614680D01*
G01X4210964Y634644D01*
G01X4191000Y625450D01*
G37*
G36*
G01X4425086Y634644D02*
G01X4428185Y627837D01*
G01X4431843D01*
G01X4443628Y622452D01*
G01X4445000Y621792D01*
G01X4446372Y622452D01*
G01X4458157Y627837D01*
G01X4452772Y616052D01*
G01X4452112Y614680D01*
G01X4452772Y613308D01*
G01X4458157Y601523D01*
G01X4446372Y606908D01*
G01X4445000Y607568D01*
G01X4443628Y606908D01*
G01X4431843Y601523D01*
G01X4437228Y613308D01*
G01X4437888Y614680D01*
G01X4437228Y616052D01*
G01X4431843Y627837D01*
G01X4428185D01*
G01X4434230Y614680D01*
G01X4425086Y594766D01*
G01X4445000Y603910D01*
G01X4464964Y594766D01*
G01X4455770Y614680D01*
G01X4464964Y634644D01*
G01X4445000Y625450D01*
G37*
G36*
G01X2647086Y365354D02*
G01X2650185Y358597D01*
G01X2653843D01*
G01X2665628Y353212D01*
G01X2667000Y352552D01*
G01X2668372Y353212D01*
G01X2680157Y358597D01*
G01X2674772Y346812D01*
G01X2674112Y345440D01*
G01X2674772Y344068D01*
G01X2680157Y332283D01*
G01X2668372Y337668D01*
G01X2667000Y338328D01*
G01X2665628Y337668D01*
G01X2653843Y332283D01*
G01X2659228Y344068D01*
G01X2659888Y345440D01*
G01X2659228Y346812D01*
G01X2653843Y358597D01*
G01X2650185D01*
G01X2656230Y345440D01*
G01X2647086Y325476D01*
G01X2667000Y334670D01*
G01X2686964Y325476D01*
G01X2677770Y345440D01*
G01X2686964Y365354D01*
G01X2667000Y356210D01*
G37*
G36*
G01X2901086Y365354D02*
G01X2904185Y358597D01*
G01X2907843D01*
G01X2919628Y353212D01*
G01X2921000Y352552D01*
G01X2922372Y353212D01*
G01X2934157Y358597D01*
G01X2928772Y346812D01*
G01X2928112Y345440D01*
G01X2928772Y344068D01*
G01X2934157Y332283D01*
G01X2922372Y337668D01*
G01X2921000Y338328D01*
G01X2919628Y337668D01*
G01X2907843Y332283D01*
G01X2913228Y344068D01*
G01X2913888Y345440D01*
G01X2913228Y346812D01*
G01X2907843Y358597D01*
G01X2904185D01*
G01X2910230Y345440D01*
G01X2901086Y325476D01*
G01X2921000Y334670D01*
G01X2940964Y325476D01*
G01X2931770Y345440D01*
G01X2940964Y365354D01*
G01X2921000Y356210D01*
G37*
G36*
G01X3155086Y365354D02*
G01X3158185Y358597D01*
G01X3161843D01*
G01X3173628Y353212D01*
G01X3175000Y352552D01*
G01X3176372Y353212D01*
G01X3188157Y358597D01*
G01X3182772Y346812D01*
G01X3182112Y345440D01*
G01X3182772Y344068D01*
G01X3188157Y332283D01*
G01X3176372Y337668D01*
G01X3175000Y338328D01*
G01X3173628Y337668D01*
G01X3161843Y332283D01*
G01X3167228Y344068D01*
G01X3167888Y345440D01*
G01X3167228Y346812D01*
G01X3161843Y358597D01*
G01X3158185D01*
G01X3164230Y345440D01*
G01X3155086Y325476D01*
G01X3175000Y334670D01*
G01X3194964Y325476D01*
G01X3185770Y345440D01*
G01X3194964Y365354D01*
G01X3175000Y356210D01*
G37*
G36*
G01X3409086Y365404D02*
G01X3412185Y358597D01*
G01X3415843D01*
G01X3427628Y353212D01*
G01X3429000Y352552D01*
G01X3430372Y353212D01*
G01X3442157Y358597D01*
G01X3436772Y346812D01*
G01X3436112Y345440D01*
G01X3436772Y344068D01*
G01X3442157Y332283D01*
G01X3430372Y337668D01*
G01X3429000Y338328D01*
G01X3427628Y337668D01*
G01X3415843Y332283D01*
G01X3421228Y344068D01*
G01X3421888Y345440D01*
G01X3421228Y346812D01*
G01X3415843Y358597D01*
G01X3412185D01*
G01X3418230Y345440D01*
G01X3409086Y325526D01*
G01X3429000Y334670D01*
G01X3448964Y325526D01*
G01X3439770Y345440D01*
G01X3448964Y365404D01*
G01X3429000Y356210D01*
G37*
G36*
G01X3663086Y365404D02*
G01X3666185Y358597D01*
G01X3669843D01*
G01X3681628Y353212D01*
G01X3683000Y352552D01*
G01X3684372Y353212D01*
G01X3696157Y358597D01*
G01X3690772Y346812D01*
G01X3690112Y345440D01*
G01X3690772Y344068D01*
G01X3696157Y332283D01*
G01X3684372Y337668D01*
G01X3683000Y338328D01*
G01X3681628Y337668D01*
G01X3669843Y332283D01*
G01X3675228Y344068D01*
G01X3675888Y345440D01*
G01X3675228Y346812D01*
G01X3669843Y358597D01*
G01X3666185D01*
G01X3672230Y345440D01*
G01X3663086Y325526D01*
G01X3683000Y334670D01*
G01X3702964Y325526D01*
G01X3693770Y345440D01*
G01X3702964Y365404D01*
G01X3683000Y356210D01*
G37*
G36*
G01X3917086Y365404D02*
G01X3920185Y358597D01*
G01X3923843D01*
G01X3935628Y353212D01*
G01X3937000Y352552D01*
G01X3938372Y353212D01*
G01X3950157Y358597D01*
G01X3944772Y346812D01*
G01X3944112Y345440D01*
G01X3944772Y344068D01*
G01X3950157Y332283D01*
G01X3938372Y337668D01*
G01X3937000Y338328D01*
G01X3935628Y337668D01*
G01X3923843Y332283D01*
G01X3929228Y344068D01*
G01X3929888Y345440D01*
G01X3929228Y346812D01*
G01X3923843Y358597D01*
G01X3920185D01*
G01X3926230Y345440D01*
G01X3917086Y325526D01*
G01X3937000Y334670D01*
G01X3956964Y325526D01*
G01X3947770Y345440D01*
G01X3956964Y365404D01*
G01X3937000Y356210D01*
G37*
G36*
G01X4171086Y365404D02*
G01X4174185Y358597D01*
G01X4177843D01*
G01X4189628Y353212D01*
G01X4191000Y352552D01*
G01X4192372Y353212D01*
G01X4204157Y358597D01*
G01X4198772Y346812D01*
G01X4198112Y345440D01*
G01X4198772Y344068D01*
G01X4204157Y332283D01*
G01X4192372Y337668D01*
G01X4191000Y338328D01*
G01X4189628Y337668D01*
G01X4177843Y332283D01*
G01X4183228Y344068D01*
G01X4183888Y345440D01*
G01X4183228Y346812D01*
G01X4177843Y358597D01*
G01X4174185D01*
G01X4180230Y345440D01*
G01X4171086Y325526D01*
G01X4191000Y334670D01*
G01X4210964Y325526D01*
G01X4201770Y345440D01*
G01X4210964Y365404D01*
G01X4191000Y356210D01*
G37*
G36*
G01X4425086Y365404D02*
G01X4428185Y358597D01*
G01X4431843D01*
G01X4443628Y353212D01*
G01X4445000Y352552D01*
G01X4446372Y353212D01*
G01X4458157Y358597D01*
G01X4452772Y346812D01*
G01X4452112Y345440D01*
G01X4452772Y344068D01*
G01X4458157Y332283D01*
G01X4446372Y337668D01*
G01X4445000Y338328D01*
G01X4443628Y337668D01*
G01X4431843Y332283D01*
G01X4437228Y344068D01*
G01X4437888Y345440D01*
G01X4437228Y346812D01*
G01X4431843Y358597D01*
G01X4428185D01*
G01X4434230Y345440D01*
G01X4425086Y325526D01*
G01X4445000Y334670D01*
G01X4464964Y325526D01*
G01X4455770Y345440D01*
G01X4464964Y365404D01*
G01X4445000Y356210D01*
G37*
G36*
G01X7490104Y2246071D02*
G01X7490104Y2235200D01*
G01X7479233D01*
G01Y2220417D01*
G01X7482535D01*
G01Y2231847D01*
G01X7493457D01*
G01Y2242769D01*
G01X7504887D01*
G01Y2231847D01*
G01X7515809D01*
G01Y2220366D01*
G01X7504887D01*
G01Y2209495D01*
G01X7493457D01*
G01Y2220417D01*
G01X7482535D01*
G01X7479233D01*
G01Y2217064D01*
G01X7490104D01*
G01Y2206193D01*
G01X7508240D01*
G01Y2217064D01*
G01X7519111D01*
G01Y2235200D01*
G01X7508240D01*
G01Y2246071D01*
G37*
G36*
G01X7617104Y2246071D02*
G01X7617104Y2235200D01*
G01X7606233D01*
G01Y2220417D01*
G01X7609535D01*
G01Y2231847D01*
G01X7620457D01*
G01Y2242769D01*
G01X7631887D01*
G01Y2231847D01*
G01X7642809D01*
G01Y2220366D01*
G01X7631887D01*
G01Y2209495D01*
G01X7620457D01*
G01Y2220417D01*
G01X7609535D01*
G01X7606233D01*
G01Y2217064D01*
G01X7617104D01*
G01Y2206193D01*
G01X7635240D01*
G01Y2217064D01*
G01X7646111D01*
G01Y2235200D01*
G01X7635240D01*
G01Y2246071D01*
G37*
G36*
G01X7744104Y2246071D02*
G01X7744104Y2235200D01*
G01X7733233D01*
G01Y2220417D01*
G01X7736535D01*
G01Y2231847D01*
G01X7747457D01*
G01Y2242769D01*
G01X7758887D01*
G01Y2231847D01*
G01X7769809D01*
G01Y2220366D01*
G01X7758887D01*
G01Y2209495D01*
G01X7747457D01*
G01Y2220417D01*
G01X7736535D01*
G01X7733233D01*
G01Y2217064D01*
G01X7744104D01*
G01Y2206193D01*
G01X7762240D01*
G01Y2217064D01*
G01X7773111D01*
G01Y2235200D01*
G01X7762240D01*
G01Y2246071D01*
G37*
G36*
G01X7871104Y2246071D02*
G01X7871104Y2235200D01*
G01X7860233D01*
G01Y2220417D01*
G01X7863535D01*
G01Y2231847D01*
G01X7874457D01*
G01Y2242769D01*
G01X7885887D01*
G01Y2231847D01*
G01X7896809D01*
G01Y2220366D01*
G01X7885887D01*
G01Y2209495D01*
G01X7874457D01*
G01Y2220417D01*
G01X7863535D01*
G01X7860233D01*
G01Y2217064D01*
G01X7871104D01*
G01Y2206193D01*
G01X7889240D01*
G01Y2217064D01*
G01X7900111D01*
G01Y2235200D01*
G01X7889240D01*
G01Y2246071D01*
G37*
G36*
G01X7998104Y2246071D02*
G01X7998104Y2235200D01*
G01X7987233D01*
G01Y2220417D01*
G01X7990535D01*
G01Y2231847D01*
G01X8001457D01*
G01Y2242769D01*
G01X8012887D01*
G01Y2231847D01*
G01X8023809D01*
G01Y2220366D01*
G01X8012887D01*
G01Y2209495D01*
G01X8001457D01*
G01Y2220417D01*
G01X7990535D01*
G01X7987233D01*
G01Y2217064D01*
G01X7998104D01*
G01Y2206193D01*
G01X8016240D01*
G01Y2217064D01*
G01X8027111D01*
G01Y2235200D01*
G01X8016240D01*
G01Y2246071D01*
G37*
G36*
G01X6982104Y770687D02*
G01X6982104Y759816D01*
G01X6971233D01*
G01Y745033D01*
G01X6974535D01*
G01Y756463D01*
G01X6985457D01*
G01Y767385D01*
G01X6996887D01*
G01Y756463D01*
G01X7007809D01*
G01Y744982D01*
G01X6996887D01*
G01Y734111D01*
G01X6985457D01*
G01Y745033D01*
G01X6974535D01*
G01X6971233D01*
G01Y741680D01*
G01X6982104D01*
G01Y730809D01*
G01X7000240D01*
G01Y741680D01*
G01X7011111D01*
G01Y759816D01*
G01X7000240D01*
G01Y770687D01*
G37*
G36*
G01X7109104Y770687D02*
G01X7109104Y759816D01*
G01X7098233D01*
G01Y745033D01*
G01X7101535D01*
G01Y756463D01*
G01X7112457D01*
G01Y767385D01*
G01X7123887D01*
G01Y756463D01*
G01X7134809D01*
G01Y744982D01*
G01X7123887D01*
G01Y734111D01*
G01X7112457D01*
G01Y745033D01*
G01X7101535D01*
G01X7098233D01*
G01Y741680D01*
G01X7109104D01*
G01Y730809D01*
G01X7127240D01*
G01Y741680D01*
G01X7138111D01*
G01Y759816D01*
G01X7127240D01*
G01Y770687D01*
G37*
G36*
G01X7363104Y770687D02*
G01X7363104Y759816D01*
G01X7352233D01*
G01Y745033D01*
G01X7355535D01*
G01Y756463D01*
G01X7366457D01*
G01Y767385D01*
G01X7377887D01*
G01Y756463D01*
G01X7388809D01*
G01Y744982D01*
G01X7377887D01*
G01Y734111D01*
G01X7366457D01*
G01Y745033D01*
G01X7355535D01*
G01X7352233D01*
G01Y741680D01*
G01X7363104D01*
G01Y730809D01*
G01X7381240D01*
G01Y741680D01*
G01X7392111D01*
G01Y759816D01*
G01X7381240D01*
G01Y770687D01*
G37*
G36*
G01X7490104Y770687D02*
G01X7490104Y759816D01*
G01X7479233D01*
G01Y745033D01*
G01X7482535D01*
G01Y756463D01*
G01X7493457D01*
G01Y767385D01*
G01X7504887D01*
G01Y756463D01*
G01X7515809D01*
G01Y744982D01*
G01X7504887D01*
G01Y734111D01*
G01X7493457D01*
G01Y745033D01*
G01X7482535D01*
G01X7479233D01*
G01Y741680D01*
G01X7490104D01*
G01Y730809D01*
G01X7508240D01*
G01Y741680D01*
G01X7519111D01*
G01Y759816D01*
G01X7508240D01*
G01Y770687D01*
G37*
G36*
G01X7617104Y770687D02*
G01X7617104Y759816D01*
G01X7606233D01*
G01Y745033D01*
G01X7609535D01*
G01Y756463D01*
G01X7620457D01*
G01Y767385D01*
G01X7631887D01*
G01Y756463D01*
G01X7642809D01*
G01Y744982D01*
G01X7631887D01*
G01Y734111D01*
G01X7620457D01*
G01Y745033D01*
G01X7609535D01*
G01X7606233D01*
G01Y741680D01*
G01X7617104D01*
G01Y730809D01*
G01X7635240D01*
G01Y741680D01*
G01X7646111D01*
G01Y759816D01*
G01X7635240D01*
G01Y770687D01*
G37*
G36*
G01X7744104Y770687D02*
G01X7744104Y759816D01*
G01X7733233D01*
G01Y745033D01*
G01X7736535D01*
G01Y756463D01*
G01X7747457D01*
G01Y767385D01*
G01X7758887D01*
G01Y756463D01*
G01X7769809D01*
G01Y744982D01*
G01X7758887D01*
G01Y734111D01*
G01X7747457D01*
G01Y745033D01*
G01X7736535D01*
G01X7733233D01*
G01Y741680D01*
G01X7744104D01*
G01Y730809D01*
G01X7762240D01*
G01Y741680D01*
G01X7773111D01*
G01Y759816D01*
G01X7762240D01*
G01Y770687D01*
G37*
G36*
G01X7871104Y770687D02*
G01X7871104Y759816D01*
G01X7860233D01*
G01Y745033D01*
G01X7863535D01*
G01Y756463D01*
G01X7874457D01*
G01Y767385D01*
G01X7885887D01*
G01Y756463D01*
G01X7896809D01*
G01Y744982D01*
G01X7885887D01*
G01Y734111D01*
G01X7874457D01*
G01Y745033D01*
G01X7863535D01*
G01X7860233D01*
G01Y741680D01*
G01X7871104D01*
G01Y730809D01*
G01X7889240D01*
G01Y741680D01*
G01X7900111D01*
G01Y759816D01*
G01X7889240D01*
G01Y770687D01*
G37*
G36*
G01X7998104Y770687D02*
G01X7998104Y759816D01*
G01X7987233D01*
G01Y745033D01*
G01X7990535D01*
G01Y756463D01*
G01X8001457D01*
G01Y767385D01*
G01X8012887D01*
G01Y756463D01*
G01X8023809D01*
G01Y744982D01*
G01X8012887D01*
G01Y734111D01*
G01X8001457D01*
G01Y745033D01*
G01X7990535D01*
G01X7987233D01*
G01Y741680D01*
G01X7998104D01*
G01Y730809D01*
G01X8016240D01*
G01Y741680D01*
G01X8027111D01*
G01Y759816D01*
G01X8016240D01*
G01Y770687D01*
G37*
G36*
G01X7363104Y2246071D02*
G01X7363104Y2235200D01*
G01X7352233D01*
G01Y2220417D01*
G01X7355535D01*
G01Y2231847D01*
G01X7366457D01*
G01Y2242769D01*
G01X7377887D01*
G01Y2231847D01*
G01X7388809D01*
G01Y2220366D01*
G01X7377887D01*
G01Y2209495D01*
G01X7366457D01*
G01Y2220417D01*
G01X7355535D01*
G01X7352233D01*
G01Y2217064D01*
G01X7363104D01*
G01Y2206193D01*
G01X7381240D01*
G01Y2217064D01*
G01X7392111D01*
G01Y2235200D01*
G01X7381240D01*
G01Y2246071D01*
G37*
G36*
G01X7236308Y2222144D02*
G01X7236308Y2211222D01*
G01X7225436D01*
G01Y2196440D01*
G01X7228738D01*
G01Y2207920D01*
G01X7239610D01*
G01Y2218792D01*
G01X7251090D01*
G01Y2207920D01*
G01X7261962D01*
G01Y2196440D01*
G01X7251090D01*
G01Y2185568D01*
G01X7239610D01*
G01Y2196440D01*
G01X7228738D01*
G01X7225436D01*
G01Y2193138D01*
G01X7236308D01*
G01Y2182266D01*
G01X7254392D01*
G01Y2193138D01*
G01X7265264D01*
G01Y2211222D01*
G01X7254392D01*
G01Y2222144D01*
G37*
G36*
G01X7114388Y2211984D02*
G01X7114388Y2201062D01*
G01X7103466D01*
G01Y2186280D01*
G01X7106818D01*
G01Y2197760D01*
G01X7117690D01*
G01Y2208632D01*
G01X7129170D01*
G01Y2197760D01*
G01X7140042D01*
G01Y2186280D01*
G01X7129170D01*
G01Y2175408D01*
G01X7117690D01*
G01Y2186280D01*
G01X7106818D01*
G01X7103466D01*
G01Y2182978D01*
G01X7114388D01*
G01Y2172106D01*
G01X7132472D01*
G01Y2182978D01*
G01X7143344D01*
G01Y2201062D01*
G01X7132472D01*
G01Y2211984D01*
G37*
G36*
G01X6986118Y2214524D02*
G01X6986118Y2203602D01*
G01X6975196D01*
G01Y2188820D01*
G01X6978548D01*
G01Y2200300D01*
G01X6989420D01*
G01Y2211172D01*
G01X7000900D01*
G01Y2200300D01*
G01X7011772D01*
G01Y2188820D01*
G01X7000900D01*
G01Y2177948D01*
G01X6989420D01*
G01Y2188820D01*
G01X6978548D01*
G01X6975196D01*
G01Y2185518D01*
G01X6986118D01*
G01Y2174646D01*
G01X7004202D01*
G01Y2185518D01*
G01X7015074D01*
G01Y2203602D01*
G01X7004202D01*
G01Y2214524D01*
G37*
G36*
G01X6489548Y2048104D02*
G01X6489548Y2037232D01*
G01X6478676D01*
G01Y2022450D01*
G01X6481978D01*
G01Y2033930D01*
G01X6492850D01*
G01Y2044802D01*
G01X6504330D01*
G01Y2033930D01*
G01X6515202D01*
G01Y2022450D01*
G01X6504330D01*
G01Y2011578D01*
G01X6492850D01*
G01Y2022450D01*
G01X6481978D01*
G01X6478676D01*
G01Y2019148D01*
G01X6489548D01*
G01Y2008276D01*
G01X6507632D01*
G01Y2019148D01*
G01X6518554D01*
G01Y2037232D01*
G01X6507632D01*
G01Y2048104D01*
G37*
G36*
G01X6578448Y1931314D02*
G01X6578448Y1920392D01*
G01X6567576D01*
G01Y1905610D01*
G01X6570878D01*
G01Y1917090D01*
G01X6581750D01*
G01Y1927962D01*
G01X6593230D01*
G01Y1917090D01*
G01X6604102D01*
G01Y1905610D01*
G01X6593230D01*
G01Y1894738D01*
G01X6581750D01*
G01Y1905610D01*
G01X6570878D01*
G01X6567576D01*
G01Y1902308D01*
G01X6578448D01*
G01Y1891436D01*
G01X6596532D01*
G01Y1902308D01*
G01X6607454D01*
G01Y1920392D01*
G01X6596532D01*
G01Y1931314D01*
G37*
G36*
G01X6663538Y1810664D02*
G01X6663538Y1799742D01*
G01X6652616D01*
G01Y1784960D01*
G01X6655968D01*
G01Y1796440D01*
G01X6666840D01*
G01Y1807312D01*
G01X6678320D01*
G01Y1796440D01*
G01X6689192D01*
G01Y1784960D01*
G01X6678320D01*
G01Y1774088D01*
G01X6666840D01*
G01Y1784960D01*
G01X6655968D01*
G01X6652616D01*
G01Y1781658D01*
G01X6663538D01*
G01Y1770786D01*
G01X6681622D01*
G01Y1781658D01*
G01X6692494D01*
G01Y1799742D01*
G01X6681622D01*
G01Y1810664D01*
G37*
G36*
G01X6747358Y1683664D02*
G01X6747358Y1672742D01*
G01X6736486D01*
G01Y1657960D01*
G01X6739788D01*
G01Y1669440D01*
G01X6750660D01*
G01Y1680312D01*
G01X6762140D01*
G01Y1669440D01*
G01X6773012D01*
G01Y1657960D01*
G01X6762140D01*
G01Y1647088D01*
G01X6750660D01*
G01Y1657960D01*
G01X6739788D01*
G01X6736486D01*
G01Y1654658D01*
G01X6747358D01*
G01Y1643786D01*
G01X6765442D01*
G01Y1654658D01*
G01X6776314D01*
G01Y1672742D01*
G01X6765442D01*
G01Y1683664D01*
G37*
G36*
G01X6338418Y2205634D02*
G01X6338418Y2194712D01*
G01X6327546D01*
G01Y2179930D01*
G01X6330848D01*
G01Y2191410D01*
G01X6341720D01*
G01Y2202282D01*
G01X6353200D01*
G01Y2191410D01*
G01X6364072D01*
G01Y2179930D01*
G01X6353200D01*
G01Y2169058D01*
G01X6341720D01*
G01Y2179930D01*
G01X6330848D01*
G01X6327546D01*
G01Y2176628D01*
G01X6338418D01*
G01Y2165756D01*
G01X6356502D01*
G01Y2176628D01*
G01X6367424D01*
G01Y2194712D01*
G01X6356502D01*
G01Y2205634D01*
G37*
G36*
G01X6862928Y1676044D02*
G01X6862928Y1665122D01*
G01X6852056D01*
G01Y1650340D01*
G01X6855358D01*
G01Y1661820D01*
G01X6866230D01*
G01Y1672692D01*
G01X6877710D01*
G01Y1661820D01*
G01X6888582D01*
G01Y1650340D01*
G01X6877710D01*
G01Y1639468D01*
G01X6866230D01*
G01Y1650340D01*
G01X6855358D01*
G01X6852056D01*
G01Y1647038D01*
G01X6862928D01*
G01Y1636166D01*
G01X6881012D01*
G01Y1647038D01*
G01X6891934D01*
G01Y1665122D01*
G01X6881012D01*
G01Y1676044D01*
G37*
G36*
G01X6098388Y596544D02*
G01X6098388Y585622D01*
G01X6087516D01*
G01Y570840D01*
G01X6090818D01*
G01Y582320D01*
G01X6101690D01*
G01Y593192D01*
G01X6113170D01*
G01Y582320D01*
G01X6124042D01*
G01Y570840D01*
G01X6113170D01*
G01Y559968D01*
G01X6101690D01*
G01Y570840D01*
G01X6090818D01*
G01X6087516D01*
G01Y567538D01*
G01X6098388D01*
G01Y556666D01*
G01X6116472D01*
G01Y567538D01*
G01X6127394D01*
G01Y585622D01*
G01X6116472D01*
G01Y596544D01*
G37*
G36*
G01X6508598Y1014374D02*
G01X6508598Y1003452D01*
G01X6497726D01*
G01Y988670D01*
G01X6501028D01*
G01Y1000150D01*
G01X6511900D01*
G01Y1011022D01*
G01X6523380D01*
G01Y1000150D01*
G01X6534252D01*
G01Y988670D01*
G01X6523380D01*
G01Y977798D01*
G01X6511900D01*
G01Y988670D01*
G01X6501028D01*
G01X6497726D01*
G01Y985368D01*
G01X6508598D01*
G01Y974496D01*
G01X6526682D01*
G01Y985368D01*
G01X6537604D01*
G01Y1003452D01*
G01X6526682D01*
G01Y1014374D01*
G37*
G36*
G01X6749898Y1297584D02*
G01X6749898Y1286662D01*
G01X6739026D01*
G01Y1271880D01*
G01X6742328D01*
G01Y1283360D01*
G01X6753200D01*
G01Y1294232D01*
G01X6764680D01*
G01Y1283360D01*
G01X6775552D01*
G01Y1271880D01*
G01X6764680D01*
G01Y1261008D01*
G01X6753200D01*
G01Y1271880D01*
G01X6742328D01*
G01X6739026D01*
G01Y1268578D01*
G01X6749898D01*
G01Y1257706D01*
G01X6767982D01*
G01Y1268578D01*
G01X6778904D01*
G01Y1286662D01*
G01X6767982D01*
G01Y1297584D01*
G37*
G36*
G01X6790538Y1420774D02*
G01X6790538Y1409852D01*
G01X6779616D01*
G01Y1395070D01*
G01X6782968D01*
G01Y1406550D01*
G01X6793840D01*
G01Y1417422D01*
G01X6805320D01*
G01Y1406550D01*
G01X6816192D01*
G01Y1395070D01*
G01X6805320D01*
G01Y1384198D01*
G01X6793840D01*
G01Y1395070D01*
G01X6782968D01*
G01X6779616D01*
G01Y1391768D01*
G01X6790538D01*
G01Y1380896D01*
G01X6808622D01*
G01Y1391768D01*
G01X6819494D01*
G01Y1409852D01*
G01X6808622D01*
G01Y1420774D01*
G37*
G36*
G01X6520028Y1195984D02*
G01X6520028Y1185062D01*
G01X6509156D01*
G01Y1170280D01*
G01X6512458D01*
G01Y1181760D01*
G01X6523330D01*
G01Y1192632D01*
G01X6534810D01*
G01Y1181760D01*
G01X6545682D01*
G01Y1170280D01*
G01X6534810D01*
G01Y1159408D01*
G01X6523330D01*
G01Y1170280D01*
G01X6512458D01*
G01X6509156D01*
G01Y1166978D01*
G01X6520028D01*
G01Y1156106D01*
G01X6538112D01*
G01Y1166978D01*
G01X6548984D01*
G01Y1185062D01*
G01X6538112D01*
G01Y1195984D01*
G37*
G36*
G01X6197448Y521614D02*
G01X6197448Y510692D01*
G01X6186576D01*
G01Y495910D01*
G01X6189878D01*
G01Y507390D01*
G01X6200750D01*
G01Y518262D01*
G01X6212230D01*
G01Y507390D01*
G01X6223102D01*
G01Y495910D01*
G01X6212230D01*
G01Y485038D01*
G01X6200750D01*
G01Y495910D01*
G01X6189878D01*
G01X6186576D01*
G01Y492608D01*
G01X6197448D01*
G01Y481736D01*
G01X6215532D01*
G01Y492608D01*
G01X6226454D01*
G01Y510692D01*
G01X6215532D01*
G01Y521614D01*
G37*
G36*
G01X5157318Y1498244D02*
G01X5157318Y1487322D01*
G01X5146446D01*
G01Y1472540D01*
G01X5149748D01*
G01Y1484020D01*
G01X5160620D01*
G01Y1494892D01*
G01X5172100D01*
G01Y1484020D01*
G01X5182972D01*
G01Y1472540D01*
G01X5172100D01*
G01Y1461668D01*
G01X5160620D01*
G01Y1472540D01*
G01X5149748D01*
G01X5146446D01*
G01Y1469238D01*
G01X5157318D01*
G01Y1458366D01*
G01X5175402D01*
G01Y1469238D01*
G01X5186324D01*
G01Y1487322D01*
G01X5175402D01*
G01Y1498244D01*
G37*
G36*
G01X5996026Y405282D02*
G01X5996026Y394411D01*
G01X5985154D01*
G01Y379628D01*
G01X5988456D01*
G01Y391058D01*
G01X5999378D01*
G01Y401980D01*
G01X6010808D01*
G01Y391058D01*
G01X6021730D01*
G01Y379578D01*
G01X6010808D01*
G01Y368706D01*
G01X5999378D01*
G01Y379628D01*
G01X5988456D01*
G01X5985154D01*
G01Y376276D01*
G01X5996026D01*
G01Y365404D01*
G01X6014161D01*
G01Y376276D01*
G01X6025032D01*
G01Y394411D01*
G01X6014161D01*
G01Y405282D01*
G37*
G36*
G01X4357218Y1174394D02*
G01X4357218Y1163472D01*
G01X4346346D01*
G01Y1148690D01*
G01X4349648D01*
G01Y1160170D01*
G01X4360520D01*
G01Y1171042D01*
G01X4372000D01*
G01Y1160170D01*
G01X4382872D01*
G01Y1148690D01*
G01X4372000D01*
G01Y1137818D01*
G01X4360520D01*
G01Y1148690D01*
G01X4349648D01*
G01X4346346D01*
G01Y1145388D01*
G01X4357218D01*
G01Y1134516D01*
G01X4375302D01*
G01Y1145388D01*
G01X4386224D01*
G01Y1163472D01*
G01X4375302D01*
G01Y1174394D01*
G37*
G36*
G01X3460598Y1020724D02*
G01X3460598Y1009802D01*
G01X3449726D01*
G01Y995020D01*
G01X3453028D01*
G01Y1006500D01*
G01X3463900D01*
G01Y1017372D01*
G01X3475380D01*
G01Y1006500D01*
G01X3486252D01*
G01Y995020D01*
G01X3475380D01*
G01Y984148D01*
G01X3463900D01*
G01Y995020D01*
G01X3453028D01*
G01X3449726D01*
G01Y991718D01*
G01X3460598D01*
G01Y980846D01*
G01X3478682D01*
G01Y991718D01*
G01X3489604D01*
G01Y1009802D01*
G01X3478682D01*
G01Y1020724D01*
G37*
G36*
G01X3653638Y1020724D02*
G01X3653638Y1009802D01*
G01X3642766D01*
G01Y995020D01*
G01X3646068D01*
G01Y1006500D01*
G01X3656940D01*
G01Y1017372D01*
G01X3668420D01*
G01Y1006500D01*
G01X3679292D01*
G01Y995020D01*
G01X3668420D01*
G01Y984148D01*
G01X3656940D01*
G01Y995020D01*
G01X3646068D01*
G01X3642766D01*
G01Y991718D01*
G01X3653638D01*
G01Y980846D01*
G01X3671722D01*
G01Y991718D01*
G01X3682644D01*
G01Y1009802D01*
G01X3671722D01*
G01Y1020724D01*
G37*
G36*
G01X4259428Y1188364D02*
G01X4259428Y1177442D01*
G01X4248556D01*
G01Y1162660D01*
G01X4251858D01*
G01Y1174140D01*
G01X4262730D01*
G01Y1185012D01*
G01X4274210D01*
G01Y1174140D01*
G01X4285082D01*
G01Y1162660D01*
G01X4274210D01*
G01Y1151788D01*
G01X4262730D01*
G01Y1162660D01*
G01X4251858D01*
G01X4248556D01*
G01Y1159358D01*
G01X4259428D01*
G01Y1148486D01*
G01X4277512D01*
G01Y1159358D01*
G01X4288434D01*
G01Y1177442D01*
G01X4277512D01*
G01Y1188364D01*
G37*
G36*
G01X4029558Y1076604D02*
G01X4029558Y1065682D01*
G01X4018686D01*
G01Y1050900D01*
G01X4021988D01*
G01Y1062380D01*
G01X4032860D01*
G01Y1073252D01*
G01X4044340D01*
G01Y1062380D01*
G01X4055212D01*
G01Y1050900D01*
G01X4044340D01*
G01Y1040028D01*
G01X4032860D01*
G01Y1050900D01*
G01X4021988D01*
G01X4018686D01*
G01Y1047598D01*
G01X4029558D01*
G01Y1036726D01*
G01X4047642D01*
G01Y1047598D01*
G01X4058564D01*
G01Y1065682D01*
G01X4047642D01*
G01Y1076604D01*
G37*
G36*
G01X4527398Y1168044D02*
G01X4527398Y1157122D01*
G01X4516526D01*
G01Y1142340D01*
G01X4519828D01*
G01Y1153820D01*
G01X4530700D01*
G01Y1164692D01*
G01X4542180D01*
G01Y1153820D01*
G01X4553052D01*
G01Y1142340D01*
G01X4542180D01*
G01Y1131468D01*
G01X4530700D01*
G01Y1142340D01*
G01X4519828D01*
G01X4516526D01*
G01Y1139038D01*
G01X4527398D01*
G01Y1128166D01*
G01X4545482D01*
G01Y1139038D01*
G01X4556404D01*
G01Y1157122D01*
G01X4545482D01*
G01Y1168044D01*
G37*
G36*
G01X3272638Y1589684D02*
G01X3272638Y1578762D01*
G01X3261716D01*
G01Y1563980D01*
G01X3265068D01*
G01Y1575460D01*
G01X3275940D01*
G01Y1586332D01*
G01X3287420D01*
G01Y1575460D01*
G01X3298292D01*
G01Y1563980D01*
G01X3287420D01*
G01Y1553108D01*
G01X3275940D01*
G01Y1563980D01*
G01X3265068D01*
G01X3261716D01*
G01Y1560678D01*
G01X3272638D01*
G01Y1549806D01*
G01X3290722D01*
G01Y1560678D01*
G01X3301644D01*
G01Y1578762D01*
G01X3290722D01*
G01Y1589684D01*
G37*
G36*
G01X3272638Y1472844D02*
G01X3272638Y1461922D01*
G01X3261716D01*
G01Y1447140D01*
G01X3265068D01*
G01Y1458620D01*
G01X3275940D01*
G01Y1469492D01*
G01X3287420D01*
G01Y1458620D01*
G01X3298292D01*
G01Y1447140D01*
G01X3287420D01*
G01Y1436268D01*
G01X3275940D01*
G01Y1447140D01*
G01X3265068D01*
G01X3261716D01*
G01Y1443838D01*
G01X3272638D01*
G01Y1432966D01*
G01X3290722D01*
G01Y1443838D01*
G01X3301644D01*
G01Y1461922D01*
G01X3290722D01*
G01Y1472844D01*
G37*
G36*
G01X4625188Y1570634D02*
G01X4625188Y1559712D01*
G01X4614316D01*
G01Y1544930D01*
G01X4617618D01*
G01Y1556410D01*
G01X4628490D01*
G01Y1567282D01*
G01X4639970D01*
G01Y1556410D01*
G01X4650842D01*
G01Y1544930D01*
G01X4639970D01*
G01Y1534058D01*
G01X4628490D01*
G01Y1544930D01*
G01X4617618D01*
G01X4614316D01*
G01Y1541628D01*
G01X4625188D01*
G01Y1530756D01*
G01X4643272D01*
G01Y1541628D01*
G01X4654194D01*
G01Y1559712D01*
G01X4643272D01*
G01Y1570634D01*
G37*
G36*
G01X4623918Y1493164D02*
G01X4623918Y1482242D01*
G01X4613046D01*
G01Y1467460D01*
G01X4616348D01*
G01Y1478940D01*
G01X4627220D01*
G01Y1489812D01*
G01X4638700D01*
G01Y1478940D01*
G01X4649572D01*
G01Y1467460D01*
G01X4638700D01*
G01Y1456588D01*
G01X4627220D01*
G01Y1467460D01*
G01X4616348D01*
G01X4613046D01*
G01Y1464158D01*
G01X4623918D01*
G01Y1453286D01*
G01X4642002D01*
G01Y1464158D01*
G01X4652924D01*
G01Y1482242D01*
G01X4642002D01*
G01Y1493164D01*
G37*
G36*
G01X3237078Y1867814D02*
G01X3237078Y1856892D01*
G01X3226206D01*
G01Y1842110D01*
G01X3229508D01*
G01Y1853590D01*
G01X3240380D01*
G01Y1864462D01*
G01X3251860D01*
G01Y1853590D01*
G01X3262732D01*
G01Y1842110D01*
G01X3251860D01*
G01Y1831238D01*
G01X3240380D01*
G01Y1842110D01*
G01X3229508D01*
G01X3226206D01*
G01Y1838808D01*
G01X3237078D01*
G01Y1827936D01*
G01X3255162D01*
G01Y1838808D01*
G01X3266084D01*
G01Y1856892D01*
G01X3255162D01*
G01Y1867814D01*
G37*
G36*
G01X3732378Y1434744D02*
G01X3732378Y1423822D01*
G01X3721506D01*
G01Y1409040D01*
G01X3724808D01*
G01Y1420520D01*
G01X3735680D01*
G01Y1431392D01*
G01X3747160D01*
G01Y1420520D01*
G01X3758032D01*
G01Y1409040D01*
G01X3747160D01*
G01Y1398168D01*
G01X3735680D01*
G01Y1409040D01*
G01X3724808D01*
G01X3721506D01*
G01Y1405738D01*
G01X3732378D01*
G01Y1394866D01*
G01X3750462D01*
G01Y1405738D01*
G01X3761384D01*
G01Y1423822D01*
G01X3750462D01*
G01Y1434744D01*
G37*
G36*
G01X4749648Y426364D02*
G01X4749648Y415442D01*
G01X4738776D01*
G01Y400660D01*
G01X4742078D01*
G01Y412140D01*
G01X4752950D01*
G01Y423012D01*
G01X4764430D01*
G01Y412140D01*
G01X4775302D01*
G01Y400660D01*
G01X4764430D01*
G01Y389788D01*
G01X4752950D01*
G01Y400660D01*
G01X4742078D01*
G01X4738776D01*
G01Y397358D01*
G01X4749648D01*
G01Y386486D01*
G01X4767732D01*
G01Y397358D01*
G01X4778654D01*
G01Y415442D01*
G01X4767732D01*
G01Y426364D01*
G37*
G36*
G01X4691228Y2366924D02*
G01X4691228Y2356002D01*
G01X4680356D01*
G01Y2341220D01*
G01X4683658D01*
G01Y2352700D01*
G01X4694530D01*
G01Y2363572D01*
G01X4706010D01*
G01Y2352700D01*
G01X4716882D01*
G01Y2341220D01*
G01X4706010D01*
G01Y2330348D01*
G01X4694530D01*
G01Y2341220D01*
G01X4683658D01*
G01X4680356D01*
G01Y2337918D01*
G01X4691228D01*
G01Y2327046D01*
G01X4709312D01*
G01Y2337918D01*
G01X4720234D01*
G01Y2356002D01*
G01X4709312D01*
G01Y2366924D01*
G37*
G36*
G01X3797148Y1466494D02*
G01X3797148Y1455572D01*
G01X3786276D01*
G01Y1440790D01*
G01X3789578D01*
G01Y1452270D01*
G01X3800450D01*
G01Y1463142D01*
G01X3811930D01*
G01Y1452270D01*
G01X3822802D01*
G01Y1440790D01*
G01X3811930D01*
G01Y1429918D01*
G01X3800450D01*
G01Y1440790D01*
G01X3789578D01*
G01X3786276D01*
G01Y1437488D01*
G01X3797148D01*
G01Y1426616D01*
G01X3815232D01*
G01Y1437488D01*
G01X3826154D01*
G01Y1455572D01*
G01X3815232D01*
G01Y1466494D01*
G37*
G36*
G01X3140558Y1832204D02*
G01X3140558Y1821332D01*
G01X3129686D01*
G01Y1806550D01*
G01X3132988D01*
G01Y1818030D01*
G01X3143860D01*
G01Y1828902D01*
G01X3155340D01*
G01Y1818030D01*
G01X3166212D01*
G01Y1806550D01*
G01X3155340D01*
G01Y1795678D01*
G01X3143860D01*
G01Y1806550D01*
G01X3132988D01*
G01X3129686D01*
G01Y1803248D01*
G01X3140558D01*
G01Y1792376D01*
G01X3158642D01*
G01Y1803248D01*
G01X3169564D01*
G01Y1821332D01*
G01X3158642D01*
G01Y1832204D01*
G37*
G36*
G01X3083408Y1183284D02*
G01X3083408Y1172362D01*
G01X3072536D01*
G01Y1157580D01*
G01X3075838D01*
G01Y1169060D01*
G01X3086710D01*
G01Y1179932D01*
G01X3098190D01*
G01Y1169060D01*
G01X3109062D01*
G01Y1157580D01*
G01X3098190D01*
G01Y1146708D01*
G01X3086710D01*
G01Y1157580D01*
G01X3075838D01*
G01X3072536D01*
G01Y1154278D01*
G01X3083408D01*
G01Y1143406D01*
G01X3101492D01*
G01Y1154278D01*
G01X3112414D01*
G01Y1172362D01*
G01X3101492D01*
G01Y1183284D01*
G37*
G36*
G01X3033878Y1359814D02*
G01X3033878Y1348892D01*
G01X3023006D01*
G01Y1334110D01*
G01X3026308D01*
G01Y1345590D01*
G01X3037180D01*
G01Y1356462D01*
G01X3048660D01*
G01Y1345590D01*
G01X3059532D01*
G01Y1334110D01*
G01X3048660D01*
G01Y1323238D01*
G01X3037180D01*
G01Y1334110D01*
G01X3026308D01*
G01X3023006D01*
G01Y1330808D01*
G01X3033878D01*
G01Y1319936D01*
G01X3051962D01*
G01Y1330808D01*
G01X3062884D01*
G01Y1348892D01*
G01X3051962D01*
G01Y1359814D01*
G37*
G36*
G01X4875378Y1576984D02*
G01X4875378Y1566062D01*
G01X4864506D01*
G01Y1551280D01*
G01X4867808D01*
G01Y1562760D01*
G01X4878680D01*
G01Y1573632D01*
G01X4890160D01*
G01Y1562760D01*
G01X4901032D01*
G01Y1551280D01*
G01X4890160D01*
G01Y1540408D01*
G01X4878680D01*
G01Y1551280D01*
G01X4867808D01*
G01X4864506D01*
G01Y1547978D01*
G01X4875378D01*
G01Y1537106D01*
G01X4893462D01*
G01Y1547978D01*
G01X4904384D01*
G01Y1566062D01*
G01X4893462D01*
G01Y1576984D01*
G37*
G36*
G01X4855058Y1395374D02*
G01X4855058Y1384452D01*
G01X4844186D01*
G01Y1369670D01*
G01X4847488D01*
G01Y1381150D01*
G01X4858360D01*
G01Y1392022D01*
G01X4869840D01*
G01Y1381150D01*
G01X4880712D01*
G01Y1369670D01*
G01X4869840D01*
G01Y1358798D01*
G01X4858360D01*
G01Y1369670D01*
G01X4847488D01*
G01X4844186D01*
G01Y1366368D01*
G01X4855058D01*
G01Y1355496D01*
G01X4873142D01*
G01Y1366368D01*
G01X4884064D01*
G01Y1384452D01*
G01X4873142D01*
G01Y1395374D01*
G37*
G36*
G01X3604108Y938174D02*
G01X3604108Y927252D01*
G01X3593236D01*
G01Y912470D01*
G01X3596538D01*
G01Y923950D01*
G01X3607410D01*
G01Y934822D01*
G01X3618890D01*
G01Y923950D01*
G01X3629762D01*
G01Y912470D01*
G01X3618890D01*
G01Y901598D01*
G01X3607410D01*
G01Y912470D01*
G01X3596538D01*
G01X3593236D01*
G01Y909168D01*
G01X3604108D01*
G01Y898296D01*
G01X3622192D01*
G01Y909168D01*
G01X3633114D01*
G01Y927252D01*
G01X3622192D01*
G01Y938174D01*
G37*
G36*
G01X5172558Y1032154D02*
G01X5172558Y1021232D01*
G01X5161686D01*
G01Y1006450D01*
G01X5164988D01*
G01Y1017930D01*
G01X5175860D01*
G01Y1028802D01*
G01X5187340D01*
G01Y1017930D01*
G01X5198212D01*
G01Y1006450D01*
G01X5187340D01*
G01Y995578D01*
G01X5175860D01*
G01Y1006450D01*
G01X5164988D01*
G01X5161686D01*
G01Y1003148D01*
G01X5172558D01*
G01Y992276D01*
G01X5190642D01*
G01Y1003148D01*
G01X5201564D01*
G01Y1021232D01*
G01X5190642D01*
G01Y1032154D01*
G37*
G36*
G01X5634838Y1578254D02*
G01X5634838Y1567332D01*
G01X5623966D01*
G01Y1552550D01*
G01X5627268D01*
G01Y1564030D01*
G01X5638140D01*
G01Y1574902D01*
G01X5649620D01*
G01Y1564030D01*
G01X5660492D01*
G01Y1552550D01*
G01X5649620D01*
G01Y1541678D01*
G01X5638140D01*
G01Y1552550D01*
G01X5627268D01*
G01X5623966D01*
G01Y1549248D01*
G01X5634838D01*
G01Y1538376D01*
G01X5652922D01*
G01Y1549248D01*
G01X5663844D01*
G01Y1567332D01*
G01X5652922D01*
G01Y1578254D01*
G37*
G36*
G01X7279792Y1553210D02*
G01X7279792Y1542339D01*
G01X7268921D01*
G01Y1527556D01*
G01X7272223D01*
G01Y1539037D01*
G01X7283094D01*
G01Y1549908D01*
G01X7294575D01*
G01Y1539037D01*
G01X7305446D01*
G01Y1527556D01*
G01X7294575D01*
G01Y1516685D01*
G01X7283094D01*
G01Y1527556D01*
G01X7272223D01*
G01X7268921D01*
G01Y1524203D01*
G01X7279792D01*
G01Y1513332D01*
G01X7297928D01*
G01Y1524203D01*
G01X7308799D01*
G01Y1542339D01*
G01X7297928D01*
G01Y1553210D01*
G37*
G36*
G01X7427925Y1553210D02*
G01X7427925Y1542339D01*
G01X7417054D01*
G01Y1527556D01*
G01X7420407D01*
G01Y1539037D01*
G01X7431278D01*
G01Y1549908D01*
G01X7442759D01*
G01Y1539037D01*
G01X7453630D01*
G01Y1527556D01*
G01X7442759D01*
G01Y1516685D01*
G01X7431278D01*
G01Y1527556D01*
G01X7420407D01*
G01X7417054D01*
G01Y1524203D01*
G01X7427925D01*
G01Y1513332D01*
G01X7446061D01*
G01Y1524203D01*
G01X7456932D01*
G01Y1542339D01*
G01X7446061D01*
G01Y1553210D01*
G37*
G36*
G01X7419797Y1693215D02*
G01X7419797Y1682344D01*
G01X7408926D01*
G01Y1667510D01*
G01X7412228D01*
G01Y1678991D01*
G01X7423099D01*
G01Y1689862D01*
G01X7434580D01*
G01Y1678991D01*
G01X7445502D01*
G01Y1667510D01*
G01X7434580D01*
G01Y1656639D01*
G01X7423099D01*
G01Y1667510D01*
G01X7412228D01*
G01X7408926D01*
G01Y1664208D01*
G01X7419797D01*
G01Y1653337D01*
G01X7437933D01*
G01Y1664208D01*
G01X7448804D01*
G01Y1682344D01*
G01X7437933D01*
G01Y1693215D01*
G37*
G36*
G01X7427925Y1833220D02*
G01X7427925Y1822348D01*
G01X7417054D01*
G01Y1807566D01*
G01X7420407D01*
G01Y1819046D01*
G01X7431278D01*
G01Y1829918D01*
G01X7442759D01*
G01Y1819046D01*
G01X7453630D01*
G01Y1807566D01*
G01X7442759D01*
G01Y1796644D01*
G01X7431278D01*
G01Y1807566D01*
G01X7420407D01*
G01X7417054D01*
G01Y1804213D01*
G01X7427925D01*
G01Y1793342D01*
G01X7446061D01*
G01Y1804213D01*
G01X7456932D01*
G01Y1822348D01*
G01X7446061D01*
G01Y1833220D01*
G37*
G36*
G01X7283298Y1642974D02*
G01X7283298Y1632102D01*
G01X7272426D01*
G01Y1617320D01*
G01X7275728D01*
G01Y1628800D01*
G01X7286600D01*
G01Y1639672D01*
G01X7298080D01*
G01Y1628800D01*
G01X7308952D01*
G01Y1617320D01*
G01X7298080D01*
G01Y1606448D01*
G01X7286600D01*
G01Y1617320D01*
G01X7275728D01*
G01X7272426D01*
G01Y1614018D01*
G01X7283298D01*
G01Y1603096D01*
G01X7301382D01*
G01Y1614018D01*
G01X7312304D01*
G01Y1632102D01*
G01X7301382D01*
G01Y1642974D01*
G37*
G36*
G01X7139788Y1603197D02*
G01X7139788Y1592326D01*
G01X7128916D01*
G01Y1577543D01*
G01X7132218D01*
G01Y1589024D01*
G01X7143140D01*
G01Y1599895D01*
G01X7154621D01*
G01Y1589024D01*
G01X7165492D01*
G01Y1577543D01*
G01X7154621D01*
G01Y1566672D01*
G01X7143140D01*
G01Y1577543D01*
G01X7132218D01*
G01X7128916D01*
G01Y1574190D01*
G01X7139788D01*
G01Y1563319D01*
G01X7157923D01*
G01Y1574190D01*
G01X7168794D01*
G01Y1592326D01*
G01X7157923D01*
G01Y1603197D01*
G37*
G36*
G01X7049770Y1553210D02*
G01X7049770Y1542339D01*
G01X7038899D01*
G01Y1527556D01*
G01X7042252D01*
G01Y1539037D01*
G01X7053123D01*
G01Y1549908D01*
G01X7064604D01*
G01Y1539037D01*
G01X7075475D01*
G01Y1527556D01*
G01X7064604D01*
G01Y1516685D01*
G01X7053123D01*
G01Y1527556D01*
G01X7042252D01*
G01X7038899D01*
G01Y1524203D01*
G01X7049770D01*
G01Y1513332D01*
G01X7067906D01*
G01Y1524203D01*
G01X7078777D01*
G01Y1542339D01*
G01X7067906D01*
G01Y1553210D01*
G37*
G36*
G01X7031838Y1810664D02*
G01X7031838Y1799742D01*
G01X7020916D01*
G01Y1784960D01*
G01X7024268D01*
G01Y1796440D01*
G01X7035140D01*
G01Y1807312D01*
G01X7046620D01*
G01Y1796440D01*
G01X7057492D01*
G01Y1784960D01*
G01X7046620D01*
G01Y1774088D01*
G01X7035140D01*
G01Y1784960D01*
G01X7024268D01*
G01X7020916D01*
G01Y1781658D01*
G01X7031838D01*
G01Y1770786D01*
G01X7049922D01*
G01Y1781658D01*
G01X7060794D01*
G01Y1799742D01*
G01X7049922D01*
G01Y1810664D01*
G37*
G36*
G01X7254088Y1848764D02*
G01X7254088Y1837842D01*
G01X7243166D01*
G01Y1823060D01*
G01X7246518D01*
G01Y1834540D01*
G01X7257390D01*
G01Y1845412D01*
G01X7268870D01*
G01Y1834540D01*
G01X7279742D01*
G01Y1823060D01*
G01X7268870D01*
G01Y1812188D01*
G01X7257390D01*
G01Y1823060D01*
G01X7246518D01*
G01X7243166D01*
G01Y1819758D01*
G01X7254088D01*
G01Y1808886D01*
G01X7272172D01*
G01Y1819758D01*
G01X7283044D01*
G01Y1837842D01*
G01X7272172D01*
G01Y1848764D01*
G37*
G36*
G01X4623918Y1416456D02*
G01X4623918Y1405585D01*
G01X4613046D01*
G01Y1390752D01*
G01X4616348D01*
G01Y1402232D01*
G01X4627220D01*
G01Y1413104D01*
G01X4638700D01*
G01Y1402232D01*
G01X4649572D01*
G01Y1390752D01*
G01X4638700D01*
G01Y1379880D01*
G01X4627220D01*
G01Y1390752D01*
G01X4616348D01*
G01X4613046D01*
G01Y1387450D01*
G01X4623918D01*
G01Y1376578D01*
G01X4642002D01*
G01Y1387450D01*
G01X4652924D01*
G01Y1405585D01*
G01X4642002D01*
G01Y1416456D01*
G37*
G36*
G01X2691536Y2032051D02*
G01X2691536Y2021180D01*
G01X2680665D01*
G01Y2006346D01*
G01X2684018D01*
G01Y2017827D01*
G01X2694889D01*
G01Y2028698D01*
G01X2706370D01*
G01Y2017827D01*
G01X2717241D01*
G01Y2006346D01*
G01X2706370D01*
G01Y1995475D01*
G01X2694889D01*
G01Y2006346D01*
G01X2684018D01*
G01X2680665D01*
G01Y2003044D01*
G01X2691536D01*
G01Y1992173D01*
G01X2709672D01*
G01Y2003044D01*
G01X2720543D01*
G01Y2021180D01*
G01X2709672D01*
G01Y2032051D01*
G37*
G36*
G01X3042768Y2184044D02*
G01X3042768Y2173122D01*
G01X3031896D01*
G01Y2158340D01*
G01X3035198D01*
G01Y2169820D01*
G01X3046070D01*
G01Y2180692D01*
G01X3057550D01*
G01Y2169820D01*
G01X3068422D01*
G01Y2158340D01*
G01X3057550D01*
G01Y2147468D01*
G01X3046070D01*
G01Y2158340D01*
G01X3035198D01*
G01X3031896D01*
G01Y2155038D01*
G01X3042768D01*
G01Y2144166D01*
G01X3060852D01*
G01Y2155038D01*
G01X3071774D01*
G01Y2173122D01*
G01X3060852D01*
G01Y2184044D01*
G37*
G36*
G01X3153258Y2158644D02*
G01X3153258Y2147722D01*
G01X3142386D01*
G01Y2132940D01*
G01X3145688D01*
G01Y2144420D01*
G01X3156560D01*
G01Y2155292D01*
G01X3168040D01*
G01Y2144420D01*
G01X3178912D01*
G01Y2132940D01*
G01X3168040D01*
G01Y2122068D01*
G01X3156560D01*
G01Y2132940D01*
G01X3145688D01*
G01X3142386D01*
G01Y2129638D01*
G01X3153258D01*
G01Y2118766D01*
G01X3171342D01*
G01Y2129638D01*
G01X3182264D01*
G01Y2147722D01*
G01X3171342D01*
G01Y2158644D01*
G37*
G36*
G01X4961738Y1576984D02*
G01X4961738Y1566062D01*
G01X4950866D01*
G01Y1551280D01*
G01X4954168D01*
G01Y1562760D01*
G01X4965040D01*
G01Y1573632D01*
G01X4976520D01*
G01Y1562760D01*
G01X4987392D01*
G01Y1551280D01*
G01X4976520D01*
G01Y1540408D01*
G01X4965040D01*
G01Y1551280D01*
G01X4954168D01*
G01X4950866D01*
G01Y1547978D01*
G01X4961738D01*
G01Y1537106D01*
G01X4979822D01*
G01Y1547978D01*
G01X4990744D01*
G01Y1566062D01*
G01X4979822D01*
G01Y1576984D01*
G37*
G36*
G01X5797398Y2210714D02*
G01X5797398Y2199792D01*
G01X5786526D01*
G01Y2185010D01*
G01X5789828D01*
G01Y2196490D01*
G01X5800700D01*
G01Y2207362D01*
G01X5812180D01*
G01Y2196490D01*
G01X5823052D01*
G01Y2185010D01*
G01X5812180D01*
G01Y2174138D01*
G01X5800700D01*
G01Y2185010D01*
G01X5789828D01*
G01X5786526D01*
G01Y2181708D01*
G01X5797398D01*
G01Y2170836D01*
G01X5815482D01*
G01Y2181708D01*
G01X5826404D01*
G01Y2199792D01*
G01X5815482D01*
G01Y2210714D01*
G37*
G36*
G01X5625948Y2211984D02*
G01X5625948Y2201062D01*
G01X5615076D01*
G01Y2186280D01*
G01X5618378D01*
G01Y2197760D01*
G01X5629250D01*
G01Y2208632D01*
G01X5640730D01*
G01Y2197760D01*
G01X5651602D01*
G01Y2186280D01*
G01X5640730D01*
G01Y2175408D01*
G01X5629250D01*
G01Y2186280D01*
G01X5618378D01*
G01X5615076D01*
G01Y2182978D01*
G01X5625948D01*
G01Y2172106D01*
G01X5644032D01*
G01Y2182978D01*
G01X5654954D01*
G01Y2201062D01*
G01X5644032D01*
G01Y2211984D01*
G37*
G36*
G01X5289398Y2205634D02*
G01X5289398Y2194712D01*
G01X5278526D01*
G01Y2179930D01*
G01X5281828D01*
G01Y2191410D01*
G01X5292700D01*
G01Y2202282D01*
G01X5304180D01*
G01Y2191410D01*
G01X5315052D01*
G01Y2179930D01*
G01X5304180D01*
G01Y2169058D01*
G01X5292700D01*
G01Y2179930D01*
G01X5281828D01*
G01X5278526D01*
G01Y2176628D01*
G01X5289398D01*
G01Y2165756D01*
G01X5307482D01*
G01Y2176628D01*
G01X5318404D01*
G01Y2194712D01*
G01X5307482D01*
G01Y2205634D01*
G37*
G36*
G01X2776068Y828954D02*
G01X2776068Y818032D01*
G01X2765196D01*
G01Y803250D01*
G01X2768498D01*
G01Y814730D01*
G01X2779370D01*
G01Y825602D01*
G01X2790850D01*
G01Y814730D01*
G01X2801722D01*
G01Y803250D01*
G01X2790850D01*
G01Y792378D01*
G01X2779370D01*
G01Y803250D01*
G01X2768498D01*
G01X2765196D01*
G01Y799948D01*
G01X2776068D01*
G01Y789076D01*
G01X2794152D01*
G01Y799948D01*
G01X2805074D01*
G01Y818032D01*
G01X2794152D01*
G01Y828954D01*
G37*
G36*
G01X2722728Y1034694D02*
G01X2722728Y1023772D01*
G01X2711856D01*
G01Y1008990D01*
G01X2715158D01*
G01Y1020470D01*
G01X2726030D01*
G01Y1031342D01*
G01X2737510D01*
G01Y1020470D01*
G01X2748382D01*
G01Y1008990D01*
G01X2737510D01*
G01Y998118D01*
G01X2726030D01*
G01Y1008990D01*
G01X2715158D01*
G01X2711856D01*
G01Y1005688D01*
G01X2722728D01*
G01Y994816D01*
G01X2740812D01*
G01Y1005688D01*
G01X2751734D01*
G01Y1023772D01*
G01X2740812D01*
G01Y1034694D01*
G37*
G36*
G01X5764378Y1576984D02*
G01X5764378Y1566062D01*
G01X5753506D01*
G01Y1551280D01*
G01X5756808D01*
G01Y1562760D01*
G01X5767680D01*
G01Y1573632D01*
G01X5779160D01*
G01Y1562760D01*
G01X5790032D01*
G01Y1551280D01*
G01X5779160D01*
G01Y1540408D01*
G01X5767680D01*
G01Y1551280D01*
G01X5756808D01*
G01X5753506D01*
G01Y1547978D01*
G01X5764378D01*
G01Y1537106D01*
G01X5782462D01*
G01Y1547978D01*
G01X5793384D01*
G01Y1566062D01*
G01X5782462D01*
G01Y1576984D01*
G37*
G36*
G01X5854751Y1576984D02*
G01X5854751Y1566062D01*
G01X5843880D01*
G01Y1551280D01*
G01X5847232D01*
G01Y1562760D01*
G01X5858104D01*
G01Y1573632D01*
G01X5869584D01*
G01Y1562760D01*
G01X5880456D01*
G01Y1551280D01*
G01X5869584D01*
G01Y1540408D01*
G01X5858104D01*
G01Y1551280D01*
G01X5847232D01*
G01X5843880D01*
G01Y1547978D01*
G01X5854751D01*
G01Y1537106D01*
G01X5872886D01*
G01Y1547978D01*
G01X5883758D01*
G01Y1566062D01*
G01X5872886D01*
G01Y1576984D01*
G37*
G36*
G01X7354418Y2632304D02*
G01X7354418Y2621432D01*
G01X7343496D01*
G01Y2606650D01*
G01X7346848D01*
G01Y2618130D01*
G01X7357720D01*
G01Y2629002D01*
G01X7369200D01*
G01Y2618130D01*
G01X7380072D01*
G01Y2606650D01*
G01X7369200D01*
G01Y2595778D01*
G01X7357720D01*
G01Y2606650D01*
G01X7346848D01*
G01X7343496D01*
G01Y2603348D01*
G01X7354418D01*
G01Y2592476D01*
G01X7372502D01*
G01Y2603348D01*
G01X7383374D01*
G01Y2621432D01*
G01X7372502D01*
G01Y2632304D01*
G37*
G36*
G01X6072988Y2232254D02*
G01X6072988Y2221382D01*
G01X6062116D01*
G01Y2206600D01*
G01X6065418D01*
G01Y2218080D01*
G01X6076290D01*
G01Y2228952D01*
G01X6087770D01*
G01Y2218080D01*
G01X6098642D01*
G01Y2206600D01*
G01X6087770D01*
G01Y2195728D01*
G01X6076290D01*
G01Y2206600D01*
G01X6065418D01*
G01X6062116D01*
G01Y2203298D01*
G01X6072988D01*
G01Y2192426D01*
G01X6091072D01*
G01Y2203298D01*
G01X6101994D01*
G01Y2221382D01*
G01X6091072D01*
G01Y2232254D01*
G37*
G36*
G01X2792578Y1944014D02*
G01X2792578Y1933092D01*
G01X2781706D01*
G01Y1918310D01*
G01X2785008D01*
G01Y1929790D01*
G01X2795880D01*
G01Y1940662D01*
G01X2807360D01*
G01Y1929790D01*
G01X2818232D01*
G01Y1918310D01*
G01X2807360D01*
G01Y1907438D01*
G01X2795880D01*
G01Y1918310D01*
G01X2785008D01*
G01X2781706D01*
G01Y1915008D01*
G01X2792578D01*
G01Y1904136D01*
G01X2810662D01*
G01Y1915008D01*
G01X2821584D01*
G01Y1933092D01*
G01X2810662D01*
G01Y1944014D01*
G37*
G36*
G01X3231998Y1756004D02*
G01X3231998Y1745132D01*
G01X3221126D01*
G01Y1730350D01*
G01X3224428D01*
G01Y1741830D01*
G01X3235300D01*
G01Y1752702D01*
G01X3246780D01*
G01Y1741830D01*
G01X3257652D01*
G01Y1730350D01*
G01X3246780D01*
G01Y1719478D01*
G01X3235300D01*
G01Y1730350D01*
G01X3224428D01*
G01X3221126D01*
G01Y1727048D01*
G01X3231998D01*
G01Y1716176D01*
G01X3250082D01*
G01Y1727048D01*
G01X3260954D01*
G01Y1745132D01*
G01X3250082D01*
G01Y1756004D01*
G37*
G36*
G01X4917288Y1289964D02*
G01X4917288Y1279042D01*
G01X4906416D01*
G01Y1264260D01*
G01X4909718D01*
G01Y1275740D01*
G01X4920590D01*
G01Y1286612D01*
G01X4932070D01*
G01Y1275740D01*
G01X4942942D01*
G01Y1264260D01*
G01X4932070D01*
G01Y1253388D01*
G01X4920590D01*
G01Y1264260D01*
G01X4909718D01*
G01X4906416D01*
G01Y1260958D01*
G01X4917288D01*
G01Y1250086D01*
G01X4935372D01*
G01Y1260958D01*
G01X4946294D01*
G01Y1279042D01*
G01X4935372D01*
G01Y1289964D01*
G37*
G36*
G01X4904588Y1484274D02*
G01X4904588Y1473352D01*
G01X4893716D01*
G01Y1458570D01*
G01X4897018D01*
G01Y1470050D01*
G01X4907890D01*
G01Y1480922D01*
G01X4919370D01*
G01Y1470050D01*
G01X4930242D01*
G01Y1458570D01*
G01X4919370D01*
G01Y1447698D01*
G01X4907890D01*
G01Y1458570D01*
G01X4897018D01*
G01X4893716D01*
G01Y1455268D01*
G01X4904588D01*
G01Y1444396D01*
G01X4922672D01*
G01Y1455268D01*
G01X4933594D01*
G01Y1473352D01*
G01X4922672D01*
G01Y1484274D01*
G37*
G36*
G01X4100678Y2164994D02*
G01X4100678Y2154072D01*
G01X4089806D01*
G01Y2139290D01*
G01X4093108D01*
G01Y2150770D01*
G01X4103980D01*
G01Y2161642D01*
G01X4115460D01*
G01Y2150770D01*
G01X4126332D01*
G01Y2139290D01*
G01X4115460D01*
G01Y2128418D01*
G01X4103980D01*
G01Y2139290D01*
G01X4093108D01*
G01X4089806D01*
G01Y2135988D01*
G01X4100678D01*
G01Y2125116D01*
G01X4118762D01*
G01Y2135988D01*
G01X4129684D01*
G01Y2154072D01*
G01X4118762D01*
G01Y2164994D01*
G37*
G36*
G01X2810358Y1095654D02*
G01X2810358Y1084732D01*
G01X2799486D01*
G01Y1069950D01*
G01X2802788D01*
G01Y1081430D01*
G01X2813660D01*
G01Y1092302D01*
G01X2825140D01*
G01Y1081430D01*
G01X2836012D01*
G01Y1069950D01*
G01X2825140D01*
G01Y1059078D01*
G01X2813660D01*
G01Y1069950D01*
G01X2802788D01*
G01X2799486D01*
G01Y1066648D01*
G01X2810358D01*
G01Y1055776D01*
G01X2828442D01*
G01Y1066648D01*
G01X2839364D01*
G01Y1084732D01*
G01X2828442D01*
G01Y1095654D01*
G37*
G36*
G01X4138270Y1466037D02*
G01X4138270Y1455166D01*
G01X4127348D01*
G01Y1440332D01*
G01X4130700D01*
G01Y1451813D01*
G01X4141572D01*
G01Y1462684D01*
G01X4153052D01*
G01Y1451813D01*
G01X4163924D01*
G01Y1440332D01*
G01X4153052D01*
G01Y1429461D01*
G01X4141572D01*
G01Y1440332D01*
G01X4130700D01*
G01X4127348D01*
G01Y1437030D01*
G01X4138270D01*
G01Y1426159D01*
G01X4156354D01*
G01Y1437030D01*
G01X4167226D01*
G01Y1455166D01*
G01X4156354D01*
G01Y1466037D01*
G37*
G36*
G01X4378046Y1456792D02*
G01X4378046Y1445920D01*
G01X4367174D01*
G01Y1431138D01*
G01X4370476D01*
G01Y1442618D01*
G01X4381348D01*
G01Y1453490D01*
G01X4392828D01*
G01Y1442618D01*
G01X4403700D01*
G01Y1431138D01*
G01X4392828D01*
G01Y1420266D01*
G01X4381348D01*
G01Y1431138D01*
G01X4370476D01*
G01X4367174D01*
G01Y1427785D01*
G01X4378046D01*
G01Y1416914D01*
G01X4396181D01*
G01Y1427785D01*
G01X4407052D01*
G01Y1445920D01*
G01X4396130D01*
G01Y1456792D01*
G37*
G36*
G01X4258158Y1390701D02*
G01X4258158Y1379830D01*
G01X4247286D01*
G01Y1365047D01*
G01X4250588D01*
G01Y1376528D01*
G01X4261460D01*
G01Y1387399D01*
G01X4272940D01*
G01Y1376528D01*
G01X4283812D01*
G01Y1365047D01*
G01X4272940D01*
G01Y1354176D01*
G01X4261460D01*
G01Y1365047D01*
G01X4250588D01*
G01X4247286D01*
G01Y1361694D01*
G01X4258158D01*
G01Y1350823D01*
G01X4276242D01*
G01Y1361694D01*
G01X4287164D01*
G01Y1379830D01*
G01X4276242D01*
G01Y1390701D01*
G37*
G36*
G01X3986378Y2164994D02*
G01X3986378Y2154072D01*
G01X3975506D01*
G01Y2139290D01*
G01X3978808D01*
G01Y2150770D01*
G01X3989680D01*
G01Y2161642D01*
G01X4001160D01*
G01Y2150770D01*
G01X4012032D01*
G01Y2139290D01*
G01X4001160D01*
G01Y2128418D01*
G01X3989680D01*
G01Y2139290D01*
G01X3978808D01*
G01X3975506D01*
G01Y2135988D01*
G01X3986378D01*
G01Y2125116D01*
G01X4004462D01*
G01Y2135988D01*
G01X4015384D01*
G01Y2154072D01*
G01X4004462D01*
G01Y2164994D01*
G37*
G04 Image End*
G54D10*

M02*
