G04 Layer: TopPasteMaskLayer*
G04 EasyEDA Pro v2.1.42.467b0aa0, 2024-01-03 14:17:13*
G04 Gerber Generator version 0.3*
G04 Scale: 100 percent, Rotated: No, Reflected: No*
G04 Dimensions in millimeters*
G04 Leading zeros omitted, absolute positions, 3 integers and 5 decimals*
%FSLAX35Y35*%
%MOMM*%
%ADD10C,0.67501*%
%ADD11R,0.95001X2.1*%
%ADD12R,2.1X0.95001*%
%ADD13R,0.9X0.9*%
%ADD14R,0.98001X2.47*%
%ADD15R,3.59999X2.47*%
%ADD16R,0.6X0.6*%
%ADD17R,0.6X0.6*%
%ADD18R,0.7026X1.25001*%
%ADD19R,0.7X1.25001*%
%ADD20R,0.8X0.8*%
%ADD21R,1.0X1.1*%
%ADD22R,2.0X0.7*%
%ADD23R,1.0X1.1*%
%ADD24R,2.0X0.7*%
G75*


G04 PolygonModel Start*
G36*
G01X4402200Y1348360D02*
G01X4132200Y1348360D01*
G01Y1618360D01*
G01X4402200D01*
G01Y1348360D01*
G37*
G36*
G01X4431185Y1200366D02*
G01X4403184Y1200366D01*
G01Y1290866D01*
G01X4431185D01*
G01Y1200366D01*
G37*
G36*
G01X4381198Y1200366D02*
G01X4353197Y1200366D01*
G01Y1290866D01*
G01X4381198D01*
G01Y1200366D01*
G37*
G36*
G01X4331185Y1200366D02*
G01X4303184Y1200366D01*
G01Y1290866D01*
G01X4331185D01*
G01Y1200366D01*
G37*
G36*
G01X4281198Y1200366D02*
G01X4253197Y1200366D01*
G01Y1290866D01*
G01X4281198D01*
G01Y1200366D01*
G37*
G36*
G01X4231185Y1200366D02*
G01X4203184Y1200366D01*
G01Y1290866D01*
G01X4231185D01*
G01Y1200366D01*
G37*
G36*
G01X4181198Y1200366D02*
G01X4153197Y1200366D01*
G01Y1290866D01*
G01X4181198D01*
G01Y1200366D01*
G37*
G36*
G01X4131186Y1200366D02*
G01X4103185Y1200366D01*
G01Y1290866D01*
G01X4131186D01*
G01Y1200366D01*
G37*
G36*
G01X4074704Y1319373D02*
G01X3984203Y1319373D01*
G01Y1347373D01*
G01X4074704D01*
G01Y1319373D01*
G37*
G36*
G01X4074704Y1369360D02*
G01X3984203Y1369360D01*
G01Y1397361D01*
G01X4074704D01*
G01Y1369360D01*
G37*
G36*
G01X4074704Y1419372D02*
G01X3984203Y1419372D01*
G01Y1447373D01*
G01X4074704D01*
G01Y1419372D01*
G37*
G36*
G01X4074704Y1469360D02*
G01X3984203Y1469360D01*
G01Y1497360D01*
G01X4074704D01*
G01Y1469360D01*
G37*
G36*
G01X4074704Y1519372D02*
G01X3984203Y1519372D01*
G01Y1547373D01*
G01X4074704D01*
G01Y1519372D01*
G37*
G36*
G01X4074704Y1569359D02*
G01X3984203Y1569359D01*
G01Y1597360D01*
G01X4074704D01*
G01Y1569359D01*
G37*
G36*
G01X4074704Y1619372D02*
G01X3984203Y1619372D01*
G01Y1647373D01*
G01X4074704D01*
G01Y1619372D01*
G37*
G36*
G01X4131186Y1675854D02*
G01X4103185Y1675854D01*
G01Y1766354D01*
G01X4131186D01*
G01Y1675854D01*
G37*
G36*
G01X4181198Y1675854D02*
G01X4153197Y1675854D01*
G01Y1766354D01*
G01X4181198D01*
G01Y1675854D01*
G37*
G36*
G01X4231185Y1675854D02*
G01X4203184Y1675854D01*
G01Y1766354D01*
G01X4231185D01*
G01Y1675854D01*
G37*
G36*
G01X4281198Y1675854D02*
G01X4253197Y1675854D01*
G01Y1766354D01*
G01X4281198D01*
G01Y1675854D01*
G37*
G36*
G01X4331185Y1675854D02*
G01X4303184Y1675854D01*
G01Y1766354D01*
G01X4331185D01*
G01Y1675854D01*
G37*
G36*
G01X4381198Y1675854D02*
G01X4353197Y1675854D01*
G01Y1766354D01*
G01X4381198D01*
G01Y1675854D01*
G37*
G36*
G01X4431185Y1675854D02*
G01X4403184Y1675854D01*
G01Y1766354D01*
G01X4431185D01*
G01Y1675854D01*
G37*
G36*
G01X4550192Y1619372D02*
G01X4459691Y1619372D01*
G01Y1647373D01*
G01X4550192D01*
G01Y1619372D01*
G37*
G36*
G01X4550192Y1569359D02*
G01X4459691Y1569359D01*
G01Y1597360D01*
G01X4550192D01*
G01Y1569359D01*
G37*
G36*
G01X4550192Y1519372D02*
G01X4459691Y1519372D01*
G01Y1547373D01*
G01X4550192D01*
G01Y1519372D01*
G37*
G36*
G01X4550192Y1469360D02*
G01X4459691Y1469360D01*
G01Y1497360D01*
G01X4550192D01*
G01Y1469360D01*
G37*
G36*
G01X4550192Y1419372D02*
G01X4459691Y1419372D01*
G01Y1447373D01*
G01X4550192D01*
G01Y1419372D01*
G37*
G36*
G01X4550192Y1369360D02*
G01X4459691Y1369360D01*
G01Y1397361D01*
G01X4550192D01*
G01Y1369360D01*
G37*
G36*
G01X4550192Y1319373D02*
G01X4459691Y1319373D01*
G01Y1347373D01*
G01X4550192D01*
G01Y1319373D01*
G37*
G36*
G01X2693998Y1187460D02*
G02X2693998Y1067468I0J-59996D01*
G01X2623983D01*
G02Y1187460I0J59996D01*
G01X2693998D01*
G37*
G36*
G01X2693998Y1887479D02*
G02X2693998Y1767492I-390J-59994D01*
G01X2623988D01*
G02Y1887479I390J59994D01*
G01X2693998D01*
G37*
G36*
G01X2991985Y1367493D02*
G01X2991985Y1327358D01*
G01X2861948D01*
G01Y1367493D01*
G01X2991985D01*
G37*
G36*
G01X2991985Y1432512D02*
G01X2991985Y1392377D01*
G01X2861948D01*
G01Y1432512D01*
G01X2991985D01*
G37*
G36*
G01X2991963Y1497467D02*
G01X2991963Y1457482D01*
G01X2861970D01*
G01Y1497467D01*
G01X2991963D01*
G37*
G36*
G01X2991985Y1562560D02*
G01X2991985Y1522428D01*
G01X2861948D01*
G01Y1562560D01*
G01X2991985D01*
G37*
G36*
G01X2991985Y1627408D02*
G01X2991985Y1587533D01*
G01X2861948D01*
G01Y1627408D01*
G01X2991985D01*
G37*
G36*
G01X2760970Y1452476D02*
G01X2760970Y1302474D01*
G01X2570978D01*
G01Y1452476D01*
G01X2760970D01*
G37*
G36*
G01X2760993Y1652478D02*
G01X2760993Y1502476D01*
G01X2571001D01*
G01Y1652478D01*
G01X2760993D01*
G37*
G36*
G01X4976678Y1069701D02*
G01X4976678Y1114702D01*
G01X4981677Y1119701D01*
G01X5034676D01*
G01X5039678Y1114702D01*
G01Y1069701D01*
G01X5034676Y1064702D01*
G01X4981677D01*
G01X4976678Y1069701D01*
G37*
G36*
G01X5079677Y1069701D02*
G01X5079677Y1114702D01*
G01X5084676Y1119701D01*
G01X5137676D01*
G01X5142677Y1114702D01*
G01Y1069701D01*
G01X5137676Y1064702D01*
G01X5084676D01*
G01X5079677Y1069701D01*
G37*
G36*
G01X3314840Y883450D02*
G01X3268840Y883450D01*
G01X3264840Y887451D01*
G01Y937514D01*
G01X3268840Y941515D01*
G01X3314840D01*
G01X3318840Y937514D01*
G01Y887451D01*
G01X3314840Y883450D01*
G37*
G36*
G01X3314840Y856450D02*
G01X3268840Y856450D01*
G01X3264840Y852449D01*
G01Y802386D01*
G01X3268840Y798386D01*
G01X3314840D01*
G01X3318840Y802386D01*
G01Y852449D01*
G01X3314840Y856450D01*
G37*
G36*
G01X3561220Y865670D02*
G01X3515220Y865670D01*
G01X3511220Y869671D01*
G01Y919734D01*
G01X3515220Y923735D01*
G01X3561220D01*
G01X3565220Y919734D01*
G01Y869671D01*
G01X3561220Y865670D01*
G37*
G36*
G01X3561220Y838670D02*
G01X3515220Y838670D01*
G01X3511220Y834669D01*
G01Y784606D01*
G01X3515220Y780606D01*
G01X3561220D01*
G01X3565220Y784606D01*
G01Y834669D01*
G01X3561220Y838670D01*
G37*
G36*
G01X4753140Y1226680D02*
G01X4753140Y1272680D01*
G01X4757141Y1276680D01*
G01X4807204D01*
G01X4811205Y1272680D01*
G01Y1226680D01*
G01X4807204Y1222680D01*
G01X4757141D01*
G01X4753140Y1226680D01*
G37*
G36*
G01X4726140Y1226680D02*
G01X4726140Y1272680D01*
G01X4722139Y1276680D01*
G01X4672076D01*
G01X4668076Y1272680D01*
G01Y1226680D01*
G01X4672076Y1222680D01*
G01X4722139D01*
G01X4726140Y1226680D01*
G37*
G36*
G01X4305160Y992340D02*
G01X4351160Y992340D01*
G01X4355160Y988339D01*
G01Y938276D01*
G01X4351160Y934276D01*
G01X4305160D01*
G01X4301160Y938276D01*
G01Y988339D01*
G01X4305160Y992340D01*
G37*
G36*
G01X4305160Y1019340D02*
G01X4351160Y1019340D01*
G01X4355160Y1023341D01*
G01Y1073404D01*
G01X4351160Y1077405D01*
G01X4305160D01*
G01X4301160Y1073404D01*
G01Y1023341D01*
G01X4305160Y1019340D01*
G37*
G36*
G01X5036020Y1257440D02*
G01X5036020Y1211440D01*
G01X5032019Y1207440D01*
G01X4981956D01*
G01X4977956Y1211440D01*
G01Y1257440D01*
G01X4981956Y1261440D01*
G01X5032019D01*
G01X5036020Y1257440D01*
G37*
G36*
G01X5063020Y1257440D02*
G01X5063020Y1211440D01*
G01X5067021Y1207440D01*
G01X5117084D01*
G01X5121085Y1211440D01*
G01Y1257440D01*
G01X5117084Y1261440D01*
G01X5067021D01*
G01X5063020Y1257440D01*
G37*
G36*
G01X4126700Y1912760D02*
G01X4126700Y1866760D01*
G01X4122699Y1862760D01*
G01X4072636D01*
G01X4068636Y1866760D01*
G01Y1912760D01*
G01X4072636Y1916760D01*
G01X4122699D01*
G01X4126700Y1912760D01*
G37*
G36*
G01X4153700Y1912760D02*
G01X4153700Y1866760D01*
G01X4157701Y1862760D01*
G01X4207764D01*
G01X4211765Y1866760D01*
G01Y1912760D01*
G01X4207764Y1916760D01*
G01X4157701D01*
G01X4153700Y1912760D01*
G37*
G36*
G01X4570260Y1866760D02*
G01X4570260Y1912760D01*
G01X4574261Y1916760D01*
G01X4624324D01*
G01X4628325Y1912760D01*
G01Y1866760D01*
G01X4624324Y1862760D01*
G01X4574261D01*
G01X4570260Y1866760D01*
G37*
G36*
G01X4543260Y1866760D02*
G01X4543260Y1912760D01*
G01X4539259Y1916760D01*
G01X4489196D01*
G01X4485196Y1912760D01*
G01Y1866760D01*
G01X4489196Y1862760D01*
G01X4539259D01*
G01X4543260Y1866760D01*
G37*
G36*
G01X4751540Y1912760D02*
G01X4751540Y1866760D01*
G01X4747539Y1862760D01*
G01X4697476D01*
G01X4693476Y1866760D01*
G01Y1912760D01*
G01X4697476Y1916760D01*
G01X4747539D01*
G01X4751540Y1912760D01*
G37*
G36*
G01X4778540Y1912760D02*
G01X4778540Y1866760D01*
G01X4782541Y1862760D01*
G01X4832604D01*
G01X4836605Y1866760D01*
G01Y1912760D01*
G01X4832604Y1916760D01*
G01X4782541D01*
G01X4778540Y1912760D01*
G37*
G36*
G01X4334980Y1912760D02*
G01X4334980Y1866760D01*
G01X4330979Y1862760D01*
G01X4280916D01*
G01X4276916Y1866760D01*
G01Y1912760D01*
G01X4280916Y1916760D01*
G01X4330979D01*
G01X4334980Y1912760D01*
G37*
G36*
G01X4361980Y1912760D02*
G01X4361980Y1866760D01*
G01X4365981Y1862760D01*
G01X4416044D01*
G01X4420045Y1866760D01*
G01Y1912760D01*
G01X4416044Y1916760D01*
G01X4365981D01*
G01X4361980Y1912760D01*
G37*
G36*
G01X3928562Y858159D02*
G01X3928562Y813158D01*
G01X3923563Y808159D01*
G01X3870564D01*
G01X3865563Y813158D01*
G01Y858159D01*
G01X3870564Y863158D01*
G01X3923563D01*
G01X3928562Y858159D01*
G37*
G36*
G01X3825563Y858159D02*
G01X3825563Y813158D01*
G01X3820564Y808159D01*
G01X3767564D01*
G01X3762563Y813158D01*
G01Y858159D01*
G01X3767564Y863158D01*
G01X3820564D01*
G01X3825563Y858159D01*
G37*
G36*
G01X3238139Y1923598D02*
G01X3193138Y1923598D01*
G01X3188139Y1928597D01*
G01Y1981596D01*
G01X3193138Y1986598D01*
G01X3238139D01*
G01X3243138Y1981596D01*
G01Y1928597D01*
G01X3238139Y1923598D01*
G37*
G36*
G01X3238139Y2026597D02*
G01X3193138Y2026597D01*
G01X3188139Y2031596D01*
G01Y2084596D01*
G01X3193138Y2089597D01*
G01X3238139D01*
G01X3243138Y2084596D01*
G01Y2031596D01*
G01X3238139Y2026597D01*
G37*
G36*
G01X6458420Y419240D02*
G01X6458420Y373240D01*
G01X6454419Y369240D01*
G01X6404356D01*
G01X6400356Y373240D01*
G01Y419240D01*
G01X6404356Y423240D01*
G01X6454419D01*
G01X6458420Y419240D01*
G37*
G36*
G01X6485420Y419240D02*
G01X6485420Y373240D01*
G01X6489421Y369240D01*
G01X6539484D01*
G01X6543485Y373240D01*
G01Y419240D01*
G01X6539484Y423240D01*
G01X6489421D01*
G01X6485420Y419240D01*
G37*
G36*
G01X6266980Y373240D02*
G01X6266980Y419240D01*
G01X6270981Y423240D01*
G01X6321044D01*
G01X6325045Y419240D01*
G01Y373240D01*
G01X6321044Y369240D01*
G01X6270981D01*
G01X6266980Y373240D01*
G37*
G36*
G01X6239980Y373240D02*
G01X6239980Y419240D01*
G01X6235979Y423240D01*
G01X6185916D01*
G01X6181916Y419240D01*
G01Y373240D01*
G01X6185916Y369240D01*
G01X6235979D01*
G01X6239980Y373240D01*
G37*
G36*
G01X5966320Y1789900D02*
G01X6012320Y1789900D01*
G01X6016320Y1785899D01*
G01Y1735836D01*
G01X6012320Y1731836D01*
G01X5966320D01*
G01X5962320Y1735836D01*
G01Y1785899D01*
G01X5966320Y1789900D01*
G37*
G36*
G01X5966320Y1816900D02*
G01X6012320Y1816900D01*
G01X6016320Y1820901D01*
G01Y1870964D01*
G01X6012320Y1874965D01*
G01X5966320D01*
G01X5962320Y1870964D01*
G01Y1820901D01*
G01X5966320Y1816900D01*
G37*
G36*
G01X6012320Y1166660D02*
G01X5966320Y1166660D01*
G01X5962320Y1170661D01*
G01Y1220724D01*
G01X5966320Y1224725D01*
G01X6012320D01*
G01X6016320Y1220724D01*
G01Y1170661D01*
G01X6012320Y1166660D01*
G37*
G36*
G01X6012320Y1139660D02*
G01X5966320Y1139660D01*
G01X5962320Y1135659D01*
G01Y1085596D01*
G01X5966320Y1081596D01*
G01X6012320D01*
G01X6016320Y1085596D01*
G01Y1135659D01*
G01X6012320Y1139660D01*
G37*
G36*
G01X4635861Y2582362D02*
G01X4680862Y2582362D01*
G01X4685861Y2577363D01*
G01Y2524364D01*
G01X4680862Y2519363D01*
G01X4635861D01*
G01X4630862Y2524364D01*
G01Y2577363D01*
G01X4635861Y2582362D01*
G37*
G36*
G01X4635861Y2479363D02*
G01X4680862Y2479363D01*
G01X4685861Y2474364D01*
G01Y2421364D01*
G01X4680862Y2416363D01*
G01X4635861D01*
G01X4630862Y2421364D01*
G01Y2474364D01*
G01X4635861Y2479363D01*
G37*
G36*
G01X5260564Y1979018D02*
G01X5260564Y2024019D01*
G01X5267561Y2029018D01*
G01X5315562D01*
G01X5320563Y2024019D01*
G01Y1979018D01*
G01X5315562Y1974019D01*
G01X5267561D01*
G01X5260564Y1979018D01*
G37*
G36*
G01X5164562Y1979018D02*
G01X5164562Y2024019D01*
G01X5169563Y2029018D01*
G01X5217561D01*
G01X5224562Y2024019D01*
G01Y1979018D01*
G01X5217561Y1974019D01*
G01X5169563D01*
G01X5164562Y1979018D01*
G37*
G36*
G01X5829524Y1735178D02*
G01X5829524Y1780179D01*
G01X5836521Y1785178D01*
G01X5884522D01*
G01X5889523Y1780179D01*
G01Y1735178D01*
G01X5884522Y1730179D01*
G01X5836521D01*
G01X5829524Y1735178D01*
G37*
G36*
G01X5733522Y1735178D02*
G01X5733522Y1780179D01*
G01X5738523Y1785178D01*
G01X5786521D01*
G01X5793522Y1780179D01*
G01Y1735178D01*
G01X5786521Y1730179D01*
G01X5738523D01*
G01X5733522Y1735178D01*
G37*
G36*
G01X5565364Y1979018D02*
G01X5565364Y2024019D01*
G01X5572361Y2029018D01*
G01X5620362D01*
G01X5625363Y2024019D01*
G01Y1979018D01*
G01X5620362Y1974019D01*
G01X5572361D01*
G01X5565364Y1979018D01*
G37*
G36*
G01X5469362Y1979018D02*
G01X5469362Y2024019D01*
G01X5474363Y2029018D01*
G01X5522361D01*
G01X5529362Y2024019D01*
G01Y1979018D01*
G01X5522361Y1974019D01*
G01X5474363D01*
G01X5469362Y1979018D01*
G37*
G36*
G01X2655118Y2126341D02*
G01X2655118Y2171342D01*
G01X2660117Y2176341D01*
G01X2713116D01*
G01X2718118Y2171342D01*
G01Y2126341D01*
G01X2713116Y2121342D01*
G01X2660117D01*
G01X2655118Y2126341D01*
G37*
G36*
G01X2758117Y2126341D02*
G01X2758117Y2171342D01*
G01X2763116Y2176341D01*
G01X2816116D01*
G01X2821117Y2171342D01*
G01Y2126341D01*
G01X2816116Y2121342D01*
G01X2763116D01*
G01X2758117Y2126341D01*
G37*
G36*
G01X4788812Y1488664D02*
G01X4743811Y1488664D01*
G01X4738812Y1495661D01*
G01Y1543662D01*
G01X4743811Y1548663D01*
G01X4788812D01*
G01X4793811Y1543662D01*
G01Y1495661D01*
G01X4788812Y1488664D01*
G37*
G36*
G01X4788812Y1392662D02*
G01X4743811Y1392662D01*
G01X4738812Y1397663D01*
G01Y1445661D01*
G01X4743811Y1452662D01*
G01X4788812D01*
G01X4793811Y1445661D01*
G01Y1397663D01*
G01X4788812Y1392662D01*
G37*
G36*
G01X4817562Y1709059D02*
G01X4817562Y1664058D01*
G01X4812563Y1659059D01*
G01X4759564D01*
G01X4754563Y1664058D01*
G01Y1709059D01*
G01X4759564Y1714058D01*
G01X4812563D01*
G01X4817562Y1709059D01*
G37*
G36*
G01X4714563Y1709059D02*
G01X4714563Y1664058D01*
G01X4709564Y1659059D01*
G01X4656564D01*
G01X4651563Y1664058D01*
G01Y1709059D01*
G01X4656564Y1714058D01*
G01X4709564D01*
G01X4714563Y1709059D01*
G37*
G36*
G01X7952964Y2588618D02*
G01X7952964Y2633619D01*
G01X7959961Y2638618D01*
G01X8007962D01*
G01X8012963Y2633619D01*
G01Y2588618D01*
G01X8007962Y2583619D01*
G01X7959961D01*
G01X7952964Y2588618D01*
G37*
G36*
G01X7856962Y2588618D02*
G01X7856962Y2633619D01*
G01X7861963Y2638618D01*
G01X7909961D01*
G01X7916962Y2633619D01*
G01Y2588618D01*
G01X7909961Y2583619D01*
G01X7861963D01*
G01X7856962Y2588618D01*
G37*
G36*
G01X7672522Y2633619D02*
G01X7672522Y2588618D01*
G01X7667523Y2583619D01*
G01X7614524D01*
G01X7609523Y2588618D01*
G01Y2633619D01*
G01X7614524Y2638618D01*
G01X7667523D01*
G01X7672522Y2633619D01*
G37*
G36*
G01X7569523Y2633619D02*
G01X7569523Y2588618D01*
G01X7564524Y2583619D01*
G01X7511524D01*
G01X7506523Y2588618D01*
G01Y2633619D01*
G01X7511524Y2638618D01*
G01X7564524D01*
G01X7569523Y2633619D01*
G37*
G36*
G01X2689499Y804728D02*
G01X2644498Y804728D01*
G01X2639499Y809727D01*
G01Y862726D01*
G01X2644498Y867728D01*
G01X2689499D01*
G01X2694498Y862726D01*
G01Y809727D01*
G01X2689499Y804728D01*
G37*
G36*
G01X2689499Y907727D02*
G01X2644498Y907727D01*
G01X2639499Y912726D01*
G01Y965726D01*
G01X2644498Y970727D01*
G01X2689499D01*
G01X2694498Y965726D01*
G01Y912726D01*
G01X2689499Y907727D01*
G37*
G04 PolygonModel End*

G04 Circle Start*
G54D10*
G01X2895227Y1727497D02*
G03X2962730Y1727497I33752J0D01*
G03X2895227I-33752J0D01*
G01X2895227Y1227501D02*
G03X2962730Y1227501I33752J0D01*
G03X2895227I-33752J0D01*
G04 Circle End*

G04 Pad Start*
G54D11*
G01X8012252Y2378291D03*
G01X7885252Y2378291D03*
G01X7758252Y2378291D03*
G01X7631252Y2378291D03*
G01X7504252Y2378291D03*
G01X7377252Y2378291D03*
G01X7250252Y2378291D03*
G01X7123252Y2378291D03*
G01X6996252Y2378291D03*
G01X6869252Y2378291D03*
G01X6742252Y2378291D03*
G01X6615252Y2378291D03*
G01X6488252Y2378291D03*
G01X6361252Y2378291D03*
G54D12*
G01X6211748Y2049767D03*
G01X6211748Y1922767D03*
G01X6211748Y1795767D03*
G01X6211748Y1668767D03*
G01X6211748Y1541767D03*
G01X6211748Y1414767D03*
G01X6211748Y1287767D03*
G01X6211748Y1160767D03*
G01X6211748Y1033767D03*
G01X6211748Y906767D03*
G54D11*
G01X6361252Y578269D03*
G01X6488252Y578269D03*
G01X6615252Y578269D03*
G01X6742252Y578269D03*
G01X6869252Y578269D03*
G01X6996252Y578269D03*
G01X7123252Y578269D03*
G01X7250252Y578269D03*
G01X7377252Y578269D03*
G01X7504252Y578269D03*
G01X7631252Y578269D03*
G01X7758252Y578269D03*
G01X7885252Y578269D03*
G01X8012252Y578269D03*
G54D13*
G01X7244156Y1628305D03*
G01X7244156Y1768285D03*
G01X7244156Y1488275D03*
G01X7384161Y1488275D03*
G01X7384161Y1628280D03*
G01X7384161Y1768285D03*
G01X7104151Y1768285D03*
G01X7104151Y1628280D03*
G01X7104151Y1488275D03*
G54D14*
G01X5635117Y1736369D03*
G01X5405120Y1736369D03*
G01X5175123Y1736369D03*
G54D15*
G01X5405120Y1169391D03*
G54D16*
G01X3053080Y1936687D03*
G54D17*
G01X3053080Y2086674D03*
G54D16*
G01X3149600Y1570927D03*
G54D17*
G01X3149600Y1720914D03*
G01X3149600Y1456754D03*
G54D16*
G01X3149600Y1306767D03*
G54D19*
G01X4865116Y1090600D03*
G01X4675124Y1090600D03*
G01X4770120Y890600D03*
G01X4128516Y1112190D03*
G01X3938524Y1112190D03*
G01X4033520Y912190D03*
G54D20*
G01X5972747Y2017103D03*
G01X5812854Y2016417D03*
G54D21*
G01X3791077Y1155065D03*
G01X3331083Y1155065D03*
G01X3791077Y1315085D03*
G01X3331083Y1315085D03*
G54D22*
G01X3561080Y1082675D03*
G54D23*
G01X3336163Y1867535D03*
G01X3796157Y1867535D03*
G01X3336163Y1707515D03*
G01X3796157Y1707515D03*
G54D24*
G01X3566160Y1939925D03*
G54D20*
G01X5972747Y945223D03*
G01X5812854Y944537D03*
G04 Pad End*

M02*
