G04 Layer: InnerLayer1*
G04 EasyEDA Pro v2.1.42.467b0aa0, 2024-01-03 14:17:13*
G04 Gerber Generator version 0.3*
G04 Scale: 100 percent, Rotated: No, Reflected: No*
G04 Dimensions in millimeters*
G04 Leading zeros omitted, absolute positions, 3 integers and 5 decimals*
%FSLAX35Y35*%
%MOMM*%
%ADD8191C,0.2032*%
%ADD10C,1.35001*%
%ADD11O,1.9X1.1999*%
%ADD12C,1.0*%
%ADD13C,2.0*%
%ADD14R,1.5X1.5*%
%ADD15C,1.5*%
%ADD16C,0.6183*%
%ADD17C,0.61*%
G75*


G04 Copper Start*
G36*
G01X2575814Y251714D02*
G01X2575814Y507733D01*
G03X2592000Y503866I16186J31948D01*
G01X2742000D01*
G03X2777814Y539680I0J35814D01*
G01Y689680D01*
G03X2742000Y725494I-35814J0D01*
G01X2592000D01*
G03X2575814Y721627I0J-35814D01*
G01Y2250173D01*
G03X2592000Y2246306I16186J31948D01*
G01X2742000D01*
G03X2777814Y2282120I0J35814D01*
G01Y2432120D01*
G03X2742000Y2467934I-35814J0D01*
G01X2592000D01*
G03X2575814Y2464067I0J-35814D01*
G01Y2519413D01*
G03X2592000Y2515546I16186J31948D01*
G01X2742000D01*
G03X2777814Y2551360I0J35814D01*
G01Y2701360D01*
G03X2772528Y2720086I-35814J0D01*
G01X2861880D01*
G03X2810186Y2626360I59120J-93726D01*
G03X2921000Y2515546I110814J0D01*
G03X3031814Y2626360I0J110814D01*
G03X2980120Y2720086I-110814J0D01*
G01X3115880D01*
G03X3064186Y2626360I59120J-93726D01*
G03X3175000Y2515546I110814J0D01*
G03X3285814Y2626360I0J110814D01*
G03X3234120Y2720086I-110814J0D01*
G01X3369880D01*
G03X3318186Y2626360I59120J-93726D01*
G03X3429000Y2515546I110814J0D01*
G03X3539814Y2626360I0J110814D01*
G03X3488120Y2720086I-110814J0D01*
G01X3623880D01*
G03X3572186Y2626360I59120J-93726D01*
G03X3683000Y2515546I110814J0D01*
G03X3793814Y2626360I0J110814D01*
G03X3742120Y2720086I-110814J0D01*
G01X4131880D01*
G03X4080186Y2626360I59120J-93726D01*
G03X4191000Y2515546I110814J0D01*
G03X4301814Y2626360I0J110814D01*
G03X4250120Y2720086I-110814J0D01*
G01X4385880D01*
G03X4334186Y2626360I59120J-93726D01*
G03X4445000Y2515546I110814J0D01*
G03X4555814Y2626360I0J110814D01*
G03X4504120Y2720086I-110814J0D01*
G01X8092186D01*
G01Y251714D01*
G01X4504120D01*
G03X4555814Y345440I-59120J93726D01*
G03X4445000Y456254I-110814J0D01*
G03X4334186Y345440I0J-110814D01*
G03X4385880Y251714I110814J0D01*
G01X4250120D01*
G03X4301814Y345440I-59120J93726D01*
G03X4191000Y456254I-110814J0D01*
G03X4080186Y345440I0J-110814D01*
G03X4131880Y251714I110814J0D01*
G01X3996120D01*
G03X4047814Y345440I-59120J93726D01*
G03X3937000Y456254I-110814J0D01*
G03X3826186Y345440I0J-110814D01*
G03X3877880Y251714I110814J0D01*
G01X3742120D01*
G03X3793814Y345440I-59120J93726D01*
G03X3683000Y456254I-110814J0D01*
G03X3572186Y345440I0J-110814D01*
G03X3623880Y251714I110814J0D01*
G01X3488120D01*
G03X3539814Y345440I-59120J93726D01*
G03X3429000Y456254I-110814J0D01*
G03X3318186Y345440I0J-110814D01*
G03X3369880Y251714I110814J0D01*
G01X3234120D01*
G03X3285814Y345440I-59120J93726D01*
G03X3175000Y456254I-110814J0D01*
G03X3064186Y345440I0J-110814D01*
G03X3115880Y251714I110814J0D01*
G01X2980120D01*
G03X3031814Y345440I-59120J93726D01*
G03X2921000Y456254I-110814J0D01*
G03X2810186Y345440I0J-110814D01*
G03X2861880Y251714I110814J0D01*
G01X2575814D01*
G37*
%LPC*%
G36*
G01X7123430Y2125706D02*
G03X7186516Y2171583I0J66314D01*
G03X7245350Y2135866I58834J30597D01*
G03X7311595Y2199152I0J66314D01*
G03X7372172Y2159818I60577J26980D01*
G03X7435672Y2207019I0J66314D01*
G03X7499172Y2159818I63500J19113D01*
G03X7562672Y2207019I0J66314D01*
G03X7626172Y2159818I63500J19113D01*
G03X7689672Y2207019I0J66314D01*
G03X7753172Y2159818I63500J19113D01*
G03X7816672Y2207019I0J66314D01*
G03X7880172Y2159818I63500J19113D01*
G03X7946486Y2226132I0J66314D01*
G03X7880172Y2292446I-66314J0D01*
G03X7816672Y2245245I0J-66314D01*
G03X7753172Y2292446I-63500J-19113D01*
G03X7689672Y2245245I0J-66314D01*
G03X7626172Y2292446I-63500J-19113D01*
G03X7562672Y2245245I0J-66314D01*
G03X7499172Y2292446I-63500J-19113D01*
G03X7435672Y2245245I0J-66314D01*
G03X7372172Y2292446I-63500J-19113D01*
G03X7305927Y2229160I0J-66314D01*
G03X7245350Y2268494I-60577J-26980D01*
G03X7182264Y2222617I0J-66314D01*
G03X7123430Y2258334I-58834J-30597D01*
G03X7059628Y2210099I0J-66314D01*
G03X6995160Y2260874I-64468J-15539D01*
G03X6928846Y2194560I0J-66314D01*
G03X6995160Y2128246I66314J0D01*
G03X7058962Y2176481I0J66314D01*
G03X7123430Y2125706I64468J15539D01*
G37*
G36*
G01X7753172Y684434D02*
G03X7816672Y731635I0J66314D01*
G03X7880172Y684434I63500J19113D01*
G03X7946486Y750748I0J66314D01*
G03X7880172Y817062I-66314J0D01*
G03X7816672Y769861I0J-66314D01*
G03X7753172Y817062I-63500J-19113D01*
G03X7689672Y769861I0J-66314D01*
G03X7626172Y817062I-63500J-19113D01*
G03X7562672Y769861I0J-66314D01*
G03X7499172Y817062I-63500J-19113D01*
G03X7435672Y769861I0J-66314D01*
G03X7372172Y817062I-63500J-19113D01*
G03X7305858Y750748I0J-66314D01*
G03X7372172Y684434I66314J0D01*
G03X7435672Y731635I0J66314D01*
G03X7499172Y684434I63500J19113D01*
G03X7562672Y731635I0J66314D01*
G03X7626172Y684434I63500J19113D01*
G03X7689672Y731635I0J66314D01*
G03X7753172Y684434I63500J19113D01*
G37*
G36*
G01X5203266Y2499360D02*
G03X5339080Y2363546I135814J0D01*
G03X5474894Y2499360I0J135814D01*
G03X5339080Y2635174I-135814J0D01*
G03X5203266Y2499360I0J-135814D01*
G37*
G36*
G01X4862106Y2346960D02*
G03X4947920Y2261146I85814J0D01*
G03X5033734Y2346960I0J85814D01*
G03X5005642Y2410460I-85814J0D01*
G03X5033734Y2473960I-57722J63500D01*
G03X5005642Y2537460I-85814J0D01*
G03X5033734Y2600960I-57722J63500D01*
G03X4947920Y2686774I-85814J0D01*
G03X4862106Y2600960I0J-85814D01*
G03X4890198Y2537460I85814J0D01*
G03X4862106Y2473960I57722J-63500D01*
G03X4890198Y2410460I85814J0D01*
G03X4862106Y2346960I57722J-63500D01*
G37*
G36*
G01X3572186Y2357120D02*
G03X3683000Y2246306I110814J0D01*
G03X3793814Y2357120I0J110814D01*
G03X3683000Y2467934I-110814J0D01*
G03X3572186Y2357120I0J-110814D01*
G37*
G36*
G01X4445000Y2246306D02*
G03X4555814Y2357120I0J110814D01*
G03X4445000Y2467934I-110814J0D01*
G03X4334186Y2357120I0J-110814D01*
G03X4445000Y2246306I110814J0D01*
G37*
G36*
G01X4080186Y2357120D02*
G03X4191000Y2246306I110814J0D01*
G03X4301814Y2357120I0J110814D01*
G03X4191000Y2467934I-110814J0D01*
G03X4080186Y2357120I0J-110814D01*
G37*
G36*
G01X3826186Y2357120D02*
G03X3937000Y2246306I110814J0D01*
G03X4047814Y2357120I0J110814D01*
G03X3937000Y2467934I-110814J0D01*
G03X3826186Y2357120I0J-110814D01*
G37*
G36*
G01X3064186Y2357120D02*
G03X3175000Y2246306I110814J0D01*
G03X3285814Y2357120I0J110814D01*
G03X3175000Y2467934I-110814J0D01*
G03X3064186Y2357120I0J-110814D01*
G37*
G36*
G01X2810186Y2357120D02*
G03X2921000Y2246306I110814J0D01*
G03X3031814Y2357120I0J110814D01*
G03X2921000Y2467934I-110814J0D01*
G03X2810186Y2357120I0J-110814D01*
G37*
G36*
G01X3429000Y2246306D02*
G03X3539814Y2357120I0J110814D01*
G03X3429000Y2467934I-110814J0D01*
G03X3318186Y2357120I0J-110814D01*
G03X3429000Y2246306I110814J0D01*
G37*
G36*
G01X3572186Y614680D02*
G03X3683000Y503866I110814J0D01*
G03X3793814Y614680I0J110814D01*
G03X3683000Y725494I-110814J0D01*
G03X3572186Y614680I0J-110814D01*
G37*
G36*
G01X3318186Y614680D02*
G03X3429000Y503866I110814J0D01*
G03X3539814Y614680I0J110814D01*
G03X3429000Y725494I-110814J0D01*
G03X3318186Y614680I0J-110814D01*
G37*
G36*
G01X3175000Y503866D02*
G03X3285814Y614680I0J110814D01*
G03X3175000Y725494I-110814J0D01*
G03X3064186Y614680I0J-110814D01*
G03X3175000Y503866I110814J0D01*
G37*
G36*
G01X2921000Y503866D02*
G03X3031814Y614680I0J110814D01*
G03X2921000Y725494I-110814J0D01*
G03X2810186Y614680I0J-110814D01*
G03X2921000Y503866I110814J0D01*
G37*
G36*
G01X4080186Y614680D02*
G03X4191000Y503866I110814J0D01*
G03X4301814Y614680I0J110814D01*
G03X4191000Y725494I-110814J0D01*
G03X4080186Y614680I0J-110814D01*
G37*
G36*
G01X3826186Y614680D02*
G03X3937000Y503866I110814J0D01*
G03X4047814Y614680I0J110814D01*
G03X3937000Y725494I-110814J0D01*
G03X3826186Y614680I0J-110814D01*
G37*
G36*
G01X4334186Y614680D02*
G03X4445000Y503866I110814J0D01*
G03X4555814Y614680I0J110814D01*
G03X4445000Y725494I-110814J0D01*
G03X4334186Y614680I0J-110814D01*
G37*
G36*
G01X6206490Y435336D02*
G03X6272804Y501650I0J66314D01*
G03X6206490Y567964I-66314J0D01*
G03X6170988Y557660I0J-66314D01*
G03X6173744Y576580I-63558J18920D01*
G03X6107430Y642894I-66314J0D01*
G03X6041116Y576580I0J-66314D01*
G03X6107430Y510266I66314J0D01*
G03X6142932Y520570I0J66314D01*
G03X6140176Y501650I63558J-18920D01*
G03X6206490Y435336I66314J0D01*
G37*
G36*
G01X6758940Y1211306D02*
G03X6825254Y1277620I0J66314D01*
G03X6792375Y1334889I-66314J0D01*
G03X6799580Y1334496I7205J65921D01*
G03X6865894Y1400810I0J66314D01*
G03X6799580Y1467124I-66314J0D01*
G03X6733266Y1400810I0J-66314D01*
G03X6766145Y1343541I66314J0D01*
G03X6758940Y1343934I-7205J-65921D01*
G03X6692626Y1277620I0J-66314D01*
G03X6758940Y1211306I66314J0D01*
G37*
G36*
G01X6871970Y1589766D02*
G03X6938284Y1656080I0J66314D01*
G03X6871970Y1722394I-66314J0D01*
G03X6816311Y1692130I0J-66314D01*
G03X6756400Y1730014I-59911J-28430D01*
G03X6690086Y1663700I0J-66314D01*
G03X6756400Y1597386I66314J0D01*
G03X6812059Y1627650I0J66314D01*
G03X6871970Y1589766I59911J28430D01*
G37*
G36*
G01X6991172Y684434D02*
G03X7054672Y731635I0J66314D01*
G03X7118172Y684434I63500J19113D01*
G03X7184486Y750748I0J66314D01*
G03X7118172Y817062I-66314J0D01*
G03X7054672Y769861I0J-66314D01*
G03X6991172Y817062I-63500J-19113D01*
G03X6924858Y750748I0J-66314D01*
G03X6991172Y684434I66314J0D01*
G37*
G36*
G01X4366260Y1088116D02*
G03X4432574Y1154430I0J66314D01*
G03X4366260Y1220744I-66314J0D01*
G03X4323623Y1205220I0J-66314D01*
G03X4268470Y1234714I-55153J-36820D01*
G03X4202156Y1168400I0J-66314D01*
G03X4268470Y1102086I66314J0D01*
G03X4311107Y1117610I0J66314D01*
G03X4366260Y1088116I55153J36820D01*
G37*
G36*
G01X3215366Y1452880D02*
G03X3281680Y1386566I66314J0D01*
G03X3347994Y1452880I0J66314D01*
G03X3313059Y1511300I-66314J0D01*
G03X3347994Y1569720I-31379J58420D01*
G03X3281680Y1636034I-66314J0D01*
G03X3215366Y1569720I0J-66314D01*
G03X3250301Y1511300I66314J0D01*
G03X3215366Y1452880I31379J-58420D01*
G37*
G36*
G01X4632960Y1406886D02*
G03X4699274Y1473200I0J66314D01*
G03X4687409Y1511053I-66314J0D01*
G03X4700544Y1550670I-53179J39617D01*
G03X4634230Y1616984I-66314J0D01*
G03X4567916Y1550670I0J-66314D01*
G03X4579781Y1512817I66314J0D01*
G03X4566646Y1473200I53179J-39617D01*
G03X4632960Y1406886I66314J0D01*
G37*
G36*
G01X4926330Y1203686D02*
G03X4992644Y1270000I0J66314D01*
G03X4926330Y1336314I-66314J0D01*
G03X4860016Y1270000I0J-66314D01*
G03X4926330Y1203686I66314J0D01*
G37*
G36*
G01X6529070Y1109706D02*
G03X6595384Y1176020I0J66314D01*
G03X6529070Y1242334I-66314J0D01*
G03X6462756Y1176020I0J-66314D01*
G03X6529070Y1109706I66314J0D01*
G37*
G36*
G01X5166360Y1411966D02*
G03X5232674Y1478280I0J66314D01*
G03X5166360Y1544594I-66314J0D01*
G03X5100046Y1478280I0J-66314D01*
G03X5166360Y1411966I66314J0D01*
G37*
G36*
G01X4536440Y1081766D02*
G03X4602754Y1148080I0J66314D01*
G03X4536440Y1214394I-66314J0D01*
G03X4470126Y1148080I0J-66314D01*
G03X4536440Y1081766I66314J0D01*
G37*
G36*
G01X5773420Y1490706D02*
G03X5839734Y1557020I0J66314D01*
G03X5773420Y1623334I-66314J0D01*
G03X5707106Y1557020I0J-66314D01*
G03X5773420Y1490706I66314J0D01*
G37*
G36*
G01X4038600Y990326D02*
G03X4104914Y1056640I0J66314D01*
G03X4038600Y1122954I-66314J0D01*
G03X3972286Y1056640I0J-66314D01*
G03X4038600Y990326I66314J0D01*
G37*
G36*
G01X3469640Y934446D02*
G03X3535954Y1000760I0J66314D01*
G03X3469640Y1067074I-66314J0D01*
G03X3403326Y1000760I0J-66314D01*
G03X3469640Y934446I66314J0D01*
G37*
G36*
G01X3662680Y934446D02*
G03X3728994Y1000760I0J66314D01*
G03X3662680Y1067074I-66314J0D01*
G03X3596366Y1000760I0J-66314D01*
G03X3662680Y934446I66314J0D01*
G37*
G36*
G01X4847316Y1464310D02*
G03X4913630Y1397996I66314J0D01*
G03X4979944Y1464310I0J66314D01*
G03X4913630Y1530624I-66314J0D01*
G03X4847316Y1464310I0J-66314D01*
G37*
G36*
G01X6517640Y928096D02*
G03X6583954Y994410I0J66314D01*
G03X6517640Y1060724I-66314J0D01*
G03X6451326Y994410I0J-66314D01*
G03X6517640Y928096I66314J0D01*
G37*
G36*
G01X4758690Y340086D02*
G03X4825004Y406400I0J66314D01*
G03X4758690Y472714I-66314J0D01*
G03X4692376Y406400I0J-66314D01*
G03X4758690Y340086I66314J0D01*
G37*
G36*
G01X5938779Y385343D02*
G03X6005093Y319029I66314J0D01*
G03X6071407Y385343I0J66314D01*
G03X6005093Y451657I-66314J0D01*
G03X5938779Y385343I0J-66314D01*
G37*
G36*
G01X6347460Y2119356D02*
G03X6413774Y2185670I0J66314D01*
G03X6347460Y2251984I-66314J0D01*
G03X6281146Y2185670I0J-66314D01*
G03X6347460Y2119356I66314J0D01*
G37*
G36*
G01X4043406Y2145030D02*
G03X4109720Y2078716I66314J0D01*
G03X4176034Y2145030I0J66314D01*
G03X4109720Y2211344I-66314J0D01*
G03X4043406Y2145030I0J-66314D01*
G37*
G36*
G01X6672580Y1724386D02*
G03X6738894Y1790700I0J66314D01*
G03X6672580Y1857014I-66314J0D01*
G03X6606266Y1790700I0J-66314D01*
G03X6672580Y1724386I66314J0D01*
G37*
G36*
G01X6587490Y1845036D02*
G03X6653804Y1911350I0J66314D01*
G03X6587490Y1977664I-66314J0D01*
G03X6521176Y1911350I0J-66314D01*
G03X6587490Y1845036I66314J0D01*
G37*
G36*
G01X2785110Y742676D02*
G03X2851424Y808990I0J66314D01*
G03X2785110Y875304I-66314J0D01*
G03X2718796Y808990I0J-66314D01*
G03X2785110Y742676I66314J0D01*
G37*
G36*
G01X3246120Y1781536D02*
G03X3312434Y1847850I0J66314D01*
G03X3246120Y1914164I-66314J0D01*
G03X3179806Y1847850I0J-66314D01*
G03X3246120Y1781536I66314J0D01*
G37*
G36*
G01X6432276Y2028190D02*
G03X6498590Y1961876I66314J0D01*
G03X6564904Y2028190I0J66314D01*
G03X6498590Y2094504I-66314J0D01*
G03X6432276Y2028190I0J-66314D01*
G37*
%LPD*%
G54D8191*
G01X2575814Y251714D02*
G01X2575814Y507733D01*
G03X2592000Y503866I16186J31948D01*
G01X2742000D01*
G03X2777814Y539680I0J35814D01*
G01Y689680D01*
G03X2742000Y725494I-35814J0D01*
G01X2592000D01*
G03X2575814Y721627I0J-35814D01*
G01Y2250173D01*
G03X2592000Y2246306I16186J31948D01*
G01X2742000D01*
G03X2777814Y2282120I0J35814D01*
G01Y2432120D01*
G03X2742000Y2467934I-35814J0D01*
G01X2592000D01*
G03X2575814Y2464067I0J-35814D01*
G01Y2519413D01*
G03X2592000Y2515546I16186J31948D01*
G01X2742000D01*
G03X2777814Y2551360I0J35814D01*
G01Y2701360D01*
G03X2772528Y2720086I-35814J0D01*
G01X2861880D01*
G03X2810186Y2626360I59120J-93726D01*
G03X2921000Y2515546I110814J0D01*
G03X3031814Y2626360I0J110814D01*
G03X2980120Y2720086I-110814J0D01*
G01X3115880D01*
G03X3064186Y2626360I59120J-93726D01*
G03X3175000Y2515546I110814J0D01*
G03X3285814Y2626360I0J110814D01*
G03X3234120Y2720086I-110814J0D01*
G01X3369880D01*
G03X3318186Y2626360I59120J-93726D01*
G03X3429000Y2515546I110814J0D01*
G03X3539814Y2626360I0J110814D01*
G03X3488120Y2720086I-110814J0D01*
G01X3623880D01*
G03X3572186Y2626360I59120J-93726D01*
G03X3683000Y2515546I110814J0D01*
G03X3793814Y2626360I0J110814D01*
G03X3742120Y2720086I-110814J0D01*
G01X4131880D01*
G03X4080186Y2626360I59120J-93726D01*
G03X4191000Y2515546I110814J0D01*
G03X4301814Y2626360I0J110814D01*
G03X4250120Y2720086I-110814J0D01*
G01X4385880D01*
G03X4334186Y2626360I59120J-93726D01*
G03X4445000Y2515546I110814J0D01*
G03X4555814Y2626360I0J110814D01*
G03X4504120Y2720086I-110814J0D01*
G01X8092186D01*
G01Y251714D01*
G01X4504120D01*
G03X4555814Y345440I-59120J93726D01*
G03X4445000Y456254I-110814J0D01*
G03X4334186Y345440I0J-110814D01*
G03X4385880Y251714I110814J0D01*
G01X4250120D01*
G03X4301814Y345440I-59120J93726D01*
G03X4191000Y456254I-110814J0D01*
G03X4080186Y345440I0J-110814D01*
G03X4131880Y251714I110814J0D01*
G01X3996120D01*
G03X4047814Y345440I-59120J93726D01*
G03X3937000Y456254I-110814J0D01*
G03X3826186Y345440I0J-110814D01*
G03X3877880Y251714I110814J0D01*
G01X3742120D01*
G03X3793814Y345440I-59120J93726D01*
G03X3683000Y456254I-110814J0D01*
G03X3572186Y345440I0J-110814D01*
G03X3623880Y251714I110814J0D01*
G01X3488120D01*
G03X3539814Y345440I-59120J93726D01*
G03X3429000Y456254I-110814J0D01*
G03X3318186Y345440I0J-110814D01*
G03X3369880Y251714I110814J0D01*
G01X3234120D01*
G03X3285814Y345440I-59120J93726D01*
G03X3175000Y456254I-110814J0D01*
G03X3064186Y345440I0J-110814D01*
G03X3115880Y251714I110814J0D01*
G01X2980120D01*
G03X3031814Y345440I-59120J93726D01*
G03X2921000Y456254I-110814J0D01*
G03X2810186Y345440I0J-110814D01*
G03X2861880Y251714I110814J0D01*
G01X2575814D01*
G01X7123430Y2125706D02*
G03X7186516Y2171583I0J66314D01*
G03X7245350Y2135866I58834J30597D01*
G03X7311595Y2199152I0J66314D01*
G03X7372172Y2159818I60577J26980D01*
G03X7435672Y2207019I0J66314D01*
G03X7499172Y2159818I63500J19113D01*
G03X7562672Y2207019I0J66314D01*
G03X7626172Y2159818I63500J19113D01*
G03X7689672Y2207019I0J66314D01*
G03X7753172Y2159818I63500J19113D01*
G03X7816672Y2207019I0J66314D01*
G03X7880172Y2159818I63500J19113D01*
G03X7946486Y2226132I0J66314D01*
G03X7880172Y2292446I-66314J0D01*
G03X7816672Y2245245I0J-66314D01*
G03X7753172Y2292446I-63500J-19113D01*
G03X7689672Y2245245I0J-66314D01*
G03X7626172Y2292446I-63500J-19113D01*
G03X7562672Y2245245I0J-66314D01*
G03X7499172Y2292446I-63500J-19113D01*
G03X7435672Y2245245I0J-66314D01*
G03X7372172Y2292446I-63500J-19113D01*
G03X7305927Y2229160I0J-66314D01*
G03X7245350Y2268494I-60577J-26980D01*
G03X7182264Y2222617I0J-66314D01*
G03X7123430Y2258334I-58834J-30597D01*
G03X7059628Y2210099I0J-66314D01*
G03X6995160Y2260874I-64468J-15539D01*
G03X6928846Y2194560I0J-66314D01*
G03X6995160Y2128246I66314J0D01*
G03X7058962Y2176481I0J66314D01*
G03X7123430Y2125706I64468J15539D01*
G01X7753172Y684434D02*
G03X7816672Y731635I0J66314D01*
G03X7880172Y684434I63500J19113D01*
G03X7946486Y750748I0J66314D01*
G03X7880172Y817062I-66314J0D01*
G03X7816672Y769861I0J-66314D01*
G03X7753172Y817062I-63500J-19113D01*
G03X7689672Y769861I0J-66314D01*
G03X7626172Y817062I-63500J-19113D01*
G03X7562672Y769861I0J-66314D01*
G03X7499172Y817062I-63500J-19113D01*
G03X7435672Y769861I0J-66314D01*
G03X7372172Y817062I-63500J-19113D01*
G03X7305858Y750748I0J-66314D01*
G03X7372172Y684434I66314J0D01*
G03X7435672Y731635I0J66314D01*
G03X7499172Y684434I63500J19113D01*
G03X7562672Y731635I0J66314D01*
G03X7626172Y684434I63500J19113D01*
G03X7689672Y731635I0J66314D01*
G03X7753172Y684434I63500J19113D01*
G01X5203266Y2499360D02*
G03X5339080Y2363546I135814J0D01*
G03X5474894Y2499360I0J135814D01*
G03X5339080Y2635174I-135814J0D01*
G03X5203266Y2499360I0J-135814D01*
G01X4862106Y2346960D02*
G03X4947920Y2261146I85814J0D01*
G03X5033734Y2346960I0J85814D01*
G03X5005642Y2410460I-85814J0D01*
G03X5033734Y2473960I-57722J63500D01*
G03X5005642Y2537460I-85814J0D01*
G03X5033734Y2600960I-57722J63500D01*
G03X4947920Y2686774I-85814J0D01*
G03X4862106Y2600960I0J-85814D01*
G03X4890198Y2537460I85814J0D01*
G03X4862106Y2473960I57722J-63500D01*
G03X4890198Y2410460I85814J0D01*
G03X4862106Y2346960I57722J-63500D01*
G01X3572186Y2357120D02*
G03X3683000Y2246306I110814J0D01*
G03X3793814Y2357120I0J110814D01*
G03X3683000Y2467934I-110814J0D01*
G03X3572186Y2357120I0J-110814D01*
G01X4445000Y2246306D02*
G03X4555814Y2357120I0J110814D01*
G03X4445000Y2467934I-110814J0D01*
G03X4334186Y2357120I0J-110814D01*
G03X4445000Y2246306I110814J0D01*
G01X4080186Y2357120D02*
G03X4191000Y2246306I110814J0D01*
G03X4301814Y2357120I0J110814D01*
G03X4191000Y2467934I-110814J0D01*
G03X4080186Y2357120I0J-110814D01*
G01X3826186Y2357120D02*
G03X3937000Y2246306I110814J0D01*
G03X4047814Y2357120I0J110814D01*
G03X3937000Y2467934I-110814J0D01*
G03X3826186Y2357120I0J-110814D01*
G01X3064186Y2357120D02*
G03X3175000Y2246306I110814J0D01*
G03X3285814Y2357120I0J110814D01*
G03X3175000Y2467934I-110814J0D01*
G03X3064186Y2357120I0J-110814D01*
G01X2810186Y2357120D02*
G03X2921000Y2246306I110814J0D01*
G03X3031814Y2357120I0J110814D01*
G03X2921000Y2467934I-110814J0D01*
G03X2810186Y2357120I0J-110814D01*
G01X3429000Y2246306D02*
G03X3539814Y2357120I0J110814D01*
G03X3429000Y2467934I-110814J0D01*
G03X3318186Y2357120I0J-110814D01*
G03X3429000Y2246306I110814J0D01*
G01X3572186Y614680D02*
G03X3683000Y503866I110814J0D01*
G03X3793814Y614680I0J110814D01*
G03X3683000Y725494I-110814J0D01*
G03X3572186Y614680I0J-110814D01*
G01X3318186Y614680D02*
G03X3429000Y503866I110814J0D01*
G03X3539814Y614680I0J110814D01*
G03X3429000Y725494I-110814J0D01*
G03X3318186Y614680I0J-110814D01*
G01X3175000Y503866D02*
G03X3285814Y614680I0J110814D01*
G03X3175000Y725494I-110814J0D01*
G03X3064186Y614680I0J-110814D01*
G03X3175000Y503866I110814J0D01*
G01X2921000Y503866D02*
G03X3031814Y614680I0J110814D01*
G03X2921000Y725494I-110814J0D01*
G03X2810186Y614680I0J-110814D01*
G03X2921000Y503866I110814J0D01*
G01X4080186Y614680D02*
G03X4191000Y503866I110814J0D01*
G03X4301814Y614680I0J110814D01*
G03X4191000Y725494I-110814J0D01*
G03X4080186Y614680I0J-110814D01*
G01X3826186Y614680D02*
G03X3937000Y503866I110814J0D01*
G03X4047814Y614680I0J110814D01*
G03X3937000Y725494I-110814J0D01*
G03X3826186Y614680I0J-110814D01*
G01X4334186Y614680D02*
G03X4445000Y503866I110814J0D01*
G03X4555814Y614680I0J110814D01*
G03X4445000Y725494I-110814J0D01*
G03X4334186Y614680I0J-110814D01*
G01X6206490Y435336D02*
G03X6272804Y501650I0J66314D01*
G03X6206490Y567964I-66314J0D01*
G03X6170988Y557660I0J-66314D01*
G03X6173744Y576580I-63558J18920D01*
G03X6107430Y642894I-66314J0D01*
G03X6041116Y576580I0J-66314D01*
G03X6107430Y510266I66314J0D01*
G03X6142932Y520570I0J66314D01*
G03X6140176Y501650I63558J-18920D01*
G03X6206490Y435336I66314J0D01*
G01X6758940Y1211306D02*
G03X6825254Y1277620I0J66314D01*
G03X6792375Y1334889I-66314J0D01*
G03X6799580Y1334496I7205J65921D01*
G03X6865894Y1400810I0J66314D01*
G03X6799580Y1467124I-66314J0D01*
G03X6733266Y1400810I0J-66314D01*
G03X6766145Y1343541I66314J0D01*
G03X6758940Y1343934I-7205J-65921D01*
G03X6692626Y1277620I0J-66314D01*
G03X6758940Y1211306I66314J0D01*
G01X6871970Y1589766D02*
G03X6938284Y1656080I0J66314D01*
G03X6871970Y1722394I-66314J0D01*
G03X6816311Y1692130I0J-66314D01*
G03X6756400Y1730014I-59911J-28430D01*
G03X6690086Y1663700I0J-66314D01*
G03X6756400Y1597386I66314J0D01*
G03X6812059Y1627650I0J66314D01*
G03X6871970Y1589766I59911J28430D01*
G01X6991172Y684434D02*
G03X7054672Y731635I0J66314D01*
G03X7118172Y684434I63500J19113D01*
G03X7184486Y750748I0J66314D01*
G03X7118172Y817062I-66314J0D01*
G03X7054672Y769861I0J-66314D01*
G03X6991172Y817062I-63500J-19113D01*
G03X6924858Y750748I0J-66314D01*
G03X6991172Y684434I66314J0D01*
G01X4366260Y1088116D02*
G03X4432574Y1154430I0J66314D01*
G03X4366260Y1220744I-66314J0D01*
G03X4323623Y1205220I0J-66314D01*
G03X4268470Y1234714I-55153J-36820D01*
G03X4202156Y1168400I0J-66314D01*
G03X4268470Y1102086I66314J0D01*
G03X4311107Y1117610I0J66314D01*
G03X4366260Y1088116I55153J36820D01*
G01X3215366Y1452880D02*
G03X3281680Y1386566I66314J0D01*
G03X3347994Y1452880I0J66314D01*
G03X3313059Y1511300I-66314J0D01*
G03X3347994Y1569720I-31379J58420D01*
G03X3281680Y1636034I-66314J0D01*
G03X3215366Y1569720I0J-66314D01*
G03X3250301Y1511300I66314J0D01*
G03X3215366Y1452880I31379J-58420D01*
G01X4632960Y1406886D02*
G03X4699274Y1473200I0J66314D01*
G03X4687409Y1511053I-66314J0D01*
G03X4700544Y1550670I-53179J39617D01*
G03X4634230Y1616984I-66314J0D01*
G03X4567916Y1550670I0J-66314D01*
G03X4579781Y1512817I66314J0D01*
G03X4566646Y1473200I53179J-39617D01*
G03X4632960Y1406886I66314J0D01*
G01X4926330Y1203686D02*
G03X4992644Y1270000I0J66314D01*
G03X4926330Y1336314I-66314J0D01*
G03X4860016Y1270000I0J-66314D01*
G03X4926330Y1203686I66314J0D01*
G01X6529070Y1109706D02*
G03X6595384Y1176020I0J66314D01*
G03X6529070Y1242334I-66314J0D01*
G03X6462756Y1176020I0J-66314D01*
G03X6529070Y1109706I66314J0D01*
G01X5166360Y1411966D02*
G03X5232674Y1478280I0J66314D01*
G03X5166360Y1544594I-66314J0D01*
G03X5100046Y1478280I0J-66314D01*
G03X5166360Y1411966I66314J0D01*
G01X4536440Y1081766D02*
G03X4602754Y1148080I0J66314D01*
G03X4536440Y1214394I-66314J0D01*
G03X4470126Y1148080I0J-66314D01*
G03X4536440Y1081766I66314J0D01*
G01X5773420Y1490706D02*
G03X5839734Y1557020I0J66314D01*
G03X5773420Y1623334I-66314J0D01*
G03X5707106Y1557020I0J-66314D01*
G03X5773420Y1490706I66314J0D01*
G01X4038600Y990326D02*
G03X4104914Y1056640I0J66314D01*
G03X4038600Y1122954I-66314J0D01*
G03X3972286Y1056640I0J-66314D01*
G03X4038600Y990326I66314J0D01*
G01X3469640Y934446D02*
G03X3535954Y1000760I0J66314D01*
G03X3469640Y1067074I-66314J0D01*
G03X3403326Y1000760I0J-66314D01*
G03X3469640Y934446I66314J0D01*
G01X3662680Y934446D02*
G03X3728994Y1000760I0J66314D01*
G03X3662680Y1067074I-66314J0D01*
G03X3596366Y1000760I0J-66314D01*
G03X3662680Y934446I66314J0D01*
G01X4847316Y1464310D02*
G03X4913630Y1397996I66314J0D01*
G03X4979944Y1464310I0J66314D01*
G03X4913630Y1530624I-66314J0D01*
G03X4847316Y1464310I0J-66314D01*
G01X6517640Y928096D02*
G03X6583954Y994410I0J66314D01*
G03X6517640Y1060724I-66314J0D01*
G03X6451326Y994410I0J-66314D01*
G03X6517640Y928096I66314J0D01*
G01X4758690Y340086D02*
G03X4825004Y406400I0J66314D01*
G03X4758690Y472714I-66314J0D01*
G03X4692376Y406400I0J-66314D01*
G03X4758690Y340086I66314J0D01*
G01X5938779Y385343D02*
G03X6005093Y319029I66314J0D01*
G03X6071407Y385343I0J66314D01*
G03X6005093Y451657I-66314J0D01*
G03X5938779Y385343I0J-66314D01*
G01X6347460Y2119356D02*
G03X6413774Y2185670I0J66314D01*
G03X6347460Y2251984I-66314J0D01*
G03X6281146Y2185670I0J-66314D01*
G03X6347460Y2119356I66314J0D01*
G01X4043406Y2145030D02*
G03X4109720Y2078716I66314J0D01*
G03X4176034Y2145030I0J66314D01*
G03X4109720Y2211344I-66314J0D01*
G03X4043406Y2145030I0J-66314D01*
G01X6672580Y1724386D02*
G03X6738894Y1790700I0J66314D01*
G03X6672580Y1857014I-66314J0D01*
G03X6606266Y1790700I0J-66314D01*
G03X6672580Y1724386I66314J0D01*
G01X6587490Y1845036D02*
G03X6653804Y1911350I0J66314D01*
G03X6587490Y1977664I-66314J0D01*
G03X6521176Y1911350I0J-66314D01*
G03X6587490Y1845036I66314J0D01*
G01X2785110Y742676D02*
G03X2851424Y808990I0J66314D01*
G03X2785110Y875304I-66314J0D01*
G03X2718796Y808990I0J-66314D01*
G03X2785110Y742676I66314J0D01*
G01X3246120Y1781536D02*
G03X3312434Y1847850I0J66314D01*
G03X3246120Y1914164I-66314J0D01*
G03X3179806Y1847850I0J-66314D01*
G03X3246120Y1781536I66314J0D01*
G01X6432276Y2028190D02*
G03X6498590Y1961876I66314J0D01*
G03X6564904Y2028190I0J66314D01*
G03X6498590Y2094504I-66314J0D01*
G03X6432276Y2028190I0J-66314D01*
G04 Copper End*

G04 Pad Start*
G54D10*
G01X2928991Y1727518D03*
G01X2928991Y1227519D03*
G54D11*
G01X2659009Y1127506D03*
G01X2659017Y1827530D03*
G54D12*
G01X4947920Y2600960D03*
G01X4947920Y2473960D03*
G01X4947920Y2346960D03*
G54D13*
G01X5339080Y2499360D03*
G01X5593080Y2499360D03*
G54D14*
G01X2667000Y2357120D03*
G54D15*
G01X2921000Y2357120D03*
G01X3175000Y2357120D03*
G01X3429000Y2357120D03*
G01X3683000Y2357120D03*
G01X3937000Y2357120D03*
G01X4191000Y2357120D03*
G01X4445000Y2357120D03*
G54D14*
G01X2667000Y2626360D03*
G54D15*
G01X2921000Y2626360D03*
G01X3175000Y2626360D03*
G01X3429000Y2626360D03*
G01X3683000Y2626360D03*
G01X3937000Y2626360D03*
G01X4191000Y2626360D03*
G01X4445000Y2626360D03*
G54D14*
G01X2667000Y614680D03*
G54D15*
G01X2921000Y614680D03*
G01X3175000Y614680D03*
G01X3429000Y614680D03*
G01X3683000Y614680D03*
G01X3937000Y614680D03*
G01X4191000Y614680D03*
G01X4445000Y614680D03*
G54D14*
G01X2667000Y345440D03*
G54D15*
G01X2921000Y345440D03*
G01X3175000Y345440D03*
G01X3429000Y345440D03*
G01X3683000Y345440D03*
G01X3937000Y345440D03*
G01X4191000Y345440D03*
G01X4445000Y345440D03*
G04 Pad End*

G04 Via Start*
G54D17*
G01X7499172Y2226132D03*
G01X7626172Y2226132D03*
G01X7753172Y2226132D03*
G01X7880172Y2226132D03*
G01X8007172Y2226132D03*
G01X6991172Y750748D03*
G01X7118172Y750748D03*
G01X7372172Y750748D03*
G01X7499172Y750748D03*
G01X7626172Y750748D03*
G01X7753172Y750748D03*
G01X7880172Y750748D03*
G01X8007172Y750748D03*
G01X7372172Y2226132D03*
G01X7245350Y2202180D03*
G01X7123430Y2192020D03*
G01X6995160Y2194560D03*
G01X6498590Y2028190D03*
G01X6587490Y1911350D03*
G01X6672580Y1790700D03*
G01X6756400Y1663700D03*
G01X6347460Y2185670D03*
G01X6871970Y1656080D03*
G01X6107430Y576580D03*
G01X6517640Y994410D03*
G01X6758940Y1277620D03*
G01X6799580Y1400810D03*
G01X6529070Y1176020D03*
G01X6206490Y501650D03*
G01X5166360Y1478280D03*
G01X6005093Y385343D03*
G01X4366260Y1154430D03*
G01X3469640Y1000760D03*
G01X3662680Y1000760D03*
G01X4268470Y1168400D03*
G01X4038600Y1056640D03*
G01X4536440Y1148080D03*
G01X3281680Y1569720D03*
G01X3281680Y1452880D03*
G01X4634230Y1550670D03*
G01X4632960Y1473200D03*
G01X3246120Y1847850D03*
G01X3741420Y1414780D03*
G01X4758690Y406400D03*
G01X4700270Y2346960D03*
G01X3806190Y1446530D03*
G01X3149600Y1812290D03*
G01X3092450Y1163320D03*
G01X3042920Y1339850D03*
G01X4884420Y1557020D03*
G01X4864100Y1375410D03*
G01X3613150Y918210D03*
G01X5181600Y1012190D03*
G01X5643880Y1558290D03*
G01X7288848Y1533279D03*
G01X7437010Y1533279D03*
G01X7428862Y1673268D03*
G01X7437010Y1813283D03*
G01X7292340Y1623060D03*
G01X7148858Y1583266D03*
G01X7058856Y1533279D03*
G01X7040880Y1790700D03*
G01X7263130Y1828800D03*
G01X4632960Y1396507D03*
G01X2700619Y2012102D03*
G01X3051810Y2164080D03*
G01X3162300Y2138680D03*
G01X4970780Y1557020D03*
G01X5806440Y2190750D03*
G01X5634990Y2192020D03*
G01X5298440Y2185670D03*
G01X2785110Y808990D03*
G01X2731770Y1014730D03*
G01X5773420Y1557020D03*
G01X5863830Y1557020D03*
G01X7363460Y2612390D03*
G01X6082030Y2212340D03*
G01X2801620Y1924050D03*
G01X3241040Y1736090D03*
G01X4926330Y1270000D03*
G01X4913630Y1464310D03*
G01X4109720Y2145030D03*
G01X2819400Y1075690D03*
G01X4147309Y1446086D03*
G01X4387091Y1436864D03*
G01X4267200Y1370770D03*
G01X3995420Y2145030D03*
G04 Via End*

M02*
