G04 Layer: TopLayer*
G04 EasyEDA Pro v2.1.42.467b0aa0, 2024-01-03 14:17:13*
G04 Gerber Generator version 0.3*
G04 Scale: 100 percent, Rotated: No, Reflected: No*
G04 Dimensions in millimeters*
G04 Leading zeros omitted, absolute positions, 3 integers and 5 decimals*
%FSLAX35Y35*%
%MOMM*%
%ADD8191C,0.2032*%
%ADD10R,0.95001X2.1*%
%ADD11R,2.1X0.95001*%
%ADD12R,0.9X0.9*%
%ADD13R,0.905X0.28001*%
%ADD14R,0.28001X0.905*%
%ADD15R,3.3507X3.35001*%
%ADD16R,3.35001X3.35001*%
%ADD17R,0.98001X2.47*%
%ADD18R,3.59999X2.47*%
%ADD19R,1.3X0.4*%
%ADD20R,1.9X1.5*%
%ADD21C,1.35001*%
%ADD22O,1.9X1.1999*%
%ADD23R,0.6X0.6*%
%ADD24R,0.6X0.6*%
%ADD25R,0.7X1.25001*%
%ADD26R,0.79009X0.54*%
%ADD27R,0.54X0.56566*%
%ADD28R,0.56566X0.54*%
%ADD29R,0.54X0.56566*%
%ADD30R,0.56566X0.54*%
%ADD31R,0.79009X0.54*%
%ADD32R,0.54X0.79009*%
%ADD33C,1.0*%
%ADD34R,0.8X0.8*%
%ADD35R,1.0X1.1*%
%ADD36R,2.0X0.7*%
%ADD37R,1.0X1.1*%
%ADD38R,2.0X0.7*%
%ADD39C,2.0*%
%ADD40R,0.54X0.79009*%
%ADD41R,1.5X1.5*%
%ADD42C,1.5*%
%ADD43C,0.61*%
%ADD44C,0.254*%
%ADD45C,0.2032*%
%ADD46C,0.1524*%
G75*


G04 Copper Start*
G36*
G01X2575814Y251714D02*
G01X2575814Y507733D01*
G03X2592000Y503866I16186J31948D01*
G01X2742000D01*
G03X2777814Y539680I0J35814D01*
G01Y689680D01*
G03X2742000Y725494I-35814J0D01*
G01X2710434D01*
G01Y761896D01*
G03X2716127Y765556I-16434J31821D01*
G01X2735000D01*
G03X2785110Y742676I50110J43434D01*
G03X2851424Y808990I0J66314D01*
G03X2785110Y875304I-66314J0D01*
G03X2735000Y852424I0J-66314D01*
G01X2729814D01*
G01Y872726D01*
G03X2694000Y908540I-35814J0D01*
G01X2640000D01*
G03X2604186Y872726I0J-35814D01*
G01Y793717D01*
G03X2623566Y761896I35814J0D01*
G01Y725494D01*
G01X2592000D01*
G03X2575814Y721627I0J-35814D01*
G01Y2250173D01*
G03X2592000Y2246306I16186J31948D01*
G01X2618486D01*
G01Y2200864D01*
G03X2608293Y2175840I25621J-25024D01*
G01Y2121840D01*
G03X2644107Y2086026I35814J0D01*
G01X2723116D01*
G03X2758930Y2121840I0J35814D01*
G01Y2175840D01*
G03X2723116Y2211654I-35814J0D01*
G01X2715514D01*
G01Y2246306D01*
G01X2742000D01*
G03X2777814Y2282120I0J35814D01*
G01Y2432120D01*
G03X2742000Y2467934I-35814J0D01*
G01X2592000D01*
G03X2575814Y2464067I0J-35814D01*
G01Y2519413D01*
G03X2592000Y2515546I16186J31948D01*
G01X2742000D01*
G03X2777814Y2551360I0J35814D01*
G01Y2701360D01*
G03X2772528Y2720086I-35814J0D01*
G01X2861880D01*
G03X2810186Y2626360I59120J-93726D01*
G03X2921000Y2515546I110814J0D01*
G03X3031814Y2626360I0J110814D01*
G03X2980120Y2720086I-110814J0D01*
G01X3115880D01*
G03X3064186Y2626360I59120J-93726D01*
G03X3175000Y2515546I110814J0D01*
G03X3285814Y2626360I0J110814D01*
G03X3234120Y2720086I-110814J0D01*
G01X3369880D01*
G03X3318186Y2626360I59120J-93726D01*
G03X3429000Y2515546I110814J0D01*
G03X3539814Y2626360I0J110814D01*
G03X3488120Y2720086I-110814J0D01*
G01X3623880D01*
G03X3572186Y2626360I59120J-93726D01*
G03X3683000Y2515546I110814J0D01*
G03X3793814Y2626360I0J110814D01*
G03X3742120Y2720086I-110814J0D01*
G01X4131880D01*
G03X4080186Y2626360I59120J-93726D01*
G03X4191000Y2515546I110814J0D01*
G03X4301814Y2626360I0J110814D01*
G03X4250120Y2720086I-110814J0D01*
G01X4385880D01*
G03X4334186Y2626360I59120J-93726D01*
G03X4445000Y2515546I110814J0D01*
G03X4544630Y2577846I0J110814D01*
G01X4565773D01*
G01X4595546Y2548073D01*
G01Y2514364D01*
G03X4631360Y2478550I35814J0D01*
G01X4685360D01*
G03X4720022Y2505354I0J35814D01*
G01X4847916D01*
G01X4863563Y2489707D01*
G03X4862106Y2473960I84357J-15747D01*
G03X4890198Y2410460I85814J0D01*
G03X4862106Y2346960I57722J-63500D01*
G03X4894371Y2279904I85814J0D01*
G01X4524482D01*
G03X4555814Y2357120I-79482J77216D01*
G03X4445000Y2467934I-110814J0D01*
G03X4334186Y2357120I0J-110814D01*
G03X4365518Y2279904I110814J0D01*
G01X4270482D01*
G03X4301814Y2357120I-79482J77216D01*
G03X4191000Y2467934I-110814J0D01*
G03X4080186Y2357120I0J-110814D01*
G03X4111518Y2279904I110814J0D01*
G01X4016482D01*
G03X4047814Y2357120I-79482J77216D01*
G03X3937000Y2467934I-110814J0D01*
G03X3826186Y2357120I0J-110814D01*
G03X3857518Y2279904I110814J0D01*
G01X3856990D01*
G03X3822685Y2265695I0J-48514D01*
G01X3693385Y2136394D01*
G01X3444240D01*
G03X3409935Y2122185I0J-48514D01*
G01X3288356Y2000606D01*
G01X3277302D01*
G03X3242640Y2027410I-34662J-9009D01*
G01X3188640D01*
G03X3152826Y1991596I0J-35814D01*
G01Y1985201D01*
G01X3113737D01*
G03X3083080Y2002500I-30657J-18514D01*
G01X3023080D01*
G03X2987266Y1966686I0J-35814D01*
G01Y1906687D01*
G03X3004566Y1876029I35814J0D01*
G01Y1666015D01*
G01X3000785Y1662234D01*
G03X2991987Y1663332I-8798J-34716D01*
G01X2861987D01*
G03X2826173Y1627518I0J-35814D01*
G01Y1587518D01*
G03X2828421Y1575030I35814J0D01*
G03X2826173Y1562542I33566J-12488D01*
G01Y1522542D01*
G03X2828430Y1510030I35814J0D01*
G03X2826173Y1497518I33557J-12512D01*
G01Y1457518D01*
G03X2828430Y1445006I35814J0D01*
G03X2826173Y1432494I33557J-12512D01*
G01Y1392494D01*
G03X2861987Y1356680I35814J0D01*
G01X2991987D01*
G03X3027801Y1392494I0J35814D01*
G01Y1432480D01*
G03X3040433Y1439926I-18034J45038D01*
G01X3083786D01*
G01Y1426754D01*
G03X3119600Y1390940I35814J0D01*
G01X3179600D01*
G03X3211418Y1410315I0J35814D01*
G03X3225686Y1417353I-14039J46438D01*
G03X3281680Y1386566I55994J35527D01*
G03X3347994Y1452880I0J66314D01*
G03X3326555Y1501704I-66314J0D01*
G03X3319351Y1513840I-44875J-18434D01*
G03X3321492Y1516687I-37671J30570D01*
G03X3347994Y1569720I-39812J53033D01*
G03X3281680Y1636034I-66314J0D01*
G03X3227955Y1608593I0J-66314D01*
G03X3211418Y1617365I-30575J-37667D01*
G03X3179600Y1636740I-31819J-16438D01*
G01X3119600D01*
G03X3098979Y1630208I0J-35814D01*
G03X3101594Y1645920I-45899J15712D01*
G01Y1876029D01*
G03X3113737Y1888173I-18514J30657D01*
G01X3162437D01*
G03X3186477Y1876838I26203J24414D01*
G03X3179806Y1847850I59643J-28988D01*
G03X3246120Y1781536I66314J0D01*
G03X3264387Y1784102I0J66314D01*
G03X3286163Y1776721I21776J28433D01*
G01X3386163D01*
G03X3421977Y1812535I0J35814D01*
G01Y1819021D01*
G01X3710343D01*
G01Y1812535D01*
G03X3746157Y1776721I35814J0D01*
G01X3823732D01*
G01X3826418Y1774035D01*
G01Y1245879D01*
G01X3741077D01*
G03X3705263Y1210065I0J-35814D01*
G01Y1203579D01*
G01X3416897D01*
G01Y1210065D01*
G03X3381083Y1245879I-35814J0D01*
G01X3281083D01*
G03X3245269Y1210065I0J-35814D01*
G01Y1100065D01*
G03X3281083Y1064251I35814J0D01*
G01X3381083D01*
G03X3416897Y1100065I0J35814D01*
G01Y1106551D01*
G01X3425266D01*
G01Y1050040D01*
G03X3407485Y1023874I44374J-49280D01*
G01X3353968D01*
G03X3319664Y1009665I0J-48514D01*
G01X3287328Y977329D01*
G01X3264840D01*
G03X3229026Y941515I0J-35814D01*
G01Y941514D01*
G01Y884949D01*
G03X3232318Y869950I35814J0D01*
G03X3229026Y854951I32522J-14999D01*
G01Y798386D01*
G03X3264840Y762572I35814J0D01*
G01X3287328D01*
G01X3353814Y696085D01*
G03X3318186Y614680I75186J-81405D01*
G03X3429000Y503866I110814J0D01*
G03X3539814Y614680I0J110814D01*
G03X3530459Y659242I-110814J0D01*
G01X3572222Y617479D01*
G03X3572186Y614680I110778J-2799D01*
G03X3683000Y503866I110814J0D01*
G03X3793814Y614680I0J110814D01*
G03X3683000Y725494I-110814J0D01*
G03X3620638Y706281I0J-110814D01*
G01X3586734Y740185D01*
G01Y751973D01*
G03X3601034Y780606I-21514J28632D01*
G01Y837171D01*
G03X3597742Y852170I-35814J0D01*
G03X3601034Y867169I-32522J14999D01*
G01Y923734D01*
G01Y923735D01*
G03X3597868Y938458I-35814J0D01*
G01X3611655Y952246D01*
G01X3617470D01*
G03X3662680Y934446I45210J48514D01*
G03X3728994Y1000760I0J66314D01*
G03X3696894Y1057566I-66314J0D01*
G01Y1106551D01*
G01X3705263D01*
G01Y1100065D01*
G03X3741077Y1064251I35814J0D01*
G01X3741166D01*
G01Y946048D01*
G03X3755375Y911744I48514J0D01*
G01X3824750Y842369D01*
G01Y808660D01*
G03X3860564Y772846I35814J0D01*
G01X3939573D01*
G03X3969339Y788744I0J35814D01*
G03X3991294Y801355I-12349J46916D01*
G01X4003815Y813876D01*
G01X4063225D01*
G01X4148136Y728965D01*
G03X4159025Y720781I34305J34305D01*
G03X4080186Y614680I31975J-106101D01*
G03X4096730Y556431I110814J0D01*
G03X4065255Y542305I2830J-48431D01*
G01X3973144Y450194D01*
G03X3937000Y456254I-36144J-104754D01*
G03X3826186Y345440I0J-110814D01*
G03X3877880Y251714I110814J0D01*
G01X3742120D01*
G03X3793814Y345440I-59120J93726D01*
G03X3683000Y456254I-110814J0D01*
G03X3572186Y345440I0J-110814D01*
G03X3623880Y251714I110814J0D01*
G01X3488120D01*
G03X3539814Y345440I-59120J93726D01*
G03X3429000Y456254I-110814J0D01*
G03X3318186Y345440I0J-110814D01*
G03X3369880Y251714I110814J0D01*
G01X3234120D01*
G03X3285814Y345440I-59120J93726D01*
G03X3175000Y456254I-110814J0D01*
G03X3064186Y345440I0J-110814D01*
G03X3115880Y251714I110814J0D01*
G01X2980120D01*
G03X3031814Y345440I-59120J93726D01*
G03X2921000Y456254I-110814J0D01*
G03X2810186Y345440I0J-110814D01*
G03X2861880Y251714I110814J0D01*
G01X2575814D01*
G37*
%LPC*%
G36*
G01X3318186Y2357120D02*
G03X3429000Y2246306I110814J0D01*
G03X3539814Y2357120I0J110814D01*
G03X3429000Y2467934I-110814J0D01*
G03X3318186Y2357120I0J-110814D01*
G37*
G36*
G01X3175000Y2246306D02*
G03X3285814Y2357120I0J110814D01*
G03X3175000Y2467934I-110814J0D01*
G03X3064186Y2357120I0J-110814D01*
G03X3175000Y2246306I110814J0D01*
G37*
G36*
G01X3683000Y2246306D02*
G03X3793814Y2357120I0J110814D01*
G03X3683000Y2467934I-110814J0D01*
G03X3572186Y2357120I0J-110814D01*
G03X3683000Y2246306I110814J0D01*
G37*
G36*
G01X2921000Y2246306D02*
G03X3031814Y2357120I0J110814D01*
G03X2921000Y2467934I-110814J0D01*
G03X2810186Y2357120I0J-110814D01*
G03X2921000Y2246306I110814J0D01*
G37*
G36*
G01X3826186Y614680D02*
G03X3937000Y503866I110814J0D01*
G03X4047814Y614680I0J110814D01*
G03X3937000Y725494I-110814J0D01*
G03X3826186Y614680I0J-110814D01*
G37*
G36*
G01X3175000Y503866D02*
G03X3285814Y614680I0J110814D01*
G03X3175000Y725494I-110814J0D01*
G03X3064186Y614680I0J-110814D01*
G03X3175000Y503866I110814J0D01*
G37*
G36*
G01X2921000Y503866D02*
G03X3031814Y614680I0J110814D01*
G03X2921000Y725494I-110814J0D01*
G03X2810186Y614680I0J-110814D01*
G03X2921000Y503866I110814J0D01*
G37*
%LPD*%
G36*
G01X4057702Y1174690D02*
G01X4057702Y1120143D01*
G03X4038600Y1122954I-19102J-63503D01*
G01X4037315Y1122942D01*
G01X4015559Y1144698D01*
G03X4009338Y1149907I-32509J-32509D01*
G01Y1174690D01*
G03X3973524Y1210504I-35814J0D01*
G01X3918366D01*
G01Y1793078D01*
G03X3904901Y1825586I-45974J0D01*
G01X3881971Y1848516D01*
G01Y1922535D01*
G03X3846157Y1958349I-35814J0D01*
G01X3746157D01*
G03X3710343Y1922535I0J-35814D01*
G01Y1916049D01*
G01X3701974D01*
G01Y1974925D01*
G03X3666160Y2010739I-35814J0D01*
G01X3466160D01*
G03X3430346Y1974925I0J-35814D01*
G01Y1916049D01*
G01X3421977D01*
G01Y1922535D01*
G03X3386163Y1958349I-35814J0D01*
G01X3383318D01*
G01X3464335Y2039366D01*
G01X3713480D01*
G03X3747785Y2053575I0J48514D01*
G01X3877085Y2182876D01*
G01X4055266D01*
G03X4043406Y2145030I54454J-37846D01*
G03X4107384Y2078757I66314J0D01*
G01X4248106Y1938035D01*
G03X4244340Y1931642I28810J-21275D01*
G03X4211765Y1952574I-32575J-14882D01*
G01X4211764D01*
G01X4155199D01*
G03X4119385Y1916760I0J-35814D01*
G01Y1862760D01*
G03X4155199Y1826946I35814J0D01*
G01X4181279D01*
G01X4206056Y1802168D01*
G01X4203187D01*
G03X4192194Y1800439I0J-35814D01*
G03X4181201Y1802168I-10993J-34085D01*
G01X4153200D01*
G03X4142194Y1800435I0J-35814D01*
G03X4131188Y1802168I-11006J-34081D01*
G01X4103187D01*
G03X4067373Y1766354I0J-35814D01*
G01Y1683187D01*
G01X3984206D01*
G03X3948392Y1647373I0J-35814D01*
G01Y1619372D01*
G03X3950125Y1608366I35814J0D01*
G03X3948392Y1597360I34081J-11006D01*
G01Y1569359D01*
G03X3950121Y1558366I35814J0D01*
G03X3948392Y1547373I34085J-10993D01*
G01Y1519372D01*
G03X3950125Y1508366I35814J0D01*
G03X3948392Y1497360I34081J-11006D01*
G01Y1469360D01*
G03X3950121Y1458366I35814J0D01*
G03X3948392Y1447373I34085J-10993D01*
G01Y1419372D01*
G03X3950125Y1408367I35814J0D01*
G03X3948392Y1397361I34081J-11006D01*
G01Y1369360D01*
G03X3950121Y1358367I35814J0D01*
G03X3948392Y1347373I34085J-10993D01*
G01Y1319373D01*
G03X3984206Y1283559I35814J0D01*
G01X4067373D01*
G01Y1200366D01*
G01X4067392Y1199189D01*
G03X4057702Y1174690I26124J-24499D01*
G37*
G36*
G01X6545863Y251714D02*
G01X6551945Y257795D01*
G03X6566154Y292100I-34305J34305D01*
G01Y341514D01*
G03X6579299Y369240I-22669J27726D01*
G01Y423240D01*
G03X6576357Y437455I-35814J0D01*
G01X6662753D01*
G03X6678752Y441228I0J35814D01*
G03X6694752Y437455I15999J32042D01*
G01X6789753D01*
G03X6805752Y441228I0J35814D01*
G03X6821752Y437455I15999J32042D01*
G01X6916753D01*
G03X6932752Y441228I0J35814D01*
G03X6948752Y437455I15999J32042D01*
G01X7043753D01*
G03X7059752Y441228I0J35814D01*
G03X7075752Y437455I15999J32042D01*
G01X7170753D01*
G03X7186752Y441228I0J35814D01*
G03X7202752Y437455I15999J32042D01*
G01X7297753D01*
G03X7313752Y441228I0J35814D01*
G03X7329752Y437455I15999J32042D01*
G01X7424753D01*
G03X7440752Y441228I0J35814D01*
G03X7456752Y437455I15999J32042D01*
G01X7551753D01*
G03X7567752Y441228I0J35814D01*
G03X7583752Y437455I15999J32042D01*
G01X7678753D01*
G03X7694752Y441228I0J35814D01*
G03X7710752Y437455I15999J32042D01*
G01X7805753D01*
G03X7821752Y441228I0J35814D01*
G03X7837752Y437455I15999J32042D01*
G01X7932753D01*
G03X7968567Y473269I0J35814D01*
G01Y683269D01*
G03X7938209Y718665I-35814J0D01*
G03X7946486Y750748I-58037J32083D01*
G03X7880172Y817062I-66314J0D01*
G03X7816672Y769861I0J-66314D01*
G03X7753172Y817062I-63500J-19113D01*
G03X7689672Y769861I0J-66314D01*
G03X7626172Y817062I-63500J-19113D01*
G03X7562672Y769861I0J-66314D01*
G03X7499172Y817062I-63500J-19113D01*
G03X7435672Y769861I0J-66314D01*
G03X7372172Y817062I-63500J-19113D01*
G03X7305858Y750748I0J-66314D01*
G03X7315590Y716164I66314J0D01*
G01X7313752Y715310D01*
G03X7297753Y719083I-15999J-32042D01*
G01X7202752D01*
G03X7186752Y715310I0J-35814D01*
G03X7176209Y718665I-15999J-32042D01*
G03X7184486Y750748I-58037J32083D01*
G03X7118172Y817062I-66314J0D01*
G03X7054672Y769861I0J-66314D01*
G03X6991172Y817062I-63500J-19113D01*
G03X6924858Y750748I0J-66314D01*
G03X6934590Y716164I66314J0D01*
G01X6932752Y715310D01*
G03X6916753Y719083I-15999J-32042D01*
G01X6912686D01*
G01Y1336218D01*
G03X6898477Y1370522I-48514J0D01*
G01X6865853Y1403146D01*
G03X6799580Y1467124I-66273J-2336D01*
G03X6733266Y1400810I0J-66314D01*
G03X6766145Y1343541I66314J0D01*
G03X6758940Y1343934I-7205J-65921D01*
G03X6692626Y1277620I0J-66314D01*
G01X6692671Y1275172D01*
G03X6688658Y1255852I44501J-19320D01*
G01Y718561D01*
G03X6678752Y715310I6093J-35292D01*
G03X6662753Y719083I-15999J-32042D01*
G01X6658686D01*
G01Y1094918D01*
G03X6644477Y1129222I-48514J0D01*
G01X6595343Y1178356D01*
G03X6529070Y1242334I-66273J-2336D01*
G03X6462756Y1176020I0J-66314D01*
G03X6526734Y1109747I66314J0D01*
G01X6561658Y1074823D01*
G01Y1044008D01*
G03X6517640Y1060724I-44018J-49598D01*
G03X6451367Y996746I0J-66314D01*
G01X6448868Y994247D01*
G03X6434658Y959942I34305J-34305D01*
G01Y718561D01*
G03X6424752Y715310I6093J-35292D01*
G03X6408753Y719083I-15999J-32042D01*
G01X6378662D01*
G01X6409705Y750126D01*
G03X6423914Y784430I-34305J34305D01*
G01Y960120D01*
G03X6409705Y994425I-48514J0D01*
G01X6352562Y1051568D01*
G01Y1081268D01*
G03X6348789Y1097267I-35814J0D01*
G03X6352562Y1113267I-32042J15999D01*
G01Y1208268D01*
G03X6348789Y1224267I-35814J0D01*
G03X6352562Y1240267I-32042J15999D01*
G01Y1335268D01*
G03X6348789Y1351267I-35814J0D01*
G03X6352562Y1367267I-32042J15999D01*
G01Y1462268D01*
G03X6348789Y1478267I-35814J0D01*
G03X6352562Y1494267I-32042J15999D01*
G01Y1589268D01*
G03X6348789Y1605267I-35814J0D01*
G03X6352562Y1621267I-32042J15999D01*
G01Y1716268D01*
G03X6348789Y1732267I-35814J0D01*
G03X6352562Y1748267I-32042J15999D01*
G01Y1843268D01*
G03X6348789Y1859267I-35814J0D01*
G03X6352562Y1875267I-32042J15999D01*
G01Y1880190D01*
G03X6369065Y1891015I-17802J45130D01*
G01X6381765Y1903715D01*
G03X6395974Y1938020I-34305J34305D01*
G01Y2140460D01*
G03X6410968Y2166583I-48514J45210D01*
G01X6450076Y2127475D01*
G01Y2073400D01*
G03X6432276Y2028190I48514J-45210D01*
G03X6498590Y1961876I66314J0D01*
G03X6538976Y1975592I0J66314D01*
G01Y1956560D01*
G03X6521176Y1911350I48514J-45210D01*
G03X6587490Y1845036I66314J0D01*
G03X6607556Y1848145I0J66314D01*
G01Y1807210D01*
G03X6607651Y1804181I48514J0D01*
G03X6606266Y1790700I64929J-13481D01*
G03X6672580Y1724386I66314J0D01*
G03X6688658Y1726365I0J66314D01*
G01Y1682928D01*
G03X6690393Y1670071I48514J0D01*
G03X6690086Y1663700I66007J-6371D01*
G03X6756400Y1597386I66314J0D01*
G03X6812059Y1627650I0J66314D01*
G03X6871970Y1589766I59911J28430D01*
G03X6938284Y1656080I0J66314D01*
G03X6917944Y1703871I-66314J0D01*
G01Y2237497D01*
G03X6932752Y2241250I-1191J35794D01*
G03X6944793Y2237697I15999J32042D01*
G03X6928846Y2194560I50367J-43137D01*
G03X6995160Y2128246I66314J0D01*
G03X7058962Y2176481I0J66314D01*
G03X7123430Y2125706I64468J15539D01*
G03X7186516Y2171583I0J66314D01*
G03X7245350Y2135866I58834J30597D01*
G03X7311595Y2199152I0J66314D01*
G03X7372172Y2159818I60577J26980D01*
G03X7435672Y2207019I0J66314D01*
G03X7499172Y2159818I63500J19113D01*
G03X7562672Y2207019I0J66314D01*
G03X7626172Y2159818I63500J19113D01*
G03X7689672Y2207019I0J66314D01*
G03X7753172Y2159818I63500J19113D01*
G03X7816672Y2207019I0J66314D01*
G03X7880172Y2159818I63500J19113D01*
G03X7946486Y2226132I0J66314D01*
G03X7945090Y2239669I-66314J0D01*
G03X7968567Y2273291I-12337J33622D01*
G01Y2483291D01*
G03X7932753Y2519105I-35814J0D01*
G01X7928966D01*
G01Y2549458D01*
G03X7955770Y2584120I-9009J34662D01*
G01Y2638120D01*
G03X7919956Y2673934I-35814J0D01*
G01X7840947D01*
G03X7812315Y2659634I0J-35814D01*
G01X7712165D01*
G03X7683533Y2673934I-28632J-21514D01*
G01X7604524D01*
G03X7568710Y2638120I0J-35814D01*
G01Y2584120D01*
G03X7604524Y2548306I35814J0D01*
G01X7683533D01*
G03X7712165Y2562606I0J35814D01*
G01X7812315D01*
G03X7831938Y2549458I28632J21514D01*
G01Y2518630D01*
G03X7821752Y2515332I5814J-35339D01*
G03X7805753Y2519105I-15999J-32042D01*
G01X7710752D01*
G03X7694752Y2515332I0J-35814D01*
G03X7678753Y2519105I-15999J-32042D01*
G01X7583752D01*
G03X7567752Y2515332I0J-35814D01*
G03X7551753Y2519105I-15999J-32042D01*
G01X7456752D01*
G03X7440752Y2515332I0J-35814D01*
G03X7424753Y2519105I-15999J-32042D01*
G01X7329752D01*
G03X7313752Y2515332I0J-35814D01*
G03X7297753Y2519105I-15999J-32042D01*
G01X7202752D01*
G03X7186752Y2515332I0J-35814D01*
G03X7170753Y2519105I-15999J-32042D01*
G01X7075752D01*
G03X7059752Y2515332I0J-35814D01*
G03X7043753Y2519105I-15999J-32042D01*
G01X6948752D01*
G03X6932752Y2515332I0J-35814D01*
G03X6916753Y2519105I-15999J-32042D01*
G01X6821752D01*
G03X6805752Y2515332I0J-35814D01*
G03X6789753Y2519105I-15999J-32042D01*
G01X6694752D01*
G03X6678752Y2515332I0J-35814D01*
G03X6662753Y2519105I-15999J-32042D01*
G01X6567752D01*
G03X6551752Y2515332I0J-35814D01*
G03X6535753Y2519105I-15999J-32042D01*
G01X6440752D01*
G03X6424752Y2515332I0J-35814D01*
G03X6408753Y2519105I-15999J-32042D01*
G01X6313752D01*
G03X6277938Y2483291I0J-35814D01*
G01Y2273291D01*
G03X6306905Y2238138I35814J0D01*
G03X6281146Y2185670I40555J-52468D01*
G03X6298946Y2140460I66314J0D01*
G01Y2006082D01*
G01X6106748D01*
G03X6070934Y1970268I0J-35814D01*
G01Y1875267D01*
G03X6074706Y1859267I35814J0D01*
G03X6070934Y1843268I32042J-15999D01*
G01Y1748267D01*
G03X6074706Y1732267I35814J0D01*
G03X6070934Y1716268I32042J-15999D01*
G01Y1621267D01*
G03X6074706Y1605267I35814J0D01*
G03X6070934Y1589268I32042J-15999D01*
G01Y1494267D01*
G03X6074706Y1478267I35814J0D01*
G03X6070934Y1462268I32042J-15999D01*
G01Y1367267D01*
G03X6074706Y1351267I35814J0D01*
G03X6070934Y1335268I32042J-15999D01*
G01Y1240267D01*
G03X6074706Y1224267I35814J0D01*
G03X6070934Y1208268I32042J-15999D01*
G01Y1113267D01*
G03X6074706Y1097267I35814J0D01*
G03X6070934Y1081268I32042J-15999D01*
G01Y986267D01*
G03X6074706Y970267I35814J0D01*
G03X6070934Y954268I32042J-15999D01*
G01Y859267D01*
G03X6106748Y823453I35814J0D01*
G01X6158154D01*
G01Y695913D01*
G01X6105094Y642853D01*
G03X6041116Y576580I2336J-66273D01*
G03X6107430Y510266I66314J0D01*
G03X6142932Y520570I0J66314D01*
G03X6140176Y501650I63558J-18920D01*
G03X6161665Y452780I66314J0D01*
G03X6146102Y423240I20250J-29539D01*
G01Y400752D01*
G01X6102473Y357124D01*
G01X6065103D01*
G03X6071407Y385343I-60011J28219D01*
G03X6007429Y451616I-66314J0D01*
G01X5861368Y597677D01*
G01Y869750D01*
G03X5888667Y904537I-8514J34787D01*
G01Y984537D01*
G03X5852853Y1020351I-35814J0D01*
G01X5772854D01*
G03X5737040Y984537I0J-35814D01*
G01Y904537D01*
G03X5764340Y869750I35814J0D01*
G01Y577582D01*
G03X5778549Y543277I48514J0D01*
G01X5938820Y383006D01*
G03X5945082Y357124I66273J2336D01*
G01X5401085D01*
G01X4960635Y797575D01*
G03X4926330Y811784I-34305J-34305D01*
G01X4837002D01*
G03X4840934Y828100I-31882J16316D01*
G01Y842086D01*
G01X4905070D01*
G03X4939375Y856296I0J48514D01*
G01X5039476Y956397D01*
G03X5053686Y990702I-34305J34305D01*
G01Y1030538D01*
G03X5080490Y1065200I-9009J34662D01*
G01Y1098909D01*
G01X5127106Y1145525D01*
G03X5141276Y1177860I-34305J34305D01*
G03X5156899Y1207440I-20191J29580D01*
G01Y1229928D01*
G01X5189306Y1262336D01*
G01Y1045891D01*
G03X5225120Y1010077I35814J0D01*
G01X5585120D01*
G03X5620934Y1045891I0J35814D01*
G01Y1292890D01*
G03X5585120Y1328704I-35814J0D01*
G01X5453634D01*
G01Y1426268D01*
G01X5690884D01*
G01X5926506Y1190647D01*
G01Y1168159D01*
G03X5929798Y1153160I35814J0D01*
G03X5926506Y1138161I32522J-14999D01*
G01Y1081596D01*
G03X5940806Y1052963I35814J0D01*
G01Y1021037D01*
G01X5932747D01*
G03X5896933Y985223I0J-35814D01*
G01Y905223D01*
G03X5932747Y869409I35814J0D01*
G01X6012746D01*
G03X6048560Y905223I0J35814D01*
G01Y985223D01*
G03X6037834Y1010782I-35814J0D01*
G01Y1052963D01*
G03X6052134Y1081596I-21514J28632D01*
G01Y1138161D01*
G03X6048842Y1153160I-35814J0D01*
G03X6052134Y1168159I-32522J14999D01*
G01Y1224724D01*
G01Y1224725D01*
G03X6016320Y1260539I-35814J0D01*
G01X5993832D01*
G01X5828103Y1426268D01*
G01X5923592D01*
G03X5957897Y1440478I0J48514D01*
G01X6029975Y1512555D01*
G03X6044184Y1546860I-34305J34305D01*
G01Y1709335D01*
G03X6052134Y1731836I-27864J22500D01*
G01Y1788401D01*
G03X6048842Y1803400I-35814J0D01*
G03X6052134Y1818399I-32522J14999D01*
G01Y1874964D01*
G01Y1874965D01*
G03X6037834Y1903597I-35814J0D01*
G01Y1951544D01*
G03X6048560Y1977103I-25088J25559D01*
G01Y2057103D01*
G03X6012746Y2092917I-35814J0D01*
G01X5932747D01*
G03X5896933Y2057103I0J-35814D01*
G01Y1977103D01*
G03X5932747Y1941289I35814J0D01*
G01X5940806D01*
G01Y1903597D01*
G03X5926506Y1874965I21514J-28632D01*
G01Y1874964D01*
G01Y1818399D01*
G03X5929798Y1803400I35814J0D01*
G03X5926506Y1788401I32522J-14999D01*
G01Y1731836D01*
G03X5947156Y1699390I35814J0D01*
G01Y1566955D01*
G01X5903497Y1523296D01*
G01X5830519D01*
G03X5839734Y1557020I-57099J33724D01*
G03X5816854Y1607130I-66314J0D01*
G01Y1701201D01*
G03X5832330Y1730680I-20338J29479D01*
G01Y1784680D01*
G03X5796516Y1820494I-35814J0D01*
G01X5780024D01*
G01Y1893570D01*
G03X5736590Y1937004I-43434J0D01*
G01X5562321D01*
G03X5531608Y1924282I0J-43434D01*
G01X5485124Y1877798D01*
G03X5454120Y1895683I-31003J-17929D01*
G01X5356120D01*
G03X5320306Y1859869I0J-35814D01*
G01Y1612870D01*
G03X5356120Y1577056I35814J0D01*
G01X5356606D01*
G01Y1474782D01*
G01Y1328704D01*
G01X5225120D01*
G03X5214874Y1327207I0J-35814D01*
G01Y1433070D01*
G03X5232674Y1478280I-48514J45210D01*
G03X5166360Y1544594I-66314J0D01*
G03X5100046Y1478280I0J-66314D01*
G03X5117846Y1433070I66314J0D01*
G01Y1328094D01*
G01X5087007Y1297254D01*
G01X5064519D01*
G03X5049520Y1293962I0J-35814D01*
G03X5034521Y1297254I-14999J-32522D01*
G01X4986785D01*
G03X4926330Y1336314I-60455J-27254D01*
G03X4860016Y1270000I0J-66314D01*
G03X4923994Y1203727I66314J0D01*
G01X4927585Y1200135D01*
G03X4947882Y1187992I34305J34305D01*
G03X4977956Y1171626I30074J19447D01*
G01X5015988D01*
G01X4999377Y1155014D01*
G01X4965667D01*
G03X4935930Y1139159I0J-35814D01*
G01Y1153100D01*
G03X4900116Y1188914I-35814J0D01*
G01X4835411D01*
G01X4831436Y1192889D01*
G01Y1193127D01*
G03X4847019Y1222680I-20231J29552D01*
G01Y1276680D01*
G03X4811205Y1312494I-35814J0D01*
G01X4811204D01*
G01X4754639D01*
G03X4739640Y1309202I0J-35814D01*
G03X4724641Y1312494I-14999J-32522D01*
G01X4668076D01*
G03X4636800Y1294130I0J-35814D01*
G01X4575600D01*
G03X4586008Y1319373I-25406J25243D01*
G01Y1347373D01*
G03X4584279Y1358367I-35814J0D01*
G03X4586008Y1369360I-34085J10993D01*
G01Y1397361D01*
G03X4550194Y1433175I-35814J0D01*
G01X4459694D01*
G03X4423880Y1397361I0J-35814D01*
G01Y1369360D01*
G03X4425609Y1358367I35814J0D01*
G03X4423880Y1347373I34085J-10993D01*
G01Y1326680D01*
G01X4403187D01*
G03X4392193Y1324951I0J-35814D01*
G03X4381200Y1326680I-10993J-34085D01*
G01X4353199D01*
G03X4342194Y1324947I0J-35814D01*
G03X4331188Y1326680I-11006J-34081D01*
G01X4303187D01*
G03X4292194Y1324951I0J-35814D01*
G03X4281200Y1326680I-10993J-34085D01*
G01X4253200D01*
G03X4242194Y1324947I0J-35814D01*
G03X4231188Y1326680I-11006J-34081D01*
G01X4203187D01*
G03X4192194Y1324951I0J-35814D01*
G03X4181201Y1326680I-10993J-34085D01*
G01X4153200D01*
G03X4142194Y1324947I0J-35814D01*
G03X4131188Y1326680I-11006J-34081D01*
G01X4110520D01*
G01Y1347373D01*
G03X4108791Y1358367I-35814J0D01*
G03X4110520Y1369360I-34085J10993D01*
G01Y1397361D01*
G03X4108787Y1408367I-35814J0D01*
G03X4110520Y1419372I-34081J11006D01*
G01Y1447373D01*
G03X4108791Y1458366I-35814J0D01*
G03X4110520Y1469360I-34085J10993D01*
G01Y1497360D01*
G03X4108787Y1508366I-35814J0D01*
G03X4110520Y1519372I-34081J11006D01*
G01Y1547373D01*
G03X4108791Y1558366I-35814J0D01*
G03X4110520Y1569359I-34085J10993D01*
G01Y1597360D01*
G03X4108787Y1608366I-35814J0D01*
G03X4110520Y1619372I-34081J11006D01*
G01Y1640040D01*
G01X4131188D01*
G03X4142194Y1641773I0J35814D01*
G03X4153200Y1640040I11006J34081D01*
G01X4181201D01*
G03X4192194Y1641769I0J35814D01*
G03X4203187Y1640040I10993J34085D01*
G01X4231188D01*
G03X4242194Y1641773I0J35814D01*
G03X4253200Y1640040I11006J34081D01*
G01X4281200D01*
G03X4292194Y1641769I0J35814D01*
G03X4303187Y1640040I10993J34085D01*
G01X4331188D01*
G03X4342194Y1641773I0J35814D01*
G03X4353199Y1640040I11006J34081D01*
G01X4381200D01*
G03X4392193Y1641769I0J35814D01*
G03X4403187Y1640040I10993J34085D01*
G01X4423880D01*
G01Y1619372D01*
G03X4425613Y1608366I35814J0D01*
G03X4423880Y1597360I34081J-11006D01*
G01Y1569359D01*
G03X4425609Y1558366I35814J0D01*
G03X4423880Y1547373I34085J-10993D01*
G01Y1519372D01*
G03X4425613Y1508366I35814J0D01*
G03X4423880Y1497360I34081J-11006D01*
G01Y1469360D01*
G03X4459694Y1433546I35814J0D01*
G01X4550194D01*
G03X4566329Y1437386I0J35814D01*
G01X4577149D01*
G03X4632960Y1406886I55811J35814D01*
G03X4699274Y1473200I0J66314D01*
G03X4687409Y1511053I-66314J0D01*
G03X4700544Y1550670I-53179J39617D01*
G03X4666892Y1608383I-66314J0D01*
G01X4678256Y1619747D01*
G01X4711172Y1586830D01*
G03X4703496Y1564673I28137J-22157D01*
G01Y1485664D01*
G03X4739310Y1449850I35814J0D01*
G01X4773019D01*
G01X4792864Y1430005D01*
G03X4827168Y1415796I34305J34305D01*
G01X4868420D01*
G03X4913630Y1397996I45210J48514D01*
G03X4979944Y1464310I0J66314D01*
G03X4913630Y1530624I-66314J0D01*
G03X4868420Y1512824I0J-66314D01*
G01X4847264D01*
G01X4829124Y1530963D01*
G01Y1564673D01*
G03X4814824Y1593305I-35814J0D01*
G01Y1600302D01*
G03X4800615Y1634606I-48514J0D01*
G01X4755370Y1679851D01*
G01Y1713560D01*
G03X4719556Y1749374I-35814J0D01*
G01X4640547D01*
G03X4604733Y1713560I0J-35814D01*
G01Y1679346D01*
G01X4566329D01*
G03X4550194Y1683187I-16135J-31974D01*
G01X4467001D01*
G01Y1705901D01*
G01X4533766Y1772666D01*
G01X4587240D01*
G03X4619749Y1786131I0J45974D01*
G01X4632550Y1798933D01*
G03X4646016Y1831442I-32509J32509D01*
G01Y1831620D01*
G03X4658699Y1843786I-17691J31139D01*
G01X4663101D01*
G03X4693476Y1826946I30375J18974D01*
G01X4750041D01*
G03X4785855Y1862760I0J35814D01*
G01Y1916760D01*
G03X4750041Y1952574I-35814J0D01*
G01X4693476D01*
G03X4663101Y1935734I0J-35814D01*
G01X4658699D01*
G03X4628325Y1952574I-30375J-18974D01*
G01X4628324D01*
G01X4571759D01*
G03X4556760Y1949282I0J-35814D01*
G03X4541761Y1952574I-14999J-32522D01*
G01X4516220D01*
G01X4285918Y2182876D01*
G01X4922520D01*
G03X4956825Y2197085I0J48514D01*
G01X4982225Y2222485D01*
G03X4996434Y2256790I-34305J34305D01*
G01Y2276176D01*
G03X5033734Y2346960I-48514J70784D01*
G03X5005642Y2410460I-85814J0D01*
G03X5018704Y2425446I-57722J63500D01*
G01X5019265D01*
G01X5067046Y2377665D01*
G01Y2074012D01*
G03X5081255Y2039707I48514J0D01*
G01X5112733Y2008229D01*
G01Y1974520D01*
G03X5129149Y1944414I35814J0D01*
G01Y1895683D01*
G01X5126123D01*
G03X5090309Y1859869I0J-35814D01*
G01Y1612870D01*
G03X5126123Y1577056I35814J0D01*
G01X5224123D01*
G03X5259937Y1612870I0J35814D01*
G01Y1859869D01*
G03X5224123Y1895683I-35814J0D01*
G01X5221097D01*
G01Y1938706D01*
G01X5227556D01*
G03X5263370Y1974520I0J35814D01*
G01Y2028520D01*
G03X5227556Y2064334I-35814J0D01*
G01X5193847D01*
G01X5164074Y2094107D01*
G01Y2397760D01*
G03X5149865Y2432065I-48514J0D01*
G01X5073665Y2508265D01*
G03X5039360Y2522474I-34305J-34305D01*
G01X5018704D01*
G03X5005642Y2537460I-70784J-48514D01*
G03X5018704Y2552446I-57722J63500D01*
G01X5214071D01*
G03X5203266Y2499360I125009J-53086D01*
G03X5339080Y2363546I135814J0D01*
G03X5394474Y2375357I0J135814D01*
G01X5444338Y2325493D01*
G01Y2063182D01*
G03X5417533Y2028520I9009J-34662D01*
G01Y1974520D01*
G03X5453347Y1938706I35814J0D01*
G01X5532356D01*
G03X5568170Y1974520I0J35814D01*
G01Y2028520D01*
G03X5541366Y2063182I-35814J0D01*
G01Y2345588D01*
G03X5527156Y2379893I-48514J0D01*
G01X5463083Y2443966D01*
G03X5474894Y2499360I-124003J55394D01*
G03X5339080Y2635174I-135814J0D01*
G03X5283686Y2623363I0J-135814D01*
G01X5271785Y2635265D01*
G03X5237480Y2649474I-34305J-34305D01*
G01X5018704D01*
G03X4947920Y2686774I-70784J-48514D01*
G03X4862118Y2602382I0J-85814D01*
G01X4720022D01*
G03X4685360Y2629187I-34662J-9009D01*
G01X4651651D01*
G01X4620173Y2660665D01*
G03X4585868Y2674874I-34305J-34305D01*
G01X4544630D01*
G03X4504120Y2720086I-99630J-48514D01*
G01X8092186D01*
G01Y251714D01*
G01X6545863D01*
G37*
G36*
G01X5707106Y1557020D02*
G03X5716321Y1523296I66314J0D01*
G01X5710979D01*
G01X5453634D01*
G01Y1577056D01*
G01X5454120D01*
G03X5489934Y1612870I0J35814D01*
G01Y1759759D01*
G01X5580312Y1850136D01*
G01X5693156D01*
G01Y1810942D01*
G03X5681693Y1784680I24351J-26262D01*
G01Y1730680D01*
G03X5717507Y1694866I35814J0D01*
G01X5729986D01*
G01Y1607130D01*
G03X5707106Y1557020I43434J-50110D01*
G37*
G54D8191*
G01X2575814Y251714D02*
G01X2575814Y507733D01*
G03X2592000Y503866I16186J31948D01*
G01X2742000D01*
G03X2777814Y539680I0J35814D01*
G01Y689680D01*
G03X2742000Y725494I-35814J0D01*
G01X2710434D01*
G01Y761896D01*
G03X2716127Y765556I-16434J31821D01*
G01X2735000D01*
G03X2785110Y742676I50110J43434D01*
G03X2851424Y808990I0J66314D01*
G03X2785110Y875304I-66314J0D01*
G03X2735000Y852424I0J-66314D01*
G01X2729814D01*
G01Y872726D01*
G03X2694000Y908540I-35814J0D01*
G01X2640000D01*
G03X2604186Y872726I0J-35814D01*
G01Y793717D01*
G03X2623566Y761896I35814J0D01*
G01Y725494D01*
G01X2592000D01*
G03X2575814Y721627I0J-35814D01*
G01Y2250173D01*
G03X2592000Y2246306I16186J31948D01*
G01X2618486D01*
G01Y2200864D01*
G03X2608293Y2175840I25621J-25024D01*
G01Y2121840D01*
G03X2644107Y2086026I35814J0D01*
G01X2723116D01*
G03X2758930Y2121840I0J35814D01*
G01Y2175840D01*
G03X2723116Y2211654I-35814J0D01*
G01X2715514D01*
G01Y2246306D01*
G01X2742000D01*
G03X2777814Y2282120I0J35814D01*
G01Y2432120D01*
G03X2742000Y2467934I-35814J0D01*
G01X2592000D01*
G03X2575814Y2464067I0J-35814D01*
G01Y2519413D01*
G03X2592000Y2515546I16186J31948D01*
G01X2742000D01*
G03X2777814Y2551360I0J35814D01*
G01Y2701360D01*
G03X2772528Y2720086I-35814J0D01*
G01X2861880D01*
G03X2810186Y2626360I59120J-93726D01*
G03X2921000Y2515546I110814J0D01*
G03X3031814Y2626360I0J110814D01*
G03X2980120Y2720086I-110814J0D01*
G01X3115880D01*
G03X3064186Y2626360I59120J-93726D01*
G03X3175000Y2515546I110814J0D01*
G03X3285814Y2626360I0J110814D01*
G03X3234120Y2720086I-110814J0D01*
G01X3369880D01*
G03X3318186Y2626360I59120J-93726D01*
G03X3429000Y2515546I110814J0D01*
G03X3539814Y2626360I0J110814D01*
G03X3488120Y2720086I-110814J0D01*
G01X3623880D01*
G03X3572186Y2626360I59120J-93726D01*
G03X3683000Y2515546I110814J0D01*
G03X3793814Y2626360I0J110814D01*
G03X3742120Y2720086I-110814J0D01*
G01X4131880D01*
G03X4080186Y2626360I59120J-93726D01*
G03X4191000Y2515546I110814J0D01*
G03X4301814Y2626360I0J110814D01*
G03X4250120Y2720086I-110814J0D01*
G01X4385880D01*
G03X4334186Y2626360I59120J-93726D01*
G03X4445000Y2515546I110814J0D01*
G03X4544630Y2577846I0J110814D01*
G01X4565773D01*
G01X4595546Y2548073D01*
G01Y2514364D01*
G03X4631360Y2478550I35814J0D01*
G01X4685360D01*
G03X4720022Y2505354I0J35814D01*
G01X4847916D01*
G01X4863563Y2489707D01*
G03X4862106Y2473960I84357J-15747D01*
G03X4890198Y2410460I85814J0D01*
G03X4862106Y2346960I57722J-63500D01*
G03X4894371Y2279904I85814J0D01*
G01X4524482D01*
G03X4555814Y2357120I-79482J77216D01*
G03X4445000Y2467934I-110814J0D01*
G03X4334186Y2357120I0J-110814D01*
G03X4365518Y2279904I110814J0D01*
G01X4270482D01*
G03X4301814Y2357120I-79482J77216D01*
G03X4191000Y2467934I-110814J0D01*
G03X4080186Y2357120I0J-110814D01*
G03X4111518Y2279904I110814J0D01*
G01X4016482D01*
G03X4047814Y2357120I-79482J77216D01*
G03X3937000Y2467934I-110814J0D01*
G03X3826186Y2357120I0J-110814D01*
G03X3857518Y2279904I110814J0D01*
G01X3856990D01*
G03X3822685Y2265695I0J-48514D01*
G01X3693385Y2136394D01*
G01X3444240D01*
G03X3409935Y2122185I0J-48514D01*
G01X3288356Y2000606D01*
G01X3277302D01*
G03X3242640Y2027410I-34662J-9009D01*
G01X3188640D01*
G03X3152826Y1991596I0J-35814D01*
G01Y1985201D01*
G01X3113737D01*
G03X3083080Y2002500I-30657J-18514D01*
G01X3023080D01*
G03X2987266Y1966686I0J-35814D01*
G01Y1906687D01*
G03X3004566Y1876029I35814J0D01*
G01Y1666015D01*
G01X3000785Y1662234D01*
G03X2991987Y1663332I-8798J-34716D01*
G01X2861987D01*
G03X2826173Y1627518I0J-35814D01*
G01Y1587518D01*
G03X2828421Y1575030I35814J0D01*
G03X2826173Y1562542I33566J-12488D01*
G01Y1522542D01*
G03X2828430Y1510030I35814J0D01*
G03X2826173Y1497518I33557J-12512D01*
G01Y1457518D01*
G03X2828430Y1445006I35814J0D01*
G03X2826173Y1432494I33557J-12512D01*
G01Y1392494D01*
G03X2861987Y1356680I35814J0D01*
G01X2991987D01*
G03X3027801Y1392494I0J35814D01*
G01Y1432480D01*
G03X3040433Y1439926I-18034J45038D01*
G01X3083786D01*
G01Y1426754D01*
G03X3119600Y1390940I35814J0D01*
G01X3179600D01*
G03X3211418Y1410315I0J35814D01*
G03X3225686Y1417353I-14039J46438D01*
G03X3281680Y1386566I55994J35527D01*
G03X3347994Y1452880I0J66314D01*
G03X3326555Y1501704I-66314J0D01*
G03X3319351Y1513840I-44875J-18434D01*
G03X3321492Y1516687I-37671J30570D01*
G03X3347994Y1569720I-39812J53033D01*
G03X3281680Y1636034I-66314J0D01*
G03X3227955Y1608593I0J-66314D01*
G03X3211418Y1617365I-30575J-37667D01*
G03X3179600Y1636740I-31819J-16438D01*
G01X3119600D01*
G03X3098979Y1630208I0J-35814D01*
G03X3101594Y1645920I-45899J15712D01*
G01Y1876029D01*
G03X3113737Y1888173I-18514J30657D01*
G01X3162437D01*
G03X3186477Y1876838I26203J24414D01*
G03X3179806Y1847850I59643J-28988D01*
G03X3246120Y1781536I66314J0D01*
G03X3264387Y1784102I0J66314D01*
G03X3286163Y1776721I21776J28433D01*
G01X3386163D01*
G03X3421977Y1812535I0J35814D01*
G01Y1819021D01*
G01X3710343D01*
G01Y1812535D01*
G03X3746157Y1776721I35814J0D01*
G01X3823732D01*
G01X3826418Y1774035D01*
G01Y1245879D01*
G01X3741077D01*
G03X3705263Y1210065I0J-35814D01*
G01Y1203579D01*
G01X3416897D01*
G01Y1210065D01*
G03X3381083Y1245879I-35814J0D01*
G01X3281083D01*
G03X3245269Y1210065I0J-35814D01*
G01Y1100065D01*
G03X3281083Y1064251I35814J0D01*
G01X3381083D01*
G03X3416897Y1100065I0J35814D01*
G01Y1106551D01*
G01X3425266D01*
G01Y1050040D01*
G03X3407485Y1023874I44374J-49280D01*
G01X3353968D01*
G03X3319664Y1009665I0J-48514D01*
G01X3287328Y977329D01*
G01X3264840D01*
G03X3229026Y941515I0J-35814D01*
G01Y941514D01*
G01Y884949D01*
G03X3232318Y869950I35814J0D01*
G03X3229026Y854951I32522J-14999D01*
G01Y798386D01*
G03X3264840Y762572I35814J0D01*
G01X3287328D01*
G01X3353814Y696085D01*
G03X3318186Y614680I75186J-81405D01*
G03X3429000Y503866I110814J0D01*
G03X3539814Y614680I0J110814D01*
G03X3530459Y659242I-110814J0D01*
G01X3572222Y617479D01*
G03X3572186Y614680I110778J-2799D01*
G03X3683000Y503866I110814J0D01*
G03X3793814Y614680I0J110814D01*
G03X3683000Y725494I-110814J0D01*
G03X3620638Y706281I0J-110814D01*
G01X3586734Y740185D01*
G01Y751973D01*
G03X3601034Y780606I-21514J28632D01*
G01Y837171D01*
G03X3597742Y852170I-35814J0D01*
G03X3601034Y867169I-32522J14999D01*
G01Y923734D01*
G01Y923735D01*
G03X3597868Y938458I-35814J0D01*
G01X3611655Y952246D01*
G01X3617470D01*
G03X3662680Y934446I45210J48514D01*
G03X3728994Y1000760I0J66314D01*
G03X3696894Y1057566I-66314J0D01*
G01Y1106551D01*
G01X3705263D01*
G01Y1100065D01*
G03X3741077Y1064251I35814J0D01*
G01X3741166D01*
G01Y946048D01*
G03X3755375Y911744I48514J0D01*
G01X3824750Y842369D01*
G01Y808660D01*
G03X3860564Y772846I35814J0D01*
G01X3939573D01*
G03X3969339Y788744I0J35814D01*
G03X3991294Y801355I-12349J46916D01*
G01X4003815Y813876D01*
G01X4063225D01*
G01X4148136Y728965D01*
G03X4159025Y720781I34305J34305D01*
G03X4080186Y614680I31975J-106101D01*
G03X4096730Y556431I110814J0D01*
G03X4065255Y542305I2830J-48431D01*
G01X3973144Y450194D01*
G03X3937000Y456254I-36144J-104754D01*
G03X3826186Y345440I0J-110814D01*
G03X3877880Y251714I110814J0D01*
G01X3742120D01*
G03X3793814Y345440I-59120J93726D01*
G03X3683000Y456254I-110814J0D01*
G03X3572186Y345440I0J-110814D01*
G03X3623880Y251714I110814J0D01*
G01X3488120D01*
G03X3539814Y345440I-59120J93726D01*
G03X3429000Y456254I-110814J0D01*
G03X3318186Y345440I0J-110814D01*
G03X3369880Y251714I110814J0D01*
G01X3234120D01*
G03X3285814Y345440I-59120J93726D01*
G03X3175000Y456254I-110814J0D01*
G03X3064186Y345440I0J-110814D01*
G03X3115880Y251714I110814J0D01*
G01X2980120D01*
G03X3031814Y345440I-59120J93726D01*
G03X2921000Y456254I-110814J0D01*
G03X2810186Y345440I0J-110814D01*
G03X2861880Y251714I110814J0D01*
G01X2575814D01*
G01X3318186Y2357120D02*
G03X3429000Y2246306I110814J0D01*
G03X3539814Y2357120I0J110814D01*
G03X3429000Y2467934I-110814J0D01*
G03X3318186Y2357120I0J-110814D01*
G01X3175000Y2246306D02*
G03X3285814Y2357120I0J110814D01*
G03X3175000Y2467934I-110814J0D01*
G03X3064186Y2357120I0J-110814D01*
G03X3175000Y2246306I110814J0D01*
G01X3683000Y2246306D02*
G03X3793814Y2357120I0J110814D01*
G03X3683000Y2467934I-110814J0D01*
G03X3572186Y2357120I0J-110814D01*
G03X3683000Y2246306I110814J0D01*
G01X2921000Y2246306D02*
G03X3031814Y2357120I0J110814D01*
G03X2921000Y2467934I-110814J0D01*
G03X2810186Y2357120I0J-110814D01*
G03X2921000Y2246306I110814J0D01*
G01X3826186Y614680D02*
G03X3937000Y503866I110814J0D01*
G03X4047814Y614680I0J110814D01*
G03X3937000Y725494I-110814J0D01*
G03X3826186Y614680I0J-110814D01*
G01X3175000Y503866D02*
G03X3285814Y614680I0J110814D01*
G03X3175000Y725494I-110814J0D01*
G03X3064186Y614680I0J-110814D01*
G03X3175000Y503866I110814J0D01*
G01X2921000Y503866D02*
G03X3031814Y614680I0J110814D01*
G03X2921000Y725494I-110814J0D01*
G03X2810186Y614680I0J-110814D01*
G03X2921000Y503866I110814J0D01*
G01X4057702Y1174690D02*
G01X4057702Y1120143D01*
G03X4038600Y1122954I-19102J-63503D01*
G01X4037315Y1122942D01*
G01X4015559Y1144698D01*
G03X4009338Y1149907I-32509J-32509D01*
G01Y1174690D01*
G03X3973524Y1210504I-35814J0D01*
G01X3918366D01*
G01Y1793078D01*
G03X3904901Y1825586I-45974J0D01*
G01X3881971Y1848516D01*
G01Y1922535D01*
G03X3846157Y1958349I-35814J0D01*
G01X3746157D01*
G03X3710343Y1922535I0J-35814D01*
G01Y1916049D01*
G01X3701974D01*
G01Y1974925D01*
G03X3666160Y2010739I-35814J0D01*
G01X3466160D01*
G03X3430346Y1974925I0J-35814D01*
G01Y1916049D01*
G01X3421977D01*
G01Y1922535D01*
G03X3386163Y1958349I-35814J0D01*
G01X3383318D01*
G01X3464335Y2039366D01*
G01X3713480D01*
G03X3747785Y2053575I0J48514D01*
G01X3877085Y2182876D01*
G01X4055266D01*
G03X4043406Y2145030I54454J-37846D01*
G03X4107384Y2078757I66314J0D01*
G01X4248106Y1938035D01*
G03X4244340Y1931642I28810J-21275D01*
G03X4211765Y1952574I-32575J-14882D01*
G01X4211764D01*
G01X4155199D01*
G03X4119385Y1916760I0J-35814D01*
G01Y1862760D01*
G03X4155199Y1826946I35814J0D01*
G01X4181279D01*
G01X4206056Y1802168D01*
G01X4203187D01*
G03X4192194Y1800439I0J-35814D01*
G03X4181201Y1802168I-10993J-34085D01*
G01X4153200D01*
G03X4142194Y1800435I0J-35814D01*
G03X4131188Y1802168I-11006J-34081D01*
G01X4103187D01*
G03X4067373Y1766354I0J-35814D01*
G01Y1683187D01*
G01X3984206D01*
G03X3948392Y1647373I0J-35814D01*
G01Y1619372D01*
G03X3950125Y1608366I35814J0D01*
G03X3948392Y1597360I34081J-11006D01*
G01Y1569359D01*
G03X3950121Y1558366I35814J0D01*
G03X3948392Y1547373I34085J-10993D01*
G01Y1519372D01*
G03X3950125Y1508366I35814J0D01*
G03X3948392Y1497360I34081J-11006D01*
G01Y1469360D01*
G03X3950121Y1458366I35814J0D01*
G03X3948392Y1447373I34085J-10993D01*
G01Y1419372D01*
G03X3950125Y1408367I35814J0D01*
G03X3948392Y1397361I34081J-11006D01*
G01Y1369360D01*
G03X3950121Y1358367I35814J0D01*
G03X3948392Y1347373I34085J-10993D01*
G01Y1319373D01*
G03X3984206Y1283559I35814J0D01*
G01X4067373D01*
G01Y1200366D01*
G01X4067392Y1199189D01*
G03X4057702Y1174690I26124J-24499D01*
G01X6545863Y251714D02*
G01X6551945Y257795D01*
G03X6566154Y292100I-34305J34305D01*
G01Y341514D01*
G03X6579299Y369240I-22669J27726D01*
G01Y423240D01*
G03X6576357Y437455I-35814J0D01*
G01X6662753D01*
G03X6678752Y441228I0J35814D01*
G03X6694752Y437455I15999J32042D01*
G01X6789753D01*
G03X6805752Y441228I0J35814D01*
G03X6821752Y437455I15999J32042D01*
G01X6916753D01*
G03X6932752Y441228I0J35814D01*
G03X6948752Y437455I15999J32042D01*
G01X7043753D01*
G03X7059752Y441228I0J35814D01*
G03X7075752Y437455I15999J32042D01*
G01X7170753D01*
G03X7186752Y441228I0J35814D01*
G03X7202752Y437455I15999J32042D01*
G01X7297753D01*
G03X7313752Y441228I0J35814D01*
G03X7329752Y437455I15999J32042D01*
G01X7424753D01*
G03X7440752Y441228I0J35814D01*
G03X7456752Y437455I15999J32042D01*
G01X7551753D01*
G03X7567752Y441228I0J35814D01*
G03X7583752Y437455I15999J32042D01*
G01X7678753D01*
G03X7694752Y441228I0J35814D01*
G03X7710752Y437455I15999J32042D01*
G01X7805753D01*
G03X7821752Y441228I0J35814D01*
G03X7837752Y437455I15999J32042D01*
G01X7932753D01*
G03X7968567Y473269I0J35814D01*
G01Y683269D01*
G03X7938209Y718665I-35814J0D01*
G03X7946486Y750748I-58037J32083D01*
G03X7880172Y817062I-66314J0D01*
G03X7816672Y769861I0J-66314D01*
G03X7753172Y817062I-63500J-19113D01*
G03X7689672Y769861I0J-66314D01*
G03X7626172Y817062I-63500J-19113D01*
G03X7562672Y769861I0J-66314D01*
G03X7499172Y817062I-63500J-19113D01*
G03X7435672Y769861I0J-66314D01*
G03X7372172Y817062I-63500J-19113D01*
G03X7305858Y750748I0J-66314D01*
G03X7315590Y716164I66314J0D01*
G01X7313752Y715310D01*
G03X7297753Y719083I-15999J-32042D01*
G01X7202752D01*
G03X7186752Y715310I0J-35814D01*
G03X7176209Y718665I-15999J-32042D01*
G03X7184486Y750748I-58037J32083D01*
G03X7118172Y817062I-66314J0D01*
G03X7054672Y769861I0J-66314D01*
G03X6991172Y817062I-63500J-19113D01*
G03X6924858Y750748I0J-66314D01*
G03X6934590Y716164I66314J0D01*
G01X6932752Y715310D01*
G03X6916753Y719083I-15999J-32042D01*
G01X6912686D01*
G01Y1336218D01*
G03X6898477Y1370522I-48514J0D01*
G01X6865853Y1403146D01*
G03X6799580Y1467124I-66273J-2336D01*
G03X6733266Y1400810I0J-66314D01*
G03X6766145Y1343541I66314J0D01*
G03X6758940Y1343934I-7205J-65921D01*
G03X6692626Y1277620I0J-66314D01*
G01X6692671Y1275172D01*
G03X6688658Y1255852I44501J-19320D01*
G01Y718561D01*
G03X6678752Y715310I6093J-35292D01*
G03X6662753Y719083I-15999J-32042D01*
G01X6658686D01*
G01Y1094918D01*
G03X6644477Y1129222I-48514J0D01*
G01X6595343Y1178356D01*
G03X6529070Y1242334I-66273J-2336D01*
G03X6462756Y1176020I0J-66314D01*
G03X6526734Y1109747I66314J0D01*
G01X6561658Y1074823D01*
G01Y1044008D01*
G03X6517640Y1060724I-44018J-49598D01*
G03X6451367Y996746I0J-66314D01*
G01X6448868Y994247D01*
G03X6434658Y959942I34305J-34305D01*
G01Y718561D01*
G03X6424752Y715310I6093J-35292D01*
G03X6408753Y719083I-15999J-32042D01*
G01X6378662D01*
G01X6409705Y750126D01*
G03X6423914Y784430I-34305J34305D01*
G01Y960120D01*
G03X6409705Y994425I-48514J0D01*
G01X6352562Y1051568D01*
G01Y1081268D01*
G03X6348789Y1097267I-35814J0D01*
G03X6352562Y1113267I-32042J15999D01*
G01Y1208268D01*
G03X6348789Y1224267I-35814J0D01*
G03X6352562Y1240267I-32042J15999D01*
G01Y1335268D01*
G03X6348789Y1351267I-35814J0D01*
G03X6352562Y1367267I-32042J15999D01*
G01Y1462268D01*
G03X6348789Y1478267I-35814J0D01*
G03X6352562Y1494267I-32042J15999D01*
G01Y1589268D01*
G03X6348789Y1605267I-35814J0D01*
G03X6352562Y1621267I-32042J15999D01*
G01Y1716268D01*
G03X6348789Y1732267I-35814J0D01*
G03X6352562Y1748267I-32042J15999D01*
G01Y1843268D01*
G03X6348789Y1859267I-35814J0D01*
G03X6352562Y1875267I-32042J15999D01*
G01Y1880190D01*
G03X6369065Y1891015I-17802J45130D01*
G01X6381765Y1903715D01*
G03X6395974Y1938020I-34305J34305D01*
G01Y2140460D01*
G03X6410968Y2166583I-48514J45210D01*
G01X6450076Y2127475D01*
G01Y2073400D01*
G03X6432276Y2028190I48514J-45210D01*
G03X6498590Y1961876I66314J0D01*
G03X6538976Y1975592I0J66314D01*
G01Y1956560D01*
G03X6521176Y1911350I48514J-45210D01*
G03X6587490Y1845036I66314J0D01*
G03X6607556Y1848145I0J66314D01*
G01Y1807210D01*
G03X6607651Y1804181I48514J0D01*
G03X6606266Y1790700I64929J-13481D01*
G03X6672580Y1724386I66314J0D01*
G03X6688658Y1726365I0J66314D01*
G01Y1682928D01*
G03X6690393Y1670071I48514J0D01*
G03X6690086Y1663700I66007J-6371D01*
G03X6756400Y1597386I66314J0D01*
G03X6812059Y1627650I0J66314D01*
G03X6871970Y1589766I59911J28430D01*
G03X6938284Y1656080I0J66314D01*
G03X6917944Y1703871I-66314J0D01*
G01Y2237497D01*
G03X6932752Y2241250I-1191J35794D01*
G03X6944793Y2237697I15999J32042D01*
G03X6928846Y2194560I50367J-43137D01*
G03X6995160Y2128246I66314J0D01*
G03X7058962Y2176481I0J66314D01*
G03X7123430Y2125706I64468J15539D01*
G03X7186516Y2171583I0J66314D01*
G03X7245350Y2135866I58834J30597D01*
G03X7311595Y2199152I0J66314D01*
G03X7372172Y2159818I60577J26980D01*
G03X7435672Y2207019I0J66314D01*
G03X7499172Y2159818I63500J19113D01*
G03X7562672Y2207019I0J66314D01*
G03X7626172Y2159818I63500J19113D01*
G03X7689672Y2207019I0J66314D01*
G03X7753172Y2159818I63500J19113D01*
G03X7816672Y2207019I0J66314D01*
G03X7880172Y2159818I63500J19113D01*
G03X7946486Y2226132I0J66314D01*
G03X7945090Y2239669I-66314J0D01*
G03X7968567Y2273291I-12337J33622D01*
G01Y2483291D01*
G03X7932753Y2519105I-35814J0D01*
G01X7928966D01*
G01Y2549458D01*
G03X7955770Y2584120I-9009J34662D01*
G01Y2638120D01*
G03X7919956Y2673934I-35814J0D01*
G01X7840947D01*
G03X7812315Y2659634I0J-35814D01*
G01X7712165D01*
G03X7683533Y2673934I-28632J-21514D01*
G01X7604524D01*
G03X7568710Y2638120I0J-35814D01*
G01Y2584120D01*
G03X7604524Y2548306I35814J0D01*
G01X7683533D01*
G03X7712165Y2562606I0J35814D01*
G01X7812315D01*
G03X7831938Y2549458I28632J21514D01*
G01Y2518630D01*
G03X7821752Y2515332I5814J-35339D01*
G03X7805753Y2519105I-15999J-32042D01*
G01X7710752D01*
G03X7694752Y2515332I0J-35814D01*
G03X7678753Y2519105I-15999J-32042D01*
G01X7583752D01*
G03X7567752Y2515332I0J-35814D01*
G03X7551753Y2519105I-15999J-32042D01*
G01X7456752D01*
G03X7440752Y2515332I0J-35814D01*
G03X7424753Y2519105I-15999J-32042D01*
G01X7329752D01*
G03X7313752Y2515332I0J-35814D01*
G03X7297753Y2519105I-15999J-32042D01*
G01X7202752D01*
G03X7186752Y2515332I0J-35814D01*
G03X7170753Y2519105I-15999J-32042D01*
G01X7075752D01*
G03X7059752Y2515332I0J-35814D01*
G03X7043753Y2519105I-15999J-32042D01*
G01X6948752D01*
G03X6932752Y2515332I0J-35814D01*
G03X6916753Y2519105I-15999J-32042D01*
G01X6821752D01*
G03X6805752Y2515332I0J-35814D01*
G03X6789753Y2519105I-15999J-32042D01*
G01X6694752D01*
G03X6678752Y2515332I0J-35814D01*
G03X6662753Y2519105I-15999J-32042D01*
G01X6567752D01*
G03X6551752Y2515332I0J-35814D01*
G03X6535753Y2519105I-15999J-32042D01*
G01X6440752D01*
G03X6424752Y2515332I0J-35814D01*
G03X6408753Y2519105I-15999J-32042D01*
G01X6313752D01*
G03X6277938Y2483291I0J-35814D01*
G01Y2273291D01*
G03X6306905Y2238138I35814J0D01*
G03X6281146Y2185670I40555J-52468D01*
G03X6298946Y2140460I66314J0D01*
G01Y2006082D01*
G01X6106748D01*
G03X6070934Y1970268I0J-35814D01*
G01Y1875267D01*
G03X6074706Y1859267I35814J0D01*
G03X6070934Y1843268I32042J-15999D01*
G01Y1748267D01*
G03X6074706Y1732267I35814J0D01*
G03X6070934Y1716268I32042J-15999D01*
G01Y1621267D01*
G03X6074706Y1605267I35814J0D01*
G03X6070934Y1589268I32042J-15999D01*
G01Y1494267D01*
G03X6074706Y1478267I35814J0D01*
G03X6070934Y1462268I32042J-15999D01*
G01Y1367267D01*
G03X6074706Y1351267I35814J0D01*
G03X6070934Y1335268I32042J-15999D01*
G01Y1240267D01*
G03X6074706Y1224267I35814J0D01*
G03X6070934Y1208268I32042J-15999D01*
G01Y1113267D01*
G03X6074706Y1097267I35814J0D01*
G03X6070934Y1081268I32042J-15999D01*
G01Y986267D01*
G03X6074706Y970267I35814J0D01*
G03X6070934Y954268I32042J-15999D01*
G01Y859267D01*
G03X6106748Y823453I35814J0D01*
G01X6158154D01*
G01Y695913D01*
G01X6105094Y642853D01*
G03X6041116Y576580I2336J-66273D01*
G03X6107430Y510266I66314J0D01*
G03X6142932Y520570I0J66314D01*
G03X6140176Y501650I63558J-18920D01*
G03X6161665Y452780I66314J0D01*
G03X6146102Y423240I20250J-29539D01*
G01Y400752D01*
G01X6102473Y357124D01*
G01X6065103D01*
G03X6071407Y385343I-60011J28219D01*
G03X6007429Y451616I-66314J0D01*
G01X5861368Y597677D01*
G01Y869750D01*
G03X5888667Y904537I-8514J34787D01*
G01Y984537D01*
G03X5852853Y1020351I-35814J0D01*
G01X5772854D01*
G03X5737040Y984537I0J-35814D01*
G01Y904537D01*
G03X5764340Y869750I35814J0D01*
G01Y577582D01*
G03X5778549Y543277I48514J0D01*
G01X5938820Y383006D01*
G03X5945082Y357124I66273J2336D01*
G01X5401085D01*
G01X4960635Y797575D01*
G03X4926330Y811784I-34305J-34305D01*
G01X4837002D01*
G03X4840934Y828100I-31882J16316D01*
G01Y842086D01*
G01X4905070D01*
G03X4939375Y856296I0J48514D01*
G01X5039476Y956397D01*
G03X5053686Y990702I-34305J34305D01*
G01Y1030538D01*
G03X5080490Y1065200I-9009J34662D01*
G01Y1098909D01*
G01X5127106Y1145525D01*
G03X5141276Y1177860I-34305J34305D01*
G03X5156899Y1207440I-20191J29580D01*
G01Y1229928D01*
G01X5189306Y1262336D01*
G01Y1045891D01*
G03X5225120Y1010077I35814J0D01*
G01X5585120D01*
G03X5620934Y1045891I0J35814D01*
G01Y1292890D01*
G03X5585120Y1328704I-35814J0D01*
G01X5453634D01*
G01Y1426268D01*
G01X5690884D01*
G01X5926506Y1190647D01*
G01Y1168159D01*
G03X5929798Y1153160I35814J0D01*
G03X5926506Y1138161I32522J-14999D01*
G01Y1081596D01*
G03X5940806Y1052963I35814J0D01*
G01Y1021037D01*
G01X5932747D01*
G03X5896933Y985223I0J-35814D01*
G01Y905223D01*
G03X5932747Y869409I35814J0D01*
G01X6012746D01*
G03X6048560Y905223I0J35814D01*
G01Y985223D01*
G03X6037834Y1010782I-35814J0D01*
G01Y1052963D01*
G03X6052134Y1081596I-21514J28632D01*
G01Y1138161D01*
G03X6048842Y1153160I-35814J0D01*
G03X6052134Y1168159I-32522J14999D01*
G01Y1224724D01*
G01Y1224725D01*
G03X6016320Y1260539I-35814J0D01*
G01X5993832D01*
G01X5828103Y1426268D01*
G01X5923592D01*
G03X5957897Y1440478I0J48514D01*
G01X6029975Y1512555D01*
G03X6044184Y1546860I-34305J34305D01*
G01Y1709335D01*
G03X6052134Y1731836I-27864J22500D01*
G01Y1788401D01*
G03X6048842Y1803400I-35814J0D01*
G03X6052134Y1818399I-32522J14999D01*
G01Y1874964D01*
G01Y1874965D01*
G03X6037834Y1903597I-35814J0D01*
G01Y1951544D01*
G03X6048560Y1977103I-25088J25559D01*
G01Y2057103D01*
G03X6012746Y2092917I-35814J0D01*
G01X5932747D01*
G03X5896933Y2057103I0J-35814D01*
G01Y1977103D01*
G03X5932747Y1941289I35814J0D01*
G01X5940806D01*
G01Y1903597D01*
G03X5926506Y1874965I21514J-28632D01*
G01Y1874964D01*
G01Y1818399D01*
G03X5929798Y1803400I35814J0D01*
G03X5926506Y1788401I32522J-14999D01*
G01Y1731836D01*
G03X5947156Y1699390I35814J0D01*
G01Y1566955D01*
G01X5903497Y1523296D01*
G01X5830519D01*
G03X5839734Y1557020I-57099J33724D01*
G03X5816854Y1607130I-66314J0D01*
G01Y1701201D01*
G03X5832330Y1730680I-20338J29479D01*
G01Y1784680D01*
G03X5796516Y1820494I-35814J0D01*
G01X5780024D01*
G01Y1893570D01*
G03X5736590Y1937004I-43434J0D01*
G01X5562321D01*
G03X5531608Y1924282I0J-43434D01*
G01X5485124Y1877798D01*
G03X5454120Y1895683I-31003J-17929D01*
G01X5356120D01*
G03X5320306Y1859869I0J-35814D01*
G01Y1612870D01*
G03X5356120Y1577056I35814J0D01*
G01X5356606D01*
G01Y1474782D01*
G01Y1328704D01*
G01X5225120D01*
G03X5214874Y1327207I0J-35814D01*
G01Y1433070D01*
G03X5232674Y1478280I-48514J45210D01*
G03X5166360Y1544594I-66314J0D01*
G03X5100046Y1478280I0J-66314D01*
G03X5117846Y1433070I66314J0D01*
G01Y1328094D01*
G01X5087007Y1297254D01*
G01X5064519D01*
G03X5049520Y1293962I0J-35814D01*
G03X5034521Y1297254I-14999J-32522D01*
G01X4986785D01*
G03X4926330Y1336314I-60455J-27254D01*
G03X4860016Y1270000I0J-66314D01*
G03X4923994Y1203727I66314J0D01*
G01X4927585Y1200135D01*
G03X4947882Y1187992I34305J34305D01*
G03X4977956Y1171626I30074J19447D01*
G01X5015988D01*
G01X4999377Y1155014D01*
G01X4965667D01*
G03X4935930Y1139159I0J-35814D01*
G01Y1153100D01*
G03X4900116Y1188914I-35814J0D01*
G01X4835411D01*
G01X4831436Y1192889D01*
G01Y1193127D01*
G03X4847019Y1222680I-20231J29552D01*
G01Y1276680D01*
G03X4811205Y1312494I-35814J0D01*
G01X4811204D01*
G01X4754639D01*
G03X4739640Y1309202I0J-35814D01*
G03X4724641Y1312494I-14999J-32522D01*
G01X4668076D01*
G03X4636800Y1294130I0J-35814D01*
G01X4575600D01*
G03X4586008Y1319373I-25406J25243D01*
G01Y1347373D01*
G03X4584279Y1358367I-35814J0D01*
G03X4586008Y1369360I-34085J10993D01*
G01Y1397361D01*
G03X4550194Y1433175I-35814J0D01*
G01X4459694D01*
G03X4423880Y1397361I0J-35814D01*
G01Y1369360D01*
G03X4425609Y1358367I35814J0D01*
G03X4423880Y1347373I34085J-10993D01*
G01Y1326680D01*
G01X4403187D01*
G03X4392193Y1324951I0J-35814D01*
G03X4381200Y1326680I-10993J-34085D01*
G01X4353199D01*
G03X4342194Y1324947I0J-35814D01*
G03X4331188Y1326680I-11006J-34081D01*
G01X4303187D01*
G03X4292194Y1324951I0J-35814D01*
G03X4281200Y1326680I-10993J-34085D01*
G01X4253200D01*
G03X4242194Y1324947I0J-35814D01*
G03X4231188Y1326680I-11006J-34081D01*
G01X4203187D01*
G03X4192194Y1324951I0J-35814D01*
G03X4181201Y1326680I-10993J-34085D01*
G01X4153200D01*
G03X4142194Y1324947I0J-35814D01*
G03X4131188Y1326680I-11006J-34081D01*
G01X4110520D01*
G01Y1347373D01*
G03X4108791Y1358367I-35814J0D01*
G03X4110520Y1369360I-34085J10993D01*
G01Y1397361D01*
G03X4108787Y1408367I-35814J0D01*
G03X4110520Y1419372I-34081J11006D01*
G01Y1447373D01*
G03X4108791Y1458366I-35814J0D01*
G03X4110520Y1469360I-34085J10993D01*
G01Y1497360D01*
G03X4108787Y1508366I-35814J0D01*
G03X4110520Y1519372I-34081J11006D01*
G01Y1547373D01*
G03X4108791Y1558366I-35814J0D01*
G03X4110520Y1569359I-34085J10993D01*
G01Y1597360D01*
G03X4108787Y1608366I-35814J0D01*
G03X4110520Y1619372I-34081J11006D01*
G01Y1640040D01*
G01X4131188D01*
G03X4142194Y1641773I0J35814D01*
G03X4153200Y1640040I11006J34081D01*
G01X4181201D01*
G03X4192194Y1641769I0J35814D01*
G03X4203187Y1640040I10993J34085D01*
G01X4231188D01*
G03X4242194Y1641773I0J35814D01*
G03X4253200Y1640040I11006J34081D01*
G01X4281200D01*
G03X4292194Y1641769I0J35814D01*
G03X4303187Y1640040I10993J34085D01*
G01X4331188D01*
G03X4342194Y1641773I0J35814D01*
G03X4353199Y1640040I11006J34081D01*
G01X4381200D01*
G03X4392193Y1641769I0J35814D01*
G03X4403187Y1640040I10993J34085D01*
G01X4423880D01*
G01Y1619372D01*
G03X4425613Y1608366I35814J0D01*
G03X4423880Y1597360I34081J-11006D01*
G01Y1569359D01*
G03X4425609Y1558366I35814J0D01*
G03X4423880Y1547373I34085J-10993D01*
G01Y1519372D01*
G03X4425613Y1508366I35814J0D01*
G03X4423880Y1497360I34081J-11006D01*
G01Y1469360D01*
G03X4459694Y1433546I35814J0D01*
G01X4550194D01*
G03X4566329Y1437386I0J35814D01*
G01X4577149D01*
G03X4632960Y1406886I55811J35814D01*
G03X4699274Y1473200I0J66314D01*
G03X4687409Y1511053I-66314J0D01*
G03X4700544Y1550670I-53179J39617D01*
G03X4666892Y1608383I-66314J0D01*
G01X4678256Y1619747D01*
G01X4711172Y1586830D01*
G03X4703496Y1564673I28137J-22157D01*
G01Y1485664D01*
G03X4739310Y1449850I35814J0D01*
G01X4773019D01*
G01X4792864Y1430005D01*
G03X4827168Y1415796I34305J34305D01*
G01X4868420D01*
G03X4913630Y1397996I45210J48514D01*
G03X4979944Y1464310I0J66314D01*
G03X4913630Y1530624I-66314J0D01*
G03X4868420Y1512824I0J-66314D01*
G01X4847264D01*
G01X4829124Y1530963D01*
G01Y1564673D01*
G03X4814824Y1593305I-35814J0D01*
G01Y1600302D01*
G03X4800615Y1634606I-48514J0D01*
G01X4755370Y1679851D01*
G01Y1713560D01*
G03X4719556Y1749374I-35814J0D01*
G01X4640547D01*
G03X4604733Y1713560I0J-35814D01*
G01Y1679346D01*
G01X4566329D01*
G03X4550194Y1683187I-16135J-31974D01*
G01X4467001D01*
G01Y1705901D01*
G01X4533766Y1772666D01*
G01X4587240D01*
G03X4619749Y1786131I0J45974D01*
G01X4632550Y1798933D01*
G03X4646016Y1831442I-32509J32509D01*
G01Y1831620D01*
G03X4658699Y1843786I-17691J31139D01*
G01X4663101D01*
G03X4693476Y1826946I30375J18974D01*
G01X4750041D01*
G03X4785855Y1862760I0J35814D01*
G01Y1916760D01*
G03X4750041Y1952574I-35814J0D01*
G01X4693476D01*
G03X4663101Y1935734I0J-35814D01*
G01X4658699D01*
G03X4628325Y1952574I-30375J-18974D01*
G01X4628324D01*
G01X4571759D01*
G03X4556760Y1949282I0J-35814D01*
G03X4541761Y1952574I-14999J-32522D01*
G01X4516220D01*
G01X4285918Y2182876D01*
G01X4922520D01*
G03X4956825Y2197085I0J48514D01*
G01X4982225Y2222485D01*
G03X4996434Y2256790I-34305J34305D01*
G01Y2276176D01*
G03X5033734Y2346960I-48514J70784D01*
G03X5005642Y2410460I-85814J0D01*
G03X5018704Y2425446I-57722J63500D01*
G01X5019265D01*
G01X5067046Y2377665D01*
G01Y2074012D01*
G03X5081255Y2039707I48514J0D01*
G01X5112733Y2008229D01*
G01Y1974520D01*
G03X5129149Y1944414I35814J0D01*
G01Y1895683D01*
G01X5126123D01*
G03X5090309Y1859869I0J-35814D01*
G01Y1612870D01*
G03X5126123Y1577056I35814J0D01*
G01X5224123D01*
G03X5259937Y1612870I0J35814D01*
G01Y1859869D01*
G03X5224123Y1895683I-35814J0D01*
G01X5221097D01*
G01Y1938706D01*
G01X5227556D01*
G03X5263370Y1974520I0J35814D01*
G01Y2028520D01*
G03X5227556Y2064334I-35814J0D01*
G01X5193847D01*
G01X5164074Y2094107D01*
G01Y2397760D01*
G03X5149865Y2432065I-48514J0D01*
G01X5073665Y2508265D01*
G03X5039360Y2522474I-34305J-34305D01*
G01X5018704D01*
G03X5005642Y2537460I-70784J-48514D01*
G03X5018704Y2552446I-57722J63500D01*
G01X5214071D01*
G03X5203266Y2499360I125009J-53086D01*
G03X5339080Y2363546I135814J0D01*
G03X5394474Y2375357I0J135814D01*
G01X5444338Y2325493D01*
G01Y2063182D01*
G03X5417533Y2028520I9009J-34662D01*
G01Y1974520D01*
G03X5453347Y1938706I35814J0D01*
G01X5532356D01*
G03X5568170Y1974520I0J35814D01*
G01Y2028520D01*
G03X5541366Y2063182I-35814J0D01*
G01Y2345588D01*
G03X5527156Y2379893I-48514J0D01*
G01X5463083Y2443966D01*
G03X5474894Y2499360I-124003J55394D01*
G03X5339080Y2635174I-135814J0D01*
G03X5283686Y2623363I0J-135814D01*
G01X5271785Y2635265D01*
G03X5237480Y2649474I-34305J-34305D01*
G01X5018704D01*
G03X4947920Y2686774I-70784J-48514D01*
G03X4862118Y2602382I0J-85814D01*
G01X4720022D01*
G03X4685360Y2629187I-34662J-9009D01*
G01X4651651D01*
G01X4620173Y2660665D01*
G03X4585868Y2674874I-34305J-34305D01*
G01X4544630D01*
G03X4504120Y2720086I-99630J-48514D01*
G01X8092186D01*
G01Y251714D01*
G01X6545863D01*
G01X5707106Y1557020D02*
G03X5716321Y1523296I66314J0D01*
G01X5710979D01*
G01X5453634D01*
G01Y1577056D01*
G01X5454120D01*
G03X5489934Y1612870I0J35814D01*
G01Y1759759D01*
G01X5580312Y1850136D01*
G01X5693156D01*
G01Y1810942D01*
G03X5681693Y1784680I24351J-26262D01*
G01Y1730680D01*
G03X5717507Y1694866I35814J0D01*
G01X5729986D01*
G01Y1607130D01*
G03X5707106Y1557020I43434J-50110D01*
G04 Copper End*

G04 Pad Start*
G54D10*
G01X8012252Y2378291D03*
G01X7885252Y2378291D03*
G01X7758252Y2378291D03*
G01X7631252Y2378291D03*
G01X7504252Y2378291D03*
G01X7377252Y2378291D03*
G01X7250252Y2378291D03*
G01X7123252Y2378291D03*
G01X6996252Y2378291D03*
G01X6869252Y2378291D03*
G01X6742252Y2378291D03*
G01X6615252Y2378291D03*
G01X6488252Y2378291D03*
G01X6361252Y2378291D03*
G54D11*
G01X6211748Y2049767D03*
G01X6211748Y1922767D03*
G01X6211748Y1795767D03*
G01X6211748Y1668767D03*
G01X6211748Y1541767D03*
G01X6211748Y1414767D03*
G01X6211748Y1287767D03*
G01X6211748Y1160767D03*
G01X6211748Y1033767D03*
G01X6211748Y906767D03*
G54D10*
G01X6361252Y578269D03*
G01X6488252Y578269D03*
G01X6615252Y578269D03*
G01X6742252Y578269D03*
G01X6869252Y578269D03*
G01X6996252Y578269D03*
G01X7123252Y578269D03*
G01X7250252Y578269D03*
G01X7377252Y578269D03*
G01X7504252Y578269D03*
G01X7631252Y578269D03*
G01X7758252Y578269D03*
G01X7885252Y578269D03*
G01X8012252Y578269D03*
G54D12*
G01X7244156Y1628305D03*
G01X7244156Y1768285D03*
G01X7244156Y1488275D03*
G01X7384161Y1488275D03*
G01X7384161Y1628280D03*
G01X7384161Y1768285D03*
G01X7104151Y1768285D03*
G01X7104151Y1628280D03*
G01X7104151Y1488275D03*
G54D13*
G01X4504944Y1333373D03*
G01X4504944Y1383360D03*
G01X4504944Y1433373D03*
G01X4504944Y1483360D03*
G01X4504944Y1533373D03*
G01X4504944Y1583360D03*
G01X4504944Y1633372D03*
G54D14*
G01X4417187Y1721104D03*
G01X4367200Y1721104D03*
G01X4317187Y1721104D03*
G01X4267200Y1721104D03*
G01X4217187Y1721104D03*
G01X4167200Y1721104D03*
G01X4117188Y1721104D03*
G54D13*
G01X4029456Y1633372D03*
G01X4029456Y1583360D03*
G01X4029456Y1533373D03*
G01X4029456Y1483360D03*
G01X4029456Y1433373D03*
G01X4029456Y1383360D03*
G01X4029456Y1333373D03*
G54D14*
G01X4117188Y1245616D03*
G01X4167200Y1245616D03*
G01X4217187Y1245616D03*
G01X4267200Y1245616D03*
G01X4317187Y1245616D03*
G01X4367200Y1245616D03*
G01X4417187Y1245616D03*
G54D16*
G01X4267200Y1483360D03*
G54D17*
G01X5635117Y1736369D03*
G01X5405120Y1736369D03*
G01X5175123Y1736369D03*
G54D18*
G01X5405120Y1169391D03*
G54D19*
G01X2926987Y1347470D03*
G01X2926987Y1412494D03*
G01X2926987Y1477518D03*
G01X2926987Y1542542D03*
G01X2926987Y1607518D03*
G54D20*
G01X2666002Y1377518D03*
G01X2666002Y1577518D03*
G54D21*
G01X2928991Y1727518D03*
G01X2928991Y1227519D03*
G54D22*
G01X2659009Y1127506D03*
G01X2659017Y1827530D03*
G54D23*
G01X3053080Y1936687D03*
G54D24*
G01X3053080Y2086674D03*
G54D23*
G01X3149600Y1570927D03*
G54D24*
G01X3149600Y1720914D03*
G01X3149600Y1456754D03*
G54D23*
G01X3149600Y1306767D03*
G54D25*
G01X4865116Y1090600D03*
G01X4675124Y1090600D03*
G01X4770120Y890600D03*
G01X4128516Y1112190D03*
G01X3938524Y1112190D03*
G01X4033520Y912190D03*
G54D26*
G01X5005172Y1092200D03*
G01X5114188Y1092200D03*
G54D27*
G01X3291840Y913232D03*
G01X3291840Y826668D03*
G01X3538220Y895452D03*
G01X3538220Y808888D03*
G54D28*
G01X4782922Y1249680D03*
G01X4696358Y1249680D03*
G54D29*
G01X4328160Y962558D03*
G01X4328160Y1049122D03*
G54D30*
G01X5006238Y1234440D03*
G01X5092802Y1234440D03*
G01X4096918Y1889760D03*
G01X4183482Y1889760D03*
G54D28*
G01X4600042Y1889760D03*
G01X4513478Y1889760D03*
G54D30*
G01X4721758Y1889760D03*
G01X4808322Y1889760D03*
G01X4305198Y1889760D03*
G01X4391762Y1889760D03*
G54D31*
G01X3900068Y835660D03*
G01X3791052Y835660D03*
G54D32*
G01X3215640Y1952092D03*
G01X3215640Y2061108D03*
G54D30*
G01X6428638Y396240D03*
G01X6515202Y396240D03*
G54D28*
G01X6296762Y396240D03*
G01X6210198Y396240D03*
G54D29*
G01X5989320Y1760118D03*
G01X5989320Y1846682D03*
G54D27*
G01X5989320Y1196442D03*
G01X5989320Y1109878D03*
G54D33*
G01X4947920Y2600960D03*
G01X4947920Y2473960D03*
G01X4947920Y2346960D03*
G54D34*
G01X5972747Y2017103D03*
G01X5812854Y2016417D03*
G54D35*
G01X3791077Y1155065D03*
G01X3331083Y1155065D03*
G01X3791077Y1315085D03*
G01X3331083Y1315085D03*
G54D36*
G01X3561080Y1082675D03*
G54D37*
G01X3336163Y1867535D03*
G01X3796157Y1867535D03*
G01X3336163Y1707515D03*
G01X3796157Y1707515D03*
G54D38*
G01X3566160Y1939925D03*
G54D39*
G01X5339080Y2499360D03*
G01X5593080Y2499360D03*
G54D40*
G01X4658360Y2553868D03*
G01X4658360Y2444852D03*
G54D41*
G01X2667000Y2357120D03*
G54D42*
G01X2921000Y2357120D03*
G01X3175000Y2357120D03*
G01X3429000Y2357120D03*
G01X3683000Y2357120D03*
G01X3937000Y2357120D03*
G01X4191000Y2357120D03*
G01X4445000Y2357120D03*
G54D41*
G01X2667000Y2626360D03*
G54D42*
G01X2921000Y2626360D03*
G01X3175000Y2626360D03*
G01X3429000Y2626360D03*
G01X3683000Y2626360D03*
G01X3937000Y2626360D03*
G01X4191000Y2626360D03*
G01X4445000Y2626360D03*
G54D41*
G01X2667000Y614680D03*
G54D42*
G01X2921000Y614680D03*
G01X3175000Y614680D03*
G01X3429000Y614680D03*
G01X3683000Y614680D03*
G01X3937000Y614680D03*
G01X4191000Y614680D03*
G01X4445000Y614680D03*
G54D41*
G01X2667000Y345440D03*
G54D42*
G01X2921000Y345440D03*
G01X3175000Y345440D03*
G01X3429000Y345440D03*
G01X3683000Y345440D03*
G01X3937000Y345440D03*
G01X4191000Y345440D03*
G01X4445000Y345440D03*
G54D26*
G01X5188052Y2001520D03*
G01X5297068Y2001520D03*
G01X5757012Y1757680D03*
G01X5866028Y1757680D03*
G01X5492852Y2001520D03*
G01X5601868Y2001520D03*
G01X2683612Y2148840D03*
G01X2792628Y2148840D03*
G54D32*
G01X4766310Y1416152D03*
G01X4766310Y1525168D03*
G54D31*
G01X4789068Y1686560D03*
G01X4680052Y1686560D03*
G54D26*
G01X7880452Y2611120D03*
G01X7989468Y2611120D03*
G54D31*
G01X7644028Y2611120D03*
G01X7535012Y2611120D03*
G54D34*
G01X5972747Y945223D03*
G01X5812854Y944537D03*
G54D32*
G01X2667000Y833222D03*
G01X2667000Y942238D03*
G04 Pad End*

G04 Via Start*
G54D43*
G01X7499172Y2226132D03*
G01X7626172Y2226132D03*
G01X7753172Y2226132D03*
G01X7880172Y2226132D03*
G01X8007172Y2226132D03*
G01X6991172Y750748D03*
G01X7118172Y750748D03*
G01X7372172Y750748D03*
G01X7499172Y750748D03*
G01X7626172Y750748D03*
G01X7753172Y750748D03*
G01X7880172Y750748D03*
G01X8007172Y750748D03*
G01X7372172Y2226132D03*
G01X7245350Y2202180D03*
G01X7123430Y2192020D03*
G01X6995160Y2194560D03*
G01X6498590Y2028190D03*
G01X6587490Y1911350D03*
G01X6672580Y1790700D03*
G01X6756400Y1663700D03*
G01X6347460Y2185670D03*
G01X6871970Y1656080D03*
G01X6107430Y576580D03*
G01X6517640Y994410D03*
G01X6758940Y1277620D03*
G01X6799580Y1400810D03*
G01X6529070Y1176020D03*
G01X6206490Y501650D03*
G01X5166360Y1478280D03*
G01X6005093Y385343D03*
G01X4366260Y1154430D03*
G01X3469640Y1000760D03*
G01X3662680Y1000760D03*
G01X4268470Y1168400D03*
G01X4038600Y1056640D03*
G01X4536440Y1148080D03*
G01X3281680Y1569720D03*
G01X3281680Y1452880D03*
G01X4634230Y1550670D03*
G01X4632960Y1473200D03*
G01X3246120Y1847850D03*
G01X3741420Y1414780D03*
G01X4758690Y406400D03*
G01X4700270Y2346960D03*
G01X3806190Y1446530D03*
G01X3149600Y1812290D03*
G01X3092450Y1163320D03*
G01X3042920Y1339850D03*
G01X4884420Y1557020D03*
G01X4864100Y1375410D03*
G01X3613150Y918210D03*
G01X5181600Y1012190D03*
G01X5643880Y1558290D03*
G01X7288848Y1533279D03*
G01X7437010Y1533279D03*
G01X7428862Y1673268D03*
G01X7437010Y1813283D03*
G01X7292340Y1623060D03*
G01X7148858Y1583266D03*
G01X7058856Y1533279D03*
G01X7040880Y1790700D03*
G01X7263130Y1828800D03*
G01X4632960Y1396507D03*
G01X2700619Y2012102D03*
G01X3051810Y2164080D03*
G01X3162300Y2138680D03*
G01X4970780Y1557020D03*
G01X5806440Y2190750D03*
G01X5634990Y2192020D03*
G01X5298440Y2185670D03*
G01X2785110Y808990D03*
G01X2731770Y1014730D03*
G01X5773420Y1557020D03*
G01X5863830Y1557020D03*
G01X7363460Y2612390D03*
G01X6082030Y2212340D03*
G01X2801620Y1924050D03*
G01X3241040Y1736090D03*
G01X4926330Y1270000D03*
G01X4913630Y1464310D03*
G01X4109720Y2145030D03*
G01X2819400Y1075690D03*
G01X4147309Y1446086D03*
G01X4387091Y1436864D03*
G01X4267200Y1370770D03*
G01X3995420Y2145030D03*
G04 Via End*

G04 Track Start*
G54D44*
G01X7123430Y2192020D02*
G01X7123430Y2380653D01*
G01X7245350Y2202180D02*
G01X7245350Y2385733D01*
G01X7372172Y2385911D02*
G01X7372172Y2226132D01*
G01X7499172Y2385911D02*
G01X7499172Y2226132D01*
G01X7626172Y2385911D02*
G01X7626172Y2226132D01*
G01X7753172Y2385911D02*
G01X7753172Y2226132D01*
G01X6991172Y585889D02*
G01X6991172Y750748D01*
G01X7118172Y585889D02*
G01X7118172Y750748D01*
G01X7372172Y585889D02*
G01X7372172Y750748D01*
G01X7499172Y585889D02*
G01X7499172Y750748D01*
G01X7626172Y585889D02*
G01X7626172Y750748D01*
G01X7753172Y585889D02*
G01X7753172Y750748D01*
G01X7880172Y585889D02*
G01X7880172Y750748D01*
G01X8007172Y585889D02*
G01X8007172Y750748D01*
G01X7880452Y2383371D02*
G01X7880172Y2226132D01*
G01X8012252Y2383371D02*
G01X8007172Y2226132D01*
G01X6737172Y1682928D02*
G01X6737172Y2385911D01*
G01X6347460Y2185670D02*
G01X6347460Y1938020D01*
G01X6334760Y1925320D01*
G01X6209195D01*
G01X6206668Y1927847D01*
G01X6107430Y576580D02*
G01X6206668Y675818D01*
G01Y911847D01*
G01X6517640Y994410D02*
G01X6483172Y959942D01*
G01Y585889D01*
G01X6758940Y1277620D02*
G01X6737172Y1255852D01*
G01Y585889D01*
G01X6799580Y1400810D02*
G01X6864172Y1336218D01*
G01Y585889D01*
G01X5812854Y577582D02*
G01X5812854Y944537D01*
G01X6517640Y393802D02*
G01X6515202Y396240D01*
G01X6428638Y396240D02*
G01X6296762Y396240D01*
G01Y523939D01*
G01X6356172Y583349D01*
G01X6375400Y960120D02*
G01X6296673Y1038847D01*
G01X6206668D01*
G01X6610172Y1094918D02*
G01X6610172Y583349D01*
G01X6529070Y1176020D02*
G01X6610172Y1094918D01*
G01X6005093Y385343D02*
G01X5812854Y577582D01*
G01X5166360Y1478280D02*
G01X5166360Y1307998D01*
G01X5092802Y1234440D01*
G01Y1179830D01*
G01X5005172Y1092200D01*
G01X3413760Y704748D02*
G01X3413760Y629920D01*
G01X3429000Y614680D01*
G01X4417187Y1245616D02*
G01X4692294Y1245616D01*
G01X4696358Y1249680D02*
G01X4692294Y1245616D01*
G01X4325722Y960120D02*
G01X4328160Y962558D01*
G01X4782922Y1249680D02*
G01X4782922Y1172794D01*
G01X4865116Y1090600D01*
G54D45*
G01X4328160Y1049122D02*
G01X4633646Y1049122D01*
G01X4675124Y1090600D01*
G54D44*
G01X5339080Y2499360D02*
G01X5237480Y2600960D01*
G01X4947920D01*
G01X4445000Y2626360D02*
G01X4585868Y2626360D01*
G01X4658360Y2553868D01*
G01X4947920Y2473960D02*
G01X5039360Y2473960D01*
G01X5115560Y2397760D01*
G01Y2074012D01*
G01X5188052Y2001520D01*
G01X5339080Y2499360D02*
G01X5492852Y2345588D01*
G01Y2001520D01*
G01X5972747Y2017103D02*
G01X5989320Y2000529D01*
G01Y1846682D01*
G01X5972747Y945223D02*
G01X5989320Y961796D01*
G01Y1109878D01*
G01X5989320Y1196442D02*
G01X5710979Y1474782D01*
G01X5405120D01*
G01X5405120Y1736369D02*
G01X5405120Y1474782D01*
G01Y1169391D01*
G01X3789680Y1153668D02*
G01X3791077Y1155065D01*
G01X4128516Y1121080D02*
G01X4128516Y1103884D01*
G01X4272280Y960120D01*
G01X4325722D01*
G54D45*
G01X4272178Y1049122D02*
G01X4325620Y1049122D01*
G01X4536440Y1148080D02*
G01X4594758Y1148080D01*
G01X4692294Y1245616D01*
G54D44*
G01X2926987Y1607518D02*
G01X3014678Y1607518D01*
G01X3053080Y1645920D01*
G01Y1936687D01*
G01X3200235D01*
G01X3215640Y1952092D01*
G01X3308452D01*
G01X3444240Y2087880D01*
G01X3713480D01*
G54D45*
G01X5188052Y2001520D02*
G01X5175123Y1988591D01*
G01Y1736369D01*
G01X4183482Y1889760D02*
G01X4267200Y1806042D01*
G01Y1721104D01*
G01X4367200Y1721104D02*
G01X4367200Y1865198D01*
G01X4391762Y1889760D01*
G01X4417187Y1721104D02*
G01X4514723Y1818640D01*
G01X4587240D01*
G01X4600042Y1831442D01*
G01Y1889760D01*
G01X4721758D01*
G01X4626864Y1633372D02*
G01X4680052Y1686560D01*
G01X4504944Y1583360D02*
G01X4576851Y1583360D01*
G01X4626864Y1633372D01*
G01X4510024Y1633372D02*
G01X4626864Y1633372D01*
G54D46*
G01X3316478Y1847850D02*
G01X3336163Y1867535D01*
G01X3246120Y1847850D02*
G01X3316478Y1847850D01*
G54D44*
G01X3336163Y1867535D02*
G01X3796157Y1867535D01*
G01X3331083Y1155065D02*
G01X3791077Y1155065D01*
G01X3900068Y835660D02*
G01X3789680Y946048D01*
G01Y1153668D01*
G01X5356860Y266700D02*
G01X6492240Y266700D01*
G01X6517640Y292100D01*
G01Y393802D01*
G01X6756400Y1663700D02*
G01X6737172Y1682928D01*
G01X6672580Y1790700D02*
G01X6656070Y1807210D01*
G01X6656070Y2337473D02*
G01X6615252Y2378291D01*
G01X6656070Y1807210D02*
G01X6656070Y2337473D01*
G01X6587490Y1911350D02*
G01X6587490Y2156273D01*
G01X6488252Y2255511D01*
G01Y2378291D01*
G01X6498590Y2028190D02*
G01X6498590Y2147570D01*
G01X6361252Y2284908D02*
G01X6361252Y2378291D01*
G01X6498590Y2147570D02*
G01X6361252Y2284908D01*
G01X6994982Y2194738D02*
G01X6994982Y2377021D01*
G01X7123430Y2380653D02*
G01X7118172Y2385911D01*
G01X4770120Y890600D02*
G01X4905070Y890600D01*
G01X5005172Y990702D01*
G01Y1092200D01*
G01X6994982Y2377021D02*
G01X6996252Y2378291D01*
G54D45*
G01X4214647Y1185126D02*
G01X4194810Y1165289D01*
G01Y1126490D01*
G01X4272178Y1049122D01*
G01X3908459Y1000091D02*
G01X3872392Y1036158D01*
G01X4079041Y1000091D02*
G01X3908459Y1000091D01*
G54D44*
G01X5140960Y482600D02*
G01X5356860Y266700D01*
G01X5140960Y482600D02*
G01X4535170Y482600D01*
G01X4509770Y508000D01*
G01X4099560D01*
G01X3937000Y345440D01*
G01X4758690Y406400D02*
G01X4724400Y440690D01*
G01X4504690D01*
G01X4479290Y466090D01*
G01X4315460D01*
G01X4194810Y345440D02*
G01X4191000Y345440D01*
G01X4315460Y466090D02*
G01X4194810Y345440D01*
G54D45*
G01X4214647Y1185126D02*
G01X4214647Y1244346D01*
G01X4215917Y1245616D01*
G01X4366260Y1154430D02*
G01X4352290Y1154430D01*
G01X4328160Y1178560D01*
G01Y1196101D01*
G01X4317187Y1207074D01*
G01Y1245616D01*
G01X4268470Y1168400D02*
G01X4268470Y1244346D01*
G01X4267200Y1245616D01*
G54D44*
G01X6206490Y501650D02*
G01X6206490Y615520D01*
G01X6375400Y784430D01*
G01Y960120D01*
G54D45*
G01X4770120Y881710D02*
G01X4697400Y808990D01*
G01X4270142D01*
G01X4079041Y1000091D01*
G01X3872392Y1036158D02*
G01X3872392Y1793078D01*
G01X3797935Y1867535D01*
G01X3938524Y1112190D02*
G01X3983050Y1112190D01*
G01X4038600Y1056640D01*
G54D44*
G01X3900068Y835660D02*
G01X3956990Y835660D01*
G01X4033520Y912190D01*
G01X4182440Y763270D01*
G01X4926330D01*
G01X5380990Y308610D02*
G01X6122568Y308610D01*
G01X6210198Y396240D01*
G01X5380990Y308610D02*
G01X4926330Y763270D01*
G54D45*
G01X6871970Y1656080D02*
G01X6871970Y2375573D01*
G01X6869252Y2378291D01*
G54D46*
G01X4658360Y2444852D02*
G01X4700270Y2402942D01*
G01Y2346960D01*
G01X3806317Y1446657D02*
G01X3806317Y1697355D01*
G01X3791077Y1315085D02*
G01X3791077Y1365123D01*
G01X3741420Y1414780D01*
G01X3149600Y1720914D02*
G01X3149600Y1812290D01*
G54D44*
G01X3092450Y1163320D02*
G01X3092450Y1249617D01*
G54D46*
G01X2926987Y1347470D02*
G01X3035300Y1347470D01*
G01X3042920Y1339850D01*
G54D44*
G01X3413760Y704748D02*
G01X3291840Y826668D01*
G01X3538220Y808888D02*
G01X3538220Y720090D01*
G01X3643630Y614680D01*
G01X3683000D01*
G01X3662680Y1000760D02*
G01X3591560Y1000760D01*
G01X3538220Y947420D02*
G01X3591560Y1000760D01*
G01X3538220Y895452D02*
G01X3538220Y947420D01*
G01X3291840Y913232D02*
G01X3353968Y975360D01*
G01X3444240D01*
G01X3469640Y1000760D01*
G54D46*
G01X3708502Y918210D02*
G01X3791052Y835660D01*
G01X3613150Y918210D02*
G01X3708502Y918210D01*
G01X5114188Y1092200D02*
G01X5181600Y1024788D01*
G01Y1012190D01*
G01X4766310Y1416152D02*
G01X4823358Y1416152D01*
G01X4864100Y1375410D01*
G01X4884420Y1591208D02*
G01X4789068Y1686560D01*
G01X4884420Y1557020D02*
G01X4884420Y1591208D01*
G01X5643880Y1727606D02*
G01X5635117Y1736369D01*
G01X5643880Y1558290D02*
G01X5643880Y1727606D01*
G01X3806317Y1697355D02*
G01X3796157Y1707515D01*
G01X7244156Y1768285D02*
G01X7263130Y1787258D01*
G01Y1828800D01*
G01X7384161Y1768285D02*
G01X7392012Y1768285D01*
G01X7437010Y1813283D01*
G01X7104151Y1768285D02*
G01X7081736Y1790700D01*
G01X7040880D01*
G01X7104151Y1628280D02*
G01X7148858Y1583573D01*
G01Y1583266D01*
G01X7244156Y1628305D02*
G01X7287095Y1628305D01*
G01X7292340Y1623060D01*
G01X7384161Y1628280D02*
G01X7428862Y1672981D01*
G01Y1673268D01*
G01X7104151Y1488275D02*
G01X7059148Y1533279D01*
G01X7058856D01*
G01X7244156Y1488275D02*
G01X7288848Y1532966D01*
G01Y1533279D01*
G01X7384161Y1488275D02*
G01X7392007Y1488275D01*
G01X7437010Y1533279D01*
G01X4504944Y1433373D02*
G01X4563054Y1433373D01*
G01X4599920Y1396507D02*
G01X4563054Y1433373D01*
G01X4632960Y1396507D02*
G01X4599920Y1396507D01*
G01X2792628Y2148840D02*
G01X2792628Y2104111D01*
G01X2700619Y2012102D01*
G01X3053080Y2086674D02*
G01X3053080Y2162810D01*
G01X3051810Y2164080D01*
G01X3215640Y2061108D02*
G01X3215640Y2085340D01*
G01X3162300Y2138680D01*
G54D44*
G01X3713480Y2087880D02*
G01X3856990Y2231390D01*
G01X4922520Y2231390D02*
G01X4947920Y2256790D01*
G01Y2346960D01*
G54D46*
G01X4096918Y2043532D02*
G01X4096918Y1889760D01*
G01X3995420Y2145030D02*
G01X4096918Y2043532D01*
G01X4808322Y1889760D02*
G01X4970780Y1727302D01*
G01Y1557020D01*
G01X5634990Y2034642D02*
G01X5601868Y2001520D01*
G01X5634990Y2192020D02*
G01X5634990Y2034642D01*
G01X5297068Y2001520D02*
G01X5297068Y2184298D01*
G01X5298440Y2185670D01*
G01X2667000Y614680D02*
G01X2667000Y833222D01*
G01X2691232Y808990D01*
G01X2785110D01*
G01X2731770Y1007008D02*
G01X2667000Y942238D01*
G01X2731770Y1014730D02*
G01X2731770Y1007008D01*
G54D44*
G01X5995670Y1753768D02*
G01X5989320Y1760118D01*
G54D46*
G01X5405120Y1736369D02*
G01X5562321Y1893570D01*
G54D44*
G01X5710979Y1474782D02*
G01X5923592Y1474782D01*
G01X5995670Y1546860D01*
G01Y1753768D01*
G54D46*
G01X5562321Y1893570D02*
G01X5736590Y1893570D01*
G01Y1778102D01*
G01X5757012Y1757680D01*
G01X5773420Y1741272D01*
G01Y1557020D01*
G01X5866028Y1757680D02*
G01X5866028Y1559218D01*
G01X5863830Y1557020D01*
G54D44*
G01X7363460Y2612390D02*
G01X7533742Y2612390D01*
G01X7535012Y2611120D01*
G01X7644028Y2611120D02*
G01X7880452Y2611120D01*
G01X7880452Y2383092D02*
G01X7885252Y2378291D01*
G01X7880452Y2611120D02*
G01X7880452Y2383371D01*
G01Y2383092D01*
G01X7989468Y2611120D02*
G01X8012252Y2588336D01*
G01Y2383371D01*
G01Y2378291D01*
G01X5812854Y2184337D02*
G01X5812854Y2016417D01*
G01X5806440Y2190750D02*
G01X5812854Y2184337D01*
G01X6211748Y2049767D02*
G01X6082030Y2179485D01*
G01Y2212340D01*
G01X3092450Y1249617D02*
G01X3149600Y1306767D01*
G01X2667000Y2357120D02*
G01X2667000Y2165452D01*
G01X2683612Y2148840D01*
G01X5006238Y1234440D02*
G01X4961890Y1234440D01*
G01X4926330Y1270000D01*
G01X4680052Y1686560D02*
G01X4766310Y1600302D01*
G01Y1525168D01*
G01X4827168Y1464310D01*
G01X4913630D01*
G01X4109720Y2145030D02*
G01X4305198Y1949552D01*
G01Y1889760D01*
G01X4947920Y2473960D02*
G01X4868012Y2553868D01*
G01X4658360D01*
G01X2819400Y1075690D02*
G01X2819400Y1224120D01*
G01X2666002Y1377518D01*
G01X2666002Y1577518D02*
G01X2776220Y1687736D01*
G01Y1724660D01*
G01X2801620Y1750060D01*
G01Y1924050D01*
G01X3336163Y1707515D02*
G01X3307588Y1736090D01*
G01X3241040D01*
G01X3331083Y1315085D02*
G01X3791077Y1315085D01*
G01X4441914Y1433373D02*
G01X4504944Y1433373D01*
G01X4267200Y1483360D02*
G01X4391927Y1483360D01*
G01X4441914Y1433373D01*
G01X2926987Y1477518D02*
G01X3009767Y1477518D01*
G01X3020689Y1488440D01*
G01X3140620Y1488440D02*
G01X3149600Y1479460D01*
G01Y1456754D01*
G01X2926987Y1542542D02*
G01X3009767Y1542542D01*
G01X3020689Y1531620D01*
G01X3140620Y1531620D02*
G01X3149600Y1540600D01*
G01Y1570927D01*
G01X3020689Y1488440D02*
G01X3140620Y1488440D01*
G01X3020689Y1531620D02*
G01X3140620Y1531620D01*
G01X3149600Y1456754D02*
G01X3197380Y1456754D01*
G01X3232876Y1492250D01*
G01X3272700Y1492250D02*
G01X3281680Y1483270D01*
G01Y1452880D01*
G01X3149600Y1570927D02*
G01X3197380Y1570927D01*
G01X3232876Y1535430D01*
G01X3272700Y1535430D02*
G01X3281680Y1544410D01*
G01Y1569720D01*
G01X3232876Y1492250D02*
G01X3272700Y1492250D01*
G01X3232876Y1535430D02*
G01X3272700Y1535430D01*
G54D45*
G01X4632960Y1473200D02*
G01X4622800Y1483360D01*
G01X4504944D01*
G01X4634230Y1550670D02*
G01X4616933Y1533373D01*
G01X4504944D01*
G54D44*
G01X4168795Y2231390D02*
G01X4510425Y1889760D01*
G01X4513478D01*
G01X4922520Y2231390D02*
G01X4168795Y2231390D01*
G01X3856990D01*
G04 Track End*

M02*
