G04 Layer: InnerLayer2*
G04 EasyEDA Pro v2.1.42.467b0aa0, 2024-01-03 14:17:13*
G04 Gerber Generator version 0.3*
G04 Scale: 100 percent, Rotated: No, Reflected: No*
G04 Dimensions in millimeters*
G04 Leading zeros omitted, absolute positions, 3 integers and 5 decimals*
%FSLAX35Y35*%
%MOMM*%
%ADD8191C,0.2032*%
%ADD10C,1.35001*%
%ADD11O,1.9X1.1999*%
%ADD12C,1.0*%
%ADD13C,2.0*%
%ADD14R,1.5X1.5*%
%ADD15C,1.5*%
%ADD16C,0.6142*%
%ADD17C,0.61*%
G75*


G04 Copper Start*
G36*
G01X2980120Y251714D02*
G03X3031814Y345440I-59120J93726D01*
G03X2921000Y456254I-110814J0D01*
G03X2810186Y345440I0J-110814D01*
G03X2861880Y251714I110814J0D01*
G01X2772528D01*
G03X2777814Y270440I-30528J18726D01*
G01Y420440D01*
G03X2742000Y456254I-35814J0D01*
G01X2592000D01*
G03X2575814Y452387I0J-35814D01*
G01Y1044699D01*
G03X2624004Y1031697I48190J82807D01*
G01X2667663D01*
G03X2665456Y1014730I64107J-16967D01*
G03X2731770Y948416I66314J0D01*
G03X2798059Y1012904I0J66314D01*
G03X2819400Y1009376I21341J62786D01*
G03X2885714Y1075690I0J66314D01*
G03X2819400Y1142004I-66314J0D01*
G03X2789537Y1134900I0J-66314D01*
G03X2694014Y1223315I-95523J-7394D01*
G01X2624004D01*
G03X2575814Y1210313I0J-95809D01*
G01Y1744727D01*
G03X2624012Y1731721I48198J82803D01*
G01X2694022D01*
G03X2789831Y1827530I0J95809D01*
G03X2784130Y1860084I-95809J0D01*
G03X2801620Y1857736I17490J63966D01*
G03X2867934Y1924050I0J66314D01*
G03X2801620Y1990364I-66314J0D01*
G03X2735306Y1924050I0J-66314D01*
G03X2736137Y1913586I66314J0D01*
G03X2694022Y1923339I-42115J-86056D01*
G01X2624012D01*
G03X2575814Y1910333I0J-95809D01*
G01Y2519413D01*
G03X2592000Y2515546I16186J31948D01*
G01X2742000D01*
G03X2777814Y2551360I0J35814D01*
G01Y2701360D01*
G03X2772528Y2720086I-35814J0D01*
G01X2861880D01*
G03X2810186Y2626360I59120J-93726D01*
G03X2921000Y2515546I110814J0D01*
G03X3031814Y2626360I0J110814D01*
G03X2980120Y2720086I-110814J0D01*
G01X3115880D01*
G03X3064186Y2626360I59120J-93726D01*
G03X3175000Y2515546I110814J0D01*
G03X3285814Y2626360I0J110814D01*
G03X3234120Y2720086I-110814J0D01*
G01X3369880D01*
G03X3318186Y2626360I59120J-93726D01*
G03X3429000Y2515546I110814J0D01*
G03X3539814Y2626360I0J110814D01*
G03X3488120Y2720086I-110814J0D01*
G01X3623880D01*
G03X3572186Y2626360I59120J-93726D01*
G03X3683000Y2515546I110814J0D01*
G03X3793814Y2626360I0J110814D01*
G03X3742120Y2720086I-110814J0D01*
G01X3877880D01*
G03X3826186Y2626360I59120J-93726D01*
G03X3937000Y2515546I110814J0D01*
G03X4047814Y2626360I0J110814D01*
G03X3996120Y2720086I-110814J0D01*
G01X4131880D01*
G03X4080186Y2626360I59120J-93726D01*
G03X4191000Y2515546I110814J0D01*
G03X4301814Y2626360I0J110814D01*
G03X4250120Y2720086I-110814J0D01*
G01X4385880D01*
G03X4334186Y2626360I59120J-93726D01*
G03X4445000Y2515546I110814J0D01*
G03X4555814Y2626360I0J110814D01*
G03X4504120Y2720086I-110814J0D01*
G01X8092186D01*
G01Y251714D01*
G01X4504120D01*
G03X4555814Y345440I-59120J93726D01*
G03X4445000Y456254I-110814J0D01*
G03X4334186Y345440I0J-110814D01*
G03X4385880Y251714I110814J0D01*
G01X4250120D01*
G03X4301814Y345440I-59120J93726D01*
G03X4191000Y456254I-110814J0D01*
G03X4080186Y345440I0J-110814D01*
G03X4131880Y251714I110814J0D01*
G01X3996120D01*
G03X4047814Y345440I-59120J93726D01*
G03X3937000Y456254I-110814J0D01*
G03X3826186Y345440I0J-110814D01*
G03X3877880Y251714I110814J0D01*
G01X3742120D01*
G03X3793814Y345440I-59120J93726D01*
G03X3683000Y456254I-110814J0D01*
G03X3572186Y345440I0J-110814D01*
G03X3623880Y251714I110814J0D01*
G01X3488120D01*
G03X3539814Y345440I-59120J93726D01*
G03X3429000Y456254I-110814J0D01*
G03X3318186Y345440I0J-110814D01*
G03X3369880Y251714I110814J0D01*
G01X3234120D01*
G03X3285814Y345440I-59120J93726D01*
G03X3175000Y456254I-110814J0D01*
G03X3064186Y345440I0J-110814D01*
G03X3115880Y251714I110814J0D01*
G01X2980120D01*
G37*
%LPC*%
G36*
G01X7123430Y2125706D02*
G03X7186516Y2171583I0J66314D01*
G03X7245350Y2135866I58834J30597D01*
G03X7311595Y2199152I0J66314D01*
G03X7372172Y2159818I60577J26980D01*
G03X7435672Y2207019I0J66314D01*
G03X7499172Y2159818I63500J19113D01*
G03X7562672Y2207019I0J66314D01*
G03X7626172Y2159818I63500J19113D01*
G03X7689672Y2207019I0J66314D01*
G03X7753172Y2159818I63500J19113D01*
G03X7819486Y2226132I0J66314D01*
G03X7753172Y2292446I-66314J0D01*
G03X7689672Y2245245I0J-66314D01*
G03X7626172Y2292446I-63500J-19113D01*
G03X7562672Y2245245I0J-66314D01*
G03X7499172Y2292446I-63500J-19113D01*
G03X7435672Y2245245I0J-66314D01*
G03X7372172Y2292446I-63500J-19113D01*
G03X7305927Y2229160I0J-66314D01*
G03X7245350Y2268494I-60577J-26980D01*
G03X7182264Y2222617I0J-66314D01*
G03X7123430Y2258334I-58834J-30597D01*
G03X7059628Y2210099I0J-66314D01*
G03X6995160Y2260874I-64468J-15539D01*
G03X6928846Y2194560I0J-66314D01*
G03X6995160Y2128246I66314J0D01*
G03X7058962Y2176481I0J66314D01*
G03X7123430Y2125706I64468J15539D01*
G37*
G36*
G01X5203266Y2499360D02*
G03X5339080Y2363546I135814J0D01*
G03X5466080Y2451231I0J135814D01*
G03X5593080Y2363546I127000J48129D01*
G03X5728894Y2499360I0J135814D01*
G03X5593080Y2635174I-135814J0D01*
G03X5466080Y2547489I0J-135814D01*
G03X5339080Y2635174I-127000J-48129D01*
G03X5203266Y2499360I0J-135814D01*
G37*
G36*
G01X8007172Y684434D02*
G03X8073486Y750748I0J66314D01*
G03X8007172Y817062I-66314J0D01*
G03X7943672Y769861I0J-66314D01*
G03X7880172Y817062I-63500J-19113D01*
G03X7816672Y769861I0J-66314D01*
G03X7753172Y817062I-63500J-19113D01*
G03X7689672Y769861I0J-66314D01*
G03X7626172Y817062I-63500J-19113D01*
G03X7562672Y769861I0J-66314D01*
G03X7499172Y817062I-63500J-19113D01*
G03X7435672Y769861I0J-66314D01*
G03X7372172Y817062I-63500J-19113D01*
G03X7305858Y750748I0J-66314D01*
G03X7372172Y684434I66314J0D01*
G03X7435672Y731635I0J66314D01*
G03X7499172Y684434I63500J19113D01*
G03X7562672Y731635I0J66314D01*
G03X7626172Y684434I63500J19113D01*
G03X7689672Y731635I0J66314D01*
G03X7753172Y684434I63500J19113D01*
G03X7816672Y731635I0J66314D01*
G03X7880172Y684434I63500J19113D01*
G03X7943672Y731635I0J66314D01*
G03X8007172Y684434I63500J19113D01*
G37*
G36*
G01X2928991Y1124204D02*
G03X3032305Y1227519I0J103315D01*
G03X3019169Y1277935I-103314J0D01*
G03X3042920Y1273536I23751J61915D01*
G03X3109234Y1339850I0J66314D01*
G03X3042920Y1406164I-66314J0D01*
G03X2976606Y1339850I0J-66314D01*
G03X2980676Y1316975I66314J0D01*
G03X2928991Y1330833I-51685J-89457D01*
G03X2825676Y1227519I0J-103314D01*
G03X2928991Y1124204I103315J0D01*
G37*
G36*
G01X4947920Y2261146D02*
G03X5033734Y2346960I0J85814D01*
G03X5005642Y2410460I-85814J0D01*
G03X5033734Y2473960I-57722J63500D01*
G03X5005642Y2537460I-85814J0D01*
G03X5033734Y2600960I-57722J63500D01*
G03X4947920Y2686774I-85814J0D01*
G03X4862106Y2600960I0J-85814D01*
G03X4890198Y2537460I85814J0D01*
G03X4862106Y2473960I57722J-63500D01*
G03X4890198Y2410460I85814J0D01*
G03X4862106Y2346960I57722J-63500D01*
G03X4947920Y2261146I85814J0D01*
G37*
G36*
G01X3174726Y1736090D02*
G03X3241040Y1669776I66314J0D01*
G03X3307354Y1736090I0J66314D01*
G03X3279160Y1790353I-66314J0D01*
G03X3312434Y1847850I-33040J57497D01*
G03X3246120Y1914164I-66314J0D01*
G03X3183388Y1869351I0J-66314D01*
G03X3149600Y1878604I-33788J-57061D01*
G03X3083286Y1812290I0J-66314D01*
G03X3149600Y1745976I66314J0D01*
G03X3176594Y1751719I0J66314D01*
G03X3174726Y1736090I64446J-15629D01*
G37*
G36*
G01X2921000Y2246306D02*
G03X3031814Y2357120I0J110814D01*
G03X2921000Y2467934I-110814J0D01*
G03X2810186Y2357120I0J-110814D01*
G03X2921000Y2246306I110814J0D01*
G37*
G36*
G01X3572186Y2357120D02*
G03X3683000Y2246306I110814J0D01*
G03X3793814Y2357120I0J110814D01*
G03X3683000Y2467934I-110814J0D01*
G03X3572186Y2357120I0J-110814D01*
G37*
G36*
G01X3826186Y2357120D02*
G03X3937000Y2246306I110814J0D01*
G03X4047814Y2357120I0J110814D01*
G03X3937000Y2467934I-110814J0D01*
G03X3826186Y2357120I0J-110814D01*
G37*
G36*
G01X4445000Y2246306D02*
G03X4555814Y2357120I0J110814D01*
G03X4445000Y2467934I-110814J0D01*
G03X4334186Y2357120I0J-110814D01*
G03X4445000Y2246306I110814J0D01*
G37*
G36*
G01X3064186Y2357120D02*
G03X3175000Y2246306I110814J0D01*
G03X3285814Y2357120I0J110814D01*
G03X3175000Y2467934I-110814J0D01*
G03X3064186Y2357120I0J-110814D01*
G37*
G36*
G01X3429000Y2246306D02*
G03X3539814Y2357120I0J110814D01*
G03X3429000Y2467934I-110814J0D01*
G03X3318186Y2357120I0J-110814D01*
G03X3429000Y2246306I110814J0D01*
G37*
G36*
G01X4080186Y2357120D02*
G03X4191000Y2246306I110814J0D01*
G03X4301814Y2357120I0J110814D01*
G03X4191000Y2467934I-110814J0D01*
G03X4080186Y2357120I0J-110814D01*
G37*
G36*
G01X3429000Y503866D02*
G03X3539814Y614680I0J110814D01*
G03X3429000Y725494I-110814J0D01*
G03X3318186Y614680I0J-110814D01*
G03X3429000Y503866I110814J0D01*
G37*
G36*
G01X3683000Y503866D02*
G03X3793814Y614680I0J110814D01*
G03X3683000Y725494I-110814J0D01*
G03X3572186Y614680I0J-110814D01*
G03X3683000Y503866I110814J0D01*
G37*
G36*
G01X4445000Y503866D02*
G03X4555814Y614680I0J110814D01*
G03X4445000Y725494I-110814J0D01*
G03X4334186Y614680I0J-110814D01*
G03X4445000Y503866I110814J0D01*
G37*
G36*
G01X4080186Y614680D02*
G03X4191000Y503866I110814J0D01*
G03X4301814Y614680I0J110814D01*
G03X4191000Y725494I-110814J0D01*
G03X4080186Y614680I0J-110814D01*
G37*
G36*
G01X2810186Y614680D02*
G03X2921000Y503866I110814J0D01*
G03X3031814Y614680I0J110814D01*
G03X2921000Y725494I-110814J0D01*
G03X2810186Y614680I0J-110814D01*
G37*
G36*
G01X3064186Y614680D02*
G03X3175000Y503866I110814J0D01*
G03X3285814Y614680I0J110814D01*
G03X3175000Y725494I-110814J0D01*
G03X3064186Y614680I0J-110814D01*
G37*
G36*
G01X3937000Y503866D02*
G03X4047814Y614680I0J110814D01*
G03X3937000Y725494I-110814J0D01*
G03X3826186Y614680I0J-110814D01*
G03X3937000Y503866I110814J0D01*
G37*
G36*
G01X6140176Y501650D02*
G03X6206490Y435336I66314J0D01*
G03X6272804Y501650I0J66314D01*
G03X6206490Y567964I-66314J0D01*
G03X6170988Y557660I0J-66314D01*
G03X6173744Y576580I-63558J18920D01*
G03X6107430Y642894I-66314J0D01*
G03X6041116Y576580I0J-66314D01*
G03X6107430Y510266I66314J0D01*
G03X6142932Y520570I0J66314D01*
G03X6140176Y501650I63558J-18920D01*
G37*
G36*
G01X6758940Y1211306D02*
G03X6825254Y1277620I0J66314D01*
G03X6792375Y1334889I-66314J0D01*
G03X6799580Y1334496I7205J65921D01*
G03X6865894Y1400810I0J66314D01*
G03X6799580Y1467124I-66314J0D01*
G03X6733266Y1400810I0J-66314D01*
G03X6766145Y1343541I66314J0D01*
G03X6758940Y1343934I-7205J-65921D01*
G03X6692626Y1277620I0J-66314D01*
G03X6758940Y1211306I66314J0D01*
G37*
G36*
G01X2825676Y1727518D02*
G03X2928991Y1624203I103315J0D01*
G03X3032305Y1727518I0J103315D01*
G03X2928991Y1830832I-103314J0D01*
G03X2825676Y1727518I0J-103314D01*
G37*
G36*
G01X7058856Y1466965D02*
G03X7124155Y1521724I0J66314D01*
G03X7148858Y1516952I24703J61541D01*
G03X7215172Y1583266I0J66314D01*
G03X7148858Y1649580I-66314J0D01*
G03X7083558Y1594820I0J-66314D01*
G03X7058856Y1599593I-24703J-61541D01*
G03X6992542Y1533279I0J-66314D01*
G03X7058856Y1466965I66314J0D01*
G37*
G36*
G01X3613150Y851896D02*
G03X3679464Y918210I0J66314D01*
G03X3677029Y936017I-66314J0D01*
G03X3728994Y1000760I-14349J64743D01*
G03X3662680Y1067074I-66314J0D01*
G03X3596366Y1000760I0J-66314D01*
G03X3598801Y982953I66314J0D01*
G03X3546836Y918210I14349J-64743D01*
G03X3613150Y851896I66314J0D01*
G37*
G36*
G01X3162300Y2072366D02*
G03X3228614Y2138680I0J66314D01*
G03X3162300Y2204994I-66314J0D01*
G03X3114765Y2184918I0J-66314D01*
G03X3051810Y2230394I-62955J-20838D01*
G03X2985496Y2164080I0J-66314D01*
G03X3051810Y2097766I66314J0D01*
G03X3099345Y2117842I0J66314D01*
G03X3162300Y2072366I62955J20838D01*
G37*
G36*
G01X4566646Y1396507D02*
G03X4632960Y1330193I66314J0D01*
G03X4699274Y1396507I0J66314D01*
G03X4687063Y1434854I-66314J0D01*
G03X4699274Y1473200I-54103J38346D01*
G03X4687409Y1511053I-66314J0D01*
G03X4700544Y1550670I-53179J39617D01*
G03X4634230Y1616984I-66314J0D01*
G03X4567916Y1550670I0J-66314D01*
G03X4579781Y1512817I66314J0D01*
G03X4566646Y1473200I53179J-39617D01*
G03X4578857Y1434854I66314J0D01*
G03X4566646Y1396507I54103J-38346D01*
G37*
G36*
G01X6871970Y1589766D02*
G03X6938284Y1656080I0J66314D01*
G03X6871970Y1722394I-66314J0D01*
G03X6816311Y1692130I0J-66314D01*
G03X6756400Y1730014I-59911J-28430D01*
G03X6690086Y1663700I0J-66314D01*
G03X6756400Y1597386I66314J0D01*
G03X6812059Y1627650I0J66314D01*
G03X6871970Y1589766I59911J28430D01*
G37*
G36*
G01X6991172Y684434D02*
G03X7054672Y731635I0J66314D01*
G03X7118172Y684434I63500J19113D01*
G03X7184486Y750748I0J66314D01*
G03X7118172Y817062I-66314J0D01*
G03X7054672Y769861I0J-66314D01*
G03X6991172Y817062I-63500J-19113D01*
G03X6924858Y750748I0J-66314D01*
G03X6991172Y684434I66314J0D01*
G37*
G36*
G01X4366260Y1088116D02*
G03X4432574Y1154430I0J66314D01*
G03X4366260Y1220744I-66314J0D01*
G03X4323623Y1205220I0J-66314D01*
G03X4268470Y1234714I-55153J-36820D01*
G03X4202156Y1168400I0J-66314D01*
G03X4268470Y1102086I66314J0D01*
G03X4311107Y1117610I0J66314D01*
G03X4366260Y1088116I55153J36820D01*
G37*
G36*
G01X3215366Y1452880D02*
G03X3281680Y1386566I66314J0D01*
G03X3347994Y1452880I0J66314D01*
G03X3313059Y1511300I-66314J0D01*
G03X3347994Y1569720I-31379J58420D01*
G03X3281680Y1636034I-66314J0D01*
G03X3215366Y1569720I0J-66314D01*
G03X3250301Y1511300I66314J0D01*
G03X3215366Y1452880I31379J-58420D01*
G37*
G36*
G01X3741420Y1348466D02*
G03X3798299Y1380687I0J66314D01*
G03X3806190Y1380216I7891J65843D01*
G03X3872504Y1446530I0J66314D01*
G03X3806190Y1512844I-66314J0D01*
G03X3749311Y1480623I0J-66314D01*
G03X3741420Y1481094I-7891J-65843D01*
G03X3675106Y1414780I0J-66314D01*
G03X3741420Y1348466I66314J0D01*
G37*
G36*
G01X7222533Y1533279D02*
G03X7288848Y1466965I66314J0D01*
G03X7355162Y1533279I0J66314D01*
G03X7339335Y1576273I-66314J0D01*
G03X7358654Y1623060I-46995J46787D01*
G03X7292340Y1689374I-66314J0D01*
G03X7226026Y1623060I0J-66314D01*
G03X7241852Y1580065I66314J0D01*
G03X7222533Y1533279I46995J-46787D01*
G37*
G36*
G01X4818106Y1557020D02*
G03X4884420Y1490706I66314J0D01*
G03X4927600Y1506691I0J66314D01*
G03X4970780Y1490706I43180J50329D01*
G03X5037094Y1557020I0J66314D01*
G03X4970780Y1623334I-66314J0D01*
G03X4927600Y1607349I0J-66314D01*
G03X4884420Y1623334I-43180J-50329D01*
G03X4818106Y1557020I0J-66314D01*
G37*
G36*
G01X6529070Y1109706D02*
G03X6595384Y1176020I0J66314D01*
G03X6529070Y1242334I-66314J0D01*
G03X6462756Y1176020I0J-66314D01*
G03X6529070Y1109706I66314J0D01*
G37*
G36*
G01X4267200Y1304456D02*
G03X4333514Y1370770I0J66314D01*
G03X4267200Y1437084I-66314J0D01*
G03X4200886Y1370770I0J-66314D01*
G03X4267200Y1304456I66314J0D01*
G37*
G36*
G01X6451326Y994410D02*
G03X6517640Y928096I66314J0D01*
G03X6583954Y994410I0J66314D01*
G03X6517640Y1060724I-66314J0D01*
G03X6451326Y994410I0J-66314D01*
G37*
G36*
G01X5577566Y1558290D02*
G03X5643880Y1491976I66314J0D01*
G03X5710194Y1558290I0J66314D01*
G03X5643880Y1624604I-66314J0D01*
G03X5577566Y1558290I0J-66314D01*
G37*
G36*
G01X5115286Y1012190D02*
G03X5181600Y945876I66314J0D01*
G03X5247914Y1012190I0J66314D01*
G03X5181600Y1078504I-66314J0D01*
G03X5115286Y1012190I0J-66314D01*
G37*
G36*
G01X5863830Y1490706D02*
G03X5930144Y1557020I0J66314D01*
G03X5863830Y1623334I-66314J0D01*
G03X5797516Y1557020I0J-66314D01*
G03X5863830Y1490706I66314J0D01*
G37*
G36*
G01X4038600Y990326D02*
G03X4104914Y1056640I0J66314D01*
G03X4038600Y1122954I-66314J0D01*
G03X3972286Y1056640I0J-66314D01*
G03X4038600Y990326I66314J0D01*
G37*
G36*
G01X5166360Y1411966D02*
G03X5232674Y1478280I0J66314D01*
G03X5166360Y1544594I-66314J0D01*
G03X5100046Y1478280I0J-66314D01*
G03X5166360Y1411966I66314J0D01*
G37*
G36*
G01X4536440Y1081766D02*
G03X4602754Y1148080I0J66314D01*
G03X4536440Y1214394I-66314J0D01*
G03X4470126Y1148080I0J-66314D01*
G03X4536440Y1081766I66314J0D01*
G37*
G36*
G01X4147309Y1379772D02*
G03X4213623Y1446086I0J66314D01*
G03X4147309Y1512400I-66314J0D01*
G03X4080995Y1446086I0J-66314D01*
G03X4147309Y1379772I66314J0D01*
G37*
G36*
G01X7370696Y1533279D02*
G03X7437010Y1466965I66314J0D01*
G03X7503324Y1533279I0J66314D01*
G03X7437010Y1599593I-66314J0D01*
G03X7370696Y1533279I0J-66314D01*
G37*
G36*
G01X4797786Y1375410D02*
G03X4864100Y1309096I66314J0D01*
G03X4930414Y1375410I0J66314D01*
G03X4864100Y1441724I-66314J0D01*
G03X4797786Y1375410I0J-66314D01*
G37*
G36*
G01X3469640Y934446D02*
G03X3535954Y1000760I0J66314D01*
G03X3469640Y1067074I-66314J0D01*
G03X3403326Y1000760I0J-66314D01*
G03X3469640Y934446I66314J0D01*
G37*
G36*
G01X4320777Y1436864D02*
G03X4387091Y1370550I66314J0D01*
G03X4453405Y1436864I0J66314D01*
G03X4387091Y1503178I-66314J0D01*
G03X4320777Y1436864I0J-66314D01*
G37*
G36*
G01X4692376Y406400D02*
G03X4758690Y340086I66314J0D01*
G03X4825004Y406400I0J66314D01*
G03X4758690Y472714I-66314J0D01*
G03X4692376Y406400I0J-66314D01*
G37*
G36*
G01X6005093Y319029D02*
G03X6071407Y385343I0J66314D01*
G03X6005093Y451657I-66314J0D01*
G03X5938779Y385343I0J-66314D01*
G03X6005093Y319029I66314J0D01*
G37*
G36*
G01X7428862Y1606954D02*
G03X7495177Y1673268I0J66314D01*
G03X7428862Y1739582I-66314J0D01*
G03X7362548Y1673268I0J-66314D01*
G03X7428862Y1606954I66314J0D01*
G37*
G36*
G01X7437010Y1746969D02*
G03X7503324Y1813283I0J66314D01*
G03X7437010Y1879597I-66314J0D01*
G03X7370696Y1813283I0J-66314D01*
G03X7437010Y1746969I66314J0D01*
G37*
G36*
G01X5568676Y2192020D02*
G03X5634990Y2125706I66314J0D01*
G03X5701304Y2192020I0J66314D01*
G03X5634990Y2258334I-66314J0D01*
G03X5568676Y2192020I0J-66314D01*
G37*
G36*
G01X6521176Y1911350D02*
G03X6587490Y1845036I66314J0D01*
G03X6653804Y1911350I0J66314D01*
G03X6587490Y1977664I-66314J0D01*
G03X6521176Y1911350I0J-66314D01*
G37*
G36*
G01X4633956Y2346960D02*
G03X4700270Y2280646I66314J0D01*
G03X4766584Y2346960I0J66314D01*
G03X4700270Y2413274I-66314J0D01*
G03X4633956Y2346960I0J-66314D01*
G37*
G36*
G01X7040880Y1724386D02*
G03X7107194Y1790700I0J66314D01*
G03X7040880Y1857014I-66314J0D01*
G03X6974566Y1790700I0J-66314D01*
G03X7040880Y1724386I66314J0D01*
G37*
G36*
G01X6082030Y2146026D02*
G03X6148344Y2212340I0J66314D01*
G03X6082030Y2278654I-66314J0D01*
G03X6015716Y2212340I0J-66314D01*
G03X6082030Y2146026I66314J0D01*
G37*
G36*
G01X6347460Y2119356D02*
G03X6413774Y2185670I0J66314D01*
G03X6347460Y2251984I-66314J0D01*
G03X6281146Y2185670I0J-66314D01*
G03X6347460Y2119356I66314J0D01*
G37*
G36*
G01X5740126Y2190750D02*
G03X5806440Y2124436I66314J0D01*
G03X5872754Y2190750I0J66314D01*
G03X5806440Y2257064I-66314J0D01*
G03X5740126Y2190750I0J-66314D01*
G37*
G36*
G01X5298440Y2119356D02*
G03X5364754Y2185670I0J66314D01*
G03X5298440Y2251984I-66314J0D01*
G03X5232126Y2185670I0J-66314D01*
G03X5298440Y2119356I66314J0D01*
G37*
G36*
G01X7196816Y1828800D02*
G03X7263130Y1762486I66314J0D01*
G03X7329444Y1828800I0J66314D01*
G03X7263130Y1895114I-66314J0D01*
G03X7196816Y1828800I0J-66314D01*
G37*
G36*
G01X3929106Y2145030D02*
G03X3995420Y2078716I66314J0D01*
G03X4061734Y2145030I0J66314D01*
G03X3995420Y2211344I-66314J0D01*
G03X3929106Y2145030I0J-66314D01*
G37*
G36*
G01X6672580Y1724386D02*
G03X6738894Y1790700I0J66314D01*
G03X6672580Y1857014I-66314J0D01*
G03X6606266Y1790700I0J-66314D01*
G03X6672580Y1724386I66314J0D01*
G37*
G36*
G01X7297146Y2612390D02*
G03X7363460Y2546076I66314J0D01*
G03X7429774Y2612390I0J66314D01*
G03X7363460Y2678704I-66314J0D01*
G03X7297146Y2612390I0J-66314D01*
G37*
G36*
G01X7940858Y2226132D02*
G03X8007172Y2159818I66314J0D01*
G03X8073486Y2226132I0J66314D01*
G03X8007172Y2292446I-66314J0D01*
G03X7940858Y2226132I0J-66314D01*
G37*
G36*
G01X3026136Y1163320D02*
G03X3092450Y1097006I66314J0D01*
G03X3158764Y1163320I0J66314D01*
G03X3092450Y1229634I-66314J0D01*
G03X3026136Y1163320I0J-66314D01*
G37*
G36*
G01X2700619Y1945788D02*
G03X2766934Y2012102I0J66314D01*
G03X2700619Y2078416I-66314J0D01*
G03X2634305Y2012102I0J-66314D01*
G03X2700619Y1945788I66314J0D01*
G37*
G36*
G01X6432276Y2028190D02*
G03X6498590Y1961876I66314J0D01*
G03X6564904Y2028190I0J66314D01*
G03X6498590Y2094504I-66314J0D01*
G03X6432276Y2028190I0J-66314D01*
G37*
%LPD*%
G54D8191*
G01X2980120Y251714D02*
G03X3031814Y345440I-59120J93726D01*
G03X2921000Y456254I-110814J0D01*
G03X2810186Y345440I0J-110814D01*
G03X2861880Y251714I110814J0D01*
G01X2772528D01*
G03X2777814Y270440I-30528J18726D01*
G01Y420440D01*
G03X2742000Y456254I-35814J0D01*
G01X2592000D01*
G03X2575814Y452387I0J-35814D01*
G01Y1044699D01*
G03X2624004Y1031697I48190J82807D01*
G01X2667663D01*
G03X2665456Y1014730I64107J-16967D01*
G03X2731770Y948416I66314J0D01*
G03X2798059Y1012904I0J66314D01*
G03X2819400Y1009376I21341J62786D01*
G03X2885714Y1075690I0J66314D01*
G03X2819400Y1142004I-66314J0D01*
G03X2789537Y1134900I0J-66314D01*
G03X2694014Y1223315I-95523J-7394D01*
G01X2624004D01*
G03X2575814Y1210313I0J-95809D01*
G01Y1744727D01*
G03X2624012Y1731721I48198J82803D01*
G01X2694022D01*
G03X2789831Y1827530I0J95809D01*
G03X2784130Y1860084I-95809J0D01*
G03X2801620Y1857736I17490J63966D01*
G03X2867934Y1924050I0J66314D01*
G03X2801620Y1990364I-66314J0D01*
G03X2735306Y1924050I0J-66314D01*
G03X2736137Y1913586I66314J0D01*
G03X2694022Y1923339I-42115J-86056D01*
G01X2624012D01*
G03X2575814Y1910333I0J-95809D01*
G01Y2519413D01*
G03X2592000Y2515546I16186J31948D01*
G01X2742000D01*
G03X2777814Y2551360I0J35814D01*
G01Y2701360D01*
G03X2772528Y2720086I-35814J0D01*
G01X2861880D01*
G03X2810186Y2626360I59120J-93726D01*
G03X2921000Y2515546I110814J0D01*
G03X3031814Y2626360I0J110814D01*
G03X2980120Y2720086I-110814J0D01*
G01X3115880D01*
G03X3064186Y2626360I59120J-93726D01*
G03X3175000Y2515546I110814J0D01*
G03X3285814Y2626360I0J110814D01*
G03X3234120Y2720086I-110814J0D01*
G01X3369880D01*
G03X3318186Y2626360I59120J-93726D01*
G03X3429000Y2515546I110814J0D01*
G03X3539814Y2626360I0J110814D01*
G03X3488120Y2720086I-110814J0D01*
G01X3623880D01*
G03X3572186Y2626360I59120J-93726D01*
G03X3683000Y2515546I110814J0D01*
G03X3793814Y2626360I0J110814D01*
G03X3742120Y2720086I-110814J0D01*
G01X3877880D01*
G03X3826186Y2626360I59120J-93726D01*
G03X3937000Y2515546I110814J0D01*
G03X4047814Y2626360I0J110814D01*
G03X3996120Y2720086I-110814J0D01*
G01X4131880D01*
G03X4080186Y2626360I59120J-93726D01*
G03X4191000Y2515546I110814J0D01*
G03X4301814Y2626360I0J110814D01*
G03X4250120Y2720086I-110814J0D01*
G01X4385880D01*
G03X4334186Y2626360I59120J-93726D01*
G03X4445000Y2515546I110814J0D01*
G03X4555814Y2626360I0J110814D01*
G03X4504120Y2720086I-110814J0D01*
G01X8092186D01*
G01Y251714D01*
G01X4504120D01*
G03X4555814Y345440I-59120J93726D01*
G03X4445000Y456254I-110814J0D01*
G03X4334186Y345440I0J-110814D01*
G03X4385880Y251714I110814J0D01*
G01X4250120D01*
G03X4301814Y345440I-59120J93726D01*
G03X4191000Y456254I-110814J0D01*
G03X4080186Y345440I0J-110814D01*
G03X4131880Y251714I110814J0D01*
G01X3996120D01*
G03X4047814Y345440I-59120J93726D01*
G03X3937000Y456254I-110814J0D01*
G03X3826186Y345440I0J-110814D01*
G03X3877880Y251714I110814J0D01*
G01X3742120D01*
G03X3793814Y345440I-59120J93726D01*
G03X3683000Y456254I-110814J0D01*
G03X3572186Y345440I0J-110814D01*
G03X3623880Y251714I110814J0D01*
G01X3488120D01*
G03X3539814Y345440I-59120J93726D01*
G03X3429000Y456254I-110814J0D01*
G03X3318186Y345440I0J-110814D01*
G03X3369880Y251714I110814J0D01*
G01X3234120D01*
G03X3285814Y345440I-59120J93726D01*
G03X3175000Y456254I-110814J0D01*
G03X3064186Y345440I0J-110814D01*
G03X3115880Y251714I110814J0D01*
G01X2980120D01*
G01X7123430Y2125706D02*
G03X7186516Y2171583I0J66314D01*
G03X7245350Y2135866I58834J30597D01*
G03X7311595Y2199152I0J66314D01*
G03X7372172Y2159818I60577J26980D01*
G03X7435672Y2207019I0J66314D01*
G03X7499172Y2159818I63500J19113D01*
G03X7562672Y2207019I0J66314D01*
G03X7626172Y2159818I63500J19113D01*
G03X7689672Y2207019I0J66314D01*
G03X7753172Y2159818I63500J19113D01*
G03X7819486Y2226132I0J66314D01*
G03X7753172Y2292446I-66314J0D01*
G03X7689672Y2245245I0J-66314D01*
G03X7626172Y2292446I-63500J-19113D01*
G03X7562672Y2245245I0J-66314D01*
G03X7499172Y2292446I-63500J-19113D01*
G03X7435672Y2245245I0J-66314D01*
G03X7372172Y2292446I-63500J-19113D01*
G03X7305927Y2229160I0J-66314D01*
G03X7245350Y2268494I-60577J-26980D01*
G03X7182264Y2222617I0J-66314D01*
G03X7123430Y2258334I-58834J-30597D01*
G03X7059628Y2210099I0J-66314D01*
G03X6995160Y2260874I-64468J-15539D01*
G03X6928846Y2194560I0J-66314D01*
G03X6995160Y2128246I66314J0D01*
G03X7058962Y2176481I0J66314D01*
G03X7123430Y2125706I64468J15539D01*
G01X5203266Y2499360D02*
G03X5339080Y2363546I135814J0D01*
G03X5466080Y2451231I0J135814D01*
G03X5593080Y2363546I127000J48129D01*
G03X5728894Y2499360I0J135814D01*
G03X5593080Y2635174I-135814J0D01*
G03X5466080Y2547489I0J-135814D01*
G03X5339080Y2635174I-127000J-48129D01*
G03X5203266Y2499360I0J-135814D01*
G01X8007172Y684434D02*
G03X8073486Y750748I0J66314D01*
G03X8007172Y817062I-66314J0D01*
G03X7943672Y769861I0J-66314D01*
G03X7880172Y817062I-63500J-19113D01*
G03X7816672Y769861I0J-66314D01*
G03X7753172Y817062I-63500J-19113D01*
G03X7689672Y769861I0J-66314D01*
G03X7626172Y817062I-63500J-19113D01*
G03X7562672Y769861I0J-66314D01*
G03X7499172Y817062I-63500J-19113D01*
G03X7435672Y769861I0J-66314D01*
G03X7372172Y817062I-63500J-19113D01*
G03X7305858Y750748I0J-66314D01*
G03X7372172Y684434I66314J0D01*
G03X7435672Y731635I0J66314D01*
G03X7499172Y684434I63500J19113D01*
G03X7562672Y731635I0J66314D01*
G03X7626172Y684434I63500J19113D01*
G03X7689672Y731635I0J66314D01*
G03X7753172Y684434I63500J19113D01*
G03X7816672Y731635I0J66314D01*
G03X7880172Y684434I63500J19113D01*
G03X7943672Y731635I0J66314D01*
G03X8007172Y684434I63500J19113D01*
G01X2928991Y1124204D02*
G03X3032305Y1227519I0J103315D01*
G03X3019169Y1277935I-103314J0D01*
G03X3042920Y1273536I23751J61915D01*
G03X3109234Y1339850I0J66314D01*
G03X3042920Y1406164I-66314J0D01*
G03X2976606Y1339850I0J-66314D01*
G03X2980676Y1316975I66314J0D01*
G03X2928991Y1330833I-51685J-89457D01*
G03X2825676Y1227519I0J-103314D01*
G03X2928991Y1124204I103315J0D01*
G01X4947920Y2261146D02*
G03X5033734Y2346960I0J85814D01*
G03X5005642Y2410460I-85814J0D01*
G03X5033734Y2473960I-57722J63500D01*
G03X5005642Y2537460I-85814J0D01*
G03X5033734Y2600960I-57722J63500D01*
G03X4947920Y2686774I-85814J0D01*
G03X4862106Y2600960I0J-85814D01*
G03X4890198Y2537460I85814J0D01*
G03X4862106Y2473960I57722J-63500D01*
G03X4890198Y2410460I85814J0D01*
G03X4862106Y2346960I57722J-63500D01*
G03X4947920Y2261146I85814J0D01*
G01X3174726Y1736090D02*
G03X3241040Y1669776I66314J0D01*
G03X3307354Y1736090I0J66314D01*
G03X3279160Y1790353I-66314J0D01*
G03X3312434Y1847850I-33040J57497D01*
G03X3246120Y1914164I-66314J0D01*
G03X3183388Y1869351I0J-66314D01*
G03X3149600Y1878604I-33788J-57061D01*
G03X3083286Y1812290I0J-66314D01*
G03X3149600Y1745976I66314J0D01*
G03X3176594Y1751719I0J66314D01*
G03X3174726Y1736090I64446J-15629D01*
G01X2921000Y2246306D02*
G03X3031814Y2357120I0J110814D01*
G03X2921000Y2467934I-110814J0D01*
G03X2810186Y2357120I0J-110814D01*
G03X2921000Y2246306I110814J0D01*
G01X3572186Y2357120D02*
G03X3683000Y2246306I110814J0D01*
G03X3793814Y2357120I0J110814D01*
G03X3683000Y2467934I-110814J0D01*
G03X3572186Y2357120I0J-110814D01*
G01X3826186Y2357120D02*
G03X3937000Y2246306I110814J0D01*
G03X4047814Y2357120I0J110814D01*
G03X3937000Y2467934I-110814J0D01*
G03X3826186Y2357120I0J-110814D01*
G01X4445000Y2246306D02*
G03X4555814Y2357120I0J110814D01*
G03X4445000Y2467934I-110814J0D01*
G03X4334186Y2357120I0J-110814D01*
G03X4445000Y2246306I110814J0D01*
G01X3064186Y2357120D02*
G03X3175000Y2246306I110814J0D01*
G03X3285814Y2357120I0J110814D01*
G03X3175000Y2467934I-110814J0D01*
G03X3064186Y2357120I0J-110814D01*
G01X3429000Y2246306D02*
G03X3539814Y2357120I0J110814D01*
G03X3429000Y2467934I-110814J0D01*
G03X3318186Y2357120I0J-110814D01*
G03X3429000Y2246306I110814J0D01*
G01X4080186Y2357120D02*
G03X4191000Y2246306I110814J0D01*
G03X4301814Y2357120I0J110814D01*
G03X4191000Y2467934I-110814J0D01*
G03X4080186Y2357120I0J-110814D01*
G01X3429000Y503866D02*
G03X3539814Y614680I0J110814D01*
G03X3429000Y725494I-110814J0D01*
G03X3318186Y614680I0J-110814D01*
G03X3429000Y503866I110814J0D01*
G01X3683000Y503866D02*
G03X3793814Y614680I0J110814D01*
G03X3683000Y725494I-110814J0D01*
G03X3572186Y614680I0J-110814D01*
G03X3683000Y503866I110814J0D01*
G01X4445000Y503866D02*
G03X4555814Y614680I0J110814D01*
G03X4445000Y725494I-110814J0D01*
G03X4334186Y614680I0J-110814D01*
G03X4445000Y503866I110814J0D01*
G01X4080186Y614680D02*
G03X4191000Y503866I110814J0D01*
G03X4301814Y614680I0J110814D01*
G03X4191000Y725494I-110814J0D01*
G03X4080186Y614680I0J-110814D01*
G01X2810186Y614680D02*
G03X2921000Y503866I110814J0D01*
G03X3031814Y614680I0J110814D01*
G03X2921000Y725494I-110814J0D01*
G03X2810186Y614680I0J-110814D01*
G01X3064186Y614680D02*
G03X3175000Y503866I110814J0D01*
G03X3285814Y614680I0J110814D01*
G03X3175000Y725494I-110814J0D01*
G03X3064186Y614680I0J-110814D01*
G01X3937000Y503866D02*
G03X4047814Y614680I0J110814D01*
G03X3937000Y725494I-110814J0D01*
G03X3826186Y614680I0J-110814D01*
G03X3937000Y503866I110814J0D01*
G01X6140176Y501650D02*
G03X6206490Y435336I66314J0D01*
G03X6272804Y501650I0J66314D01*
G03X6206490Y567964I-66314J0D01*
G03X6170988Y557660I0J-66314D01*
G03X6173744Y576580I-63558J18920D01*
G03X6107430Y642894I-66314J0D01*
G03X6041116Y576580I0J-66314D01*
G03X6107430Y510266I66314J0D01*
G03X6142932Y520570I0J66314D01*
G03X6140176Y501650I63558J-18920D01*
G01X6758940Y1211306D02*
G03X6825254Y1277620I0J66314D01*
G03X6792375Y1334889I-66314J0D01*
G03X6799580Y1334496I7205J65921D01*
G03X6865894Y1400810I0J66314D01*
G03X6799580Y1467124I-66314J0D01*
G03X6733266Y1400810I0J-66314D01*
G03X6766145Y1343541I66314J0D01*
G03X6758940Y1343934I-7205J-65921D01*
G03X6692626Y1277620I0J-66314D01*
G03X6758940Y1211306I66314J0D01*
G01X2825676Y1727518D02*
G03X2928991Y1624203I103315J0D01*
G03X3032305Y1727518I0J103315D01*
G03X2928991Y1830832I-103314J0D01*
G03X2825676Y1727518I0J-103314D01*
G01X7058856Y1466965D02*
G03X7124155Y1521724I0J66314D01*
G03X7148858Y1516952I24703J61541D01*
G03X7215172Y1583266I0J66314D01*
G03X7148858Y1649580I-66314J0D01*
G03X7083558Y1594820I0J-66314D01*
G03X7058856Y1599593I-24703J-61541D01*
G03X6992542Y1533279I0J-66314D01*
G03X7058856Y1466965I66314J0D01*
G01X3613150Y851896D02*
G03X3679464Y918210I0J66314D01*
G03X3677029Y936017I-66314J0D01*
G03X3728994Y1000760I-14349J64743D01*
G03X3662680Y1067074I-66314J0D01*
G03X3596366Y1000760I0J-66314D01*
G03X3598801Y982953I66314J0D01*
G03X3546836Y918210I14349J-64743D01*
G03X3613150Y851896I66314J0D01*
G01X3162300Y2072366D02*
G03X3228614Y2138680I0J66314D01*
G03X3162300Y2204994I-66314J0D01*
G03X3114765Y2184918I0J-66314D01*
G03X3051810Y2230394I-62955J-20838D01*
G03X2985496Y2164080I0J-66314D01*
G03X3051810Y2097766I66314J0D01*
G03X3099345Y2117842I0J66314D01*
G03X3162300Y2072366I62955J20838D01*
G01X4566646Y1396507D02*
G03X4632960Y1330193I66314J0D01*
G03X4699274Y1396507I0J66314D01*
G03X4687063Y1434854I-66314J0D01*
G03X4699274Y1473200I-54103J38346D01*
G03X4687409Y1511053I-66314J0D01*
G03X4700544Y1550670I-53179J39617D01*
G03X4634230Y1616984I-66314J0D01*
G03X4567916Y1550670I0J-66314D01*
G03X4579781Y1512817I66314J0D01*
G03X4566646Y1473200I53179J-39617D01*
G03X4578857Y1434854I66314J0D01*
G03X4566646Y1396507I54103J-38346D01*
G01X6871970Y1589766D02*
G03X6938284Y1656080I0J66314D01*
G03X6871970Y1722394I-66314J0D01*
G03X6816311Y1692130I0J-66314D01*
G03X6756400Y1730014I-59911J-28430D01*
G03X6690086Y1663700I0J-66314D01*
G03X6756400Y1597386I66314J0D01*
G03X6812059Y1627650I0J66314D01*
G03X6871970Y1589766I59911J28430D01*
G01X6991172Y684434D02*
G03X7054672Y731635I0J66314D01*
G03X7118172Y684434I63500J19113D01*
G03X7184486Y750748I0J66314D01*
G03X7118172Y817062I-66314J0D01*
G03X7054672Y769861I0J-66314D01*
G03X6991172Y817062I-63500J-19113D01*
G03X6924858Y750748I0J-66314D01*
G03X6991172Y684434I66314J0D01*
G01X4366260Y1088116D02*
G03X4432574Y1154430I0J66314D01*
G03X4366260Y1220744I-66314J0D01*
G03X4323623Y1205220I0J-66314D01*
G03X4268470Y1234714I-55153J-36820D01*
G03X4202156Y1168400I0J-66314D01*
G03X4268470Y1102086I66314J0D01*
G03X4311107Y1117610I0J66314D01*
G03X4366260Y1088116I55153J36820D01*
G01X3215366Y1452880D02*
G03X3281680Y1386566I66314J0D01*
G03X3347994Y1452880I0J66314D01*
G03X3313059Y1511300I-66314J0D01*
G03X3347994Y1569720I-31379J58420D01*
G03X3281680Y1636034I-66314J0D01*
G03X3215366Y1569720I0J-66314D01*
G03X3250301Y1511300I66314J0D01*
G03X3215366Y1452880I31379J-58420D01*
G01X3741420Y1348466D02*
G03X3798299Y1380687I0J66314D01*
G03X3806190Y1380216I7891J65843D01*
G03X3872504Y1446530I0J66314D01*
G03X3806190Y1512844I-66314J0D01*
G03X3749311Y1480623I0J-66314D01*
G03X3741420Y1481094I-7891J-65843D01*
G03X3675106Y1414780I0J-66314D01*
G03X3741420Y1348466I66314J0D01*
G01X7222533Y1533279D02*
G03X7288848Y1466965I66314J0D01*
G03X7355162Y1533279I0J66314D01*
G03X7339335Y1576273I-66314J0D01*
G03X7358654Y1623060I-46995J46787D01*
G03X7292340Y1689374I-66314J0D01*
G03X7226026Y1623060I0J-66314D01*
G03X7241852Y1580065I66314J0D01*
G03X7222533Y1533279I46995J-46787D01*
G01X4818106Y1557020D02*
G03X4884420Y1490706I66314J0D01*
G03X4927600Y1506691I0J66314D01*
G03X4970780Y1490706I43180J50329D01*
G03X5037094Y1557020I0J66314D01*
G03X4970780Y1623334I-66314J0D01*
G03X4927600Y1607349I0J-66314D01*
G03X4884420Y1623334I-43180J-50329D01*
G03X4818106Y1557020I0J-66314D01*
G01X6529070Y1109706D02*
G03X6595384Y1176020I0J66314D01*
G03X6529070Y1242334I-66314J0D01*
G03X6462756Y1176020I0J-66314D01*
G03X6529070Y1109706I66314J0D01*
G01X4267200Y1304456D02*
G03X4333514Y1370770I0J66314D01*
G03X4267200Y1437084I-66314J0D01*
G03X4200886Y1370770I0J-66314D01*
G03X4267200Y1304456I66314J0D01*
G01X6451326Y994410D02*
G03X6517640Y928096I66314J0D01*
G03X6583954Y994410I0J66314D01*
G03X6517640Y1060724I-66314J0D01*
G03X6451326Y994410I0J-66314D01*
G01X5577566Y1558290D02*
G03X5643880Y1491976I66314J0D01*
G03X5710194Y1558290I0J66314D01*
G03X5643880Y1624604I-66314J0D01*
G03X5577566Y1558290I0J-66314D01*
G01X5115286Y1012190D02*
G03X5181600Y945876I66314J0D01*
G03X5247914Y1012190I0J66314D01*
G03X5181600Y1078504I-66314J0D01*
G03X5115286Y1012190I0J-66314D01*
G01X5863830Y1490706D02*
G03X5930144Y1557020I0J66314D01*
G03X5863830Y1623334I-66314J0D01*
G03X5797516Y1557020I0J-66314D01*
G03X5863830Y1490706I66314J0D01*
G01X4038600Y990326D02*
G03X4104914Y1056640I0J66314D01*
G03X4038600Y1122954I-66314J0D01*
G03X3972286Y1056640I0J-66314D01*
G03X4038600Y990326I66314J0D01*
G01X5166360Y1411966D02*
G03X5232674Y1478280I0J66314D01*
G03X5166360Y1544594I-66314J0D01*
G03X5100046Y1478280I0J-66314D01*
G03X5166360Y1411966I66314J0D01*
G01X4536440Y1081766D02*
G03X4602754Y1148080I0J66314D01*
G03X4536440Y1214394I-66314J0D01*
G03X4470126Y1148080I0J-66314D01*
G03X4536440Y1081766I66314J0D01*
G01X4147309Y1379772D02*
G03X4213623Y1446086I0J66314D01*
G03X4147309Y1512400I-66314J0D01*
G03X4080995Y1446086I0J-66314D01*
G03X4147309Y1379772I66314J0D01*
G01X7370696Y1533279D02*
G03X7437010Y1466965I66314J0D01*
G03X7503324Y1533279I0J66314D01*
G03X7437010Y1599593I-66314J0D01*
G03X7370696Y1533279I0J-66314D01*
G01X4797786Y1375410D02*
G03X4864100Y1309096I66314J0D01*
G03X4930414Y1375410I0J66314D01*
G03X4864100Y1441724I-66314J0D01*
G03X4797786Y1375410I0J-66314D01*
G01X3469640Y934446D02*
G03X3535954Y1000760I0J66314D01*
G03X3469640Y1067074I-66314J0D01*
G03X3403326Y1000760I0J-66314D01*
G03X3469640Y934446I66314J0D01*
G01X4320777Y1436864D02*
G03X4387091Y1370550I66314J0D01*
G03X4453405Y1436864I0J66314D01*
G03X4387091Y1503178I-66314J0D01*
G03X4320777Y1436864I0J-66314D01*
G01X4692376Y406400D02*
G03X4758690Y340086I66314J0D01*
G03X4825004Y406400I0J66314D01*
G03X4758690Y472714I-66314J0D01*
G03X4692376Y406400I0J-66314D01*
G01X6005093Y319029D02*
G03X6071407Y385343I0J66314D01*
G03X6005093Y451657I-66314J0D01*
G03X5938779Y385343I0J-66314D01*
G03X6005093Y319029I66314J0D01*
G01X7428862Y1606954D02*
G03X7495177Y1673268I0J66314D01*
G03X7428862Y1739582I-66314J0D01*
G03X7362548Y1673268I0J-66314D01*
G03X7428862Y1606954I66314J0D01*
G01X7437010Y1746969D02*
G03X7503324Y1813283I0J66314D01*
G03X7437010Y1879597I-66314J0D01*
G03X7370696Y1813283I0J-66314D01*
G03X7437010Y1746969I66314J0D01*
G01X5568676Y2192020D02*
G03X5634990Y2125706I66314J0D01*
G03X5701304Y2192020I0J66314D01*
G03X5634990Y2258334I-66314J0D01*
G03X5568676Y2192020I0J-66314D01*
G01X6521176Y1911350D02*
G03X6587490Y1845036I66314J0D01*
G03X6653804Y1911350I0J66314D01*
G03X6587490Y1977664I-66314J0D01*
G03X6521176Y1911350I0J-66314D01*
G01X4633956Y2346960D02*
G03X4700270Y2280646I66314J0D01*
G03X4766584Y2346960I0J66314D01*
G03X4700270Y2413274I-66314J0D01*
G03X4633956Y2346960I0J-66314D01*
G01X7040880Y1724386D02*
G03X7107194Y1790700I0J66314D01*
G03X7040880Y1857014I-66314J0D01*
G03X6974566Y1790700I0J-66314D01*
G03X7040880Y1724386I66314J0D01*
G01X6082030Y2146026D02*
G03X6148344Y2212340I0J66314D01*
G03X6082030Y2278654I-66314J0D01*
G03X6015716Y2212340I0J-66314D01*
G03X6082030Y2146026I66314J0D01*
G01X6347460Y2119356D02*
G03X6413774Y2185670I0J66314D01*
G03X6347460Y2251984I-66314J0D01*
G03X6281146Y2185670I0J-66314D01*
G03X6347460Y2119356I66314J0D01*
G01X5740126Y2190750D02*
G03X5806440Y2124436I66314J0D01*
G03X5872754Y2190750I0J66314D01*
G03X5806440Y2257064I-66314J0D01*
G03X5740126Y2190750I0J-66314D01*
G01X5298440Y2119356D02*
G03X5364754Y2185670I0J66314D01*
G03X5298440Y2251984I-66314J0D01*
G03X5232126Y2185670I0J-66314D01*
G03X5298440Y2119356I66314J0D01*
G01X7196816Y1828800D02*
G03X7263130Y1762486I66314J0D01*
G03X7329444Y1828800I0J66314D01*
G03X7263130Y1895114I-66314J0D01*
G03X7196816Y1828800I0J-66314D01*
G01X3929106Y2145030D02*
G03X3995420Y2078716I66314J0D01*
G03X4061734Y2145030I0J66314D01*
G03X3995420Y2211344I-66314J0D01*
G03X3929106Y2145030I0J-66314D01*
G01X6672580Y1724386D02*
G03X6738894Y1790700I0J66314D01*
G03X6672580Y1857014I-66314J0D01*
G03X6606266Y1790700I0J-66314D01*
G03X6672580Y1724386I66314J0D01*
G01X7297146Y2612390D02*
G03X7363460Y2546076I66314J0D01*
G03X7429774Y2612390I0J66314D01*
G03X7363460Y2678704I-66314J0D01*
G03X7297146Y2612390I0J-66314D01*
G01X7940858Y2226132D02*
G03X8007172Y2159818I66314J0D01*
G03X8073486Y2226132I0J66314D01*
G03X8007172Y2292446I-66314J0D01*
G03X7940858Y2226132I0J-66314D01*
G01X3026136Y1163320D02*
G03X3092450Y1097006I66314J0D01*
G03X3158764Y1163320I0J66314D01*
G03X3092450Y1229634I-66314J0D01*
G03X3026136Y1163320I0J-66314D01*
G01X2700619Y1945788D02*
G03X2766934Y2012102I0J66314D01*
G03X2700619Y2078416I-66314J0D01*
G03X2634305Y2012102I0J-66314D01*
G03X2700619Y1945788I66314J0D01*
G01X6432276Y2028190D02*
G03X6498590Y1961876I66314J0D01*
G03X6564904Y2028190I0J66314D01*
G03X6498590Y2094504I-66314J0D01*
G03X6432276Y2028190I0J-66314D01*
G04 Copper End*

G04 Pad Start*
G54D10*
G01X2928991Y1727518D03*
G01X2928991Y1227519D03*
G54D11*
G01X2659009Y1127506D03*
G01X2659017Y1827530D03*
G54D12*
G01X4947920Y2600960D03*
G01X4947920Y2473960D03*
G01X4947920Y2346960D03*
G54D13*
G01X5339080Y2499360D03*
G01X5593080Y2499360D03*
G54D14*
G01X2667000Y2357120D03*
G54D15*
G01X2921000Y2357120D03*
G01X3175000Y2357120D03*
G01X3429000Y2357120D03*
G01X3683000Y2357120D03*
G01X3937000Y2357120D03*
G01X4191000Y2357120D03*
G01X4445000Y2357120D03*
G54D14*
G01X2667000Y2626360D03*
G54D15*
G01X2921000Y2626360D03*
G01X3175000Y2626360D03*
G01X3429000Y2626360D03*
G01X3683000Y2626360D03*
G01X3937000Y2626360D03*
G01X4191000Y2626360D03*
G01X4445000Y2626360D03*
G54D14*
G01X2667000Y614680D03*
G54D15*
G01X2921000Y614680D03*
G01X3175000Y614680D03*
G01X3429000Y614680D03*
G01X3683000Y614680D03*
G01X3937000Y614680D03*
G01X4191000Y614680D03*
G01X4445000Y614680D03*
G54D14*
G01X2667000Y345440D03*
G54D15*
G01X2921000Y345440D03*
G01X3175000Y345440D03*
G01X3429000Y345440D03*
G01X3683000Y345440D03*
G01X3937000Y345440D03*
G01X4191000Y345440D03*
G01X4445000Y345440D03*
G04 Pad End*

G04 Via Start*
G54D17*
G01X7499172Y2226132D03*
G01X7626172Y2226132D03*
G01X7753172Y2226132D03*
G01X7880172Y2226132D03*
G01X8007172Y2226132D03*
G01X6991172Y750748D03*
G01X7118172Y750748D03*
G01X7372172Y750748D03*
G01X7499172Y750748D03*
G01X7626172Y750748D03*
G01X7753172Y750748D03*
G01X7880172Y750748D03*
G01X8007172Y750748D03*
G01X7372172Y2226132D03*
G01X7245350Y2202180D03*
G01X7123430Y2192020D03*
G01X6995160Y2194560D03*
G01X6498590Y2028190D03*
G01X6587490Y1911350D03*
G01X6672580Y1790700D03*
G01X6756400Y1663700D03*
G01X6347460Y2185670D03*
G01X6871970Y1656080D03*
G01X6107430Y576580D03*
G01X6517640Y994410D03*
G01X6758940Y1277620D03*
G01X6799580Y1400810D03*
G01X6529070Y1176020D03*
G01X6206490Y501650D03*
G01X5166360Y1478280D03*
G01X6005093Y385343D03*
G01X4366260Y1154430D03*
G01X3469640Y1000760D03*
G01X3662680Y1000760D03*
G01X4268470Y1168400D03*
G01X4038600Y1056640D03*
G01X4536440Y1148080D03*
G01X3281680Y1569720D03*
G01X3281680Y1452880D03*
G01X4634230Y1550670D03*
G01X4632960Y1473200D03*
G01X3246120Y1847850D03*
G01X3741420Y1414780D03*
G01X4758690Y406400D03*
G01X4700270Y2346960D03*
G01X3806190Y1446530D03*
G01X3149600Y1812290D03*
G01X3092450Y1163320D03*
G01X3042920Y1339850D03*
G01X4884420Y1557020D03*
G01X4864100Y1375410D03*
G01X3613150Y918210D03*
G01X5181600Y1012190D03*
G01X5643880Y1558290D03*
G01X7288848Y1533279D03*
G01X7437010Y1533279D03*
G01X7428862Y1673268D03*
G01X7437010Y1813283D03*
G01X7292340Y1623060D03*
G01X7148858Y1583266D03*
G01X7058856Y1533279D03*
G01X7040880Y1790700D03*
G01X7263130Y1828800D03*
G01X4632960Y1396507D03*
G01X2700619Y2012102D03*
G01X3051810Y2164080D03*
G01X3162300Y2138680D03*
G01X4970780Y1557020D03*
G01X5806440Y2190750D03*
G01X5634990Y2192020D03*
G01X5298440Y2185670D03*
G01X2785110Y808990D03*
G01X2731770Y1014730D03*
G01X5773420Y1557020D03*
G01X5863830Y1557020D03*
G01X7363460Y2612390D03*
G01X6082030Y2212340D03*
G01X2801620Y1924050D03*
G01X3241040Y1736090D03*
G01X4926330Y1270000D03*
G01X4913630Y1464310D03*
G01X4109720Y2145030D03*
G01X2819400Y1075690D03*
G01X4147309Y1446086D03*
G01X4387091Y1436864D03*
G01X4267200Y1370770D03*
G01X3995420Y2145030D03*
G04 Via End*

M02*
