G04 Layer: BottomSolderMaskLayer*
G04 EasyEDA Pro v2.1.42.467b0aa0, 2024-01-03 14:17:13*
G04 Gerber Generator version 0.3*
G04 Scale: 100 percent, Rotated: No, Reflected: No*
G04 Dimensions in millimeters*
G04 Leading zeros omitted, absolute positions, 3 integers and 5 decimals*
%FSLAX35Y35*%
%MOMM*%
%AMRoundRect*1,1,$1,$2,$3*1,1,$1,$4,$5*1,1,$1,0-$2,0-$3*1,1,$1,0-$4,0-$5*20,1,$1,$2,$3,$4,$5,0*20,1,$1,$4,$5,0-$2,0-$3,0*20,1,$1,0-$2,0-$3,0-$4,0-$5,0*20,1,$1,0-$4,0-$5,$2,$3,0*4,1,4,$2,$3,$4,$5,0-$2,0-$3,0-$4,0-$5,$2,$3,0*%
%ADD10C,1.45161*%
%ADD11O,2.0016X1.3015*%
%ADD12C,1.1016*%
%ADD13C,2.1016*%
%ADD14RoundRect,0.09554X-0.75303X0.75303X0.75303X0.75303*%
%ADD15C,1.6016*%
%ADD16RoundRect,0.08771X0.27695X0.28977X0.27695X-0.28977*%
G75*


G04 Pad Start*
G54D10*
G01X2928991Y1727518D03*
G01X2928991Y1227519D03*
G54D11*
G01X2659009Y1127506D03*
G01X2659017Y1827530D03*
G54D12*
G01X4947920Y2600960D03*
G01X4947920Y2473960D03*
G01X4947920Y2346960D03*
G54D13*
G01X5339080Y2499360D03*
G01X5593080Y2499360D03*
G54D14*
G01X2667000Y2357120D03*
G54D15*
G01X2921000Y2357120D03*
G01X3175000Y2357120D03*
G01X3429000Y2357120D03*
G01X3683000Y2357120D03*
G01X3937000Y2357120D03*
G01X4191000Y2357120D03*
G01X4445000Y2357120D03*
G54D14*
G01X2667000Y2626360D03*
G54D15*
G01X2921000Y2626360D03*
G01X3175000Y2626360D03*
G01X3429000Y2626360D03*
G01X3683000Y2626360D03*
G01X3937000Y2626360D03*
G01X4191000Y2626360D03*
G01X4445000Y2626360D03*
G54D14*
G01X2667000Y614680D03*
G54D15*
G01X2921000Y614680D03*
G01X3175000Y614680D03*
G01X3429000Y614680D03*
G01X3683000Y614680D03*
G01X3937000Y614680D03*
G01X4191000Y614680D03*
G01X4445000Y614680D03*
G54D14*
G01X2667000Y345440D03*
G54D15*
G01X2921000Y345440D03*
G01X3175000Y345440D03*
G01X3429000Y345440D03*
G01X3683000Y345440D03*
G01X3937000Y345440D03*
G01X4191000Y345440D03*
G01X4445000Y345440D03*
G54D16*
G01X6012180Y2415438D03*
G01X6012180Y2502002D03*
G04 Pad End*

M02*
