G04 Layer: TopSilkscreenLayer*
G04 EasyEDA Pro v2.1.42.467b0aa0, 2024-01-03 14:17:13*
G04 Gerber Generator version 0.3*
G04 Scale: 100 percent, Rotated: No, Reflected: No*
G04 Dimensions in millimeters*
G04 Leading zeros omitted, absolute positions, 3 integers and 5 decimals*
%FSLAX35Y35*%
%MOMM*%
%ADD10C,0.1524*%
%ADD11C,0.2032*%
%ADD12C,0.254*%
%ADD13C,0.13*%
%ADD14C,0.1*%
%ADD15C,0.1517*%
%ADD16C,0.15001*%
G75*


G04 Text Start*
G54D10*
G01X4638040Y2710434D02*
G01X4638040Y2645410D01*
G01X4638040Y2710434D02*
G01X4665980Y2710434D01*
G01X4675124Y2707386D01*
G01X4678172Y2704338D01*
G01X4681474Y2697988D01*
G01Y2691892D01*
G01X4678172Y2685796D01*
G01X4675124Y2682748D01*
G01X4665980Y2679446D01*
G01X4638040Y2679446D02*
G01X4665980Y2679446D01*
G01X4675124Y2676398D01*
G01X4678172Y2673350D01*
G01X4681474Y2667254D01*
G01Y2657856D01*
G01X4678172Y2651760D01*
G01X4675124Y2648458D01*
G01X4665980Y2645410D01*
G01X4638040D01*
G01X4736338Y2710434D02*
G01X4711700Y2645410D01*
G01X4736338Y2710434D02*
G01X4761230Y2645410D01*
G01X4720844Y2667254D02*
G01X4751832Y2667254D01*
G01X4813046Y2710434D02*
G01X4813046Y2645410D01*
G01X4791456Y2710434D02*
G01X4834636Y2710434D01*
G01X7227570Y419354D02*
G01X7227570Y372872D01*
G01X7230618Y363728D01*
G01X7236968Y357378D01*
G01X7246112Y354330D01*
G01X7252462D01*
G01X7261606Y357378D01*
G01X7267702Y363728D01*
G01X7271004Y372872D01*
G01Y419354D01*
G01X7331964Y419354D02*
G01X7301230Y376174D01*
G01X7347458D01*
G01X7331964Y419354D02*
G01X7331964Y354330D01*
G01X4587578Y1088352D02*
G01X4587578Y1134834D01*
G01X4584530Y1143978D01*
G01X4578180Y1150328D01*
G01X4569036Y1153376D01*
G01X4562686D01*
G01X4553542Y1150328D01*
G01X4547446Y1143978D01*
G01X4544144Y1134834D01*
G01Y1088352D01*
G01X4507822Y1088352D02*
G01X4473786Y1088352D01*
G01X4492328Y1112990D01*
G01X4483184D01*
G01X4476834Y1116038D01*
G01X4473786Y1119340D01*
G01X4470738Y1128484D01*
G01Y1134834D01*
G01X4473786Y1143978D01*
G01X4479882Y1150328D01*
G01X4489280Y1153376D01*
G01X4498678D01*
G01X4507822Y1150328D01*
G01X4510870Y1147026D01*
G01X4513918Y1140930D01*
G01X4957945Y1048431D02*
G01X5004427Y1048431D01*
G01X5013571Y1051479D01*
G01X5019921Y1057829D01*
G01X5022969Y1066973D01*
G01Y1073323D01*
G01X5019921Y1082467D01*
G01X5013571Y1088563D01*
G01X5004427Y1091865D01*
G01X4957945D01*
G01X4970391Y1122091D02*
G01X4967089Y1128187D01*
G01X4957945Y1137331D01*
G01X5022969D01*
G01X3050794Y1124712D02*
G01X3001264Y1124712D01*
G01X2992120Y1127760D01*
G01X2988818Y1130808D01*
G01X2985770Y1137158D01*
G01Y1143254D01*
G01X2988818Y1149604D01*
G01X2992120Y1152652D01*
G01X3001264Y1155700D01*
G01X3007614D01*
G01X3050794Y1088390D02*
G01X3050794Y1054354D01*
G01X3026156Y1072896D01*
G01Y1063752D01*
G01X3023108Y1057402D01*
G01X3019806Y1054354D01*
G01X3010662Y1051306D01*
G01X3004312D01*
G01X2995168Y1054354D01*
G01X2988818Y1060450D01*
G01X2985770Y1069848D01*
G01Y1079246D01*
G01X2988818Y1088390D01*
G01X2992120Y1091438D01*
G01X2998216Y1094486D01*
G01X2919476Y1963420D02*
G01X2984500Y1963420D01*
G01X2919476Y1963420D02*
G01X2919476Y1985010D01*
G01X2922524Y1994408D01*
G01X2928620Y2000504D01*
G01X2934970Y2003552D01*
G01X2944114Y2006854D01*
G01X2959608D01*
G01X2969006Y2003552D01*
G01X2975102Y2000504D01*
G01X2981452Y1994408D01*
G01X2984500Y1985010D01*
G01Y1963420D01*
G01X2931922Y2037080D02*
G01X2928620Y2043176D01*
G01X2919476Y2052320D01*
G01X2984500D01*
G01X3014726Y1675130D02*
G01X3079750Y1675130D01*
G01X3014726Y1675130D02*
G01X3014726Y1696720D01*
G01X3017774Y1706118D01*
G01X3023870Y1712214D01*
G01X3030220Y1715262D01*
G01X3039364Y1718564D01*
G01X3054858D01*
G01X3064256Y1715262D01*
G01X3070352Y1712214D01*
G01X3076702Y1706118D01*
G01X3079750Y1696720D01*
G01Y1675130D01*
G01X3030220Y1751838D02*
G01X3027172Y1751838D01*
G01X3020822Y1754886D01*
G01X3017774Y1757934D01*
G01X3014726Y1764030D01*
G01Y1776476D01*
G01X3017774Y1782826D01*
G01X3020822Y1785874D01*
G01X3027172Y1788922D01*
G01X3033268D01*
G01X3039364Y1785874D01*
G01X3048762Y1779524D01*
G01X3079750Y1748790D01*
G01Y1791970D01*
G01X3228594Y1256030D02*
G01X3163570Y1256030D01*
G01X3228594Y1256030D02*
G01X3228594Y1234440D01*
G01X3225546Y1225042D01*
G01X3219450Y1218946D01*
G01X3213100Y1215898D01*
G01X3203956Y1212596D01*
G01X3188462D01*
G01X3179064Y1215898D01*
G01X3172968Y1218946D01*
G01X3166618Y1225042D01*
G01X3163570Y1234440D01*
G01Y1256030D01*
G01X3228594Y1176274D02*
G01X3228594Y1142238D01*
G01X3203956Y1160780D01*
G01Y1151636D01*
G01X3200908Y1145286D01*
G01X3197606Y1142238D01*
G01X3188462Y1139190D01*
G01X3182112D01*
G01X3172968Y1142238D01*
G01X3166618Y1148334D01*
G01X3163570Y1157732D01*
G01Y1167130D01*
G01X3166618Y1176274D01*
G01X3169920Y1179322D01*
G01X3176016Y1182370D01*
G01X4926838Y830326D02*
G01X4932934Y833374D01*
G01X4939284Y839470D01*
G01X4942332Y845820D01*
G01X4945380Y854964D01*
G01Y870458D01*
G01X4942332Y879856D01*
G01X4939284Y885952D01*
G01X4932934Y892302D01*
G01X4926838Y895350D01*
G01X4914392D01*
G01X4908296Y892302D01*
G01X4901946Y885952D01*
G01X4898898Y879856D01*
G01X4895850Y870458D01*
G01Y854964D01*
G01X4898898Y845820D01*
G01X4901946Y839470D01*
G01X4908296Y833374D01*
G01X4914392Y830326D01*
G01X4926838D01*
G01X4917440Y882904D02*
G01X4898898Y901446D01*
G01X4859528Y830326D02*
G01X4825492Y830326D01*
G01X4844034Y854964D01*
G01X4834890D01*
G01X4828540Y858012D01*
G01X4825492Y861314D01*
G01X4822444Y870458D01*
G01Y876808D01*
G01X4825492Y885952D01*
G01X4831588Y892302D01*
G01X4840986Y895350D01*
G01X4850384D01*
G01X4859528Y892302D01*
G01X4862576Y889000D01*
G01X4865624Y882904D01*
G01X4200398Y836676D02*
G01X4206494Y839724D01*
G01X4212844Y845820D01*
G01X4215892Y852170D01*
G01X4218940Y861314D01*
G01Y876808D01*
G01X4215892Y886206D01*
G01X4212844Y892302D01*
G01X4206494Y898652D01*
G01X4200398Y901700D01*
G01X4187952D01*
G01X4181856Y898652D01*
G01X4175506Y892302D01*
G01X4172458Y886206D01*
G01X4169410Y876808D01*
G01Y861314D01*
G01X4172458Y852170D01*
G01X4175506Y845820D01*
G01X4181856Y839724D01*
G01X4187952Y836676D01*
G01X4200398D01*
G01X4191000Y889254D02*
G01X4172458Y907796D01*
G01X4108450Y836676D02*
G01X4139184Y879856D01*
G01X4092956D01*
G01X4108450Y836676D02*
G01X4108450Y901700D01*
G01X5130068Y943280D02*
G01X5133116Y936930D01*
G01X5139466Y930834D01*
G01X5145562Y927786D01*
G01X5158008D01*
G01X5164104Y930834D01*
G01X5170454Y936930D01*
G01X5173502Y943280D01*
G01X5176550Y952424D01*
G01Y967918D01*
G01X5173502Y977316D01*
G01X5170454Y983412D01*
G01X5164104Y989762D01*
G01X5158008Y992810D01*
G01X5145562D01*
G01X5139466Y989762D01*
G01X5133116Y983412D01*
G01X5130068Y977316D01*
G01X5099842Y940232D02*
G01X5093746Y936930D01*
G01X5084602Y927786D01*
G01Y992810D01*
G01X3145536Y811530D02*
G01X3210560Y811530D01*
G01X3145536Y811530D02*
G01X3145536Y839470D01*
G01X3148584Y848614D01*
G01X3151632Y851662D01*
G01X3157982Y854964D01*
G01X3164078D01*
G01X3170174Y851662D01*
G01X3173222Y848614D01*
G01X3176524Y839470D01*
G01Y811530D01*
G01X3176524Y833120D02*
G01X3210560Y854964D01*
G01X3157982Y885190D02*
G01X3154680Y891286D01*
G01X3145536Y900430D01*
G01X3210560D01*
G01X3157982Y930656D02*
G01X3154680Y936752D01*
G01X3145536Y945896D01*
G01X3210560D01*
G01X3694684Y889000D02*
G01X3629660Y889000D01*
G01X3694684Y889000D02*
G01X3694684Y861060D01*
G01X3691636Y851916D01*
G01X3688588Y848868D01*
G01X3682238Y845566D01*
G01X3676142D01*
G01X3670046Y848868D01*
G01X3666998Y851916D01*
G01X3663696Y861060D01*
G01Y889000D01*
G01X3663696Y867410D02*
G01X3629660Y845566D01*
G01X3682238Y815340D02*
G01X3685540Y809244D01*
G01X3694684Y800100D01*
G01X3629660D01*
G01X3694684Y739140D02*
G01X3651504Y769874D01*
G01Y723646D01*
G01X3694684Y739140D02*
G01X3629660Y739140D01*
G54D11*
G01X4663440Y1358646D02*
G01X4663440Y1296924D01*
G01X4663440Y1358646D02*
G01X4689856Y1358646D01*
G01X4698746Y1355598D01*
G01X4701540Y1352804D01*
G01X4704588Y1346708D01*
G01Y1340866D01*
G01X4701540Y1335024D01*
G01X4698746Y1332230D01*
G01X4689856Y1329182D01*
G01X4663440D01*
G01X4684014Y1329182D02*
G01X4704588Y1296924D01*
G01X4780026Y1358646D02*
G01X4750816Y1296924D01*
G01X4739132Y1358646D02*
G01X4780026Y1358646D01*
G54D10*
G01X4386580Y825246D02*
G01X4386580Y890270D01*
G01X4386580Y825246D02*
G01X4358640Y825246D01*
G01X4349496Y828294D01*
G01X4346448Y831342D01*
G01X4343146Y837692D01*
G01Y843788D01*
G01X4346448Y849884D01*
G01X4349496Y852932D01*
G01X4358640Y856234D01*
G01X4386580D01*
G01X4364990Y856234D02*
G01X4343146Y890270D01*
G01X4297680Y825246D02*
G01X4306824Y828294D01*
G01X4309872Y834390D01*
G01Y840740D01*
G01X4306824Y846836D01*
G01X4300728Y849884D01*
G01X4288282Y852932D01*
G01X4278884Y856234D01*
G01X4272788Y862330D01*
G01X4269740Y868426D01*
G01Y877824D01*
G01X4272788Y883920D01*
G01X4275836Y887222D01*
G01X4285234Y890270D01*
G01X4297680D01*
G01X4306824Y887222D01*
G01X4309872Y883920D01*
G01X4312920Y877824D01*
G01Y868426D01*
G01X4309872Y862330D01*
G01X4303776Y856234D01*
G01X4294378Y852932D01*
G01X4282186Y849884D01*
G01X4275836Y846836D01*
G01X4272788Y840740D01*
G01Y834390D01*
G01X4275836Y828294D01*
G01X4285234Y825246D01*
G01X4297680D01*
G01X4961890Y1369314D02*
G01X4961890Y1304290D01*
G01X4961890Y1369314D02*
G01X4989830Y1369314D01*
G01X4998974Y1366266D01*
G01X5002022Y1363218D01*
G01X5005324Y1356868D01*
G01Y1350772D01*
G01X5002022Y1344676D01*
G01X4998974Y1341628D01*
G01X4989830Y1338326D01*
G01X4961890D01*
G01X4983480Y1338326D02*
G01X5005324Y1304290D01*
G01X5035550Y1356868D02*
G01X5041646Y1360170D01*
G01X5050790Y1369314D01*
G01Y1304290D01*
G01X4211320Y1972056D02*
G01X4211320Y2037080D01*
G01X4211320Y1972056D02*
G01X4183380Y1972056D01*
G01X4174236Y1975104D01*
G01X4171188Y1978152D01*
G01X4167886Y1984502D01*
G01Y1990598D01*
G01X4171188Y1996694D01*
G01X4174236Y1999742D01*
G01X4183380Y2003044D01*
G01X4211320D01*
G01X4189730Y2003044D02*
G01X4167886Y2037080D01*
G01X4137660Y1984502D02*
G01X4131564Y1981200D01*
G01X4122420Y1972056D01*
G01Y2037080D01*
G01X4073652Y1972056D02*
G01X4083050Y1975104D01*
G01X4089146Y1984502D01*
G01X4092194Y1999742D01*
G01Y2009140D01*
G01X4089146Y2024634D01*
G01X4083050Y2034032D01*
G01X4073652Y2037080D01*
G01X4067556D01*
G01X4058158Y2034032D01*
G01X4052062Y2024634D01*
G01X4049014Y2009140D01*
G01Y1999742D01*
G01X4052062Y1984502D01*
G01X4058158Y1975104D01*
G01X4067556Y1972056D01*
G01X4073652D01*
G01X4616450Y1963166D02*
G01X4616450Y2028190D01*
G01X4616450Y1963166D02*
G01X4588510Y1963166D01*
G01X4579366Y1966214D01*
G01X4576318Y1969262D01*
G01X4573016Y1975612D01*
G01Y1981708D01*
G01X4576318Y1987804D01*
G01X4579366Y1990852D01*
G01X4588510Y1994154D01*
G01X4616450D01*
G01X4594860Y1994154D02*
G01X4573016Y2028190D01*
G01X4502658Y1984756D02*
G01X4505706Y1994154D01*
G01X4512056Y2000250D01*
G01X4521200Y2003298D01*
G01X4524248D01*
G01X4533646Y2000250D01*
G01X4539742Y1994154D01*
G01X4542790Y1984756D01*
G01Y1981708D01*
G01X4539742Y1972310D01*
G01X4533646Y1966214D01*
G01X4524248Y1963166D01*
G01X4521200D01*
G01X4512056Y1966214D01*
G01X4505706Y1972310D01*
G01X4502658Y1984756D01*
G01Y2000250D01*
G01X4505706Y2015744D01*
G01X4512056Y2025142D01*
G01X4521200Y2028190D01*
G01X4527550D01*
G01X4536694Y2025142D01*
G01X4539742Y2018792D01*
G01X4843526Y1961896D02*
G01X4843526Y2026920D01*
G01X4843526Y1961896D02*
G01X4815586Y1961896D01*
G01X4806442Y1964944D01*
G01X4803394Y1967992D01*
G01X4800092Y1974342D01*
G01Y1980438D01*
G01X4803394Y1986534D01*
G01X4806442Y1989582D01*
G01X4815586Y1992884D01*
G01X4843526D01*
G01X4821936Y1992884D02*
G01X4800092Y2026920D01*
G01X4769866Y1974342D02*
G01X4763770Y1971040D01*
G01X4754626Y1961896D01*
G01Y2026920D01*
G01X4687316Y1961896D02*
G01X4718304Y1961896D01*
G01X4721352Y1989582D01*
G01X4718304Y1986534D01*
G01X4709160Y1983486D01*
G01X4699762D01*
G01X4690364Y1986534D01*
G01X4684268Y1992884D01*
G01X4681220Y2002028D01*
G01Y2008378D01*
G01X4684268Y2017522D01*
G01X4690364Y2023872D01*
G01X4699762Y2026920D01*
G01X4709160D01*
G01X4718304Y2023872D01*
G01X4721352Y2020570D01*
G01X4724400Y2014474D01*
G01X4400550Y1966976D02*
G01X4400550Y2032000D01*
G01X4400550Y1966976D02*
G01X4372610Y1966976D01*
G01X4363466Y1970024D01*
G01X4360418Y1973072D01*
G01X4357116Y1979422D01*
G01Y1985518D01*
G01X4360418Y1991614D01*
G01X4363466Y1994662D01*
G01X4372610Y1997964D01*
G01X4400550D01*
G01X4378960Y1997964D02*
G01X4357116Y2032000D01*
G01X4289806Y1976120D02*
G01X4292854Y1970024D01*
G01X4302252Y1966976D01*
G01X4308348D01*
G01X4317746Y1970024D01*
G01X4323842Y1979422D01*
G01X4326890Y1994662D01*
G01Y2010156D01*
G01X4323842Y2022602D01*
G01X4317746Y2028952D01*
G01X4308348Y2032000D01*
G01X4305300D01*
G01X4296156Y2028952D01*
G01X4289806Y2022602D01*
G01X4286758Y2013458D01*
G01Y2010156D01*
G01X4289806Y2001012D01*
G01X4296156Y1994662D01*
G01X4305300Y1991614D01*
G01X4308348D01*
G01X4317746Y1994662D01*
G01X4323842Y2001012D01*
G01X4326890Y2010156D01*
G01X3801872Y751840D02*
G01X3798824Y758190D01*
G01X3792474Y764286D01*
G01X3786378Y767334D01*
G01X3773932D01*
G01X3767836Y764286D01*
G01X3761486Y758190D01*
G01X3758438Y751840D01*
G01X3755390Y742696D01*
G01Y727202D01*
G01X3758438Y717804D01*
G01X3761486Y711708D01*
G01X3767836Y705358D01*
G01X3773932Y702310D01*
G01X3786378D01*
G01X3792474Y705358D01*
G01X3798824Y711708D01*
G01X3801872Y717804D01*
G01X3869182Y767334D02*
G01X3838194Y767334D01*
G01X3835146Y739648D01*
G01X3838194Y742696D01*
G01X3847338Y745744D01*
G01X3856736D01*
G01X3866134Y742696D01*
G01X3872230Y736346D01*
G01X3875278Y727202D01*
G01Y720852D01*
G01X3872230Y711708D01*
G01X3866134Y705358D01*
G01X3856736Y702310D01*
G01X3847338D01*
G01X3838194Y705358D01*
G01X3835146Y708660D01*
G01X3832098Y714756D01*
G01X3364560Y2076988D02*
G01X3370910Y2080036D01*
G01X3377006Y2086386D01*
G01X3380054Y2092482D01*
G01Y2104928D01*
G01X3377006Y2111024D01*
G01X3370910Y2117374D01*
G01X3364560Y2120422D01*
G01X3355416Y2123470D01*
G01X3339922D01*
G01X3330524Y2120422D01*
G01X3324428Y2117374D01*
G01X3318078Y2111024D01*
G01X3315030Y2104928D01*
G01Y2092482D01*
G01X3318078Y2086386D01*
G01X3324428Y2080036D01*
G01X3330524Y2076988D01*
G01X3370910Y2009678D02*
G01X3377006Y2012726D01*
G01X3380054Y2022124D01*
G01Y2028220D01*
G01X3377006Y2037618D01*
G01X3367608Y2043714D01*
G01X3352368Y2046762D01*
G01X3336874D01*
G01X3324428Y2043714D01*
G01X3318078Y2037618D01*
G01X3315030Y2028220D01*
G01Y2025172D01*
G01X3318078Y2016028D01*
G01X3324428Y2009678D01*
G01X3333572Y2006630D01*
G01X3336874D01*
G01X3346018Y2009678D01*
G01X3352368Y2016028D01*
G01X3355416Y2025172D01*
G01Y2028220D01*
G01X3352368Y2037618D01*
G01X3346018Y2043714D01*
G01X3336874Y2046762D01*
G01X6591300Y434594D02*
G01X6591300Y369570D01*
G01X6591300Y434594D02*
G01X6619240Y434594D01*
G01X6628384Y431546D01*
G01X6631432Y428498D01*
G01X6634734Y422148D01*
G01Y416052D01*
G01X6631432Y409956D01*
G01X6628384Y406908D01*
G01X6619240Y403606D01*
G01X6591300D01*
G01X6612890Y403606D02*
G01X6634734Y369570D01*
G01X6664960Y422148D02*
G01X6671056Y425450D01*
G01X6680200Y434594D01*
G01Y369570D01*
G01X6713474Y419100D02*
G01X6713474Y422148D01*
G01X6716522Y428498D01*
G01X6719570Y431546D01*
G01X6725666Y434594D01*
G01X6738112D01*
G01X6744462Y431546D01*
G01X6747510Y428498D01*
G01X6750558Y422148D01*
G01Y416052D01*
G01X6747510Y409956D01*
G01X6741160Y400558D01*
G01X6710426Y369570D01*
G01X6753606D01*
G01X5953760Y499364D02*
G01X5953760Y434340D01*
G01X5953760Y499364D02*
G01X5981700Y499364D01*
G01X5990844Y496316D01*
G01X5993892Y493268D01*
G01X5997194Y486918D01*
G01Y480822D01*
G01X5993892Y474726D01*
G01X5990844Y471678D01*
G01X5981700Y468376D01*
G01X5953760D01*
G01X5975350Y468376D02*
G01X5997194Y434340D01*
G01X6027420Y486918D02*
G01X6033516Y490220D01*
G01X6042660Y499364D01*
G01Y434340D01*
G01X6078982Y499364D02*
G01X6113018Y499364D01*
G01X6094476Y474726D01*
G01X6103620D01*
G01X6109970Y471678D01*
G01X6113018Y468376D01*
G01X6116066Y459232D01*
G01Y452882D01*
G01X6113018Y443738D01*
G01X6106922Y437388D01*
G01X6097524Y434340D01*
G01X6088126D01*
G01X6078982Y437388D01*
G01X6075934Y440690D01*
G01X6072886Y446786D01*
G01X5941060Y1623314D02*
G01X5941060Y1558290D01*
G01X5941060Y1623314D02*
G01X5969000Y1623314D01*
G01X5978144Y1620266D01*
G01X5981192Y1617218D01*
G01X5984494Y1610868D01*
G01Y1604772D01*
G01X5981192Y1598676D01*
G01X5978144Y1595628D01*
G01X5969000Y1592326D01*
G01X5941060D01*
G01X5962650Y1592326D02*
G01X5984494Y1558290D01*
G01X6045454Y1623314D02*
G01X6014720Y1580134D01*
G01X6060948D01*
G01X6045454Y1623314D02*
G01X6045454Y1558290D01*
G01X5829046Y1094740D02*
G01X5894070Y1094740D01*
G01X5829046Y1094740D02*
G01X5829046Y1122680D01*
G01X5832094Y1131824D01*
G01X5835142Y1134872D01*
G01X5841492Y1138174D01*
G01X5847588D01*
G01X5853684Y1134872D01*
G01X5856732Y1131824D01*
G01X5860034Y1122680D01*
G01Y1094740D01*
G01X5860034Y1116330D02*
G01X5894070Y1138174D01*
G01X5829046Y1205484D02*
G01X5829046Y1174496D01*
G01X5856732Y1171448D01*
G01X5853684Y1174496D01*
G01X5850636Y1183640D01*
G01Y1193038D01*
G01X5853684Y1202436D01*
G01X5860034Y1208532D01*
G01X5869178Y1211580D01*
G01X5875528D01*
G01X5884672Y1208532D01*
G01X5891022Y1202436D01*
G01X5894070Y1193038D01*
G01Y1183640D01*
G01X5891022Y1174496D01*
G01X5887720Y1171448D01*
G01X5881624Y1168400D01*
G01X4834128Y2244344D02*
G01X4834128Y2194814D01*
G01X4831080Y2185670D01*
G01X4828032Y2182368D01*
G01X4821682Y2179320D01*
G01X4815586D01*
G01X4809236Y2182368D01*
G01X4806188Y2185670D01*
G01X4803140Y2194814D01*
G01Y2201164D01*
G01X4867402Y2228850D02*
G01X4867402Y2231898D01*
G01X4870450Y2238248D01*
G01X4873498Y2241296D01*
G01X4879594Y2244344D01*
G01X4892040D01*
G01X4898390Y2241296D01*
G01X4901438Y2238248D01*
G01X4904486Y2231898D01*
G01Y2225802D01*
G01X4901438Y2219706D01*
G01X4895088Y2210308D01*
G01X4864354Y2179320D01*
G01X4907534D01*
G01X5842000Y2178304D02*
G01X5842000Y2113280D01*
G01X5842000Y2113280D02*
G01X5879084Y2113280D01*
G01X5909310Y2178304D02*
G01X5909310Y2113280D01*
G01X5909310Y2178304D02*
G01X5949442Y2178304D01*
G01X5909310Y2147316D02*
G01X5933948Y2147316D01*
G01X5909310Y2113280D02*
G01X5949442Y2113280D01*
G01X5979668Y2178304D02*
G01X5979668Y2113280D01*
G01X5979668Y2178304D02*
G01X6001258Y2178304D01*
G01X6010402Y2175256D01*
G01X6016752Y2169160D01*
G01X6019800Y2162810D01*
G01X6022848Y2153666D01*
G01Y2138172D01*
G01X6019800Y2128774D01*
G01X6016752Y2122678D01*
G01X6010402Y2116328D01*
G01X6001258Y2113280D01*
G01X5979668D01*
G01X6053074Y2165858D02*
G01X6059170Y2169160D01*
G01X6068314Y2178304D01*
G01Y2113280D01*
G01X3386074Y1508760D02*
G01X3379724Y1514856D01*
G01X3370580Y1517904D01*
G01X3358134D01*
G01X3348736Y1514856D01*
G01X3342640Y1508760D01*
G01Y1502410D01*
G01X3345688Y1496314D01*
G01X3348736Y1493266D01*
G01X3355086Y1490218D01*
G01X3373628Y1483868D01*
G01X3379724Y1480820D01*
G01X3382772Y1477772D01*
G01X3386074Y1471422D01*
G01Y1462278D01*
G01X3379724Y1455928D01*
G01X3370580Y1452880D01*
G01X3358134D01*
G01X3348736Y1455928D01*
G01X3342640Y1462278D01*
G01X3416300Y1517904D02*
G01X3431540Y1452880D01*
G01X3447034Y1517904D02*
G01X3431540Y1452880D01*
G01X3447034Y1517904D02*
G01X3462528Y1452880D01*
G01X3478022Y1517904D02*
G01X3462528Y1452880D01*
G01X3511296Y1502410D02*
G01X3511296Y1505458D01*
G01X3514344Y1511808D01*
G01X3517392Y1514856D01*
G01X3523488Y1517904D01*
G01X3535934D01*
G01X3542284Y1514856D01*
G01X3545332Y1511808D01*
G01X3548380Y1505458D01*
G01Y1499362D01*
G01X3545332Y1493266D01*
G01X3538982Y1483868D01*
G01X3508248Y1452880D01*
G01X3551428D01*
G01X3525774Y2049780D02*
G01X3519424Y2055876D01*
G01X3510280Y2058924D01*
G01X3497834D01*
G01X3488436Y2055876D01*
G01X3482340Y2049780D01*
G01Y2043430D01*
G01X3485388Y2037334D01*
G01X3488436Y2034286D01*
G01X3494786Y2031238D01*
G01X3513328Y2024888D01*
G01X3519424Y2021840D01*
G01X3522472Y2018792D01*
G01X3525774Y2012442D01*
G01Y2003298D01*
G01X3519424Y1996948D01*
G01X3510280Y1993900D01*
G01X3497834D01*
G01X3488436Y1996948D01*
G01X3482340Y2003298D01*
G01X3556000Y2058924D02*
G01X3571240Y1993900D01*
G01X3586734Y2058924D02*
G01X3571240Y1993900D01*
G01X3586734Y2058924D02*
G01X3602228Y1993900D01*
G01X3617722Y2058924D02*
G01X3602228Y1993900D01*
G01X3647948Y2046478D02*
G01X3654044Y2049780D01*
G01X3663188Y2058924D01*
G01Y1993900D01*
G01X5763260Y2704084D02*
G01X5763260Y2657602D01*
G01X5766308Y2648458D01*
G01X5772658Y2642108D01*
G01X5781802Y2639060D01*
G01X5788152D01*
G01X5797296Y2642108D01*
G01X5803392Y2648458D01*
G01X5806694Y2657602D01*
G01Y2704084D01*
G01X5839968Y2688590D02*
G01X5839968Y2691638D01*
G01X5843016Y2697988D01*
G01X5846064Y2701036D01*
G01X5852160Y2704084D01*
G01X5864606D01*
G01X5870956Y2701036D01*
G01X5874004Y2697988D01*
G01X5877052Y2691638D01*
G01Y2685542D01*
G01X5874004Y2679446D01*
G01X5867654Y2670048D01*
G01X5836920Y2639060D01*
G01X5880100D01*
G01X4623562Y2291080D02*
G01X4620514Y2297430D01*
G01X4614164Y2303526D01*
G01X4608068Y2306574D01*
G01X4595622D01*
G01X4589526Y2303526D01*
G01X4583176Y2297430D01*
G01X4580128Y2291080D01*
G01X4577080Y2281936D01*
G01Y2266442D01*
G01X4580128Y2257044D01*
G01X4583176Y2250948D01*
G01X4589526Y2244598D01*
G01X4595622Y2241550D01*
G01X4608068D01*
G01X4614164Y2244598D01*
G01X4620514Y2250948D01*
G01X4623562Y2257044D01*
G01X4653788Y2294128D02*
G01X4659884Y2297430D01*
G01X4669028Y2306574D01*
G01Y2241550D01*
G01X4729988Y2306574D02*
G01X4699254Y2263394D01*
G01X4745482D01*
G01X4729988Y2306574D02*
G01X4729988Y2241550D01*
G01X5072380Y2013458D02*
G01X5078730Y2016506D01*
G01X5084826Y2022856D01*
G01X5087874Y2028952D01*
G01Y2041398D01*
G01X5084826Y2047494D01*
G01X5078730Y2053844D01*
G01X5072380Y2056892D01*
G01X5063236Y2059940D01*
G01X5047742D01*
G01X5038344Y2056892D01*
G01X5032248Y2053844D01*
G01X5025898Y2047494D01*
G01X5022850Y2041398D01*
G01Y2028952D01*
G01X5025898Y2022856D01*
G01X5032248Y2016506D01*
G01X5038344Y2013458D01*
G01X5087874Y1977136D02*
G01X5087874Y1943100D01*
G01X5063236Y1961642D01*
G01Y1952498D01*
G01X5060188Y1946148D01*
G01X5056886Y1943100D01*
G01X5047742Y1940052D01*
G01X5041392D01*
G01X5032248Y1943100D01*
G01X5025898Y1949196D01*
G01X5022850Y1958594D01*
G01Y1967992D01*
G01X5025898Y1977136D01*
G01X5029200Y1980184D01*
G01X5035296Y1983232D01*
G01X5632298Y1779778D02*
G01X5638648Y1782826D01*
G01X5644744Y1789176D01*
G01X5647792Y1795272D01*
G01Y1807718D01*
G01X5644744Y1813814D01*
G01X5638648Y1820164D01*
G01X5632298Y1823212D01*
G01X5623154Y1826260D01*
G01X5607660D01*
G01X5598262Y1823212D01*
G01X5592166Y1820164D01*
G01X5585816Y1813814D01*
G01X5582768Y1807718D01*
G01Y1795272D01*
G01X5585816Y1789176D01*
G01X5592166Y1782826D01*
G01X5598262Y1779778D01*
G01X5647792Y1718818D02*
G01X5604612Y1749552D01*
G01Y1703324D01*
G01X5647792Y1718818D02*
G01X5582768Y1718818D01*
G01X5520182Y2120900D02*
G01X5517134Y2127250D01*
G01X5510784Y2133346D01*
G01X5504688Y2136394D01*
G01X5492242D01*
G01X5486146Y2133346D01*
G01X5479796Y2127250D01*
G01X5476748Y2120900D01*
G01X5473700Y2111756D01*
G01Y2096262D01*
G01X5476748Y2086864D01*
G01X5479796Y2080768D01*
G01X5486146Y2074418D01*
G01X5492242Y2071370D01*
G01X5504688D01*
G01X5510784Y2074418D01*
G01X5517134Y2080768D01*
G01X5520182Y2086864D01*
G01X5593588Y2136394D02*
G01X5562600Y2071370D01*
G01X5550408Y2136394D02*
G01X5593588Y2136394D01*
G01X2779522Y2058670D02*
G01X2776474Y2065020D01*
G01X2770124Y2071116D01*
G01X2764028Y2074164D01*
G01X2751582D01*
G01X2745486Y2071116D01*
G01X2739136Y2065020D01*
G01X2736088Y2058670D01*
G01X2733040Y2049526D01*
G01Y2034032D01*
G01X2736088Y2024634D01*
G01X2739136Y2018538D01*
G01X2745486Y2012188D01*
G01X2751582Y2009140D01*
G01X2764028D01*
G01X2770124Y2012188D01*
G01X2776474Y2018538D01*
G01X2779522Y2024634D01*
G01X2809748Y2061718D02*
G01X2815844Y2065020D01*
G01X2824988Y2074164D01*
G01Y2009140D01*
G01X2861310Y2074164D02*
G01X2895346Y2074164D01*
G01X2876804Y2049526D01*
G01X2885948D01*
G01X2892298Y2046478D01*
G01X2895346Y2043176D01*
G01X2898394Y2034032D01*
G01Y2027682D01*
G01X2895346Y2018538D01*
G01X2889250Y2012188D01*
G01X2879852Y2009140D01*
G01X2870454D01*
G01X2861310Y2012188D01*
G01X2858262Y2015490D01*
G01X2855214Y2021586D01*
G01X4883150Y1483868D02*
G01X4889500Y1486916D01*
G01X4895596Y1493266D01*
G01X4898644Y1499362D01*
G01Y1511808D01*
G01X4895596Y1517904D01*
G01X4889500Y1524254D01*
G01X4883150Y1527302D01*
G01X4874006Y1530350D01*
G01X4858512D01*
G01X4849114Y1527302D01*
G01X4843018Y1524254D01*
G01X4836668Y1517904D01*
G01X4833620Y1511808D01*
G01Y1499362D01*
G01X4836668Y1493266D01*
G01X4843018Y1486916D01*
G01X4849114Y1483868D01*
G01X4898644Y1438402D02*
G01X4895596Y1447546D01*
G01X4889500Y1450594D01*
G01X4883150D01*
G01X4877054Y1447546D01*
G01X4874006Y1441450D01*
G01X4870958Y1429004D01*
G01X4867656Y1419606D01*
G01X4861560Y1413510D01*
G01X4855464Y1410462D01*
G01X4846066D01*
G01X4839970Y1413510D01*
G01X4836668Y1416558D01*
G01X4833620Y1425956D01*
G01Y1438402D01*
G01X4836668Y1447546D01*
G01X4839970Y1450594D01*
G01X4846066Y1453642D01*
G01X4855464D01*
G01X4861560Y1450594D01*
G01X4867656Y1444498D01*
G01X4870958Y1435100D01*
G01X4874006Y1422908D01*
G01X4877054Y1416558D01*
G01X4883150Y1413510D01*
G01X4889500D01*
G01X4895596Y1416558D01*
G01X4898644Y1425956D01*
G01Y1438402D01*
G01X4925060Y1702308D02*
G01X4931410Y1705356D01*
G01X4937506Y1711706D01*
G01X4940554Y1717802D01*
G01Y1730248D01*
G01X4937506Y1736344D01*
G01X4931410Y1742694D01*
G01X4925060Y1745742D01*
G01X4915916Y1748790D01*
G01X4900422D01*
G01X4891024Y1745742D01*
G01X4884928Y1742694D01*
G01X4878578Y1736344D01*
G01X4875530Y1730248D01*
G01Y1717802D01*
G01X4878578Y1711706D01*
G01X4884928Y1705356D01*
G01X4891024Y1702308D01*
G01X4918964Y1631950D02*
G01X4909566Y1634998D01*
G01X4903470Y1641348D01*
G01X4900422Y1650492D01*
G01Y1653540D01*
G01X4903470Y1662938D01*
G01X4909566Y1669034D01*
G01X4918964Y1672082D01*
G01X4922012D01*
G01X4931410Y1669034D01*
G01X4937506Y1662938D01*
G01X4940554Y1653540D01*
G01Y1650492D01*
G01X4937506Y1641348D01*
G01X4931410Y1634998D01*
G01X4918964Y1631950D01*
G01X4903470D01*
G01X4887976Y1634998D01*
G01X4878578Y1641348D01*
G01X4875530Y1650492D01*
G01Y1656842D01*
G01X4878578Y1665986D01*
G01X4884928Y1669034D01*
G01X7744460Y2583942D02*
G01X7738110Y2580894D01*
G01X7732014Y2574544D01*
G01X7728966Y2568448D01*
G01Y2556002D01*
G01X7732014Y2549906D01*
G01X7738110Y2543556D01*
G01X7744460Y2540508D01*
G01X7753604Y2537460D01*
G01X7769098D01*
G01X7778496Y2540508D01*
G01X7784592Y2543556D01*
G01X7790942Y2549906D01*
G01X7793990Y2556002D01*
G01Y2568448D01*
G01X7790942Y2574544D01*
G01X7784592Y2580894D01*
G01X7778496Y2583942D01*
G01X7741412Y2614168D02*
G01X7738110Y2620264D01*
G01X7728966Y2629408D01*
G01X7793990D01*
G01X7728966Y2678176D02*
G01X7732014Y2668778D01*
G01X7741412Y2662682D01*
G01X7756652Y2659634D01*
G01X7766050D01*
G01X7781544Y2662682D01*
G01X7790942Y2668778D01*
G01X7793990Y2678176D01*
G01Y2684272D01*
G01X7790942Y2693670D01*
G01X7781544Y2699766D01*
G01X7766050Y2702814D01*
G01X7756652D01*
G01X7741412Y2699766D01*
G01X7732014Y2693670D01*
G01X7728966Y2684272D01*
G01Y2678176D01*
G01X7393940Y2589022D02*
G01X7387590Y2585974D01*
G01X7381494Y2579624D01*
G01X7378446Y2573528D01*
G01Y2561082D01*
G01X7381494Y2554986D01*
G01X7387590Y2548636D01*
G01X7393940Y2545588D01*
G01X7403084Y2542540D01*
G01X7418578D01*
G01X7427976Y2545588D01*
G01X7434072Y2548636D01*
G01X7440422Y2554986D01*
G01X7443470Y2561082D01*
G01Y2573528D01*
G01X7440422Y2579624D01*
G01X7434072Y2585974D01*
G01X7427976Y2589022D01*
G01X7390892Y2619248D02*
G01X7387590Y2625344D01*
G01X7378446Y2634488D01*
G01X7443470D01*
G01X7390892Y2664714D02*
G01X7387590Y2670810D01*
G01X7378446Y2679954D01*
G01X7443470D01*
G01X5810250Y842264D02*
G01X5810250Y777240D01*
G01X5810250Y777240D02*
G01X5847334Y777240D01*
G01X5877560Y842264D02*
G01X5877560Y777240D01*
G01X5877560Y842264D02*
G01X5917692Y842264D01*
G01X5877560Y811276D02*
G01X5902198Y811276D01*
G01X5877560Y777240D02*
G01X5917692Y777240D01*
G01X5947918Y842264D02*
G01X5947918Y777240D01*
G01X5947918Y842264D02*
G01X5969508Y842264D01*
G01X5978652Y839216D01*
G01X5985002Y833120D01*
G01X5988050Y826770D01*
G01X5991098Y817626D01*
G01Y802132D01*
G01X5988050Y792734D01*
G01X5985002Y786638D01*
G01X5978652Y780288D01*
G01X5969508Y777240D01*
G01X5947918D01*
G01X6024372Y826770D02*
G01X6024372Y829818D01*
G01X6027420Y836168D01*
G01X6030468Y839216D01*
G01X6036564Y842264D01*
G01X6049010D01*
G01X6055360Y839216D01*
G01X6058408Y836168D01*
G01X6061456Y829818D01*
G01Y823722D01*
G01X6058408Y817626D01*
G01X6052058Y808228D01*
G01X6021324Y777240D01*
G01X6064504D01*
G01X2823210Y989838D02*
G01X2829560Y992886D01*
G01X2835656Y999236D01*
G01X2838704Y1005332D01*
G01Y1017778D01*
G01X2835656Y1023874D01*
G01X2829560Y1030224D01*
G01X2823210Y1033272D01*
G01X2814066Y1036320D01*
G01X2798572D01*
G01X2789174Y1033272D01*
G01X2783078Y1030224D01*
G01X2776728Y1023874D01*
G01X2773680Y1017778D01*
G01Y1005332D01*
G01X2776728Y999236D01*
G01X2783078Y992886D01*
G01X2789174Y989838D01*
G01X2826258Y959612D02*
G01X2829560Y953516D01*
G01X2838704Y944372D01*
G01X2773680D01*
G01X2823210Y911098D02*
G01X2826258Y911098D01*
G01X2832608Y908050D01*
G01X2835656Y905002D01*
G01X2838704Y898906D01*
G01Y886460D01*
G01X2835656Y880110D01*
G01X2832608Y877062D01*
G01X2826258Y874014D01*
G01X2820162D01*
G01X2814066Y877062D01*
G01X2804668Y883412D01*
G01X2773680Y914146D01*
G01Y870966D01*
G04 Text End*

G04 PolygonModel Start*
G54D12*
G01X8759652Y578272D02*
G01X8113062Y578272D01*
G01X8759652Y2378273D02*
G01X8114655Y2378273D01*
G01X8759652Y578272D02*
G01X8759652Y2378273D01*
G01X8131256Y578272D02*
G01X8131256Y2378273D01*
G01X8080370Y576572D02*
G01X8131256Y576572D01*
G01X6209655Y838657D02*
G01X6209655Y576572D01*
G01X6209655Y576572D02*
G01X6293134Y576572D01*
G01X6293134Y2378273D02*
G01X6209655Y2378273D01*
G01X6209655Y2378273D02*
G01X6209655Y2117885D01*
G01X8131256Y2378273D02*
G01X8080370Y2378273D01*
G54D10*
G01X4084150Y1225741D02*
G01X4009581Y1225741D01*
G01X4009581Y1225741D02*
G01X4009581Y1300310D01*
G01X4084150Y1740980D02*
G01X4009581Y1740980D01*
G01X4009581Y1740980D02*
G01X4009581Y1666410D01*
G01X4450250Y1225741D02*
G01X4524820Y1225741D01*
G01X4524820Y1225741D02*
G01X4524820Y1300310D01*
G01X4450250Y1740980D02*
G01X4524820Y1740980D01*
G01X4524820Y1740980D02*
G01X4524820Y1666410D01*
G01X5737741Y1315740D02*
G01X5072499Y1315740D01*
G01X5072499Y1315740D02*
G01X5072499Y1590020D01*
G01X5072499Y1590020D02*
G01X5737741Y1590020D01*
G01X5737741Y1590020D02*
G01X5737741Y1315740D01*
G54D12*
G01X2944002Y1096493D02*
G01X2944000Y1137519D01*
G01X2944002Y1856511D02*
G01X2944000Y1816453D01*
G01X2944002Y1096493D02*
G01X2771107Y1096493D01*
G01X2944002Y1856511D02*
G01X2771897Y1856511D01*
G01X2404001Y1782318D02*
G01X2404001Y1172718D01*
G01X2520587Y1096518D02*
G01X2469787Y1045718D01*
G01X2469787Y1045718D02*
G01X2444387Y1071118D01*
G01X2444387Y1071118D02*
G01X2444387Y1096518D01*
G01X2444387Y1096518D02*
G01X2469787Y1121918D01*
G01X2469787Y1121918D02*
G01X2469787Y1147318D01*
G01X2469787Y1147318D02*
G01X2444387Y1172718D01*
G01X2520587Y1858518D02*
G01X2520587Y1782318D01*
G01X2520587Y1697507D02*
G01X2520587Y1274318D01*
G01X2520587Y1189507D02*
G01X2520587Y1096518D01*
G01X2520587Y1858518D02*
G01X2469787Y1909318D01*
G01X2469787Y1909318D02*
G01X2444387Y1883918D01*
G01X2444387Y1883918D02*
G01X2444387Y1858518D01*
G01X2444387Y1858518D02*
G01X2469787Y1833118D01*
G01X2469787Y1833118D02*
G01X2469787Y1807718D01*
G01X2469787Y1807718D02*
G01X2444387Y1782318D01*
G01X2546927Y1096493D02*
G01X2520587Y1096493D01*
G01X2546137Y1856511D02*
G01X2520587Y1856511D01*
G54D13*
G01X3103080Y2076681D02*
G01X3103080Y1946679D01*
G01X3003080Y2076681D02*
G01X3003080Y1946679D01*
G54D14*
G01X3075940Y2011680D02*
G01X3027680Y2011680D01*
G36*
G01X3053080Y2011680D02*
G01X3081020Y1988820D01*
G01X3025140D01*
G01X3053080Y2011680D01*
G37*
G36*
G01X3053080Y2011680D02*
G01X3025140Y2034540D01*
G01X3081020D01*
G01X3053080Y2011680D01*
G37*
G54D13*
G01X3199600Y1710921D02*
G01X3199600Y1580919D01*
G01X3099600Y1710921D02*
G01X3099600Y1580919D01*
G54D14*
G01X3172460Y1645920D02*
G01X3124200Y1645920D01*
G36*
G01X3149600Y1645920D02*
G01X3177540Y1623060D01*
G01X3121660D01*
G01X3149600Y1645920D01*
G37*
G36*
G01X3149600Y1645920D02*
G01X3121660Y1668780D01*
G01X3177540D01*
G01X3149600Y1645920D01*
G37*
G54D13*
G01X3099600Y1316759D02*
G01X3099600Y1446761D01*
G01X3199600Y1316759D02*
G01X3199600Y1446761D01*
G54D14*
G01X3126740Y1381760D02*
G01X3175000Y1381760D01*
G36*
G01X3149600Y1381760D02*
G01X3121660Y1404620D01*
G01X3177540D01*
G01X3149600Y1381760D01*
G37*
G36*
G01X3149600Y1381760D02*
G01X3177540Y1358900D01*
G01X3121660D01*
G01X3149600Y1381760D01*
G37*
G54D10*
G01X4617499Y1063221D02*
G01X4617499Y917979D01*
G01X4617499Y917979D02*
G01X4720661Y917979D01*
G01X4922741Y1063221D02*
G01X4922741Y917979D01*
G01X4922741Y917979D02*
G01X4819579Y917979D01*
G01X4724580Y1063221D02*
G01X4815660Y1063221D01*
G01X3880899Y1084811D02*
G01X3880899Y939569D01*
G01X3880899Y939569D02*
G01X3984061Y939569D01*
G01X4186141Y1084811D02*
G01X4186141Y939569D01*
G01X4186141Y939569D02*
G01X4082979Y939569D01*
G01X3987980Y1084811D02*
G01X4079060Y1084811D01*
G01X5161310Y1042340D02*
G01X5082301Y1042340D01*
G01X5037059Y1142060D02*
G01X4958050Y1142060D01*
G01X4958050Y1042340D02*
G01X5037059Y1042340D01*
G01X4942810Y1126820D02*
G01X4942810Y1057580D01*
G01X5082301Y1142060D02*
G01X5161310Y1142060D01*
G01X5176550Y1126820D02*
G01X5176550Y1057580D01*
G01X4958050Y1142060D02*
G03X4942810Y1126820I0J-15240D01*
G01X4942810Y1057580D02*
G03X4958050Y1042340I15240J0D01*
G01X5161310Y1142060D02*
G02X5176550Y1126820I0J-15240D01*
G01X5176550Y1057580D02*
G02X5161310Y1042340I-15240J0D01*
G01X3341700Y847329D02*
G01X3341700Y775526D01*
G01X3341700Y775526D02*
G01X3241980Y775526D01*
G01X3241980Y775526D02*
G01X3241980Y847329D01*
G01X3341700Y892571D02*
G01X3341700Y964375D01*
G01X3341700Y964375D02*
G01X3241980Y964375D01*
G01X3241980Y964375D02*
G01X3241980Y892571D01*
G01X3588080Y829549D02*
G01X3588080Y757746D01*
G01X3588080Y757746D02*
G01X3488360Y757746D01*
G01X3488360Y757746D02*
G01X3488360Y829549D01*
G01X3588080Y874791D02*
G01X3588080Y946595D01*
G01X3588080Y946595D02*
G01X3488360Y946595D01*
G01X3488360Y946595D02*
G01X3488360Y874791D01*
G01X4717019Y1199820D02*
G01X4645216Y1199820D01*
G01X4645216Y1199820D02*
G01X4645216Y1299540D01*
G01X4645216Y1299540D02*
G01X4717019Y1299540D01*
G01X4762261Y1199820D02*
G01X4834065Y1199820D01*
G01X4834065Y1199820D02*
G01X4834065Y1299540D01*
G01X4834065Y1299540D02*
G01X4762261Y1299540D01*
G01X4278300Y1028461D02*
G01X4278300Y1100265D01*
G01X4278300Y1100265D02*
G01X4378020Y1100265D01*
G01X4378020Y1100265D02*
G01X4378020Y1028461D01*
G01X4278300Y983219D02*
G01X4278300Y911416D01*
G01X4278300Y911416D02*
G01X4378020Y911416D01*
G01X4378020Y911416D02*
G01X4378020Y983219D01*
G01X5072141Y1284300D02*
G01X5143945Y1284300D01*
G01X5143945Y1284300D02*
G01X5143945Y1184580D01*
G01X5143945Y1184580D02*
G01X5072141Y1184580D01*
G01X5026899Y1284300D02*
G01X4955096Y1284300D01*
G01X4955096Y1284300D02*
G01X4955096Y1184580D01*
G01X4955096Y1184580D02*
G01X5026899Y1184580D01*
G01X4162821Y1939620D02*
G01X4234625Y1939620D01*
G01X4234625Y1939620D02*
G01X4234625Y1839900D01*
G01X4234625Y1839900D02*
G01X4162821Y1839900D01*
G01X4117579Y1939620D02*
G01X4045776Y1939620D01*
G01X4045776Y1939620D02*
G01X4045776Y1839900D01*
G01X4045776Y1839900D02*
G01X4117579Y1839900D01*
G01X4534139Y1839900D02*
G01X4462336Y1839900D01*
G01X4462336Y1839900D02*
G01X4462336Y1939620D01*
G01X4462336Y1939620D02*
G01X4534139Y1939620D01*
G01X4579381Y1839900D02*
G01X4651185Y1839900D01*
G01X4651185Y1839900D02*
G01X4651185Y1939620D01*
G01X4651185Y1939620D02*
G01X4579381Y1939620D01*
G01X4787661Y1939620D02*
G01X4859465Y1939620D01*
G01X4859465Y1939620D02*
G01X4859465Y1839900D01*
G01X4859465Y1839900D02*
G01X4787661Y1839900D01*
G01X4742419Y1939620D02*
G01X4670616Y1939620D01*
G01X4670616Y1939620D02*
G01X4670616Y1839900D01*
G01X4670616Y1839900D02*
G01X4742419Y1839900D01*
G01X4371101Y1939620D02*
G01X4442905Y1939620D01*
G01X4442905Y1939620D02*
G01X4442905Y1839900D01*
G01X4442905Y1839900D02*
G01X4371101Y1839900D01*
G01X4325859Y1939620D02*
G01X4254056Y1939620D01*
G01X4254056Y1939620D02*
G01X4254056Y1839900D01*
G01X4254056Y1839900D02*
G01X4325859Y1839900D01*
G01X3743930Y885520D02*
G01X3822939Y885520D01*
G01X3868181Y785800D02*
G01X3947190Y785800D01*
G01X3947190Y885520D02*
G01X3868181Y885520D01*
G01X3962430Y801040D02*
G01X3962430Y870280D01*
G01X3822939Y785800D02*
G01X3743930Y785800D01*
G01X3728690Y801040D02*
G01X3728690Y870280D01*
G01X3947190Y785800D02*
G03X3962430Y801040I0J15240D01*
G01X3962430Y870280D02*
G03X3947190Y885520I-15240J0D01*
G01X3743930Y785800D02*
G02X3728690Y801040I0J15240D01*
G01X3728690Y870280D02*
G02X3743930Y885520I15240J0D01*
G01X3265500Y2108230D02*
G01X3265500Y2029221D01*
G01X3165780Y1983979D02*
G01X3165780Y1904970D01*
G01X3265500Y1904970D02*
G01X3265500Y1983979D01*
G01X3181020Y1889730D02*
G01X3250260Y1889730D01*
G01X3165780Y2029221D02*
G01X3165780Y2108230D01*
G01X3181020Y2123470D02*
G01X3250260Y2123470D01*
G01X3165780Y1904970D02*
G03X3181020Y1889730I15240J0D01*
G01X3250260Y1889730D02*
G03X3265500Y1904970I0J15240D01*
G01X3165780Y2108230D02*
G02X3181020Y2123470I15240J0D01*
G01X3250260Y2123470D02*
G02X3265500Y2108230I0J-15240D01*
G01X6494541Y446100D02*
G01X6566345Y446100D01*
G01X6566345Y446100D02*
G01X6566345Y346380D01*
G01X6566345Y346380D02*
G01X6494541Y346380D01*
G01X6449299Y446100D02*
G01X6377496Y446100D01*
G01X6377496Y446100D02*
G01X6377496Y346380D01*
G01X6377496Y346380D02*
G01X6449299Y346380D01*
G01X6230859Y346380D02*
G01X6159056Y346380D01*
G01X6159056Y346380D02*
G01X6159056Y446100D01*
G01X6159056Y446100D02*
G01X6230859Y446100D01*
G01X6276101Y346380D02*
G01X6347905Y346380D01*
G01X6347905Y346380D02*
G01X6347905Y446100D01*
G01X6347905Y446100D02*
G01X6276101Y446100D01*
G01X5939460Y1826021D02*
G01X5939460Y1897825D01*
G01X5939460Y1897825D02*
G01X6039180Y1897825D01*
G01X6039180Y1897825D02*
G01X6039180Y1826021D01*
G01X5939460Y1780779D02*
G01X5939460Y1708976D01*
G01X5939460Y1708976D02*
G01X6039180Y1708976D01*
G01X6039180Y1708976D02*
G01X6039180Y1780779D01*
G01X6039180Y1130539D02*
G01X6039180Y1058736D01*
G01X6039180Y1058736D02*
G01X5939460Y1058736D01*
G01X5939460Y1058736D02*
G01X5939460Y1130539D01*
G01X6039180Y1175781D02*
G01X6039180Y1247585D01*
G01X6039180Y1247585D02*
G01X5939460Y1247585D01*
G01X5939460Y1247585D02*
G01X5939460Y1175781D01*
G54D12*
G01X5047920Y2676957D02*
G01X5047920Y2270963D01*
G01X5047920Y2676957D02*
G01X4847920Y2676957D01*
G01X5047920Y2270963D02*
G01X4847920Y2270963D01*
G01X4847920Y2676957D02*
G01X4847920Y2270963D01*
G54D16*
G01X5914842Y1984408D02*
G01X5913846Y1984408D01*
G01X5913846Y1984408D02*
G01X5880842Y2017413D01*
G01X5914842Y2052411D02*
G01X5914842Y2051413D01*
G01X5914842Y2051413D02*
G01X5880842Y2017413D01*
G01X5914842Y2052411D02*
G01X5914842Y1984408D01*
G01X5916846Y2092419D02*
G01X6031847Y2092419D01*
G01X5916846Y1942407D02*
G01X6031847Y1942407D01*
G01X6031847Y2092409D02*
G01X6031847Y1944416D01*
G01X5878845Y1942175D02*
G01X5773834Y1942175D01*
G01X5743839Y1982183D02*
G01X5743839Y1972180D01*
G01X5743839Y1972180D02*
G01X5773834Y1942175D01*
G01X5743839Y2052178D02*
G01X5743839Y1982183D01*
G01X5743839Y2052178D02*
G01X5743839Y2062193D01*
G01X5743839Y2062193D02*
G01X5773834Y2092188D01*
G01X5878845Y2092188D02*
G01X5773834Y2092188D01*
G01X5914842Y2017413D02*
G01X5880842Y2017413D01*
G54D12*
G01X3662680Y1184275D02*
G01X3662680Y1285875D01*
G01X3662680Y1285875D02*
G01X3459480Y1285875D01*
G01X3459480Y1285875D02*
G01X3459480Y1184275D01*
G01X3459480Y1184275D02*
G01X3662680Y1184275D01*
G01X3403646Y1095078D02*
G01X3437966Y1095078D01*
G01X3684194Y1095078D02*
G01X3718514Y1095078D01*
G01X3351083Y1233180D02*
G01X3351083Y1236970D01*
G01X3403646Y1375075D02*
G01X3718514Y1375075D01*
G01X3771077Y1236970D02*
G01X3771077Y1233180D01*
G01X3464560Y1838325D02*
G01X3464560Y1736725D01*
G01X3464560Y1736725D02*
G01X3667760Y1736725D01*
G01X3667760Y1736725D02*
G01X3667760Y1838325D01*
G01X3667760Y1838325D02*
G01X3464560Y1838325D01*
G01X3723594Y1927522D02*
G01X3689274Y1927522D01*
G01X3443046Y1927522D02*
G01X3408726Y1927522D01*
G01X3776157Y1789420D02*
G01X3776157Y1785630D01*
G01X3723594Y1647525D02*
G01X3408726Y1647525D01*
G01X3356163Y1785630D02*
G01X3356163Y1789420D01*
G01X5744080Y2839359D02*
G01X5744080Y2189358D01*
G01X5188082Y2751816D02*
G01X5744080Y2751816D01*
G01X5188082Y2839357D02*
G01X5744080Y2839357D01*
G01X5188082Y2632072D02*
G01X5744080Y2632072D01*
G01X5188082Y2189358D02*
G01X5744080Y2189358D01*
G01X5188080Y2839359D02*
G01X5188080Y2189358D01*
G54D10*
G01X4608500Y2397730D02*
G01X4608500Y2476739D01*
G01X4708220Y2521981D02*
G01X4708220Y2600990D01*
G01X4608500Y2600990D02*
G01X4608500Y2521981D01*
G01X4692980Y2616230D02*
G01X4623740Y2616230D01*
G01X4708220Y2476739D02*
G01X4708220Y2397730D01*
G01X4692980Y2382490D02*
G01X4623740Y2382490D01*
G01X4708220Y2600990D02*
G03X4692980Y2616230I-15240J0D01*
G01X4623740Y2616230D02*
G03X4608500Y2600990I0J-15240D01*
G01X4708220Y2397730D02*
G02X4692980Y2382490I-15240J0D01*
G01X4623740Y2382490D02*
G02X4608500Y2397730I0J15240D01*
G01X5140930Y1951660D02*
G01X5219939Y1951660D01*
G01X5219939Y2051380D02*
G01X5140930Y2051380D01*
G01X5125690Y2036140D02*
G01X5125690Y1966900D01*
G01X5344190Y1951660D02*
G01X5265181Y1951660D01*
G01X5265181Y2051380D02*
G01X5344190Y2051380D01*
G01X5359430Y2036140D02*
G01X5359430Y1966900D01*
G01X5140930Y2051380D02*
G03X5125690Y2036140I0J-15240D01*
G01X5125690Y1966900D02*
G03X5140930Y1951660I15240J0D01*
G01X5344190Y2051380D02*
G02X5359430Y2036140I0J-15240D01*
G01X5359430Y1966900D02*
G02X5344190Y1951660I-15240J0D01*
G01X5709890Y1707820D02*
G01X5788899Y1707820D01*
G01X5788899Y1807540D02*
G01X5709890Y1807540D01*
G01X5694650Y1792300D02*
G01X5694650Y1723060D01*
G01X5913150Y1707820D02*
G01X5834141Y1707820D01*
G01X5834141Y1807540D02*
G01X5913150Y1807540D01*
G01X5928390Y1792300D02*
G01X5928390Y1723060D01*
G01X5709890Y1807540D02*
G03X5694650Y1792300I0J-15240D01*
G01X5694650Y1723060D02*
G03X5709890Y1707820I15240J0D01*
G01X5913150Y1807540D02*
G02X5928390Y1792300I0J-15240D01*
G01X5928390Y1723060D02*
G02X5913150Y1707820I-15240J0D01*
G01X5445730Y1951660D02*
G01X5524739Y1951660D01*
G01X5524739Y2051380D02*
G01X5445730Y2051380D01*
G01X5430490Y2036140D02*
G01X5430490Y1966900D01*
G01X5648990Y1951660D02*
G01X5569981Y1951660D01*
G01X5569981Y2051380D02*
G01X5648990Y2051380D01*
G01X5664230Y2036140D02*
G01X5664230Y1966900D01*
G01X5445730Y2051380D02*
G03X5430490Y2036140I0J-15240D01*
G01X5430490Y1966900D02*
G03X5445730Y1951660I15240J0D01*
G01X5648990Y2051380D02*
G02X5664230Y2036140I0J-15240D01*
G01X5664230Y1966900D02*
G02X5648990Y1951660I-15240J0D01*
G01X2839750Y2098980D02*
G01X2760741Y2098980D01*
G01X2715499Y2198700D02*
G01X2636490Y2198700D01*
G01X2636490Y2098980D02*
G01X2715499Y2098980D01*
G01X2621250Y2183460D02*
G01X2621250Y2114220D01*
G01X2760741Y2198700D02*
G01X2839750Y2198700D01*
G01X2854990Y2183460D02*
G01X2854990Y2114220D01*
G01X2636490Y2198700D02*
G03X2621250Y2183460I0J-15240D01*
G01X2621250Y2114220D02*
G03X2636490Y2098980I15240J0D01*
G01X2839750Y2198700D02*
G02X2854990Y2183460I0J-15240D01*
G01X2854990Y2114220D02*
G02X2839750Y2098980I-15240J0D01*
G01X4816170Y1369030D02*
G01X4816170Y1448039D01*
G01X4716450Y1448039D02*
G01X4716450Y1369030D01*
G01X4731690Y1353790D02*
G01X4800930Y1353790D01*
G01X4816170Y1572290D02*
G01X4816170Y1493281D01*
G01X4716450Y1493281D02*
G01X4716450Y1572290D01*
G01X4731690Y1587530D02*
G01X4800930Y1587530D01*
G01X4716450Y1369030D02*
G03X4731690Y1353790I15240J0D01*
G01X4800930Y1353790D02*
G03X4816170Y1369030I0J15240D01*
G01X4716450Y1572290D02*
G02X4731690Y1587530I15240J0D01*
G01X4800930Y1587530D02*
G02X4816170Y1572290I0J-15240D01*
G01X4632930Y1736420D02*
G01X4711939Y1736420D01*
G01X4757181Y1636700D02*
G01X4836190Y1636700D01*
G01X4836190Y1736420D02*
G01X4757181Y1736420D01*
G01X4851430Y1651940D02*
G01X4851430Y1721180D01*
G01X4711939Y1636700D02*
G01X4632930Y1636700D01*
G01X4617690Y1651940D02*
G01X4617690Y1721180D01*
G01X4836190Y1636700D02*
G03X4851430Y1651940I0J15240D01*
G01X4851430Y1721180D02*
G03X4836190Y1736420I-15240J0D01*
G01X4632930Y1636700D02*
G02X4617690Y1651940I0J15240D01*
G01X4617690Y1721180D02*
G02X4632930Y1736420I15240J0D01*
G01X7833330Y2561260D02*
G01X7912339Y2561260D01*
G01X7912339Y2660980D02*
G01X7833330Y2660980D01*
G01X7818090Y2645740D02*
G01X7818090Y2576500D01*
G01X8036590Y2561260D02*
G01X7957581Y2561260D01*
G01X7957581Y2660980D02*
G01X8036590Y2660980D01*
G01X8051830Y2645740D02*
G01X8051830Y2576500D01*
G01X7833330Y2660980D02*
G03X7818090Y2645740I0J-15240D01*
G01X7818090Y2576500D02*
G03X7833330Y2561260I15240J0D01*
G01X8036590Y2660980D02*
G02X8051830Y2645740I0J-15240D01*
G01X8051830Y2576500D02*
G02X8036590Y2561260I-15240J0D01*
G01X7487890Y2660980D02*
G01X7566899Y2660980D01*
G01X7612141Y2561260D02*
G01X7691150Y2561260D01*
G01X7691150Y2660980D02*
G01X7612141Y2660980D01*
G01X7706390Y2576500D02*
G01X7706390Y2645740D01*
G01X7566899Y2561260D02*
G01X7487890Y2561260D01*
G01X7472650Y2576500D02*
G01X7472650Y2645740D01*
G01X7691150Y2561260D02*
G03X7706390Y2576500I0J15240D01*
G01X7706390Y2645740D02*
G03X7691150Y2660980I-15240J0D01*
G01X7487890Y2561260D02*
G02X7472650Y2576500I0J15240D01*
G01X7472650Y2645740D02*
G02X7487890Y2660980I15240J0D01*
G54D16*
G01X5914842Y912528D02*
G01X5913846Y912528D01*
G01X5913846Y912528D02*
G01X5880842Y945533D01*
G01X5914842Y980531D02*
G01X5914842Y979533D01*
G01X5914842Y979533D02*
G01X5880842Y945533D01*
G01X5914842Y980531D02*
G01X5914842Y912528D01*
G01X5916846Y1020539D02*
G01X6031847Y1020539D01*
G01X5916846Y870527D02*
G01X6031847Y870527D01*
G01X6031847Y1020529D02*
G01X6031847Y872536D01*
G01X5878845Y870295D02*
G01X5773834Y870295D01*
G01X5743839Y910303D02*
G01X5743839Y900300D01*
G01X5743839Y900300D02*
G01X5773834Y870295D01*
G01X5743839Y980298D02*
G01X5743839Y910303D01*
G01X5743839Y980298D02*
G01X5743839Y990313D01*
G01X5743839Y990313D02*
G01X5773834Y1020308D01*
G01X5878845Y1020308D02*
G01X5773834Y1020308D01*
G01X5914842Y945533D02*
G01X5880842Y945533D01*
G54D10*
G01X2716860Y989360D02*
G01X2716860Y910351D01*
G01X2617140Y865109D02*
G01X2617140Y786100D01*
G01X2716860Y786100D02*
G01X2716860Y865109D01*
G01X2632380Y770860D02*
G01X2701620Y770860D01*
G01X2617140Y910351D02*
G01X2617140Y989360D01*
G01X2632380Y1004600D02*
G01X2701620Y1004600D01*
G01X2617140Y786100D02*
G03X2632380Y770860I15240J0D01*
G01X2701620Y770860D02*
G03X2716860Y786100I0J15240D01*
G01X2617140Y989360D02*
G02X2632380Y1004600I15240J0D01*
G01X2701620Y1004600D02*
G02X2716860Y989360I0J-15240D01*
G04 PolygonModel End*

G04 Circle Start*
G54D16*
G01X4572711Y1333373D02*
G03X4587697Y1333373I7493J0D01*
G03X4572711I-7493J0D01*
G04 Circle End*

M02*
